<svg version="1.1" id="Layer_1" xmlns="http://www.w3.org/2000/svg" xmlns:xlink="http://www.w3.org/1999/xlink" x="0px" y="0px" viewBox="0 0 170.5 143.6" style="enable-background:new 0 0 170.5 143.6;" xml:space="preserve" width="100%" height="100%" preserveAspectRatio="none"><style type="text/css"> .st0{fill:none;stroke:#000000;stroke-width:1.5;stroke-linecap:round;stroke-linejoin:round;stroke-miterlimit:10;} </style><g><rect x="80.4" y="12.8" class="st0" width="9.6" height="80.4"/><rect x="80.4" y="34.4" class="st0" width="9.6" height="3.5"/><g><path class="st0" d="M85.2,67.1c-2.7,5.1-4.1,11.7-4.1,18.5v3.9h4.1h4.1v-3.9C89.3,78.8,87.9,72.3,85.2,67.1z"/><polygon class="st0" points="89.3,89.6 81.1,89.6 79.9,93.2 90.5,93.2 "/></g><path class="st0" d="M80.4,67.1C78,72.3,76.6,79,76.6,85.9v4h3.8V67.1z"/><path class="st0" d="M90,67.1c2.4,5.2,3.8,11.9,3.8,18.8v4H90V67.1z"/><path class="st0" d="M85.3,0.8L85.3,0.8c-2.6,0-4.7,3.6-4.7,6.2v2.8c0,1.6,1.3,3,3,3h1.7H87c1.6,0,3-1.3,3-3V7 C90,4.4,87.9,0.8,85.3,0.8z"/><path class="st0" d="M87.6,12c0-1.2-1-2.2-2.2-2.2h0c-1.2,0-2.2,1-2.2,2.2"/><line class="st0" x1="81.9" y1="4" x2="89.2" y2="4"/><line class="st0" x1="90" y1="23.8" x2="80.4" y2="23.8"/><line class="st0" x1="90" y1="15.6" x2="80.4" y2="15.6"/><line class="st0" x1="85.2" y1="67.1" x2="85.2" y2="58.4"/><line class="st0" x1="85.2" y1="104.7" x2="85.2" y2="93.9"/><line class="st0" x1="88.6" y1="99.7" x2="88.6" y2="93.9"/><line class="st0" x1="81.9" y1="99.7" x2="81.9" y2="93.9"/><path class="st0" d="M136.1,98.8c-10.4,0-19,7.4-20.9,17.3c1.8-0.4,3.8-0.6,5.7-0.6c13.4,0,24.5,9.5,27.1,22.1 c5.6-3.8,9.2-10.2,9.2-17.5C157.3,108.3,147.8,98.8,136.1,98.8z"/><path class="st0" d="M34.6,98.8c10.4,0,19,7.4,20.9,17.3c-1.8-0.4-3.8-0.6-5.7-0.6c-13.4,0-24.5,9.5-27.1,22.1 c-5.6-3.8-9.2-10.2-9.2-17.5C13.3,108.3,22.8,98.8,34.6,98.8z"/><g><line class="st0" x1="114.5" y1="116.2" x2="93.1" y2="142.4"/></g><g><line class="st0" x1="122.7" y1="115.8" x2="101" y2="142.4"/></g><g><line class="st0" x1="129.6" y1="117" x2="108.8" y2="142.4"/></g><g><line class="st0" x1="135.2" y1="119.7" x2="116.6" y2="142.4"/></g><g><line class="st0" x1="140.2" y1="123.2" x2="124.5" y2="142.4"/></g><g><line class="st0" x1="143.9" y1="128.3" x2="132.3" y2="142.4"/></g><g><path class="st0" d="M154.6,131.6c6.1,0,11.1,4.9,11.2,11.1"/><g><line class="st0" x1="159.1" y1="132.6" x2="151.5" y2="141.9"/></g><g><line class="st0" x1="163.6" y1="136.7" x2="159.1" y2="142.3"/></g></g><path class="st0" d="M16,131.6c-6.1,0-11.1,4.9-11.2,11.1"/><g><line class="st0" x1="146.9" y1="134.2" x2="140.2" y2="142.4"/></g><path class="st0" d="M148.7,142.8c-0.2-15.2-12.5-27.4-27.7-27.4c-15.2,0-27.5,12.2-27.7,27.4"/><g><g><line class="st0" x1="43.4" y1="116.2" x2="22" y2="142.4"/></g><g><line class="st0" x1="51.6" y1="115.8" x2="29.8" y2="142.4"/></g><g><line class="st0" x1="58.5" y1="117" x2="37.7" y2="142.4"/></g><g><line class="st0" x1="64.1" y1="119.7" x2="45.5" y2="142.4"/></g><g><line class="st0" x1="69.1" y1="123.2" x2="53.4" y2="142.4"/></g><g><line class="st0" x1="72.8" y1="128.3" x2="61.2" y2="142.4"/></g><g><line class="st0" x1="16.1" y1="131.9" x2="7.4" y2="142.4"/></g><g><line class="st0" x1="20.3" y1="136.2" x2="15.3" y2="142.4"/></g><g><line class="st0" x1="75.8" y1="134.2" x2="69.1" y2="142.4"/></g><path class="st0" d="M77.5,142.8c-0.2-15.2-12.5-27.4-27.7-27.4c-15.2,0-27.5,12.2-27.7,27.4"/></g><path class="st0" d="M79.9,93.2c-3.3,0.1-5.9,2.3-6.5,5.9c-0.8,5.2-2.4,8.5-8.1,9.2c-4.6,0.5-8.8,1.9-9.9,7.8"/><path class="st0" d="M90.5,93.2c3.3,0.1,5.9,2.3,6.5,5.9c0.8,5.2,2.4,8.5,8.1,9.2c4.6,0.5,8.8,1.9,9.9,7.8"/><path class="st0" d="M71.1,125.8c3.1-4.5,8.3-7.5,14.2-7.5c5.7,0,10.8,2.8,13.9,7.1"/><g><line class="st0" x1="118.7" y1="44" x2="115.4" y2="47.3"/><line class="st0" x1="115.4" y1="44" x2="118.7" y2="47.3"/></g><g><line class="st0" x1="130.3" y1="30.2" x2="126.9" y2="33.5"/><line class="st0" x1="126.9" y1="30.2" x2="130.3" y2="33.5"/></g><g><line class="st0" x1="107.1" y1="30.2" x2="103.8" y2="33.5"/><line class="st0" x1="103.8" y1="30.2" x2="107.1" y2="33.5"/></g><g><line class="st0" x1="51.8" y1="33.5" x2="55.1" y2="30.2"/><line class="st0" x1="55.1" y1="33.5" x2="51.8" y2="30.2"/></g><g><line class="st0" x1="40.2" y1="47.3" x2="43.6" y2="44"/><line class="st0" x1="43.6" y1="47.3" x2="40.2" y2="44"/></g><g><line class="st0" x1="63.4" y1="47.3" x2="66.7" y2="44"/><line class="st0" x1="66.7" y1="47.3" x2="63.4" y2="44"/></g><g><g><line class="st0" x1="12.4" y1="44" x2="20.7" y2="44"/><line class="st0" x1="12.4" y1="48.6" x2="20.7" y2="48.6"/></g><line class="st0" x1="16.5" y1="6.9" x2="16.5" y2="64.6"/><polygon class="st0" points="16.5,9.1 16.5,23 27.3,23 24.2,16 27.3,9.1 "/></g><g><line class="st0" x1="160.5" y1="113.3" x2="156.7" y2="113.3"/><line class="st0" x1="164.4" y1="109" x2="154.4" y2="109"/><line class="st0" x1="169.8" y1="104.6" x2="150.8" y2="104.6"/></g><g><line class="st0" x1="10" y1="113.3" x2="13.8" y2="113.3"/><line class="st0" x1="6.1" y1="109" x2="16.1" y2="109"/><line class="st0" x1="0.8" y1="104.6" x2="19.7" y2="104.6"/></g><g><circle class="st0" cx="153.9" cy="16.1" r="8.6"/><path class="st0" d="M148.9,16.1c0-2.8,2.3-5,5-5"/><g><line class="st0" x1="162.6" y1="16.1" x2="162.6" y2="58.6"/><line class="st0" x1="145.3" y1="16.1" x2="145.3" y2="58.6"/></g><line class="st0" x1="156.5" y1="16.1" x2="156.5" y2="66.2"/></g></g></svg>