<svg version="1.1" id="Layer_1" xmlns="http://www.w3.org/2000/svg" xmlns:xlink="http://www.w3.org/1999/xlink" x="0px" y="0px" viewBox="0 0 67.5 67.5" style="enable-background:new 0 0 67.5 67.5;" xml:space="preserve" width="100%" height="100%" preserveAspectRatio="none"><style type="text/css"> .st0{fill:#FFFFFF;} </style><g id="Idena_16_"><image style="overflow:visible;opacity:0.15;" width="86" height="86" xlink:href="1037D6EC99CAB499.png" transform="matrix(1 0 0 1 -7.1509 -7.447)"/><g><g><g id="_x30_1_x5F_Authorization_x2F_02a_x5F_private_x5F_key-Copy_9_" transform="translate(-143.000000, -79.000000)"><g id="Group_9_" transform="translate(144.000000, 80.000000)"><g id="logo_idena_circle_9_" transform="translate(-0.000000, -0.000000)"><path id="Fill-1_12_" class="st0" d="M32.7,66.5C14.1,66.5-1,51.4-1,32.8C-1,14.2,14.1-1,32.7-1s33.7,15.2,33.7,33.8 C66.5,51.4,51.3,66.5,32.7,66.5"/><path id="Fill-4_12_" d="M32.7,47.6c-3.1,0-4.8-1.7-5.6-2.7c1.2-0.6,3.1-1.4,3.7-1.7c0.2-0.1,0.5,0,0.8,0.2 c0.3,0.2,0.7,0.3,1,0.3c0,0,0.1,0,0.1,0c0.3,0,0.7-0.1,1-0.3c0.3-0.2,0.6-0.3,0.8-0.2c0.7,0.3,2.5,1.1,3.7,1.7 C37.6,45.9,35.8,47.6,32.7,47.6 M40,43.9c-1.2-0.7-4.1-2-4.7-2.3l0,0c-0.7-0.3-1.5-0.2-2.3,0.3c0,0-0.1,0-0.2,0 c-0.1,0-0.2,0-0.2,0c-0.8-0.5-1.6-0.6-2.3-0.3c-0.7,0.3-3.5,1.5-4.7,2.3c-0.4,0.2-0.5,0.7-0.3,1.1c0.1,0.2,2.2,4.4,7.6,4.4 c5.3,0,7.5-4.2,7.6-4.4C40.5,44.6,40.4,44.1,40,43.9"/><path id="Fill-6_12_" d="M44.6,27h-5.3c0.1-1.6,1.5-2.9,3.2-2.9h5.3C47.6,25.7,46.3,27,44.6,27 M48.6,22.4h-6.2 c-2.7,0-4.9,2.2-4.9,4.9v0.6c0,0.5,0.4,0.9,0.9,0.9h6.2c2.7,0,4.9-2.2,4.9-4.9v-0.6C49.5,22.8,49.1,22.4,48.6,22.4"/><path id="Fill-8_12_" d="M20.9,27c-1.7,0-3-1.3-3.2-2.9H23c1.7,0,3,1.3,3.2,2.9H20.9z M27.9,27.9v-0.6c0-2.7-2.2-4.9-4.9-4.9 h-6.2c-0.5,0-0.9,0.4-0.9,0.9v0.6c0,2.7,2.2,4.9,4.9,4.9h6.2C27.6,28.7,27.9,28.3,27.9,27.9L27.9,27.9z"/><path id="Fill-10_12_" d="M35.2,50.6h-5.5c-0.5,0-0.9,0.4-0.9,0.9c0,0.5,0.4,0.9,0.9,0.9h5.5c0.5,0,0.9-0.4,0.9-0.9 C36.1,51,35.7,50.6,35.2,50.6"/><path id="Fill-12_12_" d="M30,45.2c0,0.5,0.4,0.9,0.9,0.9h3.8c0.5,0,0.9-0.4,0.9-0.9c0-0.5-0.4-0.9-0.9-0.9h-3.8 C30.4,44.3,30,44.7,30,45.2"/><path id="Fill-14_12_" d="M61.5,31.2C61.5,31.2,61.5,31.2,61.5,31.2l-3.9-4.5c-0.9-1-0.9-2.8,0-3.8l0.4-0.5l4.8,5.5 c0.2,1.5,0.4,3.1,0.4,4.8c0,0.1,0,0.3,0,0.4L61.5,31.2z M62.4,39.6l-0.9-1.1c0,0,0,0,0,0l-3.9-4.5c-0.9-1-0.9-2.8,0-3.8 l0.4-0.5l5,5.8C62.9,37,62.7,38.3,62.4,39.6L62.4,39.6z M60.6,45l-2-2.3v0l-1-1.2c-0.9-1-0.9-2.8,0-3.8l0.4-0.5l3.8,4.4 C61.5,42.8,61.1,43.9,60.6,45L60.6,45z M58.2,49.4c-0.9-1.4-0.9-3.4-0.2-4.8l1.8,2.1C59.3,47.6,58.8,48.6,58.2,49.4L58.2,49.4 z M53.1,55.4V33.2v-6.4v-0.1V10.2c1.3,1.2,2.5,2.4,3.6,3.8l-0.4,0.4c-1.5,1.7-1.5,4.4,0,6.1l0.6,0.6l-0.6,0.6 c-1.5,1.7-1.5,4.4,0,6.1l0.6,0.6l-0.6,0.6c-1.5,1.7-1.5,4.4,0,6.1l0.6,0.6l-0.6,0.6c-1.5,1.7-1.5,4.4,0,6.1l0.5,0.6 c-1.5,2.2-1.5,5.3,0.1,7.5c0.1,0.1,0.1,0.1,0.2,0.2C56,52.5,54.6,54,53.1,55.4L53.1,55.4z M51.4,11.3c0,0.3,0,0.6-0.1,0.9 C46.2,7.6,39.7,5,32.7,5c-7,0-13.5,2.5-18.6,7.2c0-0.3-0.1-0.6-0.1-0.9V8.7c5.2-4,11.6-6.4,18.7-6.4c7,0,13.5,2.4,18.7,6.4 V11.3z M24.4,8.1c2.7-0.9,5.5-1.4,8.4-1.4c2.9,0,5.8,0.5,8.4,1.4c-2.5,2.2-5.4,3.5-8.4,3.5C29.8,11.6,26.8,10.4,24.4,8.1 L24.4,8.1z M51.4,26.8L51.4,26.8c0,3.9-2.1,7.6-5.7,10.2c-0.4,0.3-0.5,0.8-0.2,1.2c0.2,0.2,0.4,0.4,0.7,0.4 c0.2,0,0.4-0.1,0.5-0.2c2-1.5,3.6-3.2,4.7-5.2v0c0,5.7-2.2,11.2-6.1,15.4l-6.3,6.7C37.4,57,35.1,58,32.7,58 c-2.4,0-4.7-1-6.3-2.7l-6.3-6.7c-3.9-4.2-6.1-9.6-6.1-15.4v0c1.1,1.9,2.7,3.7,4.7,5.2c0.2,0.1,0.3,0.2,0.5,0.2 c0.3,0,0.5-0.1,0.7-0.4c0.3-0.4,0.2-0.9-0.2-1.2c-3.6-2.7-5.7-6.3-5.7-10.1v-0.1V16.7c1.7,2.3,4.4,3.9,7.5,3.9h1.2 c3.8,0,7,3.1,7,7v8.3c0,0.5,0.4,0.9,0.9,0.9c0.5,0,0.9-0.4,0.9-0.9v-8.3c0-4.8-3.9-8.7-8.7-8.7h-1.2c-3.1,0-5.9-2-7-4.7 c2.3-2.3,5-4.1,8-5.3c2.9,2.9,6.5,4.5,10.2,4.5c3.7,0,7.3-1.6,10.2-4.5c2.9,1.2,5.6,3,7.9,5.3c-1.1,2.8-3.8,4.7-7,4.7h-1.2 c-4.8,0-8.7,3.9-8.7,8.7v8.3c0,0.5,0.4,0.9,0.9,0.9c0.5,0,0.9-0.4,0.9-0.9v-8.3c0-3.8,3.1-7,7-7h1.2c3.1,0,5.8-1.5,7.5-3.9 V26.8z M51.4,56.8c-0.5,0.4-0.9,0.7-1.4,1V45.3c0,0,0-0.1,0-0.1c0.5-1,1-1.9,1.4-3V56.8z M48.3,58.9c-0.5,0.3-1,0.6-1.6,0.9 V49.6c0.6-0.6,1.1-1.2,1.6-1.9V58.9z M45,60.6c-0.5,0.2-1,0.4-1.6,0.6v-8.2l1.6-1.7V60.6z M41.7,61.9c-2.8,0.9-5.8,1.3-9,1.3 c-3.1,0-6.1-0.5-8.9-1.3V55l1.4,1.5c2,2.1,4.7,3.3,7.6,3.3c2.9,0,5.6-1.2,7.6-3.3l1.4-1.5V61.9z M22.1,61.3 c-0.5-0.2-1-0.4-1.6-0.6v-9.2l1.6,1.7V61.3z M18.8,59.8c-0.5-0.3-1-0.6-1.6-0.9V47.8c0.5,0.6,1,1.3,1.6,1.9V59.8z M15.5,45.3 v12.6c-0.5-0.3-1-0.7-1.4-1.1V42.2C14.5,43.2,15,44.2,15.5,45.3C15.5,45.2,15.5,45.3,15.5,45.3L15.5,45.3z M12.4,26.8 L12.4,26.8v6.4v22.1c-1.5-1.3-2.9-2.8-4.1-4.5c0.1-0.1,0.2-0.1,0.2-0.2c1.6-2.2,1.6-5.3,0.1-7.5l0.5-0.6 c1.5-1.7,1.5-4.4,0-6.1l-0.6-0.6l0.6-0.6c1.5-1.7,1.5-4.4,0-6.1l-0.6-0.6l0.6-0.6c1.5-1.7,1.5-4.4,0-6.1l-0.6-0.6l0.6-0.6 c1.5-1.7,1.5-4.4,0-6.1L8.8,14c1.1-1.4,2.3-2.7,3.6-3.8V26.8z M7.3,49.4c-0.6-0.9-1.1-1.8-1.6-2.8l1-1.1l0.8-1 C8.2,46.1,8.2,48,7.3,49.4L7.3,49.4z M3.6,41.7l3.8-4.4l0.4,0.5c0.9,1,0.9,2.8,0,3.8l-1,1.2v0l-2,2.3 C4.4,43.9,4,42.8,3.6,41.7L3.6,41.7z M2.5,35.7l5-5.8l0.4,0.5c0.9,1,0.9,2.8,0,3.8l-1,1.2c0,0,0,0,0,0l-1.5,1.8L4,38.6 c0,0,0,0,0,0l-0.9,1.1C2.8,38.3,2.6,37,2.5,35.7L2.5,35.7z M2.3,32.8c0-1.6,0.1-3.2,0.4-4.8l4.8-5.5l0.4,0.5 c0.9,1,0.9,2.8,0,3.8l-1,1.2c0,0,0,0,0,0l-4.5,5.2C2.3,33,2.3,32.9,2.3,32.8L2.3,32.8z M7.8,15.4l0.1,0.1c0.9,1,0.9,2.8,0,3.8 l-3,3.4l-1.5,1.7C4.4,21.2,5.9,18.2,7.8,15.4L7.8,15.4z M57.6,15.6l0.1-0.1c1.9,2.7,3.4,5.8,4.3,9.1l-0.5-0.6c0,0,0,0,0,0 l-3.9-4.5C56.7,18.4,56.7,16.6,57.6,15.6L57.6,15.6z M32.7,0.7c-17.7,0-32,14.4-32,32s14.4,32,32,32c17.7,0,32-14.4,32-32 S50.4,0.7,32.7,0.7L32.7,0.7z"/></g></g></g></g></g></g></svg>