<svg version="1.1" id="Layer_1" xmlns="http://www.w3.org/2000/svg" xmlns:xlink="http://www.w3.org/1999/xlink" x="0px" y="0px" viewBox="0 0 145.9 164.4" style="enable-background:new 0 0 145.9 164.4;" xml:space="preserve" width="100%" height="100%" preserveAspectRatio="none"><style type="text/css"> .st0{fill:none;stroke:#000000;stroke-width:1.5;stroke-linecap:round;stroke-linejoin:round;stroke-miterlimit:10;} </style><g><g><g><line class="st0" x1="135.1" y1="43.8" x2="136.5" y2="51.8"/></g><g><line class="st0" x1="132.3" y1="48.2" x2="133.5" y2="54.9"/></g><g><line class="st0" x1="129.3" y1="50.7" x2="130.4" y2="57"/></g><g><line class="st0" x1="126.2" y1="53.2" x2="127.2" y2="59.1"/></g><g><line class="st0" x1="123.1" y1="55.5" x2="124" y2="60.6"/></g><g><line class="st0" x1="119.9" y1="57" x2="120.6" y2="61.5"/></g><g><line class="st0" x1="116.5" y1="57.8" x2="117.3" y2="62.1"/></g><g><line class="st0" x1="113.2" y1="59" x2="113.8" y2="62.7"/></g><g><line class="st0" x1="109.7" y1="59" x2="110.3" y2="62.5"/></g><g><line class="st0" x1="106.3" y1="59.3" x2="106.8" y2="62.4"/></g><g><line class="st0" x1="102.7" y1="59" x2="103.1" y2="61.4"/></g><path class="st0" d="M133.1,10.5c6.3,10.7,5.5,24.8-3.1,34.7c-10.8,12.5-29.7,13.8-42.1,3c-11.1-9.6-13.4-25.7-6.1-37.9"/><path class="st0" d="M129,0.8c13.8,11.9,15.3,32.8,3.3,46.6c-11.9,13.8-32.8,15.3-46.6,3.3c-11.8-10.2-14.6-27-7.7-40.2"/><g><path class="st0" d="M94.6,52.3L94,46.5l1.5,0c1.7-0.1,3.3,1.3,3.5,3l0.5,4.9"/><path class="st0" d="M89.6,49.2L88.8,42l1.5,0c1.7-0.1,3.3,1.3,3.5,3l0.6,5.6"/><path class="st0" d="M84.4,44.1l-0.8-6.6l1.5,0c1.7-0.1,3.3,1.3,3.5,3l0.6,5.6"/><path class="st0" d="M78.5,33.1l1.5,0c1.7-0.1,3.3,1.3,3.5,3l0.6,5.6"/><path class="st0" d="M99.5,54.4l-0.4-3.5l0.1,0c2.4-0.1,4.6,1.7,5,4"/></g><g><path class="st0" d="M131.6,9.3L126,9.5l0.2,1.5c0.2,1.7,1.7,3.1,3.5,3l4.8-0.2"/><path class="st0" d="M134.5,13.8l-3.4,0.1l0,0.1c0.3,2.4,2.3,4.3,4.7,4.4"/></g><g><line class="st0" x1="111.9" y1="55.2" x2="77.6" y2="25.5"/><polyline class="st0" points="119,39.8 120.8,37.7 122.6,35.6 "/><polyline class="st0" points="115.1,34.9 117,32.6 117.5,32 "/><path class="st0" d="M115.6,30c-0.6,0.3-0.8,1-0.8,1.3c0,0.2-0.2,0.5-0.3,0.6c-0.1,0.1-0.3,0.3-0.5,0.4c-0.3,0.1-1,0.4-1.2,1 c-0.2,0.6-1.1,3.6-1.3,4.9c0,0,4.2,1.1,7.3-2.6s1.5-7.6,1.5-7.6C119,28.4,116.2,29.7,115.6,30z"/><path class="st0" d="M77.6,25.5l17,14.8c4.4,3.8,10.2,5.9,16.1,5.6l9-0.4c2.6-0.1,5-1.3,6.8-3.3l0,0c1.7-2,2.5-4.6,2.3-7.1 l-0.9-9c-0.6-5.8-3.4-11.2-7.8-15.1l-5.3-4.6"/><path class="st0" d="M78.3,26.1L78.3,26.1c3.5,3,8.7,2.6,11.7-0.8l0.8-0.9c2.8-3.2,7.7-3.6,10.9-0.8l6.2,5.4"/><path class="st0" d="M110.7,25.8l-6.2-5.4c-3.2-2.8-3.6-7.7-0.8-10.9l0.8-0.9"/><path class="st0" d="M115.2,6.9L115.2,6.9c3.1,2.7,4.6,6.9,4.2,11.6"/><path class="st0" d="M89.9,36.1L89.9,36.1c3.1,2.7,7.5,3.6,12.1,2.5"/><path class="st0" d="M111.1,13.2L107,18l-0.6-0.5c-1.6-1.4-1.8-3.8-0.4-5.4l4.2-4.8l0.6,0.5C112.4,9.2,112.5,11.6,111.1,13.2z"/><path class="st0" d="M95.5,31.2l4.2-4.8l-0.6-0.5c-1.6-1.4-4-1.2-5.4,0.4l-4.2,4.8l0.6,0.5C91.7,33,94.1,32.8,95.5,31.2z"/><path class="st0" d="M82.1,16.6c3.9-0.2,7.4-1.8,9.7-4.4c0.8-0.9,1.5-2,2-3.2"/><g><line class="st0" x1="128.4" y1="31.1" x2="134.9" y2="36.7"/><line class="st0" x1="128" y1="26.4" x2="136.1" y2="33.4"/><line class="st0" x1="136.9" y1="29.8" x2="127" y2="21.2"/></g><g><line class="st0" x1="115.7" y1="45.8" x2="122.2" y2="51.4"/><line class="st0" x1="111" y1="46" x2="119.1" y2="53"/><line class="st0" x1="115.7" y1="54.4" x2="105.7" y2="45.8"/></g><path class="st0" d="M80.9,27.7c-0.7-7,1.3-14.4,6.3-20.1"/><line class="st0" x1="117.9" y1="9.2" x2="137.2" y2="25.9"/></g><path class="st0" d="M132.4,47.4c-11.3,13-30.4,15.1-44.1,5.3c0.7,0.7,1.5,1.5,2.3,2.2c13.8,11.9,34.7,10.5,46.6-3.3 c11.9-13.8,10.5-34.7-3.3-46.6c-0.8-0.7-1.6-1.3-2.5-1.9C142.9,15.1,143.6,34.4,132.4,47.4z"/></g><g><g><line class="st0" x1="7.8" y1="22.8" x2="4.5" y2="20.5"/></g><g><line class="st0" x1="8.3" y1="18.1" x2="5.4" y2="16.1"/></g><g><line class="st0" x1="9.3" y1="13.9" x2="7.1" y2="12.4"/></g><g><line class="st0" x1="11.3" y1="10.3" x2="9.5" y2="9"/></g><circle class="st0" cx="27.6" cy="21.8" r="15.1"/><circle class="st0" cx="27.6" cy="21.8" r="11.9"/><circle class="st0" cx="27.6" cy="21.8" r="19.5"/><path class="st0" d="M8.1,23.2C7.4,13,14.6,4.2,24.4,2.5c-0.6,0-1.2,0-1.9,0C11.8,3.3,3.7,12.7,4.4,23.4s10.1,18.9,20.9,18.1 c0.6,0,1.2-0.1,1.8-0.2C17.2,41.1,8.9,33.3,8.1,23.2z"/></g><g><g><line class="st0" x1="61.5" y1="144.6" x2="62.9" y2="152.6"/></g><g><line class="st0" x1="58.7" y1="149" x2="59.9" y2="155.7"/></g><g><line class="st0" x1="55.7" y1="151.5" x2="56.8" y2="157.8"/></g><g><line class="st0" x1="52.6" y1="154" x2="53.6" y2="159.9"/></g><g><line class="st0" x1="49.5" y1="156.2" x2="50.4" y2="161.4"/></g><g><line class="st0" x1="46.3" y1="157.8" x2="47" y2="162.3"/></g><g><line class="st0" x1="42.9" y1="158.6" x2="43.6" y2="162.9"/></g><g><line class="st0" x1="39.6" y1="159.8" x2="40.2" y2="163.4"/></g><g><line class="st0" x1="36.1" y1="159.8" x2="36.7" y2="163.3"/></g><g><line class="st0" x1="32.7" y1="160.1" x2="33.2" y2="163.2"/></g><g><line class="st0" x1="29.1" y1="159.8" x2="29.5" y2="162.1"/></g><path class="st0" d="M63.6,126.8c-0.1,6.8-2.5,13.7-7.3,19.3c-10.8,12.5-29.7,13.8-42.1,3c-12.5-10.8-13.8-29.7-3-42.1 c4.2-4.9,9.7-8.1,15.5-9.5"/><path class="st0" d="M66.8,126.7c0,7.6-2.7,15.3-8.1,21.5c-11.9,13.8-32.8,15.3-46.6,3.3c-13.8-11.9-15.3-32.8-3.3-46.6 c4.6-5.3,10.6-8.8,17-10.4"/><g><path class="st0" d="M21,153.1l-0.7-5.8l1.5,0c1.7-0.1,3.3,1.3,3.5,3l0.5,4.9"/><path class="st0" d="M16,150l-0.8-7.2l1.5,0c1.7-0.1,3.3,1.3,3.5,3l0.6,5.6"/><path class="st0" d="M10.8,144.9l-0.8-6.6l1.5,0c1.7-0.1,3.3,1.3,3.5,3l0.6,5.6"/><path class="st0" d="M4.9,133.8l1.5,0c1.7-0.1,3.3,1.3,3.5,3l0.6,5.6"/><path class="st0" d="M25.9,155.2l-0.4-3.5l0.1,0c2.4-0.1,4.6,1.7,5,4"/></g><g><line class="st0" x1="38.3" y1="156" x2="4" y2="126.3"/><polyline class="st0" points="45.4,140.5 47.2,138.5 49,136.4 "/><polyline class="st0" points="41.4,135.6 43.4,133.4 43.9,132.8 "/><path class="st0" d="M42,130.8c-0.6,0.3-0.8,1-0.8,1.3c0,0.2-0.2,0.5-0.3,0.6c-0.1,0.1-0.3,0.3-0.5,0.4c-0.3,0.1-1,0.4-1.2,1 s-1.1,3.6-1.3,4.9c0,0,4.2,1.1,7.3-2.6c3.2-3.6,1.5-7.6,1.5-7.6C45.4,129.1,42.6,130.5,42,130.8z"/><path class="st0" d="M4,126.3l17,14.8c4.4,3.8,10.2,5.9,16.1,5.6l9-0.4c2.6-0.1,5-1.3,6.8-3.3h0c1.7-2,2.5-4.6,2.3-7.1l-0.9-9 c-0.1-0.9-0.2-1.8-0.4-2.7"/><path class="st0" d="M4.7,126.9L4.7,126.9c3.5,3,8.7,2.6,11.7-0.8l0.8-0.9c2.8-3.2,7.7-3.6,10.9-0.8l6.2,5.4"/><path class="st0" d="M30,97.6"/><path class="st0" d="M37.1,126.6l-6.2-5.4c-3.2-2.8-3.6-7.7-0.8-10.9l0.8-0.9c0.5-0.6,0.9-1.2,1.2-1.9"/><path class="st0" d="M16.3,136.9L16.3,136.9c3.1,2.7,7.5,3.6,12.1,2.5"/><path class="st0" d="M37.5,114c-0.1,0.2-0.3,0.4-0.4,0.6l-3.6,4.2h0c-1.9-1.7-2.1-4.5-0.5-6.5l1.4-1.6"/><path class="st0" d="M21.9,132l4.2-4.8l-0.6-0.5c-1.6-1.4-4-1.2-5.4,0.4l-4.2,4.8l0.6,0.5C18.1,133.8,20.5,133.6,21.9,132z"/><path class="st0" d="M8.5,117.4c3.9-0.2,7.4-1.8,9.7-4.4c2.3-2.7,3.4-6.3,3-10.2"/><g><line class="st0" x1="54.8" y1="131.8" x2="61.3" y2="137.5"/><line class="st0" x1="54.4" y1="127.2" x2="62.5" y2="134.2"/><line class="st0" x1="63.3" y1="130.6" x2="57.1" y2="125.2"/></g><g><line class="st0" x1="42.1" y1="146.5" x2="48.6" y2="152.2"/><line class="st0" x1="37.4" y1="146.8" x2="45.5" y2="153.8"/><line class="st0" x1="42.1" y1="155.1" x2="32.1" y2="146.5"/></g><path class="st0" d="M7.3,128.5c-0.7-7,1.3-14.4,6.3-20.1c3.9-4.5,8.9-7.3,14.2-8.5"/></g><path class="st0" d="M66.8,127c-0.1,7.5-2.8,15-8.1,21.1c-11.3,13-30.4,15.1-44.1,5.3c0.7,0.7,1.5,1.5,2.3,2.2 c13.8,11.9,34.7,10.5,46.6-3.3c6.3-7.2,8.8-16.4,7.9-25.2"/></g><g><g><line class="st0" x1="130.1" y1="128.6" x2="130.7" y2="132.6"/></g><g><line class="st0" x1="126.4" y1="131.6" x2="127" y2="135"/></g><g><line class="st0" x1="122.7" y1="133.8" x2="123.1" y2="136.5"/></g><g><line class="st0" x1="118.7" y1="135" x2="119.1" y2="137.2"/></g><circle class="st0" cx="115.3" cy="115.3" r="15.1"/><circle class="st0" cx="115.3" cy="115.3" r="11.9"/><circle class="st0" cx="115.3" cy="115.3" r="19.5"/><path class="st0" d="M130.1,128.1c-6.7,7.7-18,8.9-26.1,3.1c0.4,0.4,0.9,0.9,1.3,1.3c8.2,7.1,20.5,6.2,27.5-2 c7.1-8.2,6.2-20.5-2-27.5c-0.5-0.4-1-0.8-1.5-1.1C136.3,109,136.7,120.4,130.1,128.1z"/></g><g><g><line class="st0" x1="38" y1="100.6" x2="36.1" y2="111.6"/></g><g><line class="st0" x1="41.8" y1="106.7" x2="40.2" y2="115.9"/></g><g><line class="st0" x1="46" y1="110.1" x2="44.5" y2="118.8"/></g><g><line class="st0" x1="50.2" y1="113.6" x2="48.8" y2="121.6"/></g><g><line class="st0" x1="54.5" y1="116.7" x2="53.2" y2="123.7"/></g><g><line class="st0" x1="58.9" y1="118.8" x2="57.8" y2="124.9"/></g><g><line class="st0" x1="63.5" y1="119.8" x2="62.5" y2="125.8"/></g><g><line class="st0" x1="68" y1="121.6" x2="67.2" y2="126.5"/></g><g><line class="st0" x1="72.9" y1="121.5" x2="72" y2="126.4"/></g><g><line class="st0" x1="77.6" y1="122" x2="76.8" y2="126.2"/></g><g><line class="st0" x1="82.5" y1="121.5" x2="81.9" y2="124.8"/></g><path class="st0" d="M111.7,96c5.7-10.1,6.8-22.1,3.2-33"/><path class="st0" d="M75.5,34.8c-9.3,0.1-18.7,3.4-26.3,10c-17.1,14.8-19,40.7-4.1,57.8c12.9,14.9,34.2,18.2,50.7,9.1"/><path class="st0" d="M116.8,95.6c5-10.4,5.9-22.4,2.5-33.5"/><path class="st0" d="M74.5,30.5c-10,0.3-20,4-28.2,11c-18.9,16.4-21,45.1-4.6,64c13.7,15.8,36,19.9,54,11.2"/><g><path class="st0" d="M93.5,112.3l0.9-8l-2.1-0.1c-2.4-0.1-4.5,1.8-4.8,4.1l-0.7,6.8"/><path class="st0" d="M101.1,101.8l0.4-3.6l-2.1-0.1c-2.4-0.1-4.5,1.8-4.8,4.1l-0.9,7.7"/><path class="st0" d="M115.7,85.9l-2.1-0.1c-2.4-0.1-4.5,1.8-4.8,4.1l-0.8,7.2"/><path class="st0" d="M86.9,115.2l0.5-4.8l-0.1,0c-3.3-0.1-6.3,2.3-6.9,5.5"/><path class="st0" d="M108.1,97l0.6-4.9l-2.1-0.1c-2.4-0.1-4.5,1.8-4.8,4.1l-0.6,5.5"/></g><g><path class="st0" d="M42.8,53.2l7.6,0.3l-0.2,2.1c-0.3,2.4-2.4,4.2-4.8,4.1l-6.7-0.2"/><path class="st0" d="M47.9,47l9.6,0.4l-0.2,2.1c-0.3,2.4-2.4,4.2-4.8,4.1l-7.7-0.2"/><path class="st0" d="M55.6,40.9l9,0.3l-0.2,2.1c-0.3,2.4-2.4,4.2-4.8,4.1l-7.7-0.2"/><path class="st0" d="M71.7,35.1l-0.2,2.1c-0.3,2.4-2.4,4.2-4.8,4.1L58.9,41"/><path class="st0" d="M38.8,59.5l4.7,0.2l0,0.1c-0.4,3.3-3.2,5.9-6.5,6.1"/></g><g><line class="st0" x1="69.9" y1="116.3" x2="116.9" y2="75.6"/><polyline class="st0" points="60.1,95.1 57.6,92.3 55.2,89.4 "/><polyline class="st0" points="65.5,88.4 62.8,85.2 62.1,84.4 "/><path class="st0" d="M64.8,81.7c0.8,0.4,1,1.4,1.1,1.8c0.1,0.3,0.3,0.6,0.4,0.8c0.1,0.1,0.4,0.4,0.7,0.5c0.4,0.1,1.4,0.5,1.6,1.4 c0.3,0.8,1.5,4.9,1.8,6.7c0,0-5.7,1.5-10.1-3.5s-2-10.5-2-10.5C60.1,79.4,64,81.3,64.8,81.7z"/><path class="st0" d="M116.9,75.6L93.5,95.8c-6.1,5.3-14,8-22,7.7L59,103c-3.6-0.1-6.9-1.8-9.3-4.5l0,0c-2.3-2.7-3.5-6.3-3.1-9.8 l1.3-12.4c0.8-8,4.7-15.4,10.8-20.7l18.6-16.1"/><path class="st0" d="M116,76.3L116,76.3c-4.7,4.1-11.9,3.6-16-1.2l-1.1-1.2c-3.9-4.4-10.6-4.9-15-1.1l-8.6,7.4"/><path class="st0" d="M81.2,36.2"/><path class="st0" d="M71.5,75.9l8.6-7.4c4.4-3.9,4.9-10.6,1.1-15l-1.1-1.2c-2.7-3.1-3.4-7.4-2.2-11"/><path class="st0" d="M65.3,50L65.3,50c-4.3,3.7-6.4,9.5-5.8,15.9"/><path class="st0" d="M100.1,90.1L100.1,90.1c-4.3,3.7-10.3,4.9-16.6,3.5"/><path class="st0" d="M70.9,58.6l5.7,6.6l0.8-0.7c2.2-1.9,2.4-5.2,0.5-7.4l-5.7-6.6l-0.8,0.7C69.2,53.1,69,56.4,70.9,58.6z"/><path class="st0" d="M92.3,83.4l-5.7-6.6l0.8-0.7c2.2-1.9,5.5-1.7,7.4,0.5l5.7,6.6l-0.8,0.7C97.5,85.8,94.2,85.6,92.3,83.4z"/><g><line class="st0" x1="47.1" y1="83.1" x2="38.2" y2="90.9"/><line class="st0" x1="47.7" y1="76.7" x2="36.6" y2="86.4"/><line class="st0" x1="35.5" y1="81.4" x2="49.1" y2="69.6"/></g><g><line class="st0" x1="64.6" y1="103.3" x2="55.7" y2="111.1"/><line class="st0" x1="71" y1="103.7" x2="59.9" y2="113.3"/><line class="st0" x1="64.6" y1="115.1" x2="78.3" y2="103.3"/></g><path class="st0" d="M112.4,78.6c0.5-5.2,0-10.5-1.7-15.5"/><line class="st0" x1="77.2" y1="39.6" x2="35.1" y2="76.1"/></g><path class="st0" d="M95.7,118.5c-18.8,13.4-45.1,10.5-60.5-7.3c-16.4-18.9-14.3-47.6,4.6-64c1.1-1,2.2-1.8,3.4-2.7 c-16,16.7-16.9,43.2-1.5,61c13.7,15.8,35.9,19.8,53.9,11.2"/></g><circle class="st0" cx="15.4" cy="53.9" r="2.4"/><circle class="st0" cx="89.2" cy="135.9" r="2.4"/><circle class="st0" cx="134.3" cy="83.5" r="2.4"/><g><g><g><line class="st0" x1="143.8" y1="65.6" x2="141.1" y2="62.8"/><line class="st0" x1="143.8" y1="62.8" x2="141.1" y2="65.6"/></g></g></g><g><g><g><line class="st0" x1="7.7" y1="83.2" x2="5" y2="80.5"/><line class="st0" x1="7.7" y1="80.5" x2="5" y2="83.2"/></g></g></g><g><g><g><line class="st0" x1="62.2" y1="25.7" x2="59.4" y2="23"/><line class="st0" x1="62.2" y1="23" x2="59.4" y2="25.7"/></g></g></g></g></svg>