<svg version="1.1" id="Layer_1" xmlns="http://www.w3.org/2000/svg" xmlns:xlink="http://www.w3.org/1999/xlink" x="0px" y="0px" viewBox="0 0 170.5 143.6" style="enable-background:new 0 0 170.5 143.6;" xml:space="preserve" width="100%" height="100%" preserveAspectRatio="none"><style type="text/css"> .st0{fill:none;stroke:#000000;stroke-width:1.5;stroke-linecap:round;stroke-linejoin:round;stroke-miterlimit:10;} </style><g><path class="st0" d="M107.7,53.2c-2.2,9-10.9,9.2-10.5,11.5"/><path class="st0" d="M65.5,53.2c2.2,9,10.9,9.2,10.5,11.5"/><line class="st0" x1="65.4" y1="71.3" x2="65.4" y2="38.2"/><line class="st0" x1="107.8" y1="70.4" x2="107.8" y2="37.9"/><path class="st0" d="M72.5,72.2v8.2c0,3.3,1.5,6.5,4,8.6l10.1,8.6l10.1-8.6c2.5-2.1,4-5.3,4-8.6V72"/><g><path class="st0" d="M86.8,36.4c-6,0-20.6,0.8-20.6,6.2v4.1c0,4.7,3.6,10.1,12.6,10.1c5,0,5.3-5.8,8-5.8s3,5.8,8,5.8 c8.9,0,12.6-5.4,12.6-10.1v-4.1C107.4,37.2,92.8,36.4,86.8,36.4z"/><line class="st0" x1="84.2" y1="39.9" x2="89.5" y2="39.9"/></g><polyline class="st0" points="84.5,66.2 87.9,66.2 88.7,66.2 "/><path class="st0" d="M89,63.1c-0.6-0.3-1.4,0.1-1.7,0.3c-0.2,0.1-0.5,0.2-0.7,0.2c-0.2,0-0.4,0-0.7-0.2c-0.3-0.2-1-0.5-1.7-0.3 s-3.8,1.6-5,2.4c0,0,2.1,4.2,7.4,4.2c5.3,0,7.4-4.2,7.4-4.2C92.7,64.7,89.6,63.4,89,63.1z"/><path class="st0" d="M97.3,75V64.7c0-0.8-0.4-1.5-1.1-1.8l-4.5-2.2c-3.2-1.5-6.9-1.5-10,0l-4.5,2.2c-0.7,0.3-1.1,1-1.1,1.8v10.1"/><path class="st0" d="M107.8,37.9V54c0,6.8-2.7,13.3-7.5,18.2l-3.2,3.2c-2.8,2.8-6.6,4.4-10.5,4.4h0c-4,0-7.8-1.6-10.5-4.4l-3.2-3.2 c-4.8-4.8-7.5-11.4-7.5-18.2l0-15.8"/><line class="st0" x1="86.6" y1="69.9" x2="86.6" y2="79.7"/><line class="st0" x1="90.4" y1="76.5" x2="90.4" y2="78.9"/><line class="st0" x1="93.9" y1="75" x2="93.9" y2="77.3"/><g><line class="st0" x1="82.9" y1="76.5" x2="82.9" y2="78.9"/><line class="st0" x1="79.5" y1="75" x2="79.5" y2="77.3"/></g><line class="st0" x1="85" y1="87.8" x2="88.9" y2="87.8"/><g><path class="st0" d="M133,80.1L133,80.1c0-4.7-3.8-8.5-8.5-8.5h-23.1"/><path class="st0" d="M149.2,140.8V99c0-10.4-8.4-18.8-18.8-18.8H101"/></g><g><path class="st0" d="M40.6,80.1L40.6,80.1c0-4.7,3.8-8.5,8.5-8.5h23.1"/><path class="st0" d="M24.4,140.8V99c0-10.4,8.4-18.8,18.8-18.8h29.3"/></g><g><g><line class="st0" x1="118.4" y1="57.1" x2="108.3" y2="69.6"/></g><g><line class="st0" x1="121.3" y1="46.1" x2="108.3" y2="62.1"/></g><g><line class="st0" x1="117.9" y1="42.7" x2="108.3" y2="54.6"/></g><g><line class="st0" x1="113.7" y1="40.4" x2="108.3" y2="47.1"/></g><g><line class="st0" x1="55.5" y1="57.1" x2="65" y2="68.9"/></g><g><line class="st0" x1="52.6" y1="46.1" x2="65.6" y2="62.1"/></g><g><line class="st0" x1="55.9" y1="42.7" x2="65.2" y2="54.1"/></g><g><line class="st0" x1="60.1" y1="40.4" x2="65.6" y2="47.1"/></g><line class="st0" x1="85" y1="10.1" x2="88.9" y2="10.1"/><line class="st0" x1="85" y1="13.2" x2="88.9" y2="13.2"/><g><path class="st0" d="M86.4,26.2L55.2,42.9c-4,2.1-5.1,7.4-2.3,11l2.6,3.3l-4.7-5.9c-3-3.8-3-9.1,0.1-12.9l29-32.8 c3.7-4.4,10.4-4.4,14.1,0l29,32.8c3.1,3.7,3.1,9.1,0.1,12.9l-4.7,5.9l2.6-3.3c2.8-3.6,1.7-8.9-2.3-11l-38-20.3"/><line class="st0" x1="86.9" y1="2.9" x2="86.9" y2="10.1"/></g></g><polyline class="st0" points="91.4,29.2 86.8,31.9 82.3,29.2 "/><line class="st0" x1="117.2" y1="58.7" x2="124.6" y2="71.6"/><line class="st0" x1="56.2" y1="58.7" x2="48.9" y2="71.6"/><polyline class="st0" points="74.5,131.7 74.5,106 90.2,106 90.2,126 "/><path class="st0" d="M96.7,136.8H69.3l0,0c0-2.8,2.3-5.1,5.1-5.1h14.5"/><path class="st0" d="M74.5,129h-9.4v-1.2c0-2.2,1.7-3.9,3.9-3.9h5.5V129z"/><path class="st0" d="M74.5,123.9h-5.7v-1.2c0-2.2,1.7-3.9,3.9-3.9h1.8V123.9z"/><polyline class="st0" points="107.1,140.8 107.1,120.6 113.1,120.6 "/><line class="st0" x1="116.6" y1="120.6" x2="119.1" y2="120.6"/><line class="st0" x1="122.1" y1="120.6" x2="148.7" y2="120.6"/><path class="st0" d="M107.1,125.2c-1.1-0.5-2.3-0.8-3.5-0.8c-3.6,0-6.6,2.3-7.8,5.5l-1.9-1.9c-2.4-2.4-6.2-2.4-8.6,0l7.3,7.3 c1,1,2.4,1.6,3.9,1.6l0,0h6.3h4.3V125.2z"/><g><line class="st0" x1="148.5" y1="98.1" x2="130.4" y2="120.2"/></g><g><line class="st0" x1="54.1" y1="107.5" x2="26.2" y2="141.7"/></g><g><line class="st0" x1="54.1" y1="115.5" x2="33.2" y2="141.2"/></g><g><line class="st0" x1="54.1" y1="123.4" x2="39.5" y2="141.3"/></g><g><line class="st0" x1="54.1" y1="131.3" x2="46.2" y2="141.1"/></g><g><line class="st0" x1="148.9" y1="105" x2="136.5" y2="120.3"/></g><g><line class="st0" x1="149.2" y1="112" x2="142.4" y2="120.4"/></g><line class="st0" x1="86.6" y1="97.6" x2="86.6" y2="105.2"/><line class="st0" x1="86" y1="109.9" x2="86" y2="113.7"/><line class="st0" x1="82.4" y1="109.9" x2="82.4" y2="113.7"/><line class="st0" x1="78.7" y1="109.9" x2="78.7" y2="113.7"/><line class="st0" x1="74.1" y1="109.8" x2="71.9" y2="109.8"/><line class="st0" x1="74.1" y1="112.9" x2="71.9" y2="112.9"/><line class="st0" x1="54.1" y1="107.5" x2="54.1" y2="140.8"/><line class="st0" x1="100.4" y1="84.8" x2="115.3" y2="84.8"/><line class="st0" x1="96.7" y1="89.5" x2="109.3" y2="89.5"/><line class="st0" x1="91.5" y1="94.1" x2="103.4" y2="94.1"/><g><line class="st0" x1="72.9" y1="84.8" x2="58" y2="84.8"/><line class="st0" x1="76.6" y1="89.5" x2="63.9" y2="89.5"/><line class="st0" x1="81.8" y1="94.1" x2="69.9" y2="94.1"/></g><circle cx="98.6" cy="116.4" r="1.5"/><circle cx="98.6" cy="111.2" r="1.5"/><circle cx="78.6" cy="118.8" r="1.5"/><g><circle class="st0" cx="21.5" cy="60.3" r="6.6"/><g><circle class="st0" cx="16.4" cy="54.4" r="5.1"/><circle class="st0" cx="26.6" cy="54.4" r="5.1"/></g><line class="st0" x1="21.5" y1="53.6" x2="21.5" y2="11.5"/><line class="st0" x1="23" y1="38.6" x2="20" y2="38.6"/><line class="st0" x1="23" y1="43.2" x2="20" y2="43.2"/><line class="st0" x1="23" y1="33.9" x2="20" y2="33.9"/><polygon class="st0" points="28,27.1 28,22.8 25.3,22.8 25.3,18.8 28,18.8 28,14.5 21.5,14.5 21.5,27.1 "/></g><path class="st0" d="M101.9,111.2h9.7c4.2,0,7.6,3.4,7.6,7.6v22"/><path class="st0" d="M101.9,116.6h8.9c1.6,0,2.8,1.3,2.8,2.8v21.5"/><line class="st0" x1="106.7" y1="114.1" x2="106.7" y2="116.2"/><g><g><path class="st0" d="M142.2,55.8v4.6c0,2.4,3.8,4.4,8.5,4.4c4.7,0,8.5-2,8.5-4.4v-4.6"/><path class="st0" d="M157.8,53.4c0.9,0.7,1.5,1.5,1.5,2.5c0,2.4-3.8,4.4-8.5,4.4c-4.7,0-8.5-2-8.5-4.4c0-0.9,0.5-1.7,1.4-2.4"/><line class="st0" x1="145.2" y1="59.6" x2="145.2" y2="63.3"/><line class="st0" x1="148.6" y1="60.5" x2="148.6" y2="64.2"/><line class="st0" x1="152.2" y1="60.6" x2="152.2" y2="64.3"/></g><g><path class="st0" d="M142.2,46.1v4.6c0,2.4,3.8,4.4,8.5,4.4c4.7,0,8.5-2,8.5-4.4v-4.6"/><path class="st0" d="M157.8,43.6c0.9,0.7,1.5,1.5,1.5,2.5c0,2.4-3.8,4.4-8.5,4.4c-4.7,0-8.5-2-8.5-4.4c0-0.9,0.5-1.8,1.5-2.5"/><line class="st0" x1="145.2" y1="49.8" x2="145.2" y2="53.5"/><line class="st0" x1="148.6" y1="50.7" x2="148.6" y2="54.4"/><line class="st0" x1="152.2" y1="50.9" x2="152.2" y2="54.6"/></g><g><path class="st0" d="M142.2,36.3V41c0,2.4,3.8,4.4,8.5,4.4c4.7,0,8.5-2,8.5-4.4v-4.6"/><path class="st0" d="M157.9,33.9c0.9,0.7,1.4,1.5,1.4,2.4c0,2.4-3.8,4.4-8.5,4.4c-4.7,0-8.5-2-8.5-4.4c0-0.9,0.5-1.7,1.4-2.4"/><line class="st0" x1="145.2" y1="40.1" x2="145.2" y2="43.8"/><line class="st0" x1="148.6" y1="41" x2="148.6" y2="44.7"/><line class="st0" x1="152.2" y1="41.1" x2="152.2" y2="44.8"/></g><g><path class="st0" d="M142.2,26.6v4.6c0,2.4,3.8,4.4,8.5,4.4c4.7,0,8.5-2,8.5-4.4v-4.6"/><path class="st0" d="M157.8,24.1c0.9,0.7,1.5,1.5,1.5,2.5c0,2.4-3.8,4.4-8.5,4.4c-4.7,0-8.5-2-8.5-4.4c0-0.9,0.5-1.7,1.4-2.4"/><line class="st0" x1="145.2" y1="30.3" x2="145.2" y2="34"/><line class="st0" x1="148.6" y1="31.2" x2="148.6" y2="34.9"/><line class="st0" x1="152.2" y1="31.4" x2="152.2" y2="35"/></g><g><path class="st0" d="M142.2,16.8v4.6c0,2.4,3.8,4.4,8.5,4.4c4.7,0,8.5-2,8.5-4.4v-4.6"/><ellipse class="st0" cx="150.7" cy="16.8" rx="8.5" ry="4.4"/><ellipse class="st0" cx="150.7" cy="16.8" rx="5" ry="1.5"/><line class="st0" x1="145.2" y1="20.6" x2="145.2" y2="24.3"/><line class="st0" x1="148.6" y1="21.5" x2="148.6" y2="25.2"/><line class="st0" x1="152.2" y1="21.6" x2="152.2" y2="25.3"/></g></g><polyline class="st0" points="90.2,126 90.2,106 106.7,106 106.7,111.1 "/><path class="st0" d="M74.4,131.7V129h-7.9c-2.5,0-4.5,2-4.5,4.5v0.7h8C70.9,132.6,72.6,131.7,74.4,131.7z"/></g></svg>