<svg xmlns="http://www.w3.org/2000/svg" width="20" height="20" viewBox="0 0 20 20">
    <g fill="none" fill-rule="evenodd">
        <g>
            <g>
                <path fill="#F66" fill-rule="nonzero" d="M10 1.5c1.987 0 3.814.681 5.261 1.823l.032-.03.363.362c.243.216.473.446.69.689l.361.363-.03.032C17.819 6.186 18.5 8.013 18.5 10c0 4.694-3.806 8.5-8.5 8.5-1.987 0-3.814-.681-5.261-1.823l-.032.03-.363-.362c-.243-.216-.473-.446-.69-.689l-.361-.363.03-.032C2.181 13.814 1.5 11.987 1.5 10c0-4.694 3.806-8.5 8.5-8.5zm5.25 4.666L6.166 15.25c1.075.786 2.4 1.25 3.834 1.25 3.59 0 6.5-2.91 6.5-6.5 0-1.434-.464-2.759-1.25-3.834zM10 3.5c-3.59 0-6.5 2.91-6.5 6.5 0 1.434.464 2.759 1.25 3.834l9.084-9.084C12.759 3.964 11.434 3.5 10 3.5z" transform="translate(-436.000000, -3902.000000) translate(436.000000, 3902.000000)"/>
            </g>
        </g>
    </g>
</svg>
