<svg width="96" height="64" viewBox="0 0 96 64" fill="none" xmlns="http://www.w3.org/2000/svg">
<path d="M34.4615 32C34.4615 56 26.7471 64 17.2308 64C7.71448 64 0 56.2857 0 32C0 7.71429 7.71448 0 17.2308 0C26.7471 0 34.4615 6 34.4615 32Z" fill="#FE7D19"/>
<path d="M64.9723 32C64.9723 56 57.2578 64 47.7415 64C38.2252 64 30.5107 56.2857 30.5107 32C30.5107 7.71429 38.2252 0 47.7415 0C57.2578 0 64.9723 6 64.9723 32Z" fill="#FD661A"/>
<path d="M95.483 32C95.483 56 87.7685 64 78.2523 64C68.736 64 61.0215 56.2857 61.0215 32C61.0215 7.71429 68.736 0 78.2523 0C87.7685 0 95.483 6 95.483 32Z" fill="#FD501C"/>
</svg>
