<svg width="40" height="40" viewBox="0 0 40 40" fill="none" xmlns="http://www.w3.org/2000/svg">
<path d="M30 13.0969C30 12.9311 29.9342 12.7721 29.8169 12.6549C29.6997 12.5377 29.5408 12.4719 29.375 12.4719H28.125C27.9591 12.4719 27.7999 12.5378 27.6826 12.6551C27.5653 12.7724 27.4994 12.9316 27.4994 13.0975C27.4994 13.2634 27.5653 13.4226 27.6826 13.5399C27.7999 13.6572 27.9591 13.7231 28.125 13.7231H29.375C29.5408 13.7231 29.6997 13.6573 29.8169 13.5401C29.9342 13.4229 30 13.2626 30 13.0969ZM30 19.3556C30 19.1899 29.9342 19.0309 29.8169 18.9137C29.6997 18.7965 29.5408 18.7306 29.375 18.7306H26.875C26.7092 18.7306 26.5503 18.7965 26.4331 18.9137C26.3158 19.0309 26.25 19.1899 26.25 19.3556C26.25 19.5214 26.3158 19.6804 26.4331 19.7976C26.5503 19.9148 26.7092 19.9806 26.875 19.9806H29.375C29.5408 19.9806 29.6997 19.9148 29.8169 19.7976C29.9342 19.6804 30 19.5214 30 19.3556ZM33.75 10.5956V21.8606C33.75 22.8944 32.9088 23.7369 31.875 23.7369H18.125C17.9592 23.7369 17.8003 23.671 17.6831 23.5538C17.5658 23.4366 17.5 23.2776 17.5 23.1119V20.5444C17.5 20.3631 17.5788 20.1894 17.7163 20.0694C17.7846 20.0112 17.8645 19.9683 17.9507 19.9435C18.0369 19.9187 18.1275 19.9126 18.2163 19.9256C18.4213 19.9556 18.5825 19.9806 18.75 19.9806C20.8175 19.9806 22.5 18.2969 22.5 16.2269C22.4997 15.232 22.1046 14.2778 21.4016 13.5738C20.6985 12.8698 19.7449 12.4735 18.75 12.4719C18.5825 12.4719 18.4213 12.4994 18.26 12.5219C18.1679 12.5357 18.0739 12.5302 17.984 12.5059C17.8941 12.4816 17.8101 12.4389 17.7375 12.3806C17.6671 12.3234 17.6095 12.252 17.5686 12.171C17.5277 12.09 17.5043 12.0013 17.5 11.9106V9.34312C17.4997 9.26084 17.5156 9.1793 17.5469 9.10318C17.5781 9.02706 17.6241 8.95787 17.6822 8.89957C17.7402 8.84126 17.8093 8.795 17.8852 8.76344C17.9612 8.73187 18.0427 8.71562 18.125 8.71563H31.875C32.9088 8.71563 33.75 9.55937 33.75 10.5956ZM18.75 27.4931C18.75 29.1369 21.265 29.9956 23.75 29.9956C26.235 29.9956 28.75 29.1369 28.75 27.4931C28.75 24.2044 18.75 24.2044 18.75 27.4931ZM23.75 31.2481C22.17 31.2481 20.5875 30.9456 19.4088 30.3106C19.3379 30.2719 19.2548 30.2619 19.1768 30.2829C19.0988 30.3039 19.0319 30.3541 18.99 30.4231C18.8332 30.6697 18.75 30.9559 18.75 31.2481C18.75 32.8906 21.265 33.7506 23.75 33.7506C26.235 33.7506 28.75 32.8906 28.75 31.2481C28.75 30.9559 28.6668 30.6697 28.51 30.4231C28.4681 30.3541 28.4012 30.3039 28.3232 30.2829C28.2452 30.2619 28.1621 30.2719 28.0912 30.3106C26.9125 30.9456 25.33 31.2481 23.75 31.2481ZM6.25 8.71563C6.25 10.3606 8.765 11.2206 11.25 11.2206C13.735 11.2206 16.25 10.3606 16.25 8.71563C16.25 5.42812 6.25 5.42812 6.25 8.71563ZM11.25 23.7381C9.67 23.7381 8.0875 23.4369 6.90875 22.8006C6.83789 22.7619 6.75481 22.7519 6.67682 22.7729C6.59882 22.7939 6.5319 22.8441 6.49 22.9131C6.33303 23.1596 6.24977 23.4459 6.25 23.7381C6.25 25.3819 8.765 26.2419 11.25 26.2419C13.735 26.2419 16.25 25.3819 16.25 23.7381C16.25 23.4344 16.1637 23.1594 16.01 22.9131C15.9681 22.8441 15.9012 22.7939 15.8232 22.7729C15.7452 22.7519 15.6621 22.7619 15.5913 22.8006C14.4125 23.4369 12.83 23.7381 11.25 23.7381ZM11.25 19.9819C9.67 19.9819 8.0875 19.6819 6.90875 19.0469C6.83789 19.0081 6.75481 18.9982 6.67682 19.0191C6.59882 19.0401 6.5319 19.0903 6.49 19.1594C6.33343 19.4051 6.25017 19.6905 6.25 19.9819C6.25 21.6269 8.765 22.4869 11.25 22.4869C13.735 22.4869 16.25 21.6269 16.25 19.9819C16.25 19.6806 16.1637 19.4056 16.01 19.1594C15.9681 19.0903 15.9012 19.0401 15.8232 19.0191C15.7452 18.9982 15.6621 19.0081 15.5913 19.0469C14.4125 19.6819 12.83 19.9819 11.25 19.9819ZM11.25 16.2281C9.67 16.2281 8.0875 15.9256 6.90875 15.2906C6.83789 15.2519 6.75481 15.2419 6.67682 15.2629C6.59882 15.2839 6.5319 15.3341 6.49 15.4031C6.33297 15.6496 6.2497 15.9359 6.25 16.2281C6.25 17.8731 8.765 18.7306 11.25 18.7306C13.735 18.7306 16.25 17.8731 16.25 16.2281C16.25 15.9244 16.1637 15.6494 16.01 15.4031C15.9681 15.3341 15.9012 15.2839 15.8232 15.2629C15.7452 15.2419 15.6621 15.2519 15.5913 15.2906C14.4125 15.9256 12.83 16.2281 11.25 16.2281ZM15.5913 11.5356C15.6622 11.4972 15.7452 11.4874 15.8231 11.5084C15.901 11.5293 15.9679 11.5793 16.01 11.6481C16.1637 11.8944 16.25 12.1694 16.25 12.4731C16.25 14.1169 13.735 14.9769 11.25 14.9769C8.765 14.9769 6.25 14.1169 6.25 12.4731C6.25 12.1694 6.33625 11.8944 6.49 11.6481C6.53212 11.5793 6.59903 11.5293 6.67694 11.5084C6.75485 11.4874 6.83782 11.4972 6.90875 11.5356C8.0875 12.1719 9.67 12.4731 11.25 12.4731C12.83 12.4731 14.4125 12.1719 15.5913 11.5356Z" fill="#1E2E45"/>
</svg>
