<?xml version="1.0" encoding="UTF-8"?>
<svg width="20px" height="20px" viewBox="0 0 20 20" version="1.1" xmlns="http://www.w3.org/2000/svg" xmlns:xlink="http://www.w3.org/1999/xlink">
    <title>Shape</title>
    <g id="Page-1" stroke="none" stroke-width="1" fill="none" fill-rule="evenodd">
        <g id="Idena_website/01a_home" transform="translate(-868.000000, -937.000000)" fill="#578FFF">
            <g id="Group-15" transform="translate(751.000000, 937.000000)">
                <g id="Group-189" transform="translate(117.000000, 0.000000)">
                    <path d="M10,0 C15.5228,0 20,4.47715 20,10 C20,15.5228 15.5228,20 10,20 C4.47715,20 0,15.5228 0,10 C0,4.47715 4.47715,0 10,0 Z M10,2 C5.58172,2 2,5.58172 2,10 C2,14.4183 5.58172,18 10,18 C14.4183,18 18,14.4183 18,10 C18,5.58172 14.4183,2 10,2 Z M10,6 C10.5522847,6 11,6.44771525 11,7 L11,9 L13,9 C13.5522847,9 14,9.44771525 14,10 C14,10.5522847 13.5522847,11 13,11 L11,11 L11,13 C11,13.5522847 10.5522847,14 10,14 C9.44771525,14 9,13.5522847 9,13 L9,11 L7,11 C6.44771525,11 6,10.5522847 6,10 C6,9.44771525 6.44771525,9 7,9 L9,9 L9,7 C9,6.44771525 9.44771525,6 10,6 Z" id="Shape"></path>
                </g>
            </g>
        </g>
    </g>
</svg>