<svg width="40" height="40" viewBox="0 0 40 40" fill="none" xmlns="http://www.w3.org/2000/svg">
<path d="M13.2003 11.4342L14.8165 9.81791C14.8961 9.73787 14.9526 9.6378 14.98 9.52828C15.0074 9.41877 15.0047 9.30388 14.9722 9.19578C14.9397 9.08767 14.8785 8.99037 14.7952 8.91417C14.7119 8.83797 14.6096 8.78571 14.499 8.76291L8.24901 7.51291C8.14796 7.49203 8.04331 7.49654 7.94444 7.52604C7.84556 7.55554 7.75555 7.60911 7.68247 7.68194C7.60938 7.75478 7.55551 7.84461 7.52567 7.94338C7.49583 8.04216 7.49097 8.14679 7.5115 8.24791L8.7615 14.4979C8.78358 14.6089 8.83539 14.7119 8.9114 14.7957C8.98741 14.8796 9.08477 14.9413 9.19309 14.9741C9.30141 15.007 9.41662 15.0098 9.52642 14.9823C9.63621 14.9548 9.73648 14.898 9.81651 14.8179L11.434 13.2017L16.6165 18.3854C16.7326 18.5015 16.8705 18.5935 17.0222 18.6563C17.1739 18.7191 17.3365 18.7513 17.5007 18.7513C17.6649 18.7512 17.8274 18.7188 17.9791 18.6559C18.1308 18.5931 18.2686 18.5009 18.3846 18.3848C18.5007 18.2686 18.5927 18.1308 18.6555 17.9791C18.7183 17.8274 18.7506 17.6648 18.7505 17.5006C18.7504 17.3364 18.7181 17.1738 18.6552 17.0222C18.5923 16.8705 18.5001 16.7327 18.384 16.6167L13.2003 11.4342ZM30.8053 25.0279C30.6971 24.9952 30.582 24.9925 30.4724 25.02C30.3628 25.0475 30.2627 25.1043 30.1828 25.1842L28.5665 26.8004L23.384 21.6167C23.2682 21.5002 23.1305 21.4077 22.9788 21.3447C22.8272 21.2816 22.6645 21.2491 22.5003 21.2491C22.336 21.2491 22.1734 21.2816 22.0217 21.3447C21.87 21.4077 21.7323 21.5002 21.6165 21.6167C21.3822 21.8511 21.2505 22.169 21.2505 22.5004C21.2505 22.8319 21.3822 23.1497 21.6165 23.3842L26.8003 28.5679L25.184 30.1842C25.1044 30.2643 25.0479 30.3644 25.0206 30.474C24.9932 30.5836 24.9961 30.6986 25.0287 30.8067C25.0614 30.9149 25.1227 31.0121 25.2061 31.0883C25.2896 31.1644 25.3921 31.2165 25.5028 31.2392L31.7528 32.4892C31.8536 32.5096 31.958 32.5047 32.0565 32.475C32.155 32.4452 32.2447 32.3916 32.3174 32.3188C32.3902 32.2461 32.4438 32.1564 32.4736 32.0579C32.5033 31.9594 32.5082 31.855 32.4878 31.7542L31.2378 25.5042C31.2159 25.3929 31.164 25.2898 31.0878 25.2058C31.0116 25.1219 30.9139 25.0604 30.8053 25.0279ZM17.5003 21.2504C17.1688 21.2505 16.8509 21.3822 16.6165 21.6167L11.434 26.8004L9.81651 25.1842C9.73627 25.1049 9.6361 25.0487 9.52659 25.0216C9.41707 24.9946 9.30228 24.9976 9.19434 25.0304C9.0864 25.0632 8.98932 25.1245 8.91335 25.2079C8.83738 25.2913 8.78535 25.3936 8.76276 25.5042L7.51276 31.7542C7.49326 31.855 7.49881 31.9591 7.52894 32.0573C7.55906 32.1555 7.61282 32.2448 7.68551 32.3174C7.7582 32.3899 7.8476 32.4435 7.94585 32.4735C8.04409 32.5034 8.14819 32.5088 8.24901 32.4892L14.499 31.2392C14.6096 31.2164 14.7119 31.1641 14.7952 31.0879C14.8785 31.0117 14.9397 30.9144 14.9722 30.8063C15.0047 30.6982 15.0074 30.5833 14.98 30.4738C14.9526 30.3643 14.8961 30.2642 14.8165 30.1842L13.2003 28.5679L18.384 23.3842C18.5594 23.2096 18.6789 22.9868 18.7275 22.7442C18.776 22.5015 18.7514 22.2499 18.6567 22.0213C18.562 21.7927 18.4016 21.5974 18.1957 21.4601C17.9897 21.3228 17.7477 21.2499 17.5003 21.2504ZM21.6165 18.3854C21.3824 18.1506 21.2509 17.8326 21.2509 17.501C21.2509 17.1695 21.3824 16.8514 21.6165 16.6167L26.8003 11.4342L25.184 9.81791C25.1044 9.73779 25.0479 9.63762 25.0206 9.52802C24.9932 9.41842 24.9961 9.30347 25.0287 9.19534C25.0614 9.08721 25.1227 8.98993 25.2061 8.9138C25.2896 8.83767 25.3921 8.78553 25.5028 8.76291L31.7528 7.51291C31.8536 7.49251 31.958 7.49739 32.0565 7.52711C32.155 7.55682 32.2447 7.61046 32.3174 7.68323C32.3902 7.75599 32.4438 7.84564 32.4736 7.94416C32.5033 8.04269 32.5082 8.14704 32.4878 8.24791L31.2378 14.4979C31.2155 14.6087 31.1637 14.7114 31.0878 14.795C31.0119 14.8787 30.9147 14.9402 30.8066 14.973C30.6985 15.0058 30.5835 15.0088 30.4739 14.9814C30.3642 14.9541 30.2641 14.8976 30.184 14.8179L28.5665 13.2017L23.384 18.3854C23.2682 18.5019 23.1305 18.5943 22.9788 18.6574C22.8272 18.7205 22.6645 18.753 22.5003 18.753C22.336 18.753 22.1734 18.7205 22.0217 18.6574C21.87 18.5943 21.7323 18.5019 21.6165 18.3854Z" fill="#1E2E45"/>
</svg>
