<svg width="40" height="40" viewBox="0 0 40 40" fill="none" xmlns="http://www.w3.org/2000/svg">
<path d="M20 9.73805C22.6313 11.3968 26.0625 12.0668 28.7062 12.3293C28.3638 23.163 26.0475 28.113 20 30.9668C13.9512 28.1093 11.6363 23.158 11.2937 12.3293C13.935 12.0668 17.3663 11.3968 20 9.73805ZM20.2588 32.2255C20.1778 32.2636 20.0895 32.2834 20 32.2834C19.9105 32.2834 19.8222 32.2636 19.7413 32.2255C12.9525 29.143 10.32 23.5993 10.0275 11.7755C10.0235 11.6156 10.0808 11.4602 10.1877 11.3412C10.2946 11.2222 10.443 11.1486 10.6025 11.1355C13.27 10.9193 17.0038 10.283 19.6475 8.47305C19.7516 8.40276 19.8744 8.3652 20 8.3652C20.1256 8.3652 20.2484 8.40276 20.3525 8.47305C22.9962 10.283 26.73 10.9193 29.3975 11.1355C29.5567 11.1486 29.705 11.222 29.8119 11.3407C29.9188 11.4595 29.9762 11.6146 29.9725 11.7743C29.68 23.5993 27.0475 29.143 20.2588 32.2255ZM31.875 8.73804C26.56 8.73804 22.095 7.36555 20.5 5.23805C20.4393 5.16422 20.3629 5.10476 20.2765 5.06394C20.19 5.02312 20.0956 5.00195 20 5.00195C19.9044 5.00195 19.81 5.02312 19.7235 5.06394C19.6371 5.10476 19.5607 5.16422 19.5 5.23805C17.905 7.36555 13.44 8.73804 8.125 8.73804C7.95924 8.73804 7.80027 8.80389 7.68306 8.9211C7.56585 9.03831 7.5 9.19728 7.5 9.36304C7.5 22.1318 9.5525 30.8668 19.7675 34.9555C19.9167 35.0154 20.0833 35.0154 20.2325 34.9555C30.4475 30.868 32.5 22.1318 32.5 9.3643C32.5 9.19853 32.4342 9.03956 32.3169 8.92235C32.1997 8.80514 32.0408 8.7393 31.875 8.7393" fill="#1E2E45"/>
</svg>
