<svg width="40" height="40" viewBox="0 0 40 40" fill="none" xmlns="http://www.w3.org/2000/svg">
<path d="M26.25 25.5163V21.9837C26.25 21.565 26.6575 21.2475 27.0537 21.3825C27.5481 21.5509 27.9774 21.8697 28.2815 22.2942C28.5857 22.7188 28.7495 23.2278 28.75 23.75C28.75 24.8475 28.0387 25.7825 27.0537 26.1175C26.6575 26.2525 26.25 25.9338 26.25 25.5163ZM24.375 17.5C23.3412 17.5 22.5 16.6588 22.5 15.625C22.5 14.5912 23.3412 13.75 24.375 13.75C25.4088 13.75 26.25 14.5912 26.25 15.625C26.25 16.6588 25.4088 17.5 24.375 17.5ZM24.375 26.25H23.125C22.9592 26.25 22.8003 26.1842 22.6831 26.0669C22.5658 25.9497 22.5 25.7908 22.5 25.625V21.875C22.5 21.7092 22.5658 21.5503 22.6831 21.4331C22.8003 21.3158 22.9592 21.25 23.125 21.25H24.375C24.5408 21.25 24.6997 21.3158 24.8169 21.4331C24.9342 21.5503 25 21.7092 25 21.875V25.625C25 25.7908 24.9342 25.9497 24.8169 26.0669C24.6997 26.1842 24.5408 26.25 24.375 26.25ZM20.625 26.25H19.375C19.2092 26.25 19.0503 26.1842 18.9331 26.0669C18.8158 25.9497 18.75 25.7908 18.75 25.625V21.875C18.75 21.7092 18.8158 21.5503 18.9331 21.4331C19.0503 21.3158 19.2092 21.25 19.375 21.25H20.625C20.7908 21.25 20.9497 21.3158 21.0669 21.4331C21.1842 21.5503 21.25 21.7092 21.25 21.875V25.625C21.25 25.7908 21.1842 25.9497 21.0669 26.0669C20.9497 26.1842 20.7908 26.25 20.625 26.25ZM15.625 17.5C14.5913 17.5 13.75 16.6588 13.75 15.625C13.75 14.5912 14.5913 13.75 15.625 13.75C16.6587 13.75 17.5 14.5912 17.5 15.625C17.5 16.6588 16.6587 17.5 15.625 17.5ZM16.875 26.25H15.625C15.4592 26.25 15.3003 26.1842 15.1831 26.0669C15.0658 25.9497 15 25.7908 15 25.625V21.875C15 21.7092 15.0658 21.5503 15.1831 21.4331C15.3003 21.3158 15.4592 21.25 15.625 21.25H16.875C17.0408 21.25 17.1997 21.3158 17.3169 21.4331C17.4342 21.5503 17.5 21.7092 17.5 21.875V25.625C17.5 25.7908 17.4342 25.9497 17.3169 26.0669C17.1997 26.1842 17.0408 26.25 16.875 26.25ZM13.75 25.5163C13.75 25.9338 13.3425 26.2525 12.9463 26.1175C12.452 25.9489 12.0228 25.6301 11.7187 25.2056C11.4146 24.7811 11.2507 24.2722 11.25 23.75C11.25 22.6512 11.9613 21.7175 12.9463 21.3825C13.3425 21.2475 13.75 21.565 13.75 21.9837V25.5163ZM33.75 15.115V10.625C33.75 9.59125 32.9088 8.75 31.875 8.75H8.125C7.09125 8.75 6.25 9.59125 6.25 10.625V15.115C5.52375 15.3738 5 16.0612 5 16.875V21.875C5 22.6888 5.52375 23.3763 6.25 23.635V29.375C6.25 30.4088 7.09125 31.25 8.125 31.25H31.875C32.9088 31.25 33.75 30.4088 33.75 29.375V23.635C34.4762 23.3763 35 22.6888 35 21.875V16.875C35 16.0612 34.4762 15.3738 33.75 15.115Z" fill="#1E2E45"/>
</svg>
