<svg xmlns="http://www.w3.org/2000/svg" width="24" height="24" viewBox="0 0 24 24">
    <g fill="none" fill-rule="evenodd">
        <g>
            <g>
                <g>
                    <path fill="#578FFF" d="M8.427 8.4c.077.858.319 1.669.693 2.4H8.4V12H6v1.2h1.2v1.2h1.2v-1.2h1.2v1.2h1.2v-1.2h.404c.92.648 2.013 1.067 3.196 1.173V18.2c0 .552-.448 1-1 1H6l-2.4 2.4V9.4c0-.552.448-1 1-1h3.827zm2.373 7.2H9.6v1.2h1.2v-1.2zm-2.4 0H7.2v1.2h1.2v-1.2zm1.2-1.2H8.4v1.2h1.2v-1.2zm5.4-12c2.982 0 5.4 2.418 5.4 5.4 0 1.125-.344 2.17-.932 3.034-.023.508-.075 1.744-.158 3.707l-.014.334-3.731-1.704c-.186.02-.374.029-.565.029-2.982 0-5.4-2.418-5.4-5.4s2.418-5.4 5.4-5.4zm1.8 2.4h-3.6v6h1.2V8.399l1.2.001v2.4h1.2v-6zM15.6 6v1.2h-1.2V6h1.2z" transform="translate(-672.000000, -274.000000) translate(560.000000, 274.000000) translate(112.000000, 0.000000)"/>
                </g>
            </g>
        </g>
    </g>
</svg>
