<?xml version="1.0" encoding="UTF-8"?>
<svg width="20px" height="20px" viewBox="0 0 20 20" version="1.1" xmlns="http://www.w3.org/2000/svg" xmlns:xlink="http://www.w3.org/1999/xlink">
    <title>body_medium_info_icn@3x</title>
    <g id="Page-1" stroke="none" stroke-width="1" fill="none" fill-rule="evenodd">
        <g id="Idena_website/02a_how_to_verify" transform="translate(-436.000000, -978.000000)">
            <g id="body_medium_info_icn-copy-2" transform="translate(436.000000, 978.000000)">
                <rect id="body_medium_info_icn" fill="#E3D4D4" opacity="0" x="0" y="0" width="20" height="20"></rect>
                <path d="M10,18 C5.581722,18 2,14.418278 2,10 C2,5.581722 5.581722,2 10,2 C14.418278,2 18,5.581722 18,10 C18,14.418278 14.418278,18 10,18 Z M10,16 C13.3137085,16 16,13.3137085 16,10 C16,6.6862915 13.3137085,4 10,4 C6.6862915,4 4,6.6862915 4,10 C4,13.3137085 6.6862915,16 10,16 Z M9,9 L11,9 L11,14 L9,14 L9,9 Z M9,6 L11,6 L11,8 L9,8 L9,6 Z" id="icn" fill="#578FFF" fill-rule="nonzero"></path>
            </g>
        </g>
    </g>
</svg>