<svg width="80" height="80" viewBox="0 0 80 80" xmlns="http://www.w3.org/2000/svg">
    <g fill="none" fill-rule="evenodd">
        <path fill="none" d="M0 0h80v80H0z"/>
        <g fill="#578fff" fill-rule="nonzero">
            <path d="M64.267 21.246c-.265-3.315-2.85-5.967-6.165-6.232-2.121-.132-3.978.663-5.37 2.055a5.264 5.264 0 0 1-3.845 1.658h-.53c-1.458 0-2.85-.597-3.911-1.724-1.194-1.26-2.917-1.989-4.773-1.989-1.857 0-3.58.796-4.773 1.99-1.061 1.06-2.453 1.723-3.912 1.723h-.53a5.47 5.47 0 0 1-3.845-1.591l-.597-.597c-2.519-2.055-6.231-1.989-8.684.199-2.983 2.52-3.116 7.093-.331 9.811l.066.067c1.06.994 1.657 2.452 1.657 3.91v.531c0 1.459-.596 2.917-1.723 3.911-1.26 1.194-1.99 2.917-1.99 4.774 0 1.856.796 3.58 1.99 4.773 1.06 1.06 1.723 2.452 1.723 3.91v.664c0 1.458-.596 2.85-1.657 3.845a6.463 6.463 0 0 0-1.989 5.104c.133 3.514 2.983 6.364 6.497 6.43 1.989.067 3.845-.729 5.104-2.054.928-.995 2.32-1.658 3.779-1.658h.597c1.458 0 2.85.597 3.845 1.724 1.325 1.392 3.248 2.188 5.37 2.055a6.811 6.811 0 0 0 6.23-6.232c.266-3.977-2.85-7.225-6.695-7.225-1.856 0-3.513.729-4.773 1.988-1.06 1.061-2.453 1.658-3.911 1.658h-.597c-1.458 0-2.85-.597-3.911-1.658L26.547 53c-1.061-1.06-1.724-2.453-1.724-3.911v-.597c0-1.458.597-2.917 1.724-3.911 1.26-1.193 1.988-2.917 1.988-4.773 0-1.856-.795-3.58-1.988-4.773-1.061-1.061-1.724-2.453-1.724-3.912v-.53c0-1.458.597-2.917 1.657-3.911l.067-.066.066-.067c1.06-1.06 2.453-1.657 3.911-1.657h.53c1.46 0 2.851.597 3.912 1.724 1.193 1.26 2.917 1.988 4.773 1.988 1.856 0 3.58-.795 4.773-1.988 1.06-1.061 2.453-1.724 3.911-1.724h.464c1.459 0 2.85.597 3.912 1.724 1.193 1.26 2.917 1.988 4.773 1.988 3.845-.132 6.96-3.38 6.695-7.358z"/>
            <path d="M37.551 39.808c0 1.127.928 2.055 2.055 2.055a2.065 2.065 0 0 0 2.055-2.055 2.065 2.065 0 0 0-2.055-2.055 2.065 2.065 0 0 0-2.055 2.055zM57.704 37.753a2.065 2.065 0 0 0-2.055 2.055c0 1.127.928 2.055 2.055 2.055a2.065 2.065 0 0 0 2.055-2.055c-.066-1.127-.994-2.055-2.055-2.055zM57.704 56.116a2.065 2.065 0 0 0-2.055 2.055c0 1.127.928 2.055 2.055 2.055a2.065 2.065 0 0 0 2.055-2.055c-.066-1.193-.994-2.055-2.055-2.055z"/>
        </g>
    </g>
</svg>
