<svg id="Layer_2" data-name="Layer 2" xmlns="http://www.w3.org/2000/svg" viewBox="0 0 80 80"><defs><style>.cls-1{fill:#fee761;}.cls-2{fill:#feae34;}.cls-3{fill:#be4a2f;}.cls-4{fill:#fed451;}</style></defs><rect class="cls-1" x="27.54" y="57.8" width="3.56" height="3.56"/><rect class="cls-1" x="31.1" y="36.44" width="3.56" height="21.35"/><rect class="cls-1" x="31.1" y="11.52" width="3.56" height="17.8"/><rect class="cls-1" x="34.66" y="7.96" width="3.56" height="3.56"/><polygon class="cls-2" points="56.02 54.24 56.02 61.36 41.78 61.36 41.78 36.44 52.46 36.44 52.46 29.32 41.78 29.32 41.78 15.08 56.02 15.08 56.02 18.64 63.14 18.64 63.14 11.52 59.58 11.52 59.58 7.96 38.22 7.96 38.22 11.52 34.66 11.52 34.66 29.32 23.98 29.32 23.98 36.44 34.66 36.44 34.66 57.8 31.1 57.8 31.1 61.36 27.55 61.36 27.55 72.04 63.14 72.04 63.14 68.48 66.7 68.48 66.7 54.24 56.02 54.24"/><rect class="cls-3" x="48.9" y="54.24" width="7.12" height="7.12"/><polygon class="cls-3" points="23.98 36.44 23.98 57.8 20.42 57.8 20.42 61.36 16.86 61.36 16.86 72.04 23.98 72.04 23.98 61.36 27.55 61.36 27.55 57.8 31.1 57.8 31.1 36.44 23.98 36.44"/><rect class="cls-3" x="13.3" y="29.32" width="7.12" height="7.12"/><rect class="cls-3" x="48.9" y="15.08" width="7.12" height="3.56"/><polygon class="cls-3" points="27.55 7.96 27.55 11.52 23.98 11.52 23.98 29.32 31.1 29.32 31.1 11.52 34.66 11.52 34.66 7.96 27.55 7.96"/><rect class="cls-4" x="23.98" y="61.36" width="3.56" height="10.68"/><rect class="cls-4" x="20.42" y="29.32" width="3.56" height="7.12"/></svg>