<svg width="210" height="80" viewBox="0 0 210 80" xmlns="http://www.w3.org/2000/svg">
    <g fill="none" fill-rule="evenodd">
        <path fill="none" d="M0 0h210v80H0z"/>
        <g fill="#53565C" fill-rule="nonzero">
            <path d="M13.06 49.86c-1.892-6.53-2.412-7.272-4.749-7.494 3.488-.446 6.085-3.265 6.085-8.83 0-4.787-2.19-7.57-6.827-7.57H0v.89c1.966.372 2.078.446 2.078 1.708v27.01c0 1.299-.074 1.336-2.078 1.707v.89h8.088v-.89c-1.966-.371-2.077-.445-2.077-1.707V42.885h.074c1.261 0 1.447.111 3.19 7.272 1.522 6.233 1.522 5.751 1.633 8.051h5.046v-.89c-1.002-.482-.78-.223-2.894-7.458zm-6.307-8.088H6.01V30.011c0-2.635.445-3.08 1.558-3.08 1.67 0 2.671 2.375 2.671 7.235 0 5.603-1.373 7.606-3.487 7.606zM30.98 54.758 24.526 24h-.445l-6.493 30.758c-.334 1.67-.26 1.892-1.188 2.523v.89h5.566v-.89c-2.969-.334-3.08-.074-2.672-2.523l1.002-6.01h5.454l1.187 6.01c.52 2.449.52 2.189-2.411 2.523v.89h7.606v-.89c-.854-.594-.78-.742-1.15-2.523zM20.519 47.56l2.263-13.283 2.708 13.283h-4.971zM39.551 25.966h-6.938v.89c1.967.372 2.078.446 2.078 1.708v27.01c0 1.299-.074 1.336-2.078 1.707v.89h6.975c5.343 0 9.016-4.378 9.016-16.102 0-9.87-2.374-16.103-9.053-16.103zm.705 31.278c-1.187 0-1.632-.52-1.632-3.08V30.011c0-2.635.445-3.08 1.558-3.08 2.449 0 4.304 5.232 4.304 15.732 0 11.316-2.263 14.58-4.23 14.58zM49.903 26.857c1.966.37 2.078.445 2.078 1.707v27.01c0 1.299-.075 1.336-2.078 1.707v.89h8.088v-.89c-1.966-.371-2.078-.445-2.078-1.707v-27.01c0-1.299.075-1.336 2.078-1.707v-.89h-8.088v.89zM59.475 42.069c0 11.613 2.783 16.659 7.606 16.659 1.707 0 3.302-.78 4.23-1.67v-8.496h-.445c-2.523 8.348-2.783 9.201-3.859 9.201-1.78 0-3.302-7.012-3.302-15.99 0-10.5.705-15.473 2.634-15.473 1.373 0 1.93 1.633 4.564 9.276h.445v-8.534c-.928-.964-2.412-1.67-4.23-1.67-4.86-.036-7.643 5.455-7.643 16.697zM87.376 54.758 80.92 24h-.408L74.02 54.758c-.333 1.67-.26 1.892-1.187 2.523v.89h5.566v-.89c-2.969-.334-3.08-.074-2.672-2.523l1.039-6.01h5.454l1.187 6.01c.52 2.449.52 2.189-2.411 2.523v.89H88.6v-.89c-.928-.594-.817-.742-1.225-2.523zM76.951 47.56l2.263-13.283 2.708 13.283h-4.971zM113.163 43.145l-3.34-7.384 3.006-6.381c.89-1.93.853-2.152 2.411-2.523v-.89h-5.194v.89c1.818.26 1.93.185 1.113 2.523l-1.818 5.306-2.375-5.306c-1.038-2.338-1.15-2.263 1.559-2.523v-.89h-7.57v.89c1.151.445 1.337.594 2.19 2.523l3.45 7.68-3.153 6.048c-1.002 1.93-.854 2.152-2.412 2.523v.89h5.194v-.89c-1.818-.26-2.003-.186-1.113-2.523l1.93-4.972 2.226 4.972c1.039 2.337.89 2.263-1.559 2.523v.89h7.57v-.89c-1.114-.371-1.262-.557-2.115-2.486z"/>
            <path d="M99.917 55.982c-.334 1.076-.445 1.188-1.521 1.188h-3.34V28.564c0-1.299.075-1.336 2.932-1.707v-.89h-8.942v.89c1.966.37 2.078.445 2.078 1.707v27.01c0 1.299-.075 1.336-2.078 1.707v.89h7.05c1.855 0 4.118.075 6.418.297v-9.684h-.445l-2.152 7.198zM116.65 42.069c0 11.613 2.783 16.659 7.606 16.659 1.707 0 3.302-.78 4.23-1.67v-8.496h-.445c-2.523 8.348-2.783 9.201-3.859 9.201-1.78 0-3.302-7.012-3.302-15.99 0-10.5.705-15.473 2.634-15.473 1.373 0 1.93 1.633 4.564 9.276h.445v-8.534c-.928-.964-2.412-1.67-4.23-1.67-4.86-.036-7.643 5.455-7.643 16.697zM163.214 54.758 156.758 24h-.445l-6.493 30.758c-.334 1.67-.26 1.892-1.187 2.523-1.967-.371-2.078-.445-2.078-1.707v-27.01c0-1.299.074-1.336 2.078-1.707v-.89h-8.089v.89c1.967.37 2.078.445 2.078 1.707v12.8h-6.196v-12.8c0-1.299.074-1.336 2.078-1.707v-.89h-8.089v.89c1.967.37 2.078.445 2.078 1.707v27.01c0 1.299-.074 1.336-2.078 1.707v.89h8.089v-.89c-1.967-.371-2.078-.445-2.078-1.707V42.7h6.196V55.61c0 1.299-.074 1.336-2.078 1.707v.89h13.654v-.89c-2.968-.334-3.08-.074-2.671-2.523l1.038-6.01h5.454l1.188 6.01c.52 2.449.52 2.19-2.412 2.523v.89h7.606v-.89c-.89-.63-.816-.78-1.187-2.56zM152.75 47.56l2.263-13.283 2.709 13.283h-4.972zM174.53 26.857c2.857.37 2.894.445 2.931 1.707l.557 19.924-10.612-24.006h-.445l-.074 31.092c0 1.299-.074 1.336-2.078 1.707v.89h6.604v-.89c-2.82-.371-2.894-.445-2.93-1.707l-.557-19.96L178.5 59.654h.445l.074-31.091c0-1.299.075-1.336 2.078-1.707v-.89h-6.641v.89h.074zM188.443 43.516c3.006.37 3.08.445 3.08 1.707v10.574c0 .779-.111 1.298-.371 1.595-.223.26-.52.371-.853.371-1.559 0-3.97-3.08-3.97-15.36 0-12.43 1.335-16.14 3.45-16.14 1.373 0 2.412.817 4.935 9.276h.445v-8.497c-1.002-.89-2.894-1.67-4.638-1.67-5.231 0-8.31 5.9-8.31 16.734 0 11.168 3.227 16.659 8.05 16.659 1.633 0 3.451-.78 4.972-2.337-.222-1.707-.26-2.152-.26-3.006V45.26c0-1.299.075-1.336 1.633-1.707v-.89h-8.163v.853zM209.555 48.562l-2.263 7.383c-.334 1.076-.446 1.188-1.522 1.188h-2.263V42.625h4.823v-1.298h-4.823V26.968h2.263c1.076 0 1.15.112 1.522 1.187l2.263 7.384H210v-9.87a65.504 65.504 0 0 1-5.973.297h-6.53v.89c1.966.372 2.077.446 2.077 1.708v27.01c0 1.299-.074 1.336-2.078 1.707v.89h6.53c1.41 0 3.71.075 5.974.297v-9.906h-.445z"/>
        </g>
    </g>
</svg>
