<svg id="Layer_2" data-name="Layer 2" xmlns="http://www.w3.org/2000/svg" xmlns:xlink="http://www.w3.org/1999/xlink" viewBox="0 0 80 80">
  <defs>
    <linearGradient id="linear-gradient" x1="1794.171" y1="-2509.195" x2="1810.016" y2="-2509.195" gradientTransform="matrix(-0.751, 2.421, 2.421, 0.751, 7473.281, -2450.541)" gradientUnits="userSpaceOnUse">
      <stop offset="0.039" stop-color="#2cf4e1"/>
      <stop offset="1" stop-color="#2cb2e1"/>
    </linearGradient>
    <linearGradient id="linear-gradient-2" x1="-99.001" y1="71.991" x2="-92.039" y2="62.473" gradientTransform="matrix(2.535, 0, 0, -2.535, 303.927, 210.134)" xlink:href="#linear-gradient"/>
    <linearGradient id="linear-gradient-3" x1="-110.639" y1="70.794" x2="-100.801" y2="57.346" gradientTransform="matrix(2.535, 0, 0, -2.535, 303.927, 210.134)" gradientUnits="userSpaceOnUse">
      <stop offset="0" stop-color="#2ce5e1"/>
      <stop offset="1" stop-color="#2cb2e1"/>
    </linearGradient>
    <linearGradient id="linear-gradient-4" x1="-104.085" y1="61.445" x2="-104.085" y2="78.676" gradientTransform="matrix(2.535, 0, 0, -2.535, 303.927, 210.134)" gradientUnits="userSpaceOnUse">
      <stop offset="0"/>
      <stop offset="1" stop-color="#0d0d0d"/>
    </linearGradient>
    <linearGradient id="linear-gradient-6" x1="-117.643" y1="67.114" x2="-90.608" y2="67.114" gradientTransform="matrix(2.535, 0, 0, -2.535, 303.927, 210.134)" xlink:href="#linear-gradient"/>
  </defs>
  <g>
    <circle cx="42.398" cy="33.405" r="20.078" style="fill: url(#linear-gradient)"/>
    <path d="M56.5,27.384a11.111,11.111,0,0,1,2.191,6.641,11.273,11.273,0,0,1-3.232,7.748L56.7,46.4h3.763l3.963-4.494,1.062-6.575.222-3.918L61.79,26.986l-5.291.4Z" style="fill: url(#linear-gradient-2)"/>
    <path d="M12.889,46.931l.686,2.723s8.1,16.625,26.343,22.8c0,0,17.09-7.084,24.462-19.1L53.71,44.474A20.962,20.962,0,0,1,41.6,48.348c-7.239,0-17.068-4.317-17.068-13.216S34.716,22.979,34.716,22.979l-4.339-1.063H19.287l-7.04,16.957.642,8.058Z" style="fill: url(#linear-gradient-3)"/>
    <path d="M74.186,29.066c-.31-.309-9.3-9.828-33.936-18.307l-.155-.066C16.232,18.883,5.96,29.066,5.96,29.066a71.086,71.086,0,0,0,5.4,16.16,74.106,74.106,0,0,0,5.113,8.125c-1.239-2.723-2.59-5.092-2.59-9.165A21.022,21.022,0,0,1,33.919,22.957c.266,0,.554,0,.819.022l-2.656-2.657S42.774,18.529,56.5,26.831a3.238,3.238,0,0,1,0,1.66s6.464,2.789,7.017,8.213-2.878,8.522-5.645,8.965c0,0,1.439-2.236-.774-3.431a2.938,2.938,0,0,0-1.572-.354c-4.228,0-4.715,4.826-4.715,4.826a3.978,3.978,0,0,0-.045.73s-.708,7.062,11.866,6.929c0,0,6.375-7.217,8.058-13.7.619-2.391,1.062-4.184,1.35-5.512Q73.1,32.331,74.1,29.31Z" style="fill: url(#linear-gradient-4)"/>
    <path d="M74.186,29.066c-.31-.309-9.3-9.828-33.936-18.307l-.155-.066C16.232,18.883,5.96,29.066,5.96,29.066a71.086,71.086,0,0,0,5.4,16.16,74.106,74.106,0,0,0,5.113,8.125c-1.239-2.723-2.59-5.092-2.59-9.165A21.022,21.022,0,0,1,33.919,22.957c.266,0,.554,0,.819.022l-2.656-2.657S42.774,18.529,56.5,26.831a3.238,3.238,0,0,1,0,1.66s6.464,2.789,7.017,8.213-2.878,8.522-5.645,8.965c0,0,1.439-2.236-.774-3.431a2.938,2.938,0,0,0-1.572-.354c-4.228,0-4.715,4.826-4.715,4.826a3.978,3.978,0,0,0-.045.73s-.708,7.062,11.866,6.929c0,0,6.375-7.217,8.058-13.7.619-2.391,1.062-4.184,1.35-5.512Q73.1,32.331,74.1,29.31Z" style="fill: url(#linear-gradient-4)"/>
    <path d="M51.031,28.978a5.1,5.1,0,0,0,1.417-1.063,17.311,17.311,0,0,1,2.634.6,18.1,18.1,0,0,0-9.364-2.3s1.395,1.992,5.269,2.811l.044-.044Z" style="fill: #282828"/>
    <path d="M39.985,11.755c2.346.731,19.392,6.4,33.028,17.666l1.527-.443-.11-.089C61.1,17.6,44.257,11.733,40.759,10.6l-.332-.11-.442-.133-.775.243c-3.5,1.129-20.344,7-33.67,18.285l-.155.133,1.483.487C20.5,18.175,37.638,12.486,39.985,11.755Z" style="fill: #282828"/>
    <path d="M40,72.669l-1.063-.375A46.429,46.429,0,0,1,21.512,61.079,60.16,60.16,0,0,1,10.905,46.138,72.887,72.887,0,0,1,4.457,27.62l-.166-.937.677-.573C18.556,14.6,35.649,8.72,38.938,7.659l1.041-.328.728.219.333.111c3.278,1.058,20.349,6.929,33.934,18.426l.735.525-.164.926h0a70.837,70.837,0,0,1-6.457,18.577A59.675,59.675,0,0,1,58.479,61.057,46.656,46.656,0,0,1,41.059,72.27l-.368.13ZM7.662,27.905a69.637,69.637,0,0,0,6.016,16.852A56.54,56.54,0,0,0,23.724,58.9,43.642,43.642,0,0,0,39.985,69.367,43.7,43.7,0,0,0,56.246,58.881,56.613,56.613,0,0,0,66.291,44.713h0A70.307,70.307,0,0,0,72.306,27.9C59.53,17.359,43.714,11.8,39.984,10.583A108.949,108.949,0,0,0,27.946,15.4,95.019,95.019,0,0,0,7.662,27.905Z" style="fill: url(#linear-gradient-6)"/>
  </g>
</svg>
