<svg id="Layer_2" data-name="Layer 2" xmlns="http://www.w3.org/2000/svg" viewBox="0 0 80 80">
  <g>
    <path d="M39.947,9.966a29.876,29.876,0,0,0-17.968,6.008,28.24,28.24,0,1,1,0,48.077A30.033,30.033,0,1,0,39.947,9.966" style="fill: #a5aed8"/>
    <path d="M62.735,39.838a27.627,27.627,0,0,1-36.112,26.1,26.445,26.445,0,1,0,4.766-52.483h-.134a19.479,19.479,0,0,0-4.793.632A24.626,24.626,0,0,1,34.95,12.41,27.488,27.488,0,0,1,62.743,39.838" style="fill: #707ab9"/>
    <path d="M43.658,22.7a15.252,15.252,0,0,1,8.1,4.166,25.886,25.886,0,0,0-22.046-12.76A15.414,15.414,0,0,0,24.2,15.132c7.76-.071,15.3,3.115,19.46,7.57" style="fill: #3e499b"/>
    <path d="M43.658,57.231a15.242,15.242,0,0,0,8.1-4.164A25.893,25.893,0,0,1,29.713,65.828,15.411,15.411,0,0,1,24.2,64.8c7.76.073,15.3-3.115,19.46-7.57" style="fill: #3e499b"/>
    <path d="M40.045,22.315c.194,0,.379.022.57.027A24.178,24.178,0,0,0,23.95,15.685c-.562,0-1.115.049-1.668.088a29.971,29.971,0,0,0,0,48.387c.545.041,1.106.085,1.668.085a24.176,24.176,0,0,0,16.665-6.654c-.191,0-.376.027-.57.027a17.652,17.652,0,0,1,0-35.3" style="fill: #282161"/>
  </g>
</svg>
