<svg id="Layer_3" data-name="Layer 3" xmlns="http://www.w3.org/2000/svg" viewBox="0 0 80 80"><defs><style>.cls-1{fill:#53565c;}</style></defs><polygon class="cls-1" points="56.02 54.24 48.9 54.24 48.9 61.36 41.78 61.36 41.78 36.44 52.46 36.44 52.46 29.32 41.78 29.32 41.78 15.08 48.9 15.08 48.9 18.64 56.02 18.64 63.14 18.64 63.14 11.52 59.58 11.52 59.58 7.96 38.22 7.96 38.22 11.52 34.66 11.52 34.66 29.32 31.1 29.32 31.1 11.52 34.66 11.52 34.66 7.96 27.55 7.96 27.55 11.52 23.98 11.52 23.98 29.32 23.98 36.44 23.98 57.8 20.42 57.8 20.42 61.36 16.86 61.36 16.86 72.04 23.98 72.04 23.98 61.36 27.55 61.36 27.55 57.8 31.1 57.8 31.1 36.44 34.66 36.44 34.66 57.8 31.1 57.8 31.1 61.36 27.55 61.36 27.55 72.04 63.14 72.04 63.14 68.48 66.7 68.48 66.7 54.24 56.02 54.24"/><rect class="cls-1" x="13.3" y="29.32" width="7.12" height="7.12"/></svg>