<svg id="Layer_3" data-name="Layer 3" xmlns="http://www.w3.org/2000/svg" viewBox="0 0 80 80">
  <g>
    <g>
      <path d="M37.167,49.914h-.7v2.731a6.353,6.353,0,0,0,.713.03c.7,0,1.873-.18,1.873-1.386C39.052,50.048,37.734,49.914,37.167,49.914Z" style="fill: #53565c"/>
      <path d="M38.808,47.705c0-.758-.532-1.144-1.582-1.144a5.026,5.026,0,0,0-.76.048v2.273h.783C38.2,48.882,38.808,48.42,38.808,47.705Z" style="fill: #53565c"/>
      <path d="M55.339,48.072c-.117-.344-.209-.667-.291-.979-.095.362-.186.671-.278.965l-.706,2.088h1.98Z" style="fill: #53565c"/>
    </g>
    <g>
      <path d="M61.842,42.86C57.472,28.59,42.347,5.4,41.6,4.257L39.92,1.7,38.241,4.257C37.366,5.592,16.817,37.092,16.817,49.2a23.1,23.1,0,0,0,44.968,7.445h1.4V42.86ZM23.5,58.866a18.666,18.666,0,0,1-1.819-4.03H23.5Zm0-5.369H21.337a19,19,0,0,1-.5-4.294,11.349,11.349,0,0,1,.139-1.675H23.5Zm0-7.307H21.229a41.66,41.66,0,0,1,1.928-5.969H23.5ZM39.92,9.068c1.4,2.205,3.063,4.915,4.82,7.891H35.1C36.857,13.983,38.524,11.273,39.92,9.068ZM34.315,18.3H45.526c1.119,1.917,2.262,3.925,3.389,5.969H30.925C32.052,22.223,33.2,20.215,34.315,18.3Zm-4.122,7.308H49.648c1.078,1.987,2.13,3.993,3.116,5.969H27.076C28.063,29.6,29.114,27.593,30.193,25.606Zm-3.461,7.307H53.426c1,2.06,1.922,4.068,2.714,5.969H26.732Zm0,7.308H56.683q.54,1.37.972,2.639H32.337v3.33H26.732ZM46.479,46.7V45.576h6.057V46.7h-2.39v6.96H48.857V46.7Zm-.685,2.192V50H42.755v2.551h3.387v1.114H41.478V45.576h4.49v1.113H42.755v2.2ZM40.387,51.3a2.231,2.231,0,0,1-.7,1.661,4.05,4.05,0,0,1-2.8.769,11.72,11.72,0,0,1-1.584-.094l-.116-.016V45.705l.107-.022a9.927,9.927,0,0,1,1.871-.165,3.38,3.38,0,0,1,2.231.6,1.773,1.773,0,0,1,.7,1.485,1.927,1.927,0,0,1-1.111,1.711A2.106,2.106,0,0,1,40.387,51.3ZM26.732,47.528h5.605V53.5H26.732ZM39.92,68.29a19.018,19.018,0,0,1-13.991-6.147H53.911A19.016,19.016,0,0,1,39.92,68.29Zm15.122-7.485H26.732V54.836h5.605v1.812H57.5A19.093,19.093,0,0,1,55.042,60.805Zm2.138-7.144-.032-.091-.8-2.369h-2.58l-.812,2.46H51.625l2.747-8.085h1.409l.032.09,2.727,8Z" style="fill: #53565c"/>
      <path d="M55.048,47.093c-.095.362-.186.67-.278.965l-.706,2.088h1.98l-.7-2.074C55.222,47.728,55.13,47.405,55.048,47.093Z" style="fill: #53565c"/>
      <path d="M37.167,49.914h-.7v2.731a6.353,6.353,0,0,0,.713.03c.7,0,1.873-.18,1.873-1.387C39.052,50.048,37.734,49.914,37.167,49.914Z" style="fill: #53565c"/>
      <path d="M38.808,47.705c0-.758-.532-1.144-1.582-1.144a5.026,5.026,0,0,0-.76.048v2.273h.783C38.2,48.882,38.808,48.42,38.808,47.705Z" style="fill: #53565c"/>
    </g>
  </g>
</svg>
