<svg id="Layer_3" data-name="Layer 3" xmlns="http://www.w3.org/2000/svg" viewBox="0 0 80 80">
  <g>
    <path d="M40,10A30,30,0,1,0,70,40,30,30,0,0,0,40,10Zm1.827,23.2A5.532,5.532,0,1,1,36.3,27.669,5.532,5.532,0,0,1,41.827,33.2ZM60.87,40.872c-1.622,2.094-14.928,9.234-20.239,3.274C40.631,44.146,50.072,48.365,60.87,40.872Zm-6.52-2.42a1.181,1.181,0,1,1,1.18,1.181A1.181,1.181,0,0,1,54.35,38.452ZM45.357,67.313c-.4-2.838-.467-11.639,13.035-23.373,3.371-2.929,7.84-9.814-1.342-12.952-4.735-1.618-6.979-2.441-8.947-3.216a3.8,3.8,0,0,0-1.763-2.3,7.772,7.772,0,0,0-5.728-.447l-.034.008c-6.9-1.45-14.8,1.2-17.9,6.074-2.9,4.567-1.554,20.2-5.565,24.73A27.832,27.832,0,1,1,45.357,67.313Z" style="fill: #53565c"/>
    <path d="M36.3,29.387A3.814,3.814,0,1,0,40.108,33.2,3.814,3.814,0,0,0,36.3,29.387Z" style="fill: #53565c"/>
  </g>
</svg>
