<svg id="Layer_3" data-name="Layer 3" xmlns="http://www.w3.org/2000/svg" xmlns:xlink="http://www.w3.org/1999/xlink" viewBox="0 0 80 80"><defs><style>.cls-1{fill:#fff;}.cls-1,.cls-2{fill-rule:evenodd;}.cls-2{fill:#53565c;}.cls-3{mask:url(#mask);}.cls-4{mask:url(#mask-2-2);}.cls-5{mask:url(#mask-3);}</style><mask id="mask" x="13.76" y="5.42" width="51" height="41.01" maskUnits="userSpaceOnUse"><g id="mask-2"><path id="path-1" class="cls-1" d="M13.76,33l34.88.28a29.63,29.63,0,0,1,14.27,6.75c.38.33,1.84,0,1.84,0L64.57,5.42l-50.81.06V33"/></g></mask><mask id="mask-2-2" x="13.76" y="5.42" width="51" height="35.75" maskUnits="userSpaceOnUse"><g id="mask-2-3" data-name="mask-2"><path id="path-1-2" data-name="path-1" class="cls-1" d="M13.76,33l34.88.28a29.63,29.63,0,0,1,14.27,6.75c.38.33,1.84,0,1.84,0L64.57,5.42l-50.81.06V33"/></g></mask><mask id="mask-3" x="11.11" y="5.42" width="53.64" height="34.79" maskUnits="userSpaceOnUse"><g id="mask-2-4" data-name="mask-2"><path id="path-1-3" data-name="path-1" class="cls-1" d="M13.76,33l34.88.28a29.63,29.63,0,0,1,14.27,6.75c.38.33,1.84,0,1.84,0L64.57,5.42l-50.81.06V33"/></g></mask></defs><polygon id="Fill-90" class="cls-2" points="15.19 71.15 18.95 71.15 18.95 68.76 15.19 68.76 15.19 71.15"/><g id="编组"><g class="cls-3"><path id="Fill-77" class="cls-2" d="M57.34,13.22Q51.11,8.11,40.21,8.09H22.1v2.54H39.88c6.18,0,11.77,1.27,15.19,4.22a16.77,16.77,0,0,1,6,12.77,15,15,0,0,1-5.8,12.05c-3.55,2.93-9.89,4.23-16.23,4.23H18.63v2.53H39.19q11.48,0,17.93-5t6.45-14q0-9.08-6.23-14.2"/></g><g class="cls-4"><path id="Fill-79" class="cls-2" d="M55.81,16.89c-2.58-2-5.55-3.54-14-3.54h-14v2.47s6.25-.08,13.66,0c7.16.07,9.79.88,12.19,2.66,3.09,2.28,5,5.09,5,9,0,3.79-1.94,6.48-5,8.76s-8,2.36-10,2.4c-.75,0-10.37,0-10.37,0v2.47s4.79.07,7.75,0c6.79-.16,10.82-.56,14.58-3.35a12.41,12.41,0,0,0,5.39-10.43,12.22,12.22,0,0,0-5.26-10.47"/></g><g class="cls-5"><path id="Fill-80" class="cls-2" d="M54.56,20.15c-1.94-1.22-3.64-2-11.66-2h-10v1.63h9.76c7.11,0,9.8,1.26,10.62,1.76,1.59,1,3.7,2.57,3.7,5.82a7,7,0,0,1-3,5.7c-1.65.93-4.67,1.76-10,1.76H11.11v1.63H44c6.41,0,8.61-.72,10.87-2a7.83,7.83,0,0,0,3.78-7.12,8.15,8.15,0,0,0-4.12-7.18"/></g></g><path id="Fill-81" class="cls-2" d="M60.94,38.05q-6.22-5.13-17.13-5.13H31.7v2.53H43.48c6.18,0,11.78,1.27,15.19,4.22a16.78,16.78,0,0,1,6,12.78,14.93,14.93,0,0,1-5.79,12c-3.55,2.94-9.89,4.23-16.23,4.23H22.23v2.53H42.79q11.48,0,17.93-5t6.45-14q0-9.06-6.23-14.19"/><path id="Fill-82" class="cls-2" d="M59.41,41.71c-2.58-2-5.55-3.53-13.95-3.53h-19v2.46s11.27-.08,18.68,0c7.16.08,9.78.89,12.19,2.67,3.09,2.28,5,5.09,5,9s-1.94,6.48-5,8.77-8,2.36-10,2.4c-.75,0-10.37,0-10.37,0V66s4.79.07,7.75,0c6.79-.15,10.83-.56,14.58-3.34a12.43,12.43,0,0,0,5.38-10.43,12.25,12.25,0,0,0-5.25-10.48"/><polygon id="Fill-83" class="cls-2" points="30.54 50.09 48.34 50.09 48.34 48.71 30.54 48.71 30.54 50.09"/><polygon id="Fill-84" class="cls-2" points="37.88 54.91 48.23 54.91 48.23 53.72 37.88 53.72 37.88 54.91"/><polygon id="Fill-85" class="cls-2" points="22.23 50.09 27.5 50.09 27.5 48.71 22.23 48.71 22.23 50.09"/><polygon id="Fill-86" class="cls-2" points="18.94 55.01 34.96 55.01 34.96 53.63 18.94 53.63 18.94 55.01"/><polygon id="Fill-87" class="cls-2" points="22.89 19.63 29.13 19.63 29.13 18.49 22.89 18.49 22.89 19.63"/><polygon id="Fill-88" class="cls-2" points="18.54 28.85 32.83 28.85 32.83 27.53 18.54 27.53 18.54 28.85"/><polygon id="Fill-89" class="cls-2" points="18.94 65.79 34.01 65.79 34.01 64.14 18.94 64.14 18.94 65.79"/><polygon id="Fill-91" class="cls-2" points="24.6 24.82 48.26 24.82 48.26 23.49 24.6 23.49 24.6 24.82"/><polygon id="Fill-92" class="cls-2" points="36.43 28.85 47.82 28.85 47.82 27.53 36.43 27.53 36.43 28.85"/><path id="Fill-93" class="cls-2" d="M58.16,45.22c-1.94-1.17-3.64-2-11.66-2H33.71v1.56H46.22c7.11,0,9.8,1.22,10.62,1.71,1.59.94,3.7,2.48,3.7,5.61a6.71,6.71,0,0,1-3,5.5c-1.66.9-4.67,1.71-10,1.71H14.71v1.56H47.63c6.41,0,8.61-.68,10.87-1.89a7.5,7.5,0,0,0,3.78-6.87,7.84,7.84,0,0,0-4.12-6.93"/></svg>