<svg id="Layer_3" data-name="Layer 3" xmlns="http://www.w3.org/2000/svg" viewBox="0 0 80 80">
  <g>
    <path d="M45.718,26.211s1.395,1.992,5.269,2.811l.044-.044a5.1,5.1,0,0,0,1.417-1.063,17.311,17.311,0,0,1,2.634.6A18.1,18.1,0,0,0,45.718,26.211Z" style="fill: #53565c"/>
    <path d="M74.974,26.087C61.389,14.59,44.318,8.719,41.039,7.661l-.332-.111-.728-.219-1.041.328C35.649,8.72,18.556,14.6,4.968,26.11l-.677.573.167.937a72.823,72.823,0,0,0,6.447,18.518A60.16,60.16,0,0,0,21.512,61.079,46.429,46.429,0,0,0,38.937,72.294L40,72.669l.691-.269.368-.13a46.656,46.656,0,0,0,17.42-11.213A59.675,59.675,0,0,0,69.087,46.115a70.837,70.837,0,0,0,6.457-18.577h0l.164-.926ZM57.1,42.238c-.034-.019-.071-.032-.106-.05l.021-.148a11.908,11.908,0,0,0,2.567-11.648A9.531,9.531,0,0,1,63.516,36.7c.554,5.423-2.878,8.522-5.645,8.965C57.871,45.669,59.31,43.433,57.1,42.238ZM51.34,44.8A20.346,20.346,0,0,1,41.6,47.348c-6.48,0-16.068-3.883-16.068-12.216,0-8.049,9.394-11.17,9.488-11.2l3.362-1.083-5-1.225-1.3-1.3S42.774,18.529,56.5,26.831a3.171,3.171,0,0,1,.01,1.582.068.068,0,0,0-.01.078,10.123,10.123,0,0,1,1.639,5.534,10.253,10.253,0,0,1-2.961,7.063l-.382.406.116.434A4.433,4.433,0,0,0,51.34,44.8Zm4.906,14.08A43.7,43.7,0,0,1,39.985,69.367,43.642,43.642,0,0,1,23.724,58.9a56.292,56.292,0,0,1-9.795-13.675c-.021-.34-.044-.677-.044-1.043A21.085,21.085,0,0,1,31.457,23.21l.162.04c-3.227,1.719-8.086,5.386-8.086,11.882,0,4.379,2.169,8.107,6.274,10.783A22.445,22.445,0,0,0,41.6,49.348a22.154,22.154,0,0,0,9.166-2.015c0,.036,0,.071,0,.107,0,0-.61,6.131,9.484,6.858A50.6,50.6,0,0,1,56.246,58.881Z" style="fill: #53565c"/>
  </g>
</svg>
