<svg width="80" height="80" viewBox="0 0 80 80" xmlns="http://www.w3.org/2000/svg">
    <g fill="none" fill-rule="evenodd">
        <path fill="none" d="M0 0h80v80H0z"/>
        <g fill="#53565C" fill-rule="nonzero">
            <path d="M41.031 12.197 39.641 10l-1.435 2.197C37.444 13.318 20 40.045 20 50.36 20 61.166 28.79 70 39.641 70c10.807 0 19.642-8.79 19.642-19.641-.045-10.314-17.49-37.04-18.252-38.162zm4.17 36.01v-.942h5.158v.941H48.34v5.92h-1.076v-5.92h-2.063zm6.682-.942h1.211l.045.09 2.287 6.77H54.26l-.045-.09-.672-2.017H51.39l-.673 2.108h-1.12l2.286-6.861zM39.641 16.278c1.166 1.883 2.601 4.17 4.081 6.682h-8.206c1.524-2.512 2.914-4.843 4.125-6.682zm-4.798 7.803h9.507a170.485 170.485 0 0 1 2.87 5.067H31.973c.987-1.704 1.928-3.408 2.87-5.067zm-3.498 6.233h16.503a573.37 573.37 0 0 1 2.645 5.067H28.7a180.032 180.032 0 0 1 2.645-5.067zm-3.184 6.188h22.96a95.214 95.214 0 0 1 2.287 5.068H25.83c.672-1.615 1.48-3.319 2.331-5.068zm-2.78 6.233h28.476c.313.763.582 1.525.807 2.243h-21.48v2.825h-9.417c.314-1.48.897-3.229 1.614-5.068zM44.62 50.09v.941h-2.601v2.153h2.87v.942h-3.946v-6.861h3.811v.941h-2.735v1.884h2.6zM40 52.108c0 .538-.18 1.031-.583 1.39-.493.448-1.256.672-2.377.672-.672 0-1.12-.044-1.345-.09h-.09v-6.726h.09c.404-.09 1.031-.134 1.57-.134.896 0 1.48.134 1.883.493.404.27.583.717.583 1.256 0 .627-.359 1.166-.942 1.435.628.269 1.211.807 1.211 1.704zm-16.592-1.75c0-.448.045-.896.135-1.434h9.64v5.067h-9.326c-.27-1.166-.449-2.377-.449-3.632zm16.233 16.19c-4.708 0-8.924-2.019-11.883-5.203h23.767c-3.005 3.184-7.22 5.202-11.884 5.202zm12.825-6.369H26.771a16.577 16.577 0 0 1-2.645-5.067h9.058v1.525h21.345c-.538 1.3-1.255 2.466-2.063 3.542z"/>
            <path d="M37.265 50.942h-.583v2.332c.134 0 .358.044.627.044.583 0 1.57-.134 1.57-1.166 0-1.076-1.121-1.21-1.614-1.21zM38.655 49.058c0-.628-.449-.986-1.346-.986-.269 0-.493 0-.627.045v1.928h.672c.807.045 1.3-.359 1.3-.987zM52.735 49.372c-.09-.314-.179-.583-.269-.852-.09.314-.179.583-.224.807l-.583 1.794h1.66l-.584-1.749z"/>
        </g>
    </g>
</svg>
