<svg id="Layer_2" data-name="Layer 2" xmlns="http://www.w3.org/2000/svg" viewBox="0 0 178 80">
  <g>
    <path d="M55.155,29.287a3.048,3.048,0,1,1,3.06,3.052A3.071,3.071,0,0,1,55.155,29.287Z" style="fill: #ffe502"/>
    <g>
      <path d="M27.584,46.341a.581.581,0,0,0-.785.152c-.175.212-.328.442-.51.648a31.534,31.534,0,0,1-2.561,2.843A7.476,7.476,0,0,1,15.2,51.37a9.006,9.006,0,0,1-4.538-4.926A19.288,19.288,0,0,1,9.423,35.792a12.717,12.717,0,0,1,1.985-5.469,6.92,6.92,0,0,1,10.63-.983,21.179,21.179,0,0,1,3.788,5.549,1.67,1.67,0,0,0,.307.543.831.831,0,0,0,.585.208.673.673,0,0,0,.425-.387,1.809,1.809,0,0,0,.055-.718q-.171-2.857-.359-5.714c-.046-.711-.068-1.425-.172-2.127a1.087,1.087,0,0,0-.443-.713c-.317-.181-.614.06-.829.328-.142.176-.275.36-.412.541-.282.372-.563.746-.838,1.109a1.214,1.214,0,0,1-.178-.047c-.117-.055-.232-.116-.347-.174a18.139,18.139,0,0,0-5.932-1.929A12.843,12.843,0,0,0,6.422,29.481a14.82,14.82,0,0,0-4.3,12.637A13.3,13.3,0,0,0,6.47,50.871a13.593,13.593,0,0,0,8.251,3.4A13.025,13.025,0,0,0,27.1,48.651a8.262,8.262,0,0,0,.811-1.538A.586.586,0,0,0,27.584,46.341Z"/>
      <path d="M87.91,52.948a4,4,0,0,0-.877-.277,1.318,1.318,0,0,1-1.068-1.23,18.913,18.913,0,0,1-.117-2.031c.029-3.025.133-6.05.114-9.074-.024-3.8-3.414-5.194-5.831-4.915a8.079,8.079,0,0,0-5.185,2.885c-.308.344-.587.713-.949,1.155a9.518,9.518,0,0,0-.1-1.1c-.2-.9-.422-1.784-.634-2.676-.064-.27-.225-.333-.5-.321-1.862.088-3.725.154-5.587.233a1.84,1.84,0,0,0-.62.089.58.58,0,0,0-.324.363.537.537,0,0,0,.233.415,4.752,4.752,0,0,0,.882.4A1.9,1.9,0,0,1,68.6,38.252a6.586,6.586,0,0,1,.23,1.286,77.088,77.088,0,0,1-.292,11.631,1.534,1.534,0,0,1-1.5,1.6l-.477.093c-.293.058-.537.171-.526.524a.571.571,0,0,0,.548.58,4.976,4.976,0,0,0,.872.006,44.4,44.4,0,0,1,7-.048,7.926,7.926,0,0,0,1.307.039.518.518,0,0,0,.511-.59.476.476,0,0,0-.485-.541c-.209-.022-.411-.1-.62-.122A1.276,1.276,0,0,1,73.994,51.7a6.026,6.026,0,0,1-.2-.9,24.053,24.053,0,0,1,.114-6.482,12.1,12.1,0,0,1,1.489-4.585,4.354,4.354,0,0,1,2.257-2.045,2.213,2.213,0,0,1,3.034,1.506,4.714,4.714,0,0,1,.218,1.042A82.1,82.1,0,0,1,80.767,50.8a1.9,1.9,0,0,1-1.749,2.056c-.294.046-.648.128-.615.551s.371.546.727.572a6.771,6.771,0,0,0,.922-.025c.534-.035,1.067-.121,1.6-.114,1.636.021,3.271.079,4.907.115a6.579,6.579,0,0,0,1.3-.036.686.686,0,0,0,.4-.5C88.283,53.278,88.076,53.036,87.91,52.948Z"/>
      <path d="M44.6,35.981a11.434,11.434,0,0,0-7.542.055c-7.4,2.588-7.784,11.182-3.917,15.237a9.693,9.693,0,0,0,7.232,2.9A10.081,10.081,0,0,0,50.411,46.26,8.567,8.567,0,0,0,44.6,35.981Zm-.3,13.642a5.253,5.253,0,0,1-1.233,2.284,3.112,3.112,0,0,1-4.552-.028,6.436,6.436,0,0,1-1.571-3.288c-.29-1.486-.45-3-.666-4.5l.128-.019a12.555,12.555,0,0,1,.94-5.259,3.24,3.24,0,0,1,2.49-2.094,3.1,3.1,0,0,1,3.18,1.528,9.151,9.151,0,0,1,1.311,3.217A16.067,16.067,0,0,1,44.3,49.623Z"/>
      <path d="M132.934,36.548a11.139,11.139,0,0,0-6.426-1.082c-4.668.5-8.064,3.6-8.679,8.065a9.006,9.006,0,0,0,2.64,8.075c1.9,1.854,4.282,2.528,7.317,2.568a9.957,9.957,0,0,0,9.48-7.389A8.566,8.566,0,0,0,132.934,36.548Zm-1.54,12.668a7.789,7.789,0,0,1-.773,1.926,3.169,3.169,0,0,1-5.584.159,8.794,8.794,0,0,1-1.3-3.576c-.195-1.21-.285-2.436-.422-3.656a13.985,13.985,0,0,1,1.045-5.311,3.149,3.149,0,0,1,3.4-2.042,3.258,3.258,0,0,1,2.28,1.587,10.184,10.184,0,0,1,1.414,3.794A15.888,15.888,0,0,1,131.394,49.216Z"/>
      <path d="M164.268,44.229q4.694-.057,9.389-.119c.421-.006.844-.015,1.262-.058.935-.1,1.133-.354,1.046-1.3a7.9,7.9,0,0,0-8.028-7.314,9.414,9.414,0,0,0-5.629,1.721,9.783,9.783,0,0,0-4.074,9.323,7.932,7.932,0,0,0,4.32,6.571,10.309,10.309,0,0,0,6.753,1,9.085,9.085,0,0,0,5.571-2.9,2.626,2.626,0,0,0,.53-.8.713.713,0,0,0-.149-.622c-.1-.1-.412-.079-.593-.011a2.228,2.228,0,0,0-.542.4,9.644,9.644,0,0,1-3.249,1.81,4.9,4.9,0,0,1-5.961-2.311,9.442,9.442,0,0,1-1.1-5.055C163.82,44.2,164.037,44.232,164.268,44.229Zm1.069-6.391a2.732,2.732,0,0,1,4.334-.275A4.918,4.918,0,0,1,171,41.106a1.345,1.345,0,0,1-1.319,1.509c-1.874.052-3.751.016-5.712.016A9.224,9.224,0,0,1,165.337,37.838Z"/>
      <path d="M152.388,35.4a5.763,5.763,0,0,0-3.941,2.826c-.261.4-.487.826-.728,1.24l-.145-.012V35.378c-.253,0-.349-.006-.443,0q-3.249.243-6.5.488c-.1.008-.221-.008-.284.044-.181.152-.43.31-.481.51-.081.321.158.539.476.622a2.836,2.836,0,0,0,.433.058c1.4.15,1.83.576,2,1.956.007.065.011.129.017.194a81.389,81.389,0,0,1,.234,10.228,19.112,19.112,0,0,1-.253,2.358.948.948,0,0,1-.981.839c-.387.026-.771.094-1.156.146-.286.038-.55.165-.472.483a.94.94,0,0,0,.432.6,2.213,2.213,0,0,0,.953.062,44.589,44.589,0,0,1,7.189-.054c.645.051,1.294.061,1.941.053.287,0,.609-.149.542-.482a.961.961,0,0,0-.492-.61,3.4,3.4,0,0,0-1-.111c-1.106-.083-1.527-.417-1.557-1.509-.077-2.778-.138-5.559-.1-8.337a6.247,6.247,0,0,1,1.632-4.261c.76-.824,1.456-.73,2.024.23a15.735,15.735,0,0,0,.921,1.482,2.089,2.089,0,0,0,3.156.273,2.925,2.925,0,0,0,.422-3.73A3.662,3.662,0,0,0,152.388,35.4Z"/>
      <path d="M64.041,52.871a7.832,7.832,0,0,0-1.189-.227A1.467,1.467,0,0,1,61.5,51.275a8.479,8.479,0,0,1-.068-1.353q0-6.962,0-13.922c0-.19,0-.381,0-.63-.214,0-.342-.007-.47,0q-3.348.2-6.7.415a1.235,1.235,0,0,0-.522.089c-.161.091-.363.266-.376.419a.6.6,0,0,0,.295.479A3.242,3.242,0,0,0,54.6,37c1.236.151,1.488.385,1.656,1.6a2.817,2.817,0,0,1,.025.289c.082,2.456.2,4.911.233,7.368.024,1.614-.016,3.233-.115,4.845-.069,1.124-.349,1.349-1.471,1.57a7.109,7.109,0,0,0-1.142.213.744.744,0,0,0-.412.536c-.008.155.248.372.435.472a1.1,1.1,0,0,0,.573.041,53.548,53.548,0,0,1,8.208.044,9.4,9.4,0,0,0,1.453-.034c.292-.025.582-.2.5-.529A.914.914,0,0,0,64.041,52.871Z"/>
      <path d="M109.94,32.814a1.851,1.851,0,1,0,1.693,1.844A1.775,1.775,0,0,0,109.94,32.814Zm0,3.079a1.246,1.246,0,1,1,1.084-1.235A1.168,1.168,0,0,1,109.94,35.893Z"/>
      <path d="M109.94,34.215a.448.448,0,1,0,.384.443A.417.417,0,0,0,109.94,34.215Z"/>
      <path d="M105,32.814a1.851,1.851,0,1,0,1.693,1.844A1.776,1.776,0,0,0,105,32.814Zm0,3.079a1.246,1.246,0,1,1,1.084-1.235A1.169,1.169,0,0,1,105,35.893Z"/>
      <path d="M105,34.215a.448.448,0,1,0,.384.443A.417.417,0,0,0,105,34.215Z"/>
      <path d="M116.716,41.1h-5.583a13.182,13.182,0,0,0,1.535-4.941,7.56,7.56,0,0,0-.39-3.343,3.388,3.388,0,0,0,1.4-1.517.3.3,0,0,0-.552-.256,2.721,2.721,0,0,1-1.088,1.216,5.075,5.075,0,0,0-9.128,0,2.731,2.731,0,0,1-1.087-1.216.3.3,0,0,0-.553.256,3.388,3.388,0,0,0,1.4,1.517,7.56,7.56,0,0,0-.39,3.343,13.182,13.182,0,0,0,1.535,4.941H99.986q0-4.947.011-9.9a7.988,7.988,0,0,1,.191-1.636,2.406,2.406,0,0,1,2.29-2.193,14.387,14.387,0,0,0,1.628-.28c.311-.062.548-.221.508-.593a.594.594,0,0,0-.584-.547,3.432,3.432,0,0,0-.582-.024c-1.572.063-3.143.192-4.713.184-2.577-.015-5.154-.122-7.73-.177a2.532,2.532,0,0,0-.948.134.663.663,0,0,0-.33.514.713.713,0,0,0,.341.515,2.025,2.025,0,0,0,.755.13,2.712,2.712,0,0,1,2.764,2.222,14.354,14.354,0,0,1,.4,3.21c.039,4.513.028,9.026,0,13.539a26.21,26.21,0,0,1-.262,3.863,2.955,2.955,0,0,1-2.746,2.649,5.719,5.719,0,0,0-1.047.2c-.185.069-.446.334-.423.468a.994.994,0,0,0,.446.594,1.277,1.277,0,0,0,.667.045c.873-.053,1.746-.171,2.619-.171,5.8,0,11.608.032,17.412.051,1.051,0,2.1,0,3.3,0,.449-2.763.916-5.617,1.376-8.471a.615.615,0,0,0-.414-.777c-.362-.11-.578.127-.752.4-.1.162-.176.346-.281.509-.756,1.166-1.456,2.374-2.29,3.482a7.849,7.849,0,0,1-4.054,2.88,17.149,17.149,0,0,1-5.928.517,1.43,1.43,0,0,1-1.463-1.306,5.719,5.719,0,0,1-.157-1.2q0-4.113,0-8.226h4.163a18.76,18.76,0,0,0,3.116,4.005.305.305,0,0,0,.414,0A18.76,18.76,0,0,0,110.8,41.71h5.921a.305.305,0,0,0,0-.61Zm-9.244-11.209a4.764,4.764,0,0,1,3.219,1.494,2.777,2.777,0,0,0-.821-.125,2.722,2.722,0,0,0-2.4,1.407,2.722,2.722,0,0,0-2.4-1.407,2.773,2.773,0,0,0-.825.127A4.756,4.756,0,0,1,107.472,29.891Zm.305,14.853V43.262a.305.305,0,1,0-.61,0v1.483a19.465,19.465,0,0,1-2.3-3.035h5.2A19.51,19.51,0,0,1,107.777,44.744Zm2.649-3.644h-5.909a12.76,12.76,0,0,1-1.634-5,6.649,6.649,0,0,1,.493-3.427.321.321,0,0,0,.095-.074,2.12,2.12,0,0,1,1.606-.724,2.052,2.052,0,0,1,2.087,1.972c0,.012,0,.023,0,.035v2.356a.31.31,0,0,0,.31.31h0a.31.31,0,0,0,.31-.31V33.887c0-.012,0-.023,0-.035a2.051,2.051,0,0,1,2.086-1.972,2.117,2.117,0,0,1,1.606.724.311.311,0,0,0,.091.071,6.649,6.649,0,0,1,.494,3.43A12.756,12.756,0,0,1,110.426,41.1Z"/>
    </g>
  </g>
</svg>
