<svg id="Layer_2" data-name="Layer 2" xmlns="http://www.w3.org/2000/svg" viewBox="0 0 80 80">
  <g>
    <path d="M40,6.424,10.913,23.212V56.788L40,73.576,69.087,56.788V23.212Zm0,0L10.913,23.212V56.788L40,73.576,69.087,56.788V23.212Z" style="fill: #fff"/>
    <path d="M51.483,60.46H47.345L42.39,55.914V53.582l5.13-4.9V40.933l6.7-4.372,7.636,5.771ZM34.346,48.219l.758-7.286L32.6,34.4H47.4l-2.448,6.529.7,7.286H34.346Zm3.381,7.7-4.955,4.6h-4.2L18.141,42.332l7.694-5.713L32.6,40.933v7.752l5.13,4.9Zm-9.21-34.975H51.425L54.165,32.6H25.835ZM40,6.424,10.913,23.212V56.788L40,73.576,69.087,56.788V23.212Z" style="fill: #03316c"/>
  </g>
</svg>
