<svg id="Layer_3" data-name="Layer 3" xmlns="http://www.w3.org/2000/svg" viewBox="0 0 80 80">
  <path d="M54.8,45.944a84.034,84.034,0,0,0,2.789-21.019C57.588,15.485,49.863,8.09,40,8.09s-17.588,7.4-17.588,16.835A84.034,84.034,0,0,0,25.2,45.944C19.43,47.272,4.784,52.561,5.936,71.91l3.894-.232c-1.2-20.13,17.237-22.184,18.018-22.261l2.373-.224-.689-2.282a79.339,79.339,0,0,1-3.22-21.986c0-7.253,6.013-12.935,13.688-12.935s13.688,5.682,13.688,12.935a79.339,79.339,0,0,1-3.22,21.986l-.689,2.282,2.373.224c.781.077,19.217,2.131,18.018,22.261l3.894.232C75.216,52.561,60.57,47.272,54.8,45.944Z" style="fill: #53565c"/>
</svg>
