<svg id="Layer_2" data-name="Layer 2" xmlns="http://www.w3.org/2000/svg" viewBox="0 0 80 80">
  <g>
    <circle cx="40" cy="40" r="30" style="fill: #8ec548"/>
    <circle cx="40" cy="40" r="27.834" style="fill: #fae78f"/>
    <path d="M16.778,56.184S27.208,71.879,45.5,68.1c-.312-1.444-2.316-10.946,12.893-24.163,3.371-2.929,7.84-9.814-1.342-12.952-8.2-2.8-8.935-3.22-13.69-5.133-7.405-2.98-17.16-.292-20.681,5.251C19.7,35.8,21.2,52.171,16.778,56.184Z" style="fill: #8ec548"/>
    <path d="M40.841,14.239s9.278,1.519,13.944,4.948,10.323,13.389,11.2,22.181c.169,1.687,1.112-3.457-.013-8.293S62.32,24.641,57.6,20.705s-6.094-5.8-11.133-6.578C42.961,13.584,40.392,13.227,40.841,14.239Z" style="fill: #fff"/>
    <path d="M40.631,44.146s9.441,4.219,20.239-3.274C59.248,42.966,45.942,50.106,40.631,44.146Z" style="fill: #53565c"/>
    <circle cx="55.53" cy="38.452" r="1.18" style="fill: #fff"/>
    <circle cx="36.295" cy="33.201" r="5.532" style="fill: #fff"/>
    <circle cx="36.295" cy="33.201" r="3.814" style="fill: #53565c"/>
    <path d="M43.361,25.855c2.01.809,3.3,1.35,4.742,1.918a3.8,3.8,0,0,0-1.763-2.3,7.772,7.772,0,0,0-5.728-.447A16.564,16.564,0,0,1,43.361,25.855Z" style="fill: #139248"/>
  </g>
</svg>
