<svg id="Layer_2" data-name="Layer 2" xmlns="http://www.w3.org/2000/svg" viewBox="0 0 80 80">
  <g>
    <g>
      <polygon points="12.965 61.963 34.793 55.469 34.793 31.657 12.965 38.151 12.965 61.963" style="fill: #95c11f"/>
      <polygon points="49.946 66.112 34.793 55.469 34.793 31.657 49.946 42.3 49.946 66.112" style="fill: #efd501"/>
      <polyline points="34.793 55.469 49.946 66.112 28.118 72.606 12.965 61.963" style="fill: #164294"/>
    </g>
    <g>
      <polygon points="60.808 13.691 40.046 16.433 48.273 34.976 69.035 32.233 60.808 13.691" style="fill: #f39100"/>
      <polygon points="33.648 30.014 40.046 16.433 48.273 34.976 41.874 48.556 33.648 30.014" style="fill: #6f286a"/>
      <polygon points="62.637 45.814 41.874 48.556 48.273 34.976 69.035 32.233 62.637 45.814" style="fill: #0294cd"/>
    </g>
    <g>
      <polygon points="17.89 13.473 32.723 16.209 34.404 31.89 19.571 29.154 17.89 13.473" style="fill: #d51416"/>
      <polygon points="41.95 8.13 32.723 16.209 34.404 31.89 43.631 23.811 41.95 8.13" style="fill: #037b3d"/>
      <polyline points="32.723 16.209 41.95 8.13 27.117 5.394 17.89 13.473" style="fill: #30b7bc"/>
    </g>
  </g>
</svg>
