<?xml version="1.0" encoding="UTF-8"?>
<svg width="48px" height="48px" viewBox="0 0 48 48" version="1.1" xmlns="http://www.w3.org/2000/svg" xmlns:xlink="http://www.w3.org/1999/xlink">
    <title>01_icn</title>
    <g id="Page-1" stroke="none" stroke-width="1" fill="none" fill-rule="evenodd">
        <g id="Group-24">
            <rect id="Rectangle" fill="#D8D8D8" opacity="0" x="0" y="0" width="48" height="48"></rect>
            <g id="Group-Copy-4" transform="translate(4.000000, 4.000000)" fill="#F2732A" fill-rule="nonzero">
                <polygon id="Path" points="24.6690534 20.3482792 26.3183105 23.1357358 30.3601162 22.3923794"></polygon>
                <path d="M23.7630877,31.5911556 C19.3960635,33.0778035 14.3553726,32.0789833 10.8710843,28.5946949 C5.99300256,23.7166132 5.99300256,15.7956111 10.8710843,10.8942995 C15.7491009,6.01628288 23.6701681,6.01628288 28.5714146,10.8942995 C32.055768,14.3786529 33.0545882,19.4192788 31.5679403,23.7863029 L26.3182454,24.7618932 L40,37.1196742 L36.4227921,30.3135767 C41.254349,22.6713333 40.3716782,12.4506371 33.7050251,5.78398398 C25.993027,-1.92799466 13.4959317,-1.92799466 5.78399862,5.78398398 C-1.92799954,13.4959171 -1.92799954,25.9930123 5.78399862,33.7050105 C12.4506517,40.3716636 22.6712828,41.2776293 30.3135913,36.4227775 L37.1196238,40.0000504 L24.7619079,26.3182308 L23.7630877,31.5911556 Z" id="Path"></path>
                <polygon id="Path" points="23.066191 26.3877903 20.2787343 24.7385332 22.3228995 30.429596"></polygon>
            </g>
        </g>
    </g>
</svg>