<svg id="Layer_2" data-name="Layer 2" xmlns="http://www.w3.org/2000/svg" viewBox="0 0 80 80">
  <g>
    <circle cx="40" cy="40" r="30" style="fill: #2e3148"/>
    <circle cx="40" cy="40" r="17.407" style="fill: #1b1e36"/>
    <path d="M40.062,13.827c-3.239,0-5.864,11.746-5.864,26.235S36.823,66.3,40.062,66.3s5.864-11.745,5.864-26.234S43.3,13.827,40.062,13.827Zm.405,50.988a.464.464,0,0,1-.741.123A13.938,13.938,0,0,1,37.489,60C34.88,51.605,35.5,33.58,35.5,33.58c1.226-14.31,3.457-17.69,4.215-18.44a.463.463,0,0,1,.594-.047c1.1.78,2.025,4.043,2.025,4.043a77.119,77.119,0,0,1,2.48,19.629A101.836,101.836,0,0,1,43.448,56.3C42.206,63.333,40.467,64.815,40.467,64.815Z" style="fill: #6f7390"/>
    <path d="M62.817,27.006c-1.612-2.81-13.106.758-25.679,7.969S15.7,50.309,17.306,53.117s13.106-.758,25.679-7.969S64.428,29.815,62.817,27.006ZM18.793,52.731c-.618-.078-.478-.585-.478-.585a13.96,13.96,0,0,1,3.166-4.4c5.987-6.441,21.931-14.871,21.931-14.871,13.021-6.058,17.066-5.8,18.092-5.521a.462.462,0,0,1,.337.493c-.124,1.344-2.5,3.768-2.5,3.768A76.978,76.978,0,0,1,43.552,43.542,101.67,101.67,0,0,1,27.665,51.08c-6.722,2.422-8.872,1.651-8.872,1.651Z" style="fill: #6f7390"/>
    <path d="M62.76,53.21c1.625-2.8-7.222-10.963-19.753-18.227S18.986,24.106,17.363,26.914s7.222,10.963,19.759,18.227S61.137,56.017,62.76,53.21ZM18.44,28a.468.468,0,0,1,.266-.706,13.945,13.945,0,0,1,5.394.541c8.572,1.952,23.856,11.526,23.856,11.526C59.723,47.591,61.528,51.219,61.8,52.248a.463.463,0,0,1-.257.538c-1.227.562-4.514-.275-4.514-.275A77.191,77.191,0,0,1,38.8,44.819a101.222,101.222,0,0,1-14.477-9.967C18.852,30.247,18.442,28,18.442,28Z" style="fill: #6f7390"/>
    <circle cx="40" cy="40" r="3.086" style="fill: #b7b9c8"/>
    <ellipse cx="52.654" cy="28.148" rx="1.79" ry="1.852" style="fill: #b7b9c8"/>
    <ellipse cx="23.272" cy="34.444" rx="1.79" ry="1.852" style="fill: #b7b9c8"/>
    <ellipse cx="36.358" cy="57.16" rx="1.79" ry="1.852" style="fill: #b7b9c8"/>
  </g>
</svg>
