<svg width="80" height="80" viewBox="0 0 80 80" xmlns="http://www.w3.org/2000/svg">
    <g fill="none" fill-rule="evenodd">
        <path fill="none" d="M0 0h80v80H0z"/>
        <path d="m46.392 68.628-6.65-6.65-6.649 6.65-3.217-1.287A28.45 28.45 0 0 1 11 40.528C11 24.87 23.87 12 39.528 12c15.659 0 28.529 12.87 28.529 28.528 0 12.012-7.508 22.737-18.662 26.813l-3.003 1.287zm-6.864-21.88 9.224 9.224c5.362-3.217 8.794-9.009 8.794-15.444a17.76 17.76 0 0 0-17.803-17.803c-9.867 0-18.018 7.936-18.018 17.803 0 6.435 3.432 12.227 8.794 15.444l9.01-9.223z" fill="#578fff" fill-rule="nonzero"/>
    </g>
</svg>
