<svg id="Layer_3" data-name="Layer 3" xmlns="http://www.w3.org/2000/svg" viewBox="0 0 178 80">
  <g>
    <path d="M11.992,46.719c-1.585-5.476-2.018-6.089-3.963-6.269,2.882-.4,5.08-2.738,5.08-7.421,0-4-1.838-6.341-5.729-6.341H1.04v.757c1.657.324,1.729.36,1.729,1.441V51.511c0,1.08-.072,1.116-1.729,1.441v.756H7.813v-.756c-1.657-.325-1.729-.361-1.729-1.441V40.883h.072c1.044,0,1.224.108,2.666,6.088,1.261,5.224,1.261,4.828,1.369,6.737h4.215v-.756C13.577,52.555,13.757,52.772,11.992,46.719ZM6.7,39.946H6.083V30.074c0-2.2.361-2.593,1.3-2.593,1.406,0,2.234,1.981,2.234,6.052C9.614,38.253,8.461,39.946,6.7,39.946Z" style="fill: #53565c"/>
    <path d="M26.979,50.826l-5.4-25.759h-.36l-5.44,25.759c-.288,1.405-.216,1.585-1.009,2.126v.756h4.648v-.756c-2.486-.289-2.594-.072-2.234-2.126l.865-5.044H22.62l1.009,5.044c.432,2.054.432,1.837-2.018,2.126v.756h6.377v-.756C27.231,52.447,27.3,52.3,26.979,50.826Zm-8.754-6.052,1.909-11.133L22.4,44.774Z" style="fill: #53565c"/>
    <path d="M34.185,26.688H28.348v.757c1.658.324,1.73.36,1.73,1.441V51.511c0,1.08-.072,1.116-1.73,1.441v.756h5.837c4.467,0,7.565-3.675,7.565-13.474C41.75,31.912,39.769,26.688,34.185,26.688Zm.576,26.228c-1.009,0-1.369-.433-1.369-2.594V30.074c0-2.2.36-2.593,1.3-2.593,2.054,0,3.6,4.395,3.6,13.185C38.292,50.178,36.418,52.916,34.761,52.916Z" style="fill: #53565c"/>
    <path d="M42.831,27.445c1.658.324,1.73.36,1.73,1.441V51.511c0,1.08-.072,1.116-1.73,1.441v.756h6.774v-.756c-1.658-.325-1.73-.361-1.73-1.441V28.886c0-1.081.072-1.117,1.73-1.441v-.757H42.831Z" style="fill: #53565c"/>
    <path d="M50.865,40.2c0,9.727,2.342,13.943,6.377,13.943a5.191,5.191,0,0,0,3.531-1.406v-7.1h-.361c-2.125,6.989-2.341,7.71-3.242,7.71-1.477,0-2.774-5.873-2.774-13.4,0-8.791.576-12.97,2.2-12.97,1.153,0,1.622,1.369,3.819,7.782h.361V27.589a4.963,4.963,0,0,0-3.531-1.4C53.207,26.184,50.865,30.759,50.865,40.2Z" style="fill: #53565c"/>
    <path d="M74.247,50.826l-5.4-25.759h-.36l-5.44,25.759c-.289,1.405-.217,1.585-1.009,2.126v.756h4.647v-.756c-2.485-.289-2.594-.072-2.233-2.126l.864-5.044h4.576L70.9,50.826c.433,2.054.433,1.837-2.017,2.126v.756h6.377v-.756C74.5,52.447,74.571,52.3,74.247,50.826Zm-8.755-6.052L67.4,33.641l2.269,11.133Z" style="fill: #53565c"/>
    <path d="M95.827,41.1l-2.774-6.2,2.522-5.332c.756-1.621.72-1.8,2.017-2.125v-.757H93.233v.757c1.513.216,1.621.144.937,2.125L92.657,34,90.675,29.57c-.864-1.945-.972-1.909,1.3-2.125v-.757h-6.34v.757c.972.36,1.116.5,1.837,2.125l2.882,6.449-2.63,5.08c-.828,1.621-.72,1.8-2.017,2.125v.757h4.359v-.757c-1.513-.216-1.693-.144-.937-2.125l1.621-4.179L92.621,41.1c.864,1.945.756,1.909-1.3,2.125v.757h6.341v-.757C96.692,42.864,96.547,42.72,95.827,41.1Z" style="fill: #53565c"/>
    <path d="M84.731,51.835c-.288.9-.36,1.009-1.261,1.009H80.66V28.886c0-1.081.072-1.117,2.45-1.441v-.757H75.616v.757c1.657.324,1.729.36,1.729,1.441V51.511c0,1.08-.072,1.116-1.729,1.441v.756h5.908c1.55,0,3.459.072,5.368.252V45.818h-.36Z" style="fill: #53565c"/>
    <path d="M98.746,40.2c0,9.727,2.341,13.943,6.376,13.943a5.189,5.189,0,0,0,3.531-1.406v-7.1h-.36c-2.126,6.989-2.342,7.71-3.243,7.71-1.477,0-2.774-5.873-2.774-13.4,0-8.791.577-12.97,2.2-12.97,1.153,0,1.621,1.369,3.819,7.782h.36V27.589a4.963,4.963,0,0,0-3.531-1.4C101.087,26.184,98.746,30.759,98.746,40.2Z" style="fill: #53565c"/>
    <path d="M137.763,50.826l-5.405-25.759H132l-5.44,25.759c-.288,1.405-.216,1.585-1.009,2.126-1.657-.325-1.729-.361-1.729-1.441V28.886c0-1.081.072-1.117,1.729-1.441v-.757h-6.772v.757c1.657.324,1.729.36,1.729,1.441V39.622h-5.188V28.886c0-1.081.072-1.117,1.729-1.441v-.757h-6.773v.757c1.657.324,1.729.36,1.729,1.441V51.511c0,1.08-.072,1.116-1.729,1.441v.756h6.773v-.756c-1.657-.325-1.729-.361-1.729-1.441V40.7h5.188V51.511c0,1.08-.072,1.116-1.729,1.441v.756H130.2v-.756c-2.486-.289-2.594-.072-2.234-2.126l.865-5.044H133.4l1.009,5.044c.433,2.054.433,1.837-2.017,2.126v.756h6.376v-.756C138.015,52.447,138.087,52.3,137.763,50.826Zm-8.755-6.052,1.91-11.133,2.269,11.133Z" style="fill: #53565c"/>
    <path d="M147.238,27.445c2.378.324,2.414.36,2.45,1.441l.468,16.68-8.862-20.1h-.361l-.072,26.048c0,1.081-.072,1.117-1.729,1.441v.756h5.548v-.756c-2.378-.324-2.414-.36-2.45-1.441l-.468-16.717,8.862,20.139h.361l.072-26.047c0-1.081.072-1.117,1.729-1.441v-.757h-5.548Z" style="fill: #53565c"/>
    <path d="M158.911,41.387c2.522.324,2.593.36,2.593,1.441v8.863a2.061,2.061,0,0,1-.324,1.333.906.906,0,0,1-.72.324c-1.3,0-3.315-2.594-3.315-12.862,0-10.412,1.117-13.51,2.882-13.51,1.153,0,2.018.685,4.144,7.782h.36V27.589a6.271,6.271,0,0,0-3.891-1.4c-4.4,0-6.954,4.935-6.954,14.014,0,9.367,2.7,13.943,6.738,13.943A6.067,6.067,0,0,0,164.6,52.2a17.285,17.285,0,0,1-.216-2.522V42.828c0-1.081.072-1.117,1.369-1.441V40.63h-6.845Z" style="fill: #53565c"/>
    <path d="M176.6,45.638l-1.91,6.2c-.288.9-.36,1.009-1.261,1.009H171.52V40.666h4.035v-1.08H171.52V27.553h1.909c.9,0,.973.108,1.261,1.008l1.91,6.2h.36V26.436c-1.909.18-3.819.252-5.008.252h-5.476v.757c1.658.324,1.729.36,1.729,1.441V51.511c0,1.08-.072,1.116-1.729,1.441v.756h5.476c1.189,0,3.1.072,5.008.252V45.638Z" style="fill: #53565c"/>
  </g>
</svg>
