<svg width="80" height="80" viewBox="0 0 80 80" xmlns="http://www.w3.org/2000/svg">
    <g fill="none" fill-rule="evenodd">
        <path fill="none" d="M0 0h80v80H0z"/>
        <g fill="#578fff" fill-rule="nonzero">
            <path d="m49.645 30.35.039-.039c.156-.078.67-.335 1.262-.95 1.184.156 2.353.53 2.353.53-2.15-1.301-5.095-2.072-8.351-2.057 0 .008 1.246 1.784 4.697 2.516z"/>
            <path d="M71.044 27.733c-12.113-10.26-27.343-15.494-30.272-16.437l-.296-.101L39.83 11l-.927.288c-2.937.95-18.182 6.193-30.303 16.46l-.6.515.148.833c.25 1.363 1.698 8.546 5.749 16.515 2.602 5.11 5.788 9.59 9.465 13.328 4.479 4.542 9.706 7.907 15.54 10.003l.951.335.616-.242.327-.117c5.803-2.087 11.03-5.453 15.54-10.002 3.654-3.692 6.84-8.18 9.465-13.329 4.067-7.984 5.601-15.408 5.757-16.561l.148-.826-.662-.467zm-10.22 9.472c.49 4.838-2.571 7.603-5.033 8 0 0 1.286-1.994-.693-3.06-.405-.234-.88-.328-1.363-.32.023-.047.054-.086.086-.125 1.121-1.3 3.014-3.918 3.014-6.886 0-1.472-.304-2.882-.896-4.199 1.73 1.06 4.55 3.272 4.885 6.59zm-6.256-8.81s.18.374 0 1.48c0 0 .156.07.421.203.023.07.055.14.093.202a9.532 9.532 0 0 1 1.13 4.526c0 2.766-1.792 5.243-2.859 6.481-.148.172-.25.366-.296.577-2.22.32-3.077 2.267-3.389 3.412-1.877.942-4.814 2.033-8.39 2.033-3.427 0-7.127-1.075-9.885-2.875-2.313-1.503-5.063-4.23-5.063-8.646 0-3.194 1.488-5.944 4.424-8.172 2.205-1.675 4.449-2.407 4.472-2.415l.92-.296-1.349-.327-2.002-2.002c-.007.015 9.528-1.59 21.773 5.819zm-.226 28.59c-4.214 4.252-9.09 7.4-14.504 9.355-5.438-1.963-10.314-5.103-14.505-9.333-3.366-3.404-6.302-7.509-8.748-12.214-.016-.296-.024-.6-.024-.92 0-10.103 7.712-18.337 17.442-18.913l.226.054c-.873.366-2.33 1.06-3.786 2.174-3.046 2.298-4.65 5.281-4.65 8.615 0 4.659 2.89 7.518 5.312 9.099 2.843 1.854 6.653 2.96 10.181 2.96 3.381 0 6.186-.95 7.938-1.753l.304-.14-.023.156c-.04.218-.04.436-.04.654 0 0-.544 5.469 8.46 6.123a48.102 48.102 0 0 1-3.583 4.082z"/>
        </g>
    </g>
</svg>
