<svg width="80" height="80" viewBox="0 0 80 80" xmlns="http://www.w3.org/2000/svg">
    <g fill="none" fill-rule="evenodd">
        <path fill="none" d="M0 0h80v80H0z"/>
        <g fill="#53565C" fill-rule="nonzero">
            <path d="M44.52 31.933c-.31-3.221-.9-7.212-2.002-11.31 0 0-.872-3.08-1.912-3.816a.436.436 0 0 0-.56.045c-.672.666-2.57 3.522-3.757 15.072a101.76 101.76 0 0 1 4.104 2.109 97.612 97.612 0 0 1 4.127-2.1zM41.557 34.671a112.82 112.82 0 0 1 3.269 1.898 75.033 75.033 0 0 0-.204-3.479c-.355.161-.718.329-1.09.501.003 0-.747.396-1.975 1.08zM39.138 34.712c-.96-.514-1.959-1.033-2.974-1.542-.034.353-.065.716-.097 1.085 0 0-.03.845-.048 2.247a95.197 95.197 0 0 1 1.593-.931c.512-.292 1.021-.578 1.526-.859zM36.332 48.76c.145 2.06.353 4.116.645 6.005.886.055 1.59.813 1.59 1.744 0 .684-.38 1.278-.935 1.563.097.39.202.761.313 1.117 0 0 .704 3.029 2.11 4.662 0 0 .35.348.7-.116 0 0 1.643-1.397 2.814-8.039 0 0 .507-2.91.892-6.874a104.668 104.668 0 0 1-4.104-2.107c-1.37.732-2.716 1.416-4.025 2.045zM37.598 45.166c-.505-.292-1.006-.59-1.497-.884.036 1.074.086 2.184.154 3.303a90.83 90.83 0 0 0 3.012-1.472c-.555-.308-1.11-.623-1.669-.947zM31.054 41.057c-3.19 2.143-6.265 4.469-8.218 6.569 0 0-2.274 2.118-2.987 4.15 0 0-.132.477.45.552 0 0 2.03.73 8.374-1.558 0 0 2.796-1.015 6.44-2.662a101.492 101.492 0 0 1-.23-4.569 99.558 99.558 0 0 1-3.829-2.482zM34.882 37.19c.045-1.565.122-3.083.229-4.541-3.452-1.685-7.006-3.183-9.803-3.82 0 0-2.975-.91-5.09-.509 0 0-.478.13-.252.666l.003.005s.28 1.538 3.551 4.677a1.65 1.65 0 0 1 1.006-.344c.933 0 1.69.781 1.69 1.748 0 .29-.068.564-.19.805a107.53 107.53 0 0 0 4.992 3.8 98.808 98.808 0 0 1 3.864-2.487zM32.042 40.4c.888.62 1.832 1.26 2.813 1.89a107.28 107.28 0 0 1-.002-3.684c-.922.573-1.867 1.173-2.811 1.794z"/>
            <path d="M40.314 12C24.676 12 12 24.676 12 40.314s12.676 28.314 28.314 28.314 28.314-12.676 28.314-28.314S55.952 12 40.314 12zm21.482 40.781c-1.178 2.039-7.857.492-16.261-3.45-.802 9.246-2.811 15.802-5.16 15.802-1.488 0-2.84-2.63-3.835-6.911-.77-.163-1.35-.868-1.35-1.713 0-.598.29-1.123.732-1.438a74.869 74.869 0 0 1-.711-5.78c-8.44 3.918-15.143 5.445-16.311 3.402-1.17-2.039 3.513-7.045 11.137-12.343a74.364 74.364 0 0 1-4.836-3.674c-.206.09-.43.143-.668.143-.933 0-1.69-.782-1.69-1.749 0-.15.018-.294.052-.432-3.132-2.956-4.684-5.4-3.946-6.676 1.178-2.036 7.86-.491 16.262 3.445.801-9.243 2.81-15.796 5.16-15.796 2.353 0 4.364 6.573 5.164 15.842a76.673 76.673 0 0 1 5.04-2.136 1.714 1.714 0 0 1-.01-.188c0-.965.757-1.749 1.69-1.749.617 0 1.158.342 1.452.854 4.334-1.334 7.385-1.5 8.141-.183 1.17 2.038-3.513 7.044-11.135 12.342 7.597 5.33 12.261 10.354 11.083 12.388z"/>
            <path d="M48.83 40.418a103.62 103.62 0 0 0-1.007-.711s-.72-.45-1.93-1.173a113.325 113.325 0 0 1-.002 3.812 78.432 78.432 0 0 0 2.94-1.928zM41.43 46.128c.845.451 1.901.993 3.133 1.577a92.5 92.5 0 0 0 .236-3.506c-.548.326-1.103.652-1.667.976-.571.324-1.137.643-1.701.953zM49.787 39.75c2.634-1.871 5.79-4.36 8.781-7.348 0 0 2.243-2.288 2.36-3.556a.437.437 0 0 0-.316-.467c-.612-.168-2.367-.326-6.685 1.028-.129.832-.827 1.468-1.667 1.468-.455 0-.867-.186-1.171-.487a97.18 97.18 0 0 0-5.457 2.247c.11 1.466.186 2.992.231 4.564 1.37.85 2.682 1.704 3.924 2.55zM49.732 41.066c-1.225.829-2.519 1.66-3.869 2.49a101.182 101.182 0 0 1-.237 4.645c2.94 1.34 6.675 2.827 10.761 3.923 0 0 3.101.79 4.26.26a.437.437 0 0 0 .243-.507c-.242-.917-1.762-3.995-11.158-10.811zM44.86 37.922a163.599 163.599 0 0 0-4.526-2.564 176.37 176.37 0 0 0-4.326 2.539c-.007 1.44.004 3.219.054 5.155a59.765 59.765 0 0 0 3.117 1.808s.417.256 1.178.682a62.402 62.402 0 0 0 3.31-1.887s.43-.233 1.18-.677c.04-1.273.05-2.564.01-3.83 0 .002.012-.438.003-1.226zm-4.546 5.305a2.914 2.914 0 1 1 .001-5.827 2.914 2.914 0 0 1-.001 5.827z"/>
        </g>
    </g>
</svg>
