<svg width="80" height="80" viewBox="0 0 80 80" xmlns="http://www.w3.org/2000/svg">
    <g fill="none" fill-rule="evenodd">
        <path fill="none" d="M0 0h80v80H0z"/>
        <g transform="translate(12 12)" fill-rule="nonzero">
            <circle fill="#578fff" cx="28.314" cy="28.314" r="28.314"/>
            <g transform="translate(14.739 14.468)">
                <path d="M6.141 27.81c-.776 0-1.551-.13-2.262-.453C1.55 26.452.065 24.189.065 21.668V6.154c0-3.362 2.78-6.142 6.14-6.142 3.362 0 6.142 2.78 6.142 6.142v.323l4.396-4.59C18.488.077 21.138-.505 23.466.465c2.327.905 3.814 3.167 3.814 5.689v15.514c0 3.361-2.78 6.141-6.142 6.141-3.361 0-6.14-2.78-6.14-6.141v-.323l-4.396 4.59c-1.229 1.163-2.845 1.874-4.46 1.874z" fill="#FFF"/>
                <circle stroke="#FFF" fill="#578fff" cx="6.141" cy="21.668" r="5.641"/>
            </g>
        </g>
    </g>
</svg>
