<svg id="Layer_3" data-name="Layer 3" xmlns="http://www.w3.org/2000/svg" viewBox="0 0 80 80">
  <path d="M69.527,32.218a.471.471,0,0,0-.017-.091.449.449,0,0,0-.018-.1L61.266,13.488a.507.507,0,0,0-.523-.293l-17.5,2.312-.8-7.431c0-.014-.012-.024-.015-.038s0-.027,0-.041c-.009-.031-.035-.051-.049-.08a.472.472,0,0,0-.072-.118.478.478,0,0,0-.1-.078c-.027-.017-.045-.045-.075-.057-.015-.006-.032,0-.047,0s-.027-.019-.044-.022L27.208,4.9a.51.51,0,0,0-.42.117L17.561,13.1l0,.006-.006,0c-.011.01-.014.025-.024.036a.508.508,0,0,0-.093.138.5.5,0,0,0-.018.069.508.508,0,0,0-.018.14c0,.013-.006.025,0,.037l1.68,15.682a.5.5,0,0,0,.406.438l12.542,2.313-19.2,5.712a.5.5,0,0,0-.357.479V61.963c0,.012.007.022.008.035a.492.492,0,0,0,.033.14c.009.022.014.044.025.065a.477.477,0,0,0,.109.129c.01.009.015.023.026.031l0,0,.007.007L27.831,73.015a.505.505,0,0,0,.287.09.5.5,0,0,0,.143-.02l21.827-6.494c.014,0,.023-.018.037-.024a.47.47,0,0,0,.051-.012c.029-.015.044-.045.069-.065a.437.437,0,0,0,.094-.088.449.449,0,0,0,.061-.129c.01-.029.034-.051.038-.082,0-.013-.005-.025,0-.039s.011-.026.011-.041V47.928L62.7,46.31a.5.5,0,0,0,.387-.284l6.4-13.58c.009-.019,0-.04.011-.06A.487.487,0,0,0,69.527,32.218Zm-1.22-.393L48.578,34.43l-7.8-17.588L60.5,14.236ZM39.98,15.938a.45.45,0,0,0-.136.052.411.411,0,0,0-.076.029.508.508,0,0,0-.159.17c0,.007,0,.014-.005.02s-.008.007-.01.012L34.407,27.23l-1.16-10.816L41.556,9.14l.7,6.5ZM27.265,5.93,40.844,8.435l-8.268,7.238L19,13.168Zm-13.8,32.593,20.681-6.152.147.331V55.1l-20.828,6.2Zm35.98,26.626L42.537,60.3l-7.244-5.088V34.956l6.124,13.8c.007.016.025.024.034.04s.008.036.02.052a.5.5,0,0,0,.086.073.449.449,0,0,0,.067.057.485.485,0,0,0,.223.068c.008,0,.014.007.021.007h.006a.463.463,0,0,0,.065,0l7.506-.992ZM62.3,45.354,42.717,47.94l5.891-12.5,19.584-2.587Z" style="fill: #53565c"/>
</svg>
