<svg id="Layer_3" data-name="Layer 3" xmlns="http://www.w3.org/2000/svg" viewBox="0 0 80 80">
  <g>
    <path d="M68.482,18.565a7.807,7.807,0,0,0-7.133-7.209,7.93,7.93,0,0,0-6.212,2.377,6.09,6.09,0,0,1-4.448,1.917h-.613a6.17,6.17,0,0,1-4.525-1.993,7.577,7.577,0,0,0-5.522-2.3,7.892,7.892,0,0,0-5.522,2.3,6.472,6.472,0,0,1-4.525,1.993h-.613a6.329,6.329,0,0,1-4.448-1.84l-.69-.69a7.778,7.778,0,0,0-10.047.23A7.9,7.9,0,0,0,13.8,24.777l.076.076A6.265,6.265,0,0,1,15.8,29.378v.614A6.051,6.051,0,0,1,13.8,34.517a7.573,7.573,0,0,0-2.3,5.521,7.888,7.888,0,0,0,2.3,5.522A6.474,6.474,0,0,1,15.8,50.085v.767A6.091,6.091,0,0,1,13.877,55.3a7.473,7.473,0,0,0-2.3,5.905,7.719,7.719,0,0,0,7.515,7.439A7.8,7.8,0,0,0,25,66.267a6.163,6.163,0,0,1,4.448-1.994h.69a5.883,5.883,0,0,1,4.448,1.994,7.8,7.8,0,1,0,5.675-13.191,7.705,7.705,0,0,0-5.522,2.3,6.392,6.392,0,0,1-4.524,1.917h-.691A6.392,6.392,0,0,1,25,55.377l-.077-.077a6.474,6.474,0,0,1-1.994-4.525v-.69a6.047,6.047,0,0,1,1.994-4.525,7.578,7.578,0,0,0,2.3-5.522,7.892,7.892,0,0,0-2.3-5.521,6.474,6.474,0,0,1-1.994-4.525V29.3a6.26,6.26,0,0,1,1.917-4.525l.077-.077L25,24.623a6.392,6.392,0,0,1,4.524-1.917h.614A6.169,6.169,0,0,1,34.661,24.7,7.577,7.577,0,0,0,40.182,27,7.888,7.888,0,0,0,45.7,24.7a6.474,6.474,0,0,1,4.525-1.994h.537A6.169,6.169,0,0,1,55.291,24.7,7.577,7.577,0,0,0,60.812,27,7.792,7.792,0,0,0,68.482,18.565Z" style="fill: #53565c"/>
    <path d="M37.958,40.038a2.685,2.685,0,1,0,2.685-2.684A2.718,2.718,0,0,0,37.958,40.038Z" style="fill: #53565c"/>
    <path d="M61.349,37.354a2.685,2.685,0,1,0,2.684,2.684A2.717,2.717,0,0,0,61.349,37.354Z" style="fill: #53565c"/>
    <path d="M61.349,58.214A2.685,2.685,0,1,0,64.033,60.9,2.668,2.668,0,0,0,61.349,58.214Z" style="fill: #53565c"/>
  </g>
</svg>
