<?xml version="1.0" encoding="UTF-8"?>
<svg width="48px" height="48px" viewBox="0 0 48 48" version="1.1" xmlns="http://www.w3.org/2000/svg" xmlns:xlink="http://www.w3.org/1999/xlink">
    <title>03_icn</title>
    <g id="Page-1" stroke="none" stroke-width="1" fill="none" fill-rule="evenodd">
        <g id="Group-26">
            <rect id="Rectangle-Copy-23" fill="#D8D8D8" opacity="0" x="0" y="0" width="48" height="48"></rect>
            <g id="pancakeswap-cake-logo-copy" transform="translate(3.000000, 4.000000)">
                <path d="M39.9,28.6125 C39.9,35.04375 31.36875,40.29375 20.86875,40.29375 C10.36875,40.29375 1.8375,35.04375 1.8375,28.6125 L1.8375,25.59375 L40.03125,25.59375 L40.03125,28.6125 L39.9,28.6125 Z" id="Path" stroke="#FEDC90" stroke-width="0.5" fill="#FEDC90" fill-rule="nonzero"></path>
                <path d="M9.1875,6.3 C8.6625,3.9375 10.5,1.70625 12.8625,1.70625 C14.9625,1.70625 16.66875,3.4125 16.66875,5.5125 L16.66875,14.175 C17.98125,14.04375 19.29375,13.9125 20.7375,13.9125 C22.05,13.9125 23.3625,14.04375 24.675,14.175 L24.675,5.5125 C24.675,3.4125 26.38125,1.70625 28.48125,1.70625 C30.84375,1.70625 32.68125,3.9375 32.2875,6.3 L30.58125,15.75 C36.09375,17.85 39.9,21.525 39.9,25.725 C39.9,32.15625 31.36875,37.40625 20.86875,37.40625 C10.36875,37.40625 1.8375,32.15625 1.8375,25.725 C1.8375,21.525 5.5125,17.85 11.025,15.75 L9.1875,6.3 Z" id="Path" stroke="#D1884F" stroke-width="0.5" fill="#D1884F"></path>
                <path d="M15.4875,24.80625 C15.4875,26.5125 14.56875,27.95625 13.3875,27.95625 C12.20625,27.95625 11.2875,26.5125 11.2875,24.80625 C11.2875,23.1 12.20625,21.65625 13.3875,21.65625 C14.56875,21.65625 15.4875,23.1 15.4875,24.80625 Z" id="Path" fill="#633001" fill-rule="nonzero"></path>
                <path d="M30.05625,24.80625 C30.05625,26.5125 29.1375,27.95625 27.95625,27.95625 C26.775,27.95625 25.85625,26.5125 25.85625,24.80625 C25.85625,23.1 26.775,21.65625 27.95625,21.65625 C29.1375,21.65625 30.05625,23.1 30.05625,24.80625 Z" id="Path" fill="#633001" fill-rule="nonzero"></path>
                <path d="M7.48125,6.5625 C6.825,3.15 9.45,0 12.8625,0 C15.88125,0 18.375,2.49375 18.375,5.5125 L18.375,12.3375 C19.1625,12.3375 19.95,12.20625 20.7375,12.20625 C21.525,12.20625 22.18125,12.20625 22.96875,12.3375 L22.96875,5.5125 C22.96875,2.49375 25.4625,0 28.48125,0 C31.89375,0 34.51875,3.15 33.99375,6.5625 L32.55,14.56875 C37.66875,16.8 41.60625,20.7375 41.60625,25.59375 L41.60625,28.6125 C41.60625,32.68125 38.98125,36.09375 35.175,38.325 C31.36875,40.6875 26.38125,42 20.7375,42 C15.09375,42 10.10625,40.6875 6.3,38.325 C2.625,36.09375 0,32.68125 0,28.6125 L0,25.59375 C0,20.7375 3.80625,16.8 8.925,14.56875 L7.48125,6.5625 Z M30.58125,15.61875 L32.2875,6.16875 C32.68125,3.80625 30.975,1.575 28.48125,1.575 C26.38125,1.575 24.675,3.28125 24.675,5.38125 L24.675,14.04375 C24.15,13.9125 23.49375,13.9125 22.96875,13.9125 C22.18125,13.9125 21.525,13.78125 20.7375,13.78125 C19.95,13.78125 19.1625,13.78125 18.375,13.9125 C17.85,13.9125 17.19375,14.04375 16.66875,14.04375 L16.66875,5.5125 C16.66875,3.4125 14.9625,1.70625 12.8625,1.70625 C10.5,1.70625 8.6625,3.9375 9.1875,6.3 L10.89375,15.75 C5.38125,17.85 1.70625,21.525 1.70625,25.725 L1.70625,28.74375 C1.70625,35.175 10.2375,40.425 20.7375,40.425 C31.2375,40.425 39.76875,35.175 39.76875,28.74375 L39.76875,25.725 C39.9,21.39375 36.225,17.71875 30.58125,15.61875 Z" id="Shape" fill="#633001"></path>
            </g>
        </g>
    </g>
</svg>