<svg id="Layer_3" data-name="Layer 3" xmlns="http://www.w3.org/2000/svg" viewBox="0 0 80 80">
  <g>
    <path d="M35.78,48.947c.155,2.186.376,4.368.686,6.373a1.82,1.82,0,0,1,1.682,1.84,1.852,1.852,0,0,1-.989,1.648c.1.413.213.815.33,1.192a13.938,13.938,0,0,0,2.237,4.938.464.464,0,0,0,.741-.123s1.739-1.482,2.981-8.519c0,0,.536-3.089.943-7.286-1.413-.685-2.867-1.431-4.346-2.233C38.594,47.555,37.168,48.28,35.78,48.947Z" style="fill: #53565c"/>
    <path d="M37.122,45.141c-.536-.311-1.063-.624-1.586-.938.039,1.138.092,2.313.163,3.5,1.03-.481,2.1-1,3.189-1.56C38.3,45.816,37.714,45.484,37.122,45.141Z" style="fill: #53565c"/>
    <path d="M38.756,34.066c-1.018-.544-2.075-1.1-3.151-1.635-.036.376-.07.757-.1,1.149,0,0-.031.9-.05,2.383.556-.33,1.116-.66,1.687-.988C37.68,34.664,38.219,34.363,38.756,34.066Z" style="fill: #53565c"/>
    <path d="M44.455,31.123a73.953,73.953,0,0,0-2.12-11.987s-.924-3.263-2.025-4.043a.464.464,0,0,0-.594.046c-.712.706-2.725,3.735-3.982,15.971,1.414.686,2.868,1.432,4.348,2.234C41.571,32.546,43.033,31.8,44.455,31.123Z" style="fill: #53565c"/>
    <path d="M34.247,36.691c.048-1.658.13-3.266.243-4.812A52.784,52.784,0,0,0,24.1,27.831a13.945,13.945,0,0,0-5.394-.541A.468.468,0,0,0,18.44,28l0,.005s.309,1.634,3.77,4.958a1.74,1.74,0,0,1,1.06-.366,1.822,1.822,0,0,1,1.79,1.851,1.879,1.879,0,0,1-.207.847c.882.716,2.814,2.252,5.3,4.032C31.449,38.447,32.818,37.566,34.247,36.691Z" style="fill: #53565c"/>
    <path d="M31.237,40.091c.941.657,1.943,1.332,2.98,2-.012-.671-.019-1.346-.019-2.029q0-.944.016-1.869C33.238,38.8,32.238,39.434,31.237,40.091Z" style="fill: #53565c"/>
    <path d="M30.189,40.786a52.848,52.848,0,0,0-8.707,6.962,13.956,13.956,0,0,0-3.167,4.4s-.14.507.478.585c0,0,2.15.771,8.872-1.651,0,0,2.966-1.078,6.826-2.823-.114-1.554-.2-3.172-.244-4.839Q32.123,42.106,30.189,40.786Z" style="fill: #53565c"/>
    <path d="M41.315,34.022c.562.314,1.125.632,1.692.961.6.348,1.19.7,1.773,1.05-.034-1.005-.1-2.252-.216-3.68-.384.174-.751.337-1.152.524C43.412,32.877,42.615,33.3,41.315,34.022Z" style="fill: #53565c"/>
    <path d="M50.033,39.4a73.742,73.742,0,0,0,9.308-7.786s2.376-2.424,2.5-3.768a.463.463,0,0,0-.337-.493c-.649-.179-2.515-.341-7.089,1.094A1.806,1.806,0,0,1,52.654,30a1.746,1.746,0,0,1-1.235-.517c-1.661.619-3.575,1.4-5.787,2.384.115,1.553.2,3.17.244,4.836Q48.056,38.05,50.033,39.4Z" style="fill: #53565c"/>
    <path d="M49.977,40.8q-1.949,1.317-4.1,2.637c-.049,1.7-.133,3.341-.251,4.919a73.97,73.97,0,0,0,11.4,4.159s3.287.837,4.514.275a.463.463,0,0,0,.257-.538C61.545,51.281,59.934,48.019,49.977,40.8Z" style="fill: #53565c"/>
    <path d="M49.021,40.109q-.519-.369-1.065-.752s-.767-.48-2.048-1.244c.011.644.018,1.292.018,1.949,0,.7-.008,1.4-.02,2.089C46.768,41.616,47.828,40.931,49.021,40.109Z" style="fill: #53565c"/>
    <path d="M40,10A30,30,0,1,0,70,40,30,30,0,0,0,40,10ZM62.76,53.21c-1.248,2.159-8.327.518-17.231-3.658-.851,9.8-2.977,16.744-5.467,16.744-1.577,0-3.008-2.79-4.062-7.321a1.838,1.838,0,0,1-1.432-1.815,1.868,1.868,0,0,1,.775-1.523c-.308-1.868-.562-3.927-.752-6.128C25.65,53.66,18.547,55.28,17.306,53.117s3.726-7.464,11.8-13.078c-1.9-1.329-3.618-2.64-5.128-3.9a1.738,1.738,0,0,1-.709.152,1.821,1.821,0,0,1-1.79-1.852,1.891,1.891,0,0,1,.061-.455c-3.313-3.133-4.961-5.724-4.18-7.075,1.248-2.159,8.331-.52,17.232,3.654.851-9.8,2.977-16.741,5.467-16.741s4.622,6.968,5.47,16.787c1.878-.872,3.673-1.631,5.351-2.268-.006-.066-.019-.13-.019-.2a1.822,1.822,0,0,1,1.79-1.852,1.771,1.771,0,0,1,1.532.907c4.594-1.413,7.831-1.592,8.631-.2,1.239,2.16-3.725,7.464-11.8,13.078C59.064,45.731,64.01,51.055,62.76,53.21Z" style="fill: #53565c"/>
    <path d="M41.182,46.159c.893.477,2.014,1.049,3.318,1.669.1-1.182.187-2.434.248-3.714-.58.346-1.166.692-1.763,1.034S41.78,45.83,41.182,46.159Z" style="fill: #53565c"/>
    <path d="M44.815,37.466c-1.315-.772-2.965-1.718-4.793-2.717-1.3.737-2.877,1.655-4.583,2.692-.007,1.526,0,3.4.057,5.457,1.083.669,2.19,1.321,3.3,1.92,0,0,.451.276,1.245.72,1.186-.631,2.371-1.3,3.509-2,0,0,.464-.253,1.247-.718.043-1.35.056-2.716.016-4.059C44.815,38.765,44.825,38.286,44.815,37.466ZM40,43.086A3.086,3.086,0,1,1,43.086,40,3.085,3.085,0,0,1,40,43.086Z" style="fill: #53565c"/>
  </g>
</svg>
