<svg id="Layer_2" data-name="Layer 2" xmlns="http://www.w3.org/2000/svg" viewBox="0 0 80 80">
  <g>
    <g>
      <path d="M41.6,4.257,39.92,1.7,38.241,4.257C37.366,5.592,16.817,37.092,16.817,49.2a23.1,23.1,0,0,0,46.206,0C63.023,37.092,42.474,5.592,41.6,4.257ZM46.479,46.7V45.576h6.057V46.7h-2.39v6.96H48.857V46.7Zm7.893-1.125h1.409l.032.09,2.727,8H57.18l-.032-.09-.8-2.37H53.764l-.811,2.46H51.625ZM39.92,9.068c1.4,2.205,3.063,4.915,4.82,7.891H35.1C36.857,13.983,38.524,11.273,39.92,9.068ZM34.315,18.3H45.526c1.119,1.917,2.262,3.925,3.389,5.969H30.925C32.052,22.223,33.2,20.215,34.315,18.3Zm-4.122,7.308H49.648c1.078,1.987,2.13,3.993,3.116,5.969H27.076C28.063,29.6,29.114,27.593,30.193,25.606Zm-3.778,7.307H53.426c1,2.06,1.922,4.068,2.714,5.969H23.7C24.492,36.981,25.41,34.973,26.415,32.913Zm-3.258,7.308H56.683q.54,1.37.972,2.639H32.337v3.33H21.229A41.66,41.66,0,0,1,23.157,40.221Zm22.637,8.672V50H42.755v2.551h3.387v1.114H41.478V45.576h4.49v1.113H42.755v2.2ZM40.387,51.3a2.231,2.231,0,0,1-.7,1.661,4.05,4.05,0,0,1-2.8.769,11.72,11.72,0,0,1-1.584-.094l-.116-.016V45.705l.107-.022a9.927,9.927,0,0,1,1.871-.165,3.38,3.38,0,0,1,2.231.6,1.773,1.773,0,0,1,.7,1.485,1.927,1.927,0,0,1-1.111,1.711A2.106,2.106,0,0,1,40.387,51.3ZM20.832,49.2a11.349,11.349,0,0,1,.139-1.675H32.337V53.5h-11A19,19,0,0,1,20.832,49.2ZM39.92,68.29a19.018,19.018,0,0,1-13.991-6.147H53.911A19.016,19.016,0,0,1,39.92,68.29Zm15.122-7.485H24.8a19.027,19.027,0,0,1-3.116-5.969H32.337v1.812H57.5A19.093,19.093,0,0,1,55.042,60.805Z"/>
      <path d="M37.167,49.914h-.7v2.731a6.353,6.353,0,0,0,.713.03c.7,0,1.873-.18,1.873-1.386C39.052,50.048,37.734,49.914,37.167,49.914Z"/>
      <path d="M38.808,47.705c0-.758-.532-1.144-1.582-1.144a5.026,5.026,0,0,0-.76.048v2.273h.783C38.2,48.882,38.808,48.42,38.808,47.705Z"/>
      <path d="M55.339,48.072c-.117-.344-.209-.667-.291-.979-.095.362-.186.671-.278.965l-.706,2.088h1.98Z"/>
    </g>
    <rect x="32.337" y="42.86" width="30.847" height="13.788" style="fill: #4dae51"/>
    <g>
      <path d="M53.765,51.2h2.58l.8,2.37.032.09h1.36l-2.727-8-.032-.09H54.372l-2.747,8.085h1.328Zm1.005-3.143c.092-.294.183-.6.278-.965.082.312.174.635.291.979l.7,2.074h-1.98Z" style="fill: #fff"/>
      <polygon points="45.968 46.689 45.968 45.576 41.478 45.576 41.478 53.661 46.142 53.661 46.142 52.547 42.755 52.547 42.755 49.996 45.794 49.996 45.794 48.893 42.755 48.893 42.755 46.689 45.968 46.689" style="fill: #fff"/>
      <polygon points="50.146 53.661 50.146 46.701 52.536 46.701 52.536 45.576 46.479 45.576 46.479 46.701 48.857 46.701 48.857 53.661 50.146 53.661" style="fill: #fff"/>
      <path d="M40.1,47.6a1.773,1.773,0,0,0-.7-1.485,3.38,3.38,0,0,0-2.231-.6,9.927,9.927,0,0,0-1.871.165l-.107.022V53.62l.116.016a11.72,11.72,0,0,0,1.584.094,4.05,4.05,0,0,0,2.8-.769,2.231,2.231,0,0,0,.7-1.661,2.106,2.106,0,0,0-1.4-1.989A1.927,1.927,0,0,0,40.1,47.6Zm-3.631-.991a5.026,5.026,0,0,1,.76-.048c1.05,0,1.582.386,1.582,1.144,0,.715-.612,1.177-1.559,1.177h-.783Zm2.586,4.679c0,1.207-1.173,1.387-1.873,1.387a6.353,6.353,0,0,1-.713-.03V49.914h.7C37.734,49.914,39.052,50.048,39.052,51.288Z" style="fill: #fff"/>
    </g>
    <polygon points="26.353 32.913 23.501 39.203 23.501 58.971 24.798 60.805 26.731 60.805 26.731 32.913 26.353 32.913" style="fill: #00a8ec"/>
  </g>
</svg>
