<svg id="Layer_3" data-name="Layer 3" xmlns="http://www.w3.org/2000/svg" viewBox="0 0 80 80">
  <path d="M65.306,22.007c-8.234-6.161-16.122-5.988-16.122-5.988l-.806.921C58.166,19.877,62.715,24.2,62.715,24.2a47.875,47.875,0,0,0-17.331-5.47,48.733,48.733,0,0,0-11.631.115,5.72,5.72,0,0,0-.979.115A45.153,45.153,0,0,0,19.7,22.583c-2.131.921-3.4,1.612-3.4,1.612s4.721-4.549,15.085-7.485l-.576-.691s-7.83-.173-16.122,5.988A76.023,76.023,0,0,0,6.4,55.287s4.837,8.292,17.561,8.7c0,0,2.131-2.534,3.858-4.722-7.312-2.188-10.076-6.736-10.076-6.736s.576.4,1.612.978c.058,0,.115.058.23.115.173.116.346.173.519.288a33.719,33.719,0,0,0,4.2,1.958,43.8,43.8,0,0,0,8.464,2.476,40.326,40.326,0,0,0,14.913.057,41.261,41.261,0,0,0,8.348-2.475,33,33,0,0,0,6.622-3.4s-2.879,4.663-10.422,6.794c1.728,2.13,3.8,4.606,3.8,4.606C68.76,63.521,73.6,55.23,73.6,55.287A76.023,76.023,0,0,0,65.306,22.007ZM29.262,49.932A6.119,6.119,0,0,1,23.389,43.6a6.083,6.083,0,0,1,5.873-6.334A6.047,6.047,0,0,1,35.135,43.6,6.082,6.082,0,0,1,29.262,49.932Zm21.016,0A6.119,6.119,0,0,1,44.405,43.6a5.89,5.89,0,1,1,11.746,0A6.082,6.082,0,0,1,50.278,49.932Z" style="fill: #53565c"/>
</svg>
