<svg id="Layer_2" data-name="Layer 2" xmlns="http://www.w3.org/2000/svg" viewBox="0 0 80 80">
  <g>
    <path d="M43.245,15.977c.289,0,.575.007.862.016V9.516a1.867,1.867,0,1,0-3.734,0v6.621A25.941,25.941,0,0,1,43.245,15.977Z" style="fill: #15003e"/>
    <path d="M43.245,70.312a28.431,28.431,0,1,1,20.1-48.534l1.838,1.838-8.041,7.553L53.67,27.464l4.107-3.876A23.092,23.092,0,0,0,43.216,18.5a23.348,23.348,0,0,0,0,46.7" style="fill: #15003e"/>
    <path d="M57.518,55.694l-3.647-3.532a14.774,14.774,0,0,0-.316-20.878l-1.9-1.867L53.7,27.493l1.751,1.838,1.666-1.723a19.835,19.835,0,0,1,.4,28.086" style="fill: #0fce7c"/>
    <path d="M43.245,38.578a3.3,3.3,0,1,0,3.3,3.3,3.285,3.285,0,0,0-3.3-3.3m0,11.689a8.386,8.386,0,1,1,8.386-8.386,8.4,8.4,0,0,1-8.386,8.386M61.567,23.559l-14.79,13.67" style="fill: #15003e"/>
    <path d="M59.844,21.692l3.446,3.733L48.5,39.1l-3.447-3.733Z" style="fill: #15003e"/>
    <path d="M64.9,70.312H42.786V65.229h17.03V60.605L44.48,49.061l3.044-4.05L64.9,58.078Z" style="fill: #15003e"/>
    <path d="M33.4,31.2a1.863,1.863,0,0,1-1.867-1.867V9.516a1.867,1.867,0,0,1,3.733,0V29.331A1.862,1.862,0,0,1,33.4,31.2" style="fill: #15003e"/>
  </g>
</svg>
