<svg width="80" height="80" viewBox="0 0 80 80" xmlns="http://www.w3.org/2000/svg">
    <g fill="none" fill-rule="evenodd">
        <path fill="none" d="M0 0h80v80H0z"/>
        <g fill="#578fff" fill-rule="nonzero">
            <path d="M57.2 17.625A28.474 28.474 0 0 0 40.222 12a27.98 27.98 0 0 0-16.925 5.676.537.537 0 0 0 .154-.103c-12.483 9.221-15.18 26.84-6.01 39.374a28.395 28.395 0 0 0 6.138 6.139c.514.051 1.053.077 1.567.077 5.856 0 11.48-2.235 15.718-6.267-.18 0-.36.026-.539.026-9.195 0-16.643-7.449-16.643-16.644 0-9.195 7.448-16.643 16.643-16.643.18 0 .36.026.54.026a22.783 22.783 0 0 0-15.72-6.267c-.513 0-1.027.051-1.54.077 12.482-7.449 28.663-3.519 36.317 8.886 7.705 12.509 3.827 28.92-8.681 36.626-8.579 5.265-19.392 5.265-27.944 0 12.533 9.375 30.255 6.806 39.63-5.728C72.302 44.722 69.707 27 57.2 17.625z"/>
            <path d="M27.663 64.755a26.3 26.3 0 0 0 7.833 1.259c14.46 0 26.198-11.378 26.198-25.864.026-14.46-11.712-25.838-26.172-25.838-3.442 0-5.522.796-8.013 1.592a17.897 17.897 0 0 1 4.52-.59h.129c13.715.025 24.81 11.146 24.785 24.861 0 1.516-.129 3.031-.386 4.52-2.44 13.51-15.359 22.5-28.894 20.06z"/>
            <path d="M43.715 23.994c3.16.54 5.343 1.875 7.629 3.93-4.213-7.063-11.97-12.046-20.779-12.02-1.746 0-4.007.41-5.188.976 7.32-.077 14.434 2.928 18.338 7.114zM30.565 64.653c8.81.025 16.566-4.983 20.779-12.02-2.286 2.054-4.47 3.39-7.629 3.929-3.93 4.186-11.018 7.192-18.338 7.14 1.207.54 3.442.95 5.188.95z"/>
        </g>
    </g>
</svg>
