<svg id="Layer_2" data-name="Layer 2" xmlns="http://www.w3.org/2000/svg" viewBox="0 0 80 80">
  <path d="M62.161,45.938a3.207,3.207,0,0,1-3.269.22c-1.207-.682-1.858-2.282-1.858-4.461V35.018c0-3.206-1.27-5.487-3.394-6.106-3.59-1.051-6.271,3.347-7.306,5L39.984,44.19V31.648c-.07-2.893-1.011-4.626-2.79-5.143-1.176-.345-2.94-.2-4.657,2.415l-14.2,22.788A25.085,25.085,0,0,1,15.487,40a24.721,24.721,0,0,1,24.5-24.9A24.755,24.755,0,0,1,64.521,40v.141c.133,2.658-.73,4.774-2.352,5.8ZM70,40v-.133C69.89,23.134,56.47,9.557,39.984,9.557S10,23.213,10,40,23.452,70.443,39.984,70.443a29.64,29.64,0,0,0,20.382-8.121,2.791,2.791,0,0,0,.141-3.92,2.689,2.689,0,0,0-3.8-.191l-.012.011a24.246,24.246,0,0,1-34.277-.905q-.338-.355-.661-.726L34.536,36.053V45.53c0,4.555,1.764,6.029,3.246,6.46s3.747.133,6.122-3.724l7.055-11.421c.219-.369.431-.682.619-.957V41.7c0,4.257,1.709,7.659,4.7,9.336a8.622,8.622,0,0,0,8.787-.352c3.293-2.14,5.088-6.013,4.9-10.677Z" style="fill: #17181b"/>
</svg>
