<svg id="Layer_3" data-name="Layer 3" xmlns="http://www.w3.org/2000/svg" viewBox="0 0 80 80"><defs><style>.cls-1{fill:#53565c;}.cls-2{fill:#fff;}</style></defs><circle class="cls-1" cx="40" cy="40" r="30"/><path class="cls-2" d="M53.33,39.17c2.13-.83,3.17-3,3.17-5.46s-2.08-4.3-5.07-4.93V26.61H47.81v1.95h-4V26.61H40.18v1.95h-2V42.85L27.47,28.56H22.54v22.6h4.93V36.93l10.66,14v.23h2v2H43.8v-2h4v2h3.62V51.08c3.53-.46,6-2.93,6-5.92v-.31A6,6,0,0,0,53.33,39.17Zm-2-4a2.58,2.58,0,0,1-2.8,2.41H43.24V32.78h5.33A2.57,2.57,0,0,1,51.37,35.2Zm.75,9.1A2.75,2.75,0,0,1,49.27,47h-6V41.66h6a2.82,2.82,0,0,1,2.85,2.64Z"/></svg>