<svg id="Layer_3" data-name="Layer 3" xmlns="http://www.w3.org/2000/svg" viewBox="0 0 80 80">
  <g>
    <path d="M38.866,12.247A20.051,20.051,0,1,0,58.916,32.3,20.073,20.073,0,0,0,38.866,12.247Zm0,2.523a17.531,17.531,0,0,1,16.949,22,10.022,10.022,0,0,0-3.229-1.538c.165-2.653-.439-4.605-1.8-5.808a5.6,5.6,0,0,0-3.961-1.25,4.377,4.377,0,0,0-.837-3.247c-1.208-1.438-3.472-1.636-5.738-1.636a5.143,5.143,0,0,1-4.612-3.039,11.329,11.329,0,0,1-1.161-3.262l-.146-.933-.891.31a9.839,9.839,0,0,0-3.83,2.726,10.346,10.346,0,0,0-1.918,9.223A6.876,6.876,0,0,0,23.124,30.1,6.112,6.112,0,0,0,21.5,34.673a17.532,17.532,0,0,1,17.366-19.9ZM26.016,32.388H23.465a3.607,3.607,0,0,1,.77-1.172,5.408,5.408,0,0,1,3.629-1.33A5.134,5.134,0,0,0,26.016,32.388Zm4.853-3.476a5.132,5.132,0,0,0-1.35.181l-.053-.188c-1.925-6.794,1.914-9.724,3.679-10.677a12.739,12.739,0,0,0,1.091,2.743,6.713,6.713,0,0,0,6.015,3.894c2.543,0,3.9.32,4.53,1.073.493.587.612,1.566.362,2.994l-.111.64a5.125,5.125,0,0,0-7.368,2.816H35.721A5.126,5.126,0,0,0,30.869,28.912Zm14.736,1.035.491-.11a4.6,4.6,0,0,1,3.654.771,3.629,3.629,0,0,1,1.043,1.78H47.369A5.134,5.134,0,0,0,45.605,29.947ZM38.866,49.824A17.557,17.557,0,0,1,21.875,36.6l1.368-.106-.1-.815a8.7,8.7,0,0,1-.045-1.719h2.644c0,.024,0,.048,0,.072a5.126,5.126,0,1,0,10.251,0c0-.024,0-.048,0-.072h1.4c0,.024,0,.048,0,.072a5.126,5.126,0,1,0,10.251,0c0-.024,0-.048,0-.072h3.386a12.122,12.122,0,0,1-.066,1.78l-.075.712.7.144a7.961,7.961,0,0,1,3.706,1.809A17.556,17.556,0,0,1,38.866,49.824Z" style="fill: #53565c"/>
    <path d="M41.353,40.349H33.04a.488.488,0,0,0-.492.482v0a4.648,4.648,0,0,0,9.3,0v0A.487.487,0,0,0,41.353,40.349ZM37.2,44.25c-.925,0-1.675-.427-1.675-.954s.75-.954,1.675-.954,1.675.427,1.675.954S38.121,44.25,37.2,44.25Z" style="fill: #53565c"/>
    <path d="M76.84,63.209,59.852,46.221a25.189,25.189,0,1,0-45.313-7.365L3.411,46.47,2.454,58.828l34.563,11.29.61-12.657q.615.03,1.239.03a25.048,25.048,0,0,0,13.7-4.059L69.591,70.458a5.126,5.126,0,0,0,7.249-7.249ZM31.607,56.424,34.8,66.893,14.7,51.223l4.551-3.139A25.261,25.261,0,0,0,31.607,56.424ZM11.789,51.313,4.213,56.538,4.867,48.1ZM5.757,46.775l8.688-5.944-1.7,9.185Zm7.578,5.387L32.239,66.9,4.913,57.972Zm1.11-2.682,1.322-7.128a25.149,25.149,0,0,0,2.526,4.473Zm21.265,15L33.4,56.892a25.275,25.275,0,0,0,2.656.442ZM16.2,32.3A22.671,22.671,0,1,1,38.866,54.968,22.7,22.7,0,0,1,16.2,32.3ZM58.333,48.272l3.653,3.652-3.747,3.614-3.606-3.606A25.451,25.451,0,0,0,58.333,48.272Zm16.722,20.4a2.6,2.6,0,0,1-3.68,0L60.024,57.323l3.747-3.614L75.056,64.994a2.6,2.6,0,0,1,0,3.68Z" style="fill: #53565c"/>
  </g>
</svg>
