<svg width="80" height="80" viewBox="0 0 80 80" xmlns="http://www.w3.org/2000/svg">
    <g fill="none" fill-rule="evenodd">
        <path fill="none" d="M0 0h80v80H0z"/>
        <path d="M59.014 42.098c0-4.013-1.355-7.846-3.808-10.939l2.223-2.096 1.713-1.584v-.026l1.686-1.584-1.635-1.636a25.198 25.198 0 0 0-17.124-7.412V13.32c0-.92-.741-1.662-1.661-1.662s-1.662.742-1.662 1.662v3.629c-1.559.153-3.092.46-4.549.894V13.32a1.682 1.682 0 0 0-1.636-1.636c-.92 0-1.66.716-1.686 1.636v5.75C22.108 23.057 16 31.875 16 42.123c0 13.827 11.118 25.073 24.893 25.303h19.68V56.538l-5.112-3.834c2.3-3.041 3.527-6.747 3.553-10.606zm-11.399-3.962 4.243-3.91c1.712 2.25 2.632 5.01 2.632 7.897 0 2.863-.92 5.598-2.607 7.847l-4.55-3.425a7.454 7.454 0 0 0 1.458-4.422 7.831 7.831 0 0 0-1.176-3.987zm8.434 20.651v4.115H41.277v-.026c-11.45 0-20.779-9.328-20.779-20.778 0-7.668 4.192-14.364 10.377-17.967v6.824c0 .92.74 1.66 1.66 1.66.921 0 1.662-.74 1.662-1.66v-8.383a19.357 19.357 0 0 1 4.55-1.074v3.246h-.818a1.682 1.682 0 0 0-1.636 1.636c0 .92.715 1.661 1.636 1.687h5.137c.869 0 1.61-.716 1.635-1.636 0-.92-.715-1.661-1.635-1.687h-.997v-3.4a20.493 20.493 0 0 1 12.165 4.499l-.715.665-9.405 8.69a7.358 7.358 0 0 0-2.812-.563c-4.115 0-7.463 3.348-7.463 7.463s3.348 7.463 7.463 7.463c.741 0 1.457-.103 2.121-.307l12.626 9.533zM44.241 42.123c0 1.61-1.329 2.94-2.939 2.94a2.956 2.956 0 0 1-2.939-2.94c0-1.61 1.33-2.939 2.94-2.939a2.923 2.923 0 0 1 2.938 2.94z" fill="#578fff" fill-rule="nonzero"/>
    </g>
</svg>
