<svg width="80" height="80" viewBox="0 0 80 80" xmlns="http://www.w3.org/2000/svg">
    <g fill="none" fill-rule="evenodd">
        <path fill="none" d="M0 0h80v80H0z"/>
        <path d="m31.623 19 .518.604c-9.18 2.606-13.357 6.627-13.357 6.627l.023-.012c.17-.09 1.255-.66 2.98-1.42 5.453-2.399 9.785-3.003 11.58-3.21.31-.052.569-.103.862-.103a42.512 42.512 0 0 1 10.303-.104 42.3 42.3 0 0 1 15.342 4.85s-4.021-3.832-12.702-6.42L47.88 19h.154c1.064.016 7.468.32 14.118 5.298 0 0 7.351 13.202 7.351 29.476 0-.052-4.28 7.283-15.548 7.645 0 0-.275-.328-.7-.84l-.224-.27c-.669-.806-1.6-1.931-2.442-2.963 6.679-1.88 9.233-6.023 9.233-6.023-2.088 1.381-4.073 2.347-5.867 3.003-2.555 1.07-5.005 1.726-7.387 2.192-4.9.915-9.388.656-13.202-.052-2.899-.57-5.401-1.329-7.49-2.191-1.173-.466-2.45-1.019-3.727-1.726-.155-.104-.31-.156-.466-.26-.103-.05-.155-.103-.207-.103-.914-.517-1.432-.863-1.432-.863s2.45 4.021 8.922 5.972c-1.536 1.932-3.417 4.176-3.417 4.176-10.05-.323-14.542-6.193-15.396-7.458l-.067-.102a3.763 3.763 0 0 1-.086-.137c0-9.764 2.647-18.423 4.764-23.787l.21-.525a59.995 59.995 0 0 1 1.812-4.069l.174-.346c.248-.49.392-.749.392-.749 6.712-4.979 13.065-5.282 14.119-5.297h.152zm17.223 18.811c-2.899 0-5.194 2.502-5.194 5.609 0 3.106 2.347 5.608 5.194 5.608 2.9 0 5.195-2.502 5.195-5.608 0-3.107-2.33-5.609-5.195-5.609zm-18.603 0c-2.9 0-5.195 2.502-5.195 5.609 0 3.106 2.347 5.608 5.195 5.608 2.9 0 5.194-2.502 5.194-5.608.052-3.124-2.295-5.609-5.194-5.609z" fill="#53565C" fill-rule="nonzero"/>
    </g>
</svg>
