<svg id="Layer_3" data-name="Layer 3" xmlns="http://www.w3.org/2000/svg" viewBox="0 0 80 80"><defs><style>.cls-1{fill:#fff;}.cls-2{fill:#53565c;}</style></defs><polygon class="cls-1" points="57.13 32.43 57.13 27.39 57.13 22.35 52.09 22.35 47.04 22.35 47.04 17.3 42 17.3 42 22.35 42 27.39 42 32.43 42 37.48 42 42.52 36.96 42.52 36.96 37.48 36.96 32.43 36.96 27.39 36.96 22.35 36.96 17.3 31.91 17.3 31.91 22.35 26.87 22.35 21.82 22.35 21.82 27.39 21.82 32.43 16.78 32.43 16.78 37.48 16.78 42.52 16.78 47.57 21.82 47.57 21.82 52.61 21.82 57.65 26.87 57.65 31.91 57.65 31.91 62.7 36.96 62.7 42 62.7 47.04 62.7 47.04 57.65 52.09 57.65 57.13 57.65 57.13 52.61 57.13 47.57 62.18 47.57 62.18 42.52 62.18 37.48 62.18 32.43 57.13 32.43"/><polygon class="cls-2" points="31.91 22.35 31.91 17.3 36.96 17.3 36.96 22.35 36.96 27.39 36.96 32.43 36.96 37.48 36.96 42.52 42 42.52 42 37.48 42 32.43 42 27.39 42 22.35 42 17.3 47.04 17.3 47.04 22.35 52.09 22.35 57.13 22.35 57.13 17.3 57.13 12.26 57.13 7.21 52.09 7.21 47.04 7.21 42 7.21 36.96 7.21 31.91 7.21 26.87 7.21 21.82 7.21 21.82 12.26 21.82 17.3 21.82 22.35 26.87 22.35 31.91 22.35"/><polygon class="cls-2" points="21.82 27.39 21.82 22.35 16.78 22.35 16.78 27.39 16.78 32.43 21.82 32.43 21.82 27.39"/><polygon class="cls-2" points="57.13 32.43 62.18 32.43 62.18 27.39 62.18 22.35 57.13 22.35 57.13 27.39 57.13 32.43"/><polygon class="cls-2" points="21.82 47.57 16.78 47.57 16.78 52.61 16.78 57.65 21.82 57.65 21.82 52.61 21.82 47.57"/><polygon class="cls-2" points="57.13 52.61 57.13 57.65 62.18 57.65 62.18 52.61 62.18 47.57 57.13 47.57 57.13 52.61"/><polygon class="cls-2" points="47.04 57.65 47.04 62.7 42 62.7 36.96 62.7 31.91 62.7 31.91 57.65 26.87 57.65 21.82 57.65 21.82 62.7 21.82 67.74 21.82 72.79 26.87 72.79 31.91 72.79 36.96 72.79 42 72.79 47.04 72.79 52.09 72.79 57.13 72.79 57.13 67.74 57.13 62.7 57.13 57.65 52.09 57.65 47.04 57.65"/><polygon class="cls-2" points="16.78 37.48 16.78 32.43 11.73 32.43 11.73 37.48 11.73 42.52 11.73 47.57 16.78 47.57 16.78 42.52 16.78 37.48"/><polygon class="cls-2" points="67.22 37.48 67.22 32.43 62.18 32.43 62.18 37.48 62.18 42.52 62.18 47.57 67.22 47.57 67.22 42.52 72.27 42.52 72.27 37.48 67.22 37.48"/></svg>