<svg width="80" height="80" viewBox="0 0 80 80" xmlns="http://www.w3.org/2000/svg">
    <g fill="none" fill-rule="evenodd">
        <path fill="none" d="M0 0h80v80H0z"/>
        <g fill="#578fff" fill-rule="nonzero">
            <path d="M40.75 16.51c-9.64 0-17.476 7.836-17.476 17.476 0 9.64 7.836 17.476 17.476 17.476 9.64 0 17.477-7.836 17.477-17.476 0-9.64-7.806-17.477-17.477-17.477zm0 2.207c8.427 0 15.3 6.872 15.3 15.3a16.04 16.04 0 0 1-.498 3.887c-.933-.715-2.114-1.15-2.83-1.337.156-2.301-.373-4.012-1.554-5.07-1.12-.994-2.52-1.119-3.452-1.088.093-1.212-.156-2.145-.715-2.83-1.058-1.243-3.017-1.43-5.007-1.43-1.71 0-3.048-.902-4.012-2.643-.777-1.4-.995-2.83-1.026-2.861l-.124-.809-.809.28c-.062.031-1.865.653-3.327 2.364-2.208 2.55-2.208 5.628-1.68 8.054-1.057.031-2.767.342-3.98 1.555-.964.964-1.43 2.3-1.43 3.98a15.277 15.277 0 0 1-.156-2.083c.031-8.397 6.873-15.269 15.3-15.269zM29.555 34.079h-2.239c.156-.404.373-.746.684-1.026.933-.933 2.333-1.15 3.172-1.15-.746.528-1.306 1.305-1.617 2.176zm4.23-3.016c-.405 0-.81.062-1.182.155l-.031-.155c-1.68-5.94 1.679-8.49 3.203-9.33.155.622.466 1.493.964 2.395 1.212 2.208 3.047 3.39 5.255 3.39 2.208 0 3.39.28 3.95.932.435.498.528 1.369.31 2.613l-.093.56a4.42 4.42 0 0 0-2.208-.592 4.48 4.48 0 0 0-4.23 3.017h-1.71c-.59-1.71-2.27-2.985-4.229-2.985zm12.874.901.435-.093c.031 0 1.959-.435 3.203.684.435.373.715.902.902 1.555h-3.017a4.473 4.473 0 0 0-1.523-2.146zM40.75 49.285c-7.121 0-13.154-4.913-14.833-11.537l1.181-.093-.062-.684a8.134 8.134 0 0 1-.03-1.493h2.3v.062a4.48 4.48 0 0 0 4.478 4.478 4.46 4.46 0 0 0 4.478-4.478v-.062h1.213v.062a4.48 4.48 0 0 0 4.478 4.478 4.46 4.46 0 0 0 4.478-4.478v-.062h2.954c.031.467 0 .995-.062 1.555l-.062.622.622.124c.653.125 2.394.654 3.234 1.586-2.177 5.784-7.805 9.92-14.367 9.92z"/>
            <path d="M42.927 41.045H35.68a.425.425 0 0 0-.435.435 4.035 4.035 0 0 0 4.043 4.043 4.035 4.035 0 0 0 4.042-4.043c.031-.249-.155-.435-.404-.435zm-3.607 3.39c-.809 0-1.462-.374-1.462-.84 0-.467.653-.84 1.462-.84.808 0 1.461.373 1.461.84 0 .466-.653.84-1.461.84z"/>
            <path d="M73.9 60.978 59.066 46.145c2.333-3.483 3.67-7.65 3.67-12.16C62.736 21.859 52.878 12 40.75 12s-21.954 9.889-21.954 22.017c0 1.99.28 3.887.746 5.722L9.84 46.362 9 57.153l30.164 9.858.529-11.04c.373.031.715.031 1.088.031 4.416 0 8.52-1.306 11.941-3.545l14.865 14.865c.84.84 1.959 1.306 3.172 1.306a4.496 4.496 0 0 0 3.172-1.306 4.443 4.443 0 0 0 1.306-3.172c-.031-1.213-.498-2.332-1.337-3.172zm-39.463-5.909 2.8 9.143-17.54-13.683 3.98-2.736c2.706 3.39 6.469 5.97 10.76 7.276zm-17.29-4.478-6.623 4.572.59-7.37 6.033 2.798zm-5.255-3.949 7.588-5.193-1.493 8.023-6.095-2.83zm6.593 4.696L34.966 64.18l-23.851-7.774 7.37-5.07zm.964-2.332 1.15-6.22a20.868 20.868 0 0 0 2.208 3.887l-3.358 2.333zm18.565 13.06-2.022-6.623c.747.155 1.524.31 2.333.373l-.311 6.25zm-17.042-28.05c0-10.914 8.863-19.777 19.778-19.777s19.778 8.863 19.778 19.778-8.863 19.777-19.778 19.777-19.778-8.893-19.778-19.777zM57.76 47.949l3.172 3.172-3.265 3.14-3.14-3.14a20.787 20.787 0 0 0 3.233-3.172zm14.585 17.788a2.23 2.23 0 0 1-1.617.653c-.591 0-1.182-.249-1.617-.653l-9.89-9.89 3.266-3.14 9.858 9.858c.435.435.653.995.653 1.617 0 .56-.249 1.12-.653 1.555z"/>
        </g>
    </g>
</svg>
