<svg width="40" height="40" viewBox="0 0 40 40" fill="none" xmlns="http://www.w3.org/2000/svg">
<path d="M13.6845 20.0996L12.5058 23.6359C12.3445 24.1214 11.6555 24.1214 11.4942 23.6359L10.3155 20.0996C9.3054 17.0705 6.92909 14.694 3.9002 13.6839L0.364077 12.5065C-0.121359 12.3452 -0.121359 11.6563 0.364077 11.4949L3.9002 10.3161C6.92909 9.30596 9.3054 6.92951 10.3155 3.90044L11.4942 0.364099C11.6555 -0.121366 12.3445 -0.121366 12.5058 0.364099L13.6845 3.90044C14.6946 6.92951 17.0709 9.30596 20.0998 10.3161L23.6359 11.4949C24.1214 11.6563 24.1214 12.3452 23.6359 12.5065L20.0998 13.6853C17.0709 14.6955 14.6946 17.0719 13.6845 20.101V20.0996Z" fill="url(#paint0_linear_2_3033)"/>
<path d="M33.123 37.3997L32.3372 39.7573C32.2296 40.0809 31.7704 40.0809 31.6628 39.7573L30.877 37.3997C30.2036 35.3803 28.6194 33.796 26.6001 33.1226L24.2427 32.3377C23.9191 32.2301 23.9191 31.7708 24.2427 31.6633L26.6001 30.8774C28.6194 30.204 30.2036 28.6197 30.877 26.6003L31.6628 24.2427C31.7704 23.9191 32.2296 23.9191 32.3372 24.2427L33.123 26.6003C33.7964 28.6197 35.3806 30.204 37.3999 30.8774L39.7573 31.6633C40.0809 31.7708 40.0809 32.2301 39.7573 32.3377L37.3999 33.1235C35.3806 33.797 33.7964 35.3813 33.123 37.4007V37.3997Z" fill="url(#paint1_linear_2_3033)"/>
<defs>
<linearGradient id="paint0_linear_2_3033" x1="-12.3478" y1="15.6522" x2="9.06684" y2="-4.14955" gradientUnits="userSpaceOnUse">
<stop stop-color="#1E2E45"/>
<stop offset="0.493304" stop-color="#DB6CBC"/>
<stop offset="1" stop-color="#E9922D"/>
</linearGradient>
<linearGradient id="paint1_linear_2_3033" x1="15.7681" y1="34.4348" x2="30.0446" y2="21.2336" gradientUnits="userSpaceOnUse">
<stop stop-color="#1E2E45"/>
<stop offset="0.493304" stop-color="#DB6CBC"/>
<stop offset="1" stop-color="#E9922D"/>
</linearGradient>
</defs>
</svg>
