<svg xmlns="http://www.w3.org/2000/svg" viewBox="0 0 240 196">
  <g id="Layer_4" data-name="Layer 4">
    <g>
      <circle cx="120" cy="153.297" r="3.49" style="fill: none;stroke: #52565c;stroke-linecap: round;stroke-linejoin: round;stroke-width: 2.5px"/>
      <circle cx="120" cy="167.644" r="3.49" style="fill: none;stroke: #52565c;stroke-linecap: round;stroke-linejoin: round;stroke-width: 2.5px"/>
    </g>
    <path d="M59.109,197.966c78.979-13.1,110.947-53.008,120.963-69.367a5.3,5.3,0,0,0,.18-5.258,5.153,5.153,0,0,0-4.954-2.816,17.979,17.979,0,0,0-2.884.415" style="fill: none;stroke: #52565c;stroke-linecap: round;stroke-linejoin: round;stroke-width: 2.5px"/>
    <path d="M207.836,197.139c-4.658-14.5-18.361-56.169-27.584-73.8" style="fill: none;stroke: #52565c;stroke-linecap: round;stroke-linejoin: round;stroke-width: 2.5px"/>
    <g>
      <path d="M117.671,180.382c-37.245-17.266-55.06-40.313-62.083-51.783a5.3,5.3,0,0,1-.18-5.258,5.153,5.153,0,0,1,4.954-2.816,18,18,0,0,1,2.884.415" style="fill: none;stroke: #52565c;stroke-linecap: round;stroke-linejoin: round;stroke-width: 2.5px"/>
      <path d="M27.573,197.92c4.4-13.725,18.44-56.621,27.835-74.579" style="fill: none;stroke: #52565c;stroke-linecap: round;stroke-linejoin: round;stroke-width: 2.5px"/>
    </g>
    <path d="M148.029,197.416c23.675-12.478,38.4-27.069,47.017-38.051" style="fill: none;stroke: #52565c;stroke-linecap: round;stroke-linejoin: round;stroke-width: 2.5px"/>
    <path d="M161.237,197.548a142.921,142.921,0,0,0,36.374-30.532" style="fill: none;stroke: #52565c;stroke-linecap: round;stroke-linejoin: round;stroke-width: 2.5px"/>
    <path d="M173.935,197.365a141.091,141.091,0,0,0,26-22.595" style="fill: none;stroke: #52565c;stroke-linecap: round;stroke-linejoin: round;stroke-width: 2.5px"/>
    <path d="M185.32,197.5a139.483,139.483,0,0,0,17.172-15.39" style="fill: none;stroke: #52565c;stroke-linecap: round;stroke-linejoin: round;stroke-width: 2.5px"/>
    <path d="M196.214,197.48c3.257-2.761,6.183-5.49,8.8-8.135" style="fill: none;stroke: #52565c;stroke-linecap: round;stroke-linejoin: round;stroke-width: 2.5px"/>
    <path d="M109.833,183.752a166.1,166.1,0,0,1-28.3-17.3" style="fill: none;stroke: #52565c;stroke-linecap: round;stroke-linejoin: round;stroke-width: 2.5px"/>
    <path d="M101.758,186.932A166.158,166.158,0,0,1,79.6,173.4" style="fill: none;stroke: #52565c;stroke-linecap: round;stroke-linejoin: round;stroke-width: 2.5px"/>
    <path d="M93.289,189.816a165.36,165.36,0,0,1-16.523-10.195" style="fill: none;stroke: #52565c;stroke-linecap: round;stroke-linejoin: round;stroke-width: 2.5px"/>
    <path d="M84.317,192.3c-3.924-2.262-7.576-4.575-10.972-6.908" style="fill: none;stroke: #52565c;stroke-linecap: round;stroke-linejoin: round;stroke-width: 2.5px"/>
    <path d="M75.47,194.7q-3.141-1.93-6.035-3.892" style="fill: none;stroke: #52565c;stroke-linecap: round;stroke-linejoin: round;stroke-width: 2.5px"/>
    <g>
      <path d="M124.1,130.116a47.532,47.532,0,0,0,2.432-9.6" style="fill: none;stroke: #52565c;stroke-linecap: round;stroke-linejoin: round;stroke-width: 2.5px"/>
      <path d="M113.469,120.612a47.342,47.342,0,0,0,2.417,9.5" style="fill: none;stroke: #52565c;stroke-linecap: round;stroke-linejoin: round;stroke-width: 2.5px"/>
    </g>
    <g>
      <rect x="26.051" y="23.165" width="14.601" height="73.158" style="fill: none;stroke: #52565c;stroke-linecap: round;stroke-linejoin: round;stroke-width: 2.5px"/>
      <line x1="40.652" y1="72.364" x2="26.051" y2="72.364" style="fill: none;stroke: #52565c;stroke-linecap: round;stroke-linejoin: round;stroke-width: 2.5px"/>
      <g>
        <line x1="31.392" y1="30.649" x2="30.292" y2="30.649" style="fill: none;stroke: #52565c;stroke-linecap: round;stroke-linejoin: round;stroke-width: 2.5px"/>
        <line x1="36.411" y1="30.649" x2="35.311" y2="30.649" style="fill: none;stroke: #52565c;stroke-linecap: round;stroke-linejoin: round;stroke-width: 2.5px"/>
      </g>
      <g>
        <line x1="31.392" y1="35.032" x2="30.292" y2="35.032" style="fill: none;stroke: #52565c;stroke-linecap: round;stroke-linejoin: round;stroke-width: 2.5px"/>
        <line x1="36.411" y1="35.032" x2="35.311" y2="35.032" style="fill: none;stroke: #52565c;stroke-linecap: round;stroke-linejoin: round;stroke-width: 2.5px"/>
      </g>
      <g>
        <line x1="31.392" y1="39.415" x2="30.292" y2="39.415" style="fill: none;stroke: #52565c;stroke-linecap: round;stroke-linejoin: round;stroke-width: 2.5px"/>
        <line x1="36.411" y1="39.415" x2="35.311" y2="39.415" style="fill: none;stroke: #52565c;stroke-linecap: round;stroke-linejoin: round;stroke-width: 2.5px"/>
      </g>
      <g>
        <line x1="31.392" y1="43.798" x2="30.292" y2="43.798" style="fill: none;stroke: #52565c;stroke-linecap: round;stroke-linejoin: round;stroke-width: 2.5px"/>
        <line x1="36.411" y1="43.798" x2="35.311" y2="43.798" style="fill: none;stroke: #52565c;stroke-linecap: round;stroke-linejoin: round;stroke-width: 2.5px"/>
      </g>
      <g>
        <line x1="31.392" y1="48.182" x2="30.292" y2="48.182" style="fill: none;stroke: #52565c;stroke-linecap: round;stroke-linejoin: round;stroke-width: 2.5px"/>
        <line x1="36.411" y1="48.182" x2="35.311" y2="48.182" style="fill: none;stroke: #52565c;stroke-linecap: round;stroke-linejoin: round;stroke-width: 2.5px"/>
      </g>
      <g>
        <line x1="31.392" y1="52.565" x2="30.292" y2="52.565" style="fill: none;stroke: #52565c;stroke-linecap: round;stroke-linejoin: round;stroke-width: 2.5px"/>
        <line x1="36.411" y1="52.565" x2="35.311" y2="52.565" style="fill: none;stroke: #52565c;stroke-linecap: round;stroke-linejoin: round;stroke-width: 2.5px"/>
      </g>
      <circle cx="33.352" cy="84.145" r="1.961" style="fill: #52565c"/>
    </g>
    <g>
      <path d="M215.38,91.344l5-12.754a4.565,4.565,0,0,0-4.25-6.23h-1.216" style="fill: none;stroke: #52565c;stroke-linecap: round;stroke-linejoin: round;stroke-width: 2.5px"/>
      <path d="M199.532,91.344l-5-12.754a4.565,4.565,0,0,1,4.25-6.23h1.353" style="fill: none;stroke: #52565c;stroke-linecap: round;stroke-linejoin: round;stroke-width: 2.5px"/>
      <path d="M205.294,31.294c0-5.523-5.138-7.389-5.138-7.389v14.56" style="fill: none;stroke: #52565c;stroke-linecap: round;stroke-linejoin: round;stroke-width: 2.5px"/>
      <path d="M209.618,31.294c0-5.523,5.138-7.389,5.138-7.389v14.56" style="fill: none;stroke: #52565c;stroke-linecap: round;stroke-linejoin: round;stroke-width: 2.5px"/>
      <path d="M207.456,31.165h0a7.3,7.3,0,0,1,7.3,7.3V96.323a0,0,0,0,1,0,0h-14.6a0,0,0,0,1,0,0V38.465a7.3,7.3,0,0,1,7.3-7.3Z" style="fill: none;stroke: #52565c;stroke-linecap: round;stroke-linejoin: round;stroke-width: 2.5px"/>
      <g>
        <line x1="205.497" y1="38.649" x2="204.397" y2="38.649" style="fill: none;stroke: #52565c;stroke-linecap: round;stroke-linejoin: round;stroke-width: 2.5px"/>
        <line x1="210.515" y1="38.649" x2="209.416" y2="38.649" style="fill: none;stroke: #52565c;stroke-linecap: round;stroke-linejoin: round;stroke-width: 2.5px"/>
      </g>
      <line x1="203.771" y1="49.123" x2="200.856" y2="49.123" style="fill: none;stroke: #52565c;stroke-linecap: round;stroke-linejoin: round;stroke-width: 2.5px"/>
      <line x1="203.771" y1="53.692" x2="200.856" y2="53.692" style="fill: none;stroke: #52565c;stroke-linecap: round;stroke-linejoin: round;stroke-width: 2.5px"/>
      <line x1="203.771" y1="58.261" x2="200.856" y2="58.261" style="fill: none;stroke: #52565c;stroke-linecap: round;stroke-linejoin: round;stroke-width: 2.5px"/>
      <line x1="213.911" y1="49.123" x2="210.995" y2="49.123" style="fill: none;stroke: #52565c;stroke-linecap: round;stroke-linejoin: round;stroke-width: 2.5px"/>
      <line x1="213.911" y1="53.692" x2="210.995" y2="53.692" style="fill: none;stroke: #52565c;stroke-linecap: round;stroke-linejoin: round;stroke-width: 2.5px"/>
      <line x1="213.911" y1="58.261" x2="210.995" y2="58.261" style="fill: none;stroke: #52565c;stroke-linecap: round;stroke-linejoin: round;stroke-width: 2.5px"/>
      <line x1="207.456" y1="64.744" x2="207.456" y2="96.177" style="fill: none;stroke: #52565c;stroke-linecap: round;stroke-linejoin: round;stroke-width: 2.5px"/>
      <path d="M214.756,91.344h.624a4.979,4.979,0,0,1,4.979,4.979v0a0,0,0,0,1,0,0h-5.6a0,0,0,0,1,0,0V91.344A0,0,0,0,1,214.756,91.344Z" style="fill: none;stroke: #52565c;stroke-linecap: round;stroke-linejoin: round;stroke-width: 2.5px"/>
      <path d="M194.553,91.344h5.6a0,0,0,0,1,0,0v0a4.979,4.979,0,0,1-4.979,4.979h-.624a0,0,0,0,1,0,0V91.344A0,0,0,0,1,194.553,91.344Z" transform="translate(394.708 187.667) rotate(180)" style="fill: none;stroke: #52565c;stroke-linecap: round;stroke-linejoin: round;stroke-width: 2.5px"/>
      <circle cx="207.461" cy="43.515" r="1.961" style="fill: #52565c"/>
      <path d="M194.553,96.323h0a5.948,5.948,0,0,0,5.948,5.949h13.91a5.949,5.949,0,0,1,5.949,5.949v.548" style="fill: none;stroke: #52565c;stroke-linecap: round;stroke-linejoin: round;stroke-width: 2.5px"/>
    </g>
    <g>
      <line x1="203.287" y1="143.893" x2="189.649" y2="143.893" style="fill: none;stroke: #52565c;stroke-linecap: round;stroke-linejoin: round;stroke-width: 2.5px"/>
      <line x1="211.688" y1="138.213" x2="187.436" y2="138.213" style="fill: none;stroke: #52565c;stroke-linecap: round;stroke-linejoin: round;stroke-width: 2.5px"/>
      <line x1="221.203" y1="132.534" x2="185.038" y2="132.534" style="fill: none;stroke: #52565c;stroke-linecap: round;stroke-linejoin: round;stroke-width: 2.5px"/>
    </g>
    <g>
      <line x1="32.018" y1="143.893" x2="45.656" y2="143.893" style="fill: none;stroke: #52565c;stroke-linecap: round;stroke-linejoin: round;stroke-width: 2.5px"/>
      <line x1="23.617" y1="138.213" x2="47.869" y2="138.213" style="fill: none;stroke: #52565c;stroke-linecap: round;stroke-linejoin: round;stroke-width: 2.5px"/>
      <line x1="14.102" y1="132.534" x2="50.267" y2="132.534" style="fill: none;stroke: #52565c;stroke-linecap: round;stroke-linejoin: round;stroke-width: 2.5px"/>
    </g>
    <g>
      <path d="M87.705,58.857V72.315a83.376,83.376,0,0,0,5.96,30.956h0A28.361,28.361,0,0,0,120,121.1h0a28.361,28.361,0,0,0,26.335-17.832h0a83.376,83.376,0,0,0,5.96-30.956V58.857" style="fill: none;stroke: #52565c;stroke-linecap: round;stroke-linejoin: round;stroke-width: 2.5px"/>
      <path d="M123.877,85.327V69.752a11.567,11.567,0,0,1,11.567-11.567h8.349a8.158,8.158,0,0,0,7.689-5.431" style="fill: none;stroke: #52565c;stroke-linecap: round;stroke-linejoin: round;stroke-width: 2.5px"/>
      <g>
        <line x1="116.011" y1="39.658" x2="124.09" y2="39.658" style="fill: none;stroke: #52565c;stroke-linecap: round;stroke-linejoin: round;stroke-width: 2.5px"/>
        <line x1="116.011" y1="51.969" x2="124.09" y2="51.969" style="fill: none;stroke: #52565c;stroke-linecap: round;stroke-linejoin: round;stroke-width: 2.5px"/>
        <line x1="105.76" y1="45.839" x2="134.341" y2="45.839" style="fill: none;stroke: #52565c;stroke-linecap: round;stroke-linejoin: round;stroke-width: 2.5px"/>
      </g>
      <g>
        <polyline points="116.242 99.334 121.843 99.368 123.271 99.377" style="fill: none;stroke: #52565c;stroke-linecap: round;stroke-linejoin: round;stroke-width: 2.5px"/>
        <path d="M123.78,94.211a3.415,3.415,0,0,0-2.854.441,2.332,2.332,0,0,1-2.281-.014,3.415,3.415,0,0,0-2.848-.476,86.324,86.324,0,0,0-8.5,4.01,14.428,14.428,0,0,0,24.926.154A86.081,86.081,0,0,0,123.78,94.211Z" style="fill: none;stroke: #52565c;stroke-linecap: round;stroke-linejoin: round;stroke-width: 2.5px"/>
      </g>
      <line x1="117.024" y1="111.478" x2="123.077" y2="111.478" style="fill: none;stroke: #52565c;stroke-linecap: round;stroke-linejoin: round;stroke-width: 2.5px"/>
      <path d="M138.734,75.5H133.74a4.572,4.572,0,0,1-4.572-4.572v-.111" style="fill: none;stroke: #52565c;stroke-linecap: round;stroke-linejoin: round;stroke-width: 2.5px"/>
      <path d="M101.1,75.5H106.1a4.572,4.572,0,0,0,4.572-4.572v-.111" style="fill: none;stroke: #52565c;stroke-linecap: round;stroke-linejoin: round;stroke-width: 2.5px"/>
      <path d="M134.816,63.613h9.557a0,0,0,0,1,0,0v1.552a5.648,5.648,0,0,1-5.648,5.648h-9.557a0,0,0,0,1,0,0V69.261a5.648,5.648,0,0,1,5.648-5.648Z" style="fill: none;stroke: #52565c;stroke-linecap: round;stroke-linejoin: round;stroke-width: 2.5px"/>
      <g>
        <path d="M115.96,85.327V69.752a11.567,11.567,0,0,0-11.566-11.567h-8.35a8.157,8.157,0,0,1-7.586-5.157" style="fill: none;stroke: #52565c;stroke-linecap: round;stroke-linejoin: round;stroke-width: 2.5px"/>
        <path d="M95.465,63.613h9.557a5.648,5.648,0,0,1,5.648,5.648v1.552a0,0,0,0,1,0,0h-9.557a5.648,5.648,0,0,1-5.648-5.648V63.613a0,0,0,0,1,0,0Z" transform="translate(206.134 134.426) rotate(-180)" style="fill: none;stroke: #52565c;stroke-linecap: round;stroke-linejoin: round;stroke-width: 2.5px"/>
      </g>
      <path d="M120,26.562c0,7.084-32.295,7.343-32.295,32.3" style="fill: none;stroke: #52565c;stroke-linecap: round;stroke-linejoin: round;stroke-width: 2.5px"/>
      <path d="M120,26.562c0,7.084,32.295,7.343,32.295,32.3" style="fill: none;stroke: #52565c;stroke-linecap: round;stroke-linejoin: round;stroke-width: 2.5px"/>
      <line x1="119.898" y1="10.799" x2="119.898" y2="14.777" style="fill: #fff;stroke: #52565c;stroke-linecap: round;stroke-linejoin: round;stroke-width: 2.5px"/>
      <path d="M86.039,35.719a11.448,11.448,0,0,1-.083-1.376c0-10.806,15.2-19.566,33.942-19.566s33.942,8.76,33.942,19.566a11.381,11.381,0,0,1-.084,1.385" style="fill: none;stroke: #52565c;stroke-linecap: round;stroke-linejoin: round;stroke-width: 2.5px"/>
      <path d="M152.233,79.677c12.16-.583,24.432-12.293,20.231-25.016-3.616-10.952-10.756-12.673-29.857-26.338a38.848,38.848,0,0,0-45.214,0c-19.1,13.665-26.241,15.386-29.857,26.338-4.194,12.7,8.032,24.4,20.173,25.013" style="fill: none;stroke: #52565c;stroke-linecap: round;stroke-linejoin: round;stroke-width: 2.5px"/>
      <g>
        <path d="M75.453,65.614a21.677,21.677,0,0,0,12.118,7.725" style="fill: none;stroke: #52565c;stroke-linecap: round;stroke-linejoin: round;stroke-width: 2.5px"/>
        <path d="M79.323,60.5a17.637,17.637,0,0,0,8.2,6.339" style="fill: none;stroke: #52565c;stroke-linecap: round;stroke-linejoin: round;stroke-width: 2.5px"/>
      </g>
      <g>
        <path d="M165.006,65.614a21.683,21.683,0,0,1-12.119,7.725" style="fill: none;stroke: #52565c;stroke-linecap: round;stroke-linejoin: round;stroke-width: 2.5px"/>
        <path d="M161.135,60.5a17.629,17.629,0,0,1-8.2,6.339" style="fill: none;stroke: #52565c;stroke-linecap: round;stroke-linejoin: round;stroke-width: 2.5px"/>
      </g>
      <path d="M151.677,81.723a17.334,17.334,0,0,1-8.87,7.681" style="fill: none;stroke: #52565c;stroke-linecap: round;stroke-linejoin: round;stroke-width: 2.5px"/>
      <path d="M88.274,81.642A17.276,17.276,0,0,0,97.185,89.4" style="fill: none;stroke: #52565c;stroke-linecap: round;stroke-linejoin: round;stroke-width: 2.5px"/>
      <path d="M165.192,74.808a14.269,14.269,0,0,1,1.677,4.807c1.649,9.717-9.144,17.44-17.385,14.386" style="fill: none;stroke: #52565c;stroke-linecap: round;stroke-linejoin: round;stroke-width: 2.5px"/>
      <path d="M73.957,74.055a13.985,13.985,0,0,0-2.143,5.56C70.084,89.805,82.038,97.8,90.382,93.477" style="fill: none;stroke: #52565c;stroke-linecap: round;stroke-linejoin: round;stroke-width: 2.5px"/>
      <path d="M156.472,94.463c.55,5.706-5.129,10.3-10.651,10.3" style="fill: none;stroke: #52565c;stroke-linecap: round;stroke-linejoin: round;stroke-width: 2.5px"/>
      <path d="M82.231,94.274c-.752,6.256,6.007,11.238,11.965,10.391" style="fill: none;stroke: #52565c;stroke-linecap: round;stroke-linejoin: round;stroke-width: 2.5px"/>
    </g>
    <path d="M95.9,107.888q-.543,0-1.085.019A45.355,45.355,0,0,0,56.9,130.53" style="fill: none;stroke: #52565c;stroke-linecap: round;stroke-linejoin: round;stroke-width: 2.5px"/>
    <path d="M178.947,130.247a45.363,45.363,0,0,0-34.888-22.166" style="fill: none;stroke: #52565c;stroke-linecap: round;stroke-linejoin: round;stroke-width: 2.5px"/>
    <g>
      <path d="M101.259,114.126c1.734,11.667,8.557,21.832,18.462,27l.558.292.559-.292c10.058-5.251,16.937-15.65,18.539-27.542" style="fill: none;stroke: #52565c;stroke-linecap: round;stroke-linejoin: round;stroke-width: 2.5px"/>
      <path d="M120.279,141.421c5.294,0,10.644,4.253,13.616,7.843a4.875,4.875,0,0,0,7.519-.062c5.326-6.457,12.772-20.038,5.767-40.747" style="fill: none;stroke: #52565c;stroke-linecap: round;stroke-linejoin: round;stroke-width: 2.5px"/>
      <path d="M119.721,141.421c-5.294,0-10.644,4.253-13.616,7.843a4.875,4.875,0,0,1-7.519-.062c-5.326-6.457-12.772-20.038-5.767-40.747" style="fill: none;stroke: #52565c;stroke-linecap: round;stroke-linejoin: round;stroke-width: 2.5px"/>
    </g>
  </g>
</svg>
