<svg xmlns="http://www.w3.org/2000/svg" viewBox="0 0 240 196">
  <g id="Layer_2" data-name="Layer 2">
    <rect width="240" height="196" style="fill: #fff"/>
  </g>
  <g id="Layer_1" data-name="Layer 1">
    <g>
      <g>
        <line x1="56.666" y1="104.619" x2="73.368" y2="104.619" style="fill: none;stroke: #52565c;stroke-linecap: round;stroke-linejoin: round;stroke-width: 2.5px"/>
        <line x1="45.578" y1="98.635" x2="73.368" y2="98.635" style="fill: none;stroke: #52565c;stroke-linecap: round;stroke-linejoin: round;stroke-width: 2.5px"/>
        <line x1="33.02" y1="92.651" x2="73.368" y2="92.651" style="fill: none;stroke: #52565c;stroke-linecap: round;stroke-linejoin: round;stroke-width: 2.5px"/>
      </g>
      <g>
        <g>
          <line x1="57.758" y1="71.111" x2="53.854" y2="75.016" style="fill: none;stroke: #52565c;stroke-linecap: round;stroke-linejoin: round;stroke-width: 2.5px"/>
          <line x1="53.854" y1="71.111" x2="57.758" y2="75.016" style="fill: none;stroke: #52565c;stroke-linecap: round;stroke-linejoin: round;stroke-width: 2.5px"/>
        </g>
        <g>
          <line x1="57.758" y1="51.501" x2="53.854" y2="55.406" style="fill: none;stroke: #52565c;stroke-linecap: round;stroke-linejoin: round;stroke-width: 2.5px"/>
          <line x1="53.854" y1="51.501" x2="57.758" y2="55.406" style="fill: none;stroke: #52565c;stroke-linecap: round;stroke-linejoin: round;stroke-width: 2.5px"/>
        </g>
        <g>
          <line x1="57.758" y1="31.891" x2="53.854" y2="35.795" style="fill: none;stroke: #52565c;stroke-linecap: round;stroke-linejoin: round;stroke-width: 2.5px"/>
          <line x1="53.854" y1="31.891" x2="57.758" y2="35.795" style="fill: none;stroke: #52565c;stroke-linecap: round;stroke-linejoin: round;stroke-width: 2.5px"/>
        </g>
      </g>
      <line x1="127.673" y1="159.632" x2="127.673" y2="149.899" style="fill: #fff;stroke: #52565c;stroke-linecap: round;stroke-linejoin: round;stroke-width: 2.5px"/>
      <polyline points="138.347 197.067 138.347 160.104 89.494 160.104 89.494 197.067" style="fill: none;stroke: #52565c;stroke-linecap: round;stroke-linejoin: round;stroke-width: 2.5px"/>
      <polyline points="93.349 144.024 74.051 144.024 74.051 30.676" style="fill: none;stroke: #52565c;stroke-linecap: round;stroke-linejoin: round;stroke-width: 2.5px"/>
      <polyline points="152.208 30.676 152.208 144.024 114.028 144.024" style="fill: none;stroke: #52565c;stroke-linecap: round;stroke-linejoin: round;stroke-width: 2.5px"/>
      <g>
        <g>
          <line x1="116.058" y1="56.6" x2="107.237" y2="56.6" style="fill: none;stroke: #52565c;stroke-linecap: round;stroke-linejoin: round;stroke-width: 2.5px"/>
          <line x1="116.058" y1="71.14" x2="107.237" y2="71.14" style="fill: none;stroke: #52565c;stroke-linecap: round;stroke-linejoin: round;stroke-width: 2.5px"/>
          <g>
            <line x1="109.606" y1="63.87" x2="107.237" y2="63.87" style="fill: none;stroke: #52565c;stroke-linecap: round;stroke-linejoin: round;stroke-width: 2.5px"/>
            <line x1="127.873" y1="63.87" x2="120.799" y2="63.87" style="fill: none;stroke: #52565c;stroke-linecap: round;stroke-linejoin: round;stroke-width: 2.5px"/>
            <line x1="116.509" y1="63.87" x2="114.14" y2="63.87" style="fill: none;stroke: #52565c;stroke-linecap: round;stroke-linejoin: round;stroke-width: 2.5px"/>
          </g>
          <g>
            <line x1="109.606" y1="78.409" x2="107.237" y2="78.409" style="fill: none;stroke: #52565c;stroke-linecap: round;stroke-linejoin: round;stroke-width: 2.5px"/>
            <line x1="127.873" y1="78.409" x2="120.799" y2="78.409" style="fill: none;stroke: #52565c;stroke-linecap: round;stroke-linejoin: round;stroke-width: 2.5px"/>
            <line x1="116.509" y1="78.409" x2="114.14" y2="78.409" style="fill: none;stroke: #52565c;stroke-linecap: round;stroke-linejoin: round;stroke-width: 2.5px"/>
          </g>
          <line x1="122.863" y1="71.14" x2="120.494" y2="71.14" style="fill: none;stroke: #52565c;stroke-linecap: round;stroke-linejoin: round;stroke-width: 2.5px"/>
          <line x1="129.766" y1="71.14" x2="127.397" y2="71.14" style="fill: none;stroke: #52565c;stroke-linecap: round;stroke-linejoin: round;stroke-width: 2.5px"/>
          <line x1="123.092" y1="56.6" x2="120.723" y2="56.6" style="fill: none;stroke: #52565c;stroke-linecap: round;stroke-linejoin: round;stroke-width: 2.5px"/>
        </g>
        <line x1="106.132" y1="42.257" x2="97.311" y2="42.257" style="fill: none;stroke: #52565c;stroke-linecap: round;stroke-linejoin: round;stroke-width: 2.5px"/>
        <line x1="86.287" y1="42.257" x2="85.334" y2="42.257" style="fill: none;stroke: #52565c;stroke-linecap: round;stroke-linejoin: round;stroke-width: 2.5px"/>
        <line x1="86.287" y1="49.527" x2="85.334" y2="49.527" style="fill: none;stroke: #52565c;stroke-linecap: round;stroke-linejoin: round;stroke-width: 2.5px"/>
        <line x1="86.287" y1="56.796" x2="85.334" y2="56.796" style="fill: none;stroke: #52565c;stroke-linecap: round;stroke-linejoin: round;stroke-width: 2.5px"/>
        <line x1="86.287" y1="64.066" x2="85.334" y2="64.066" style="fill: none;stroke: #52565c;stroke-linecap: round;stroke-linejoin: round;stroke-width: 2.5px"/>
        <line x1="86.287" y1="71.335" x2="85.334" y2="71.335" style="fill: none;stroke: #52565c;stroke-linecap: round;stroke-linejoin: round;stroke-width: 2.5px"/>
        <line x1="86.287" y1="78.605" x2="85.334" y2="78.605" style="fill: none;stroke: #52565c;stroke-linecap: round;stroke-linejoin: round;stroke-width: 2.5px"/>
        <line x1="86.287" y1="85.875" x2="85.334" y2="85.875" style="fill: none;stroke: #52565c;stroke-linecap: round;stroke-linejoin: round;stroke-width: 2.5px"/>
        <line x1="86.287" y1="93.144" x2="85.334" y2="93.144" style="fill: none;stroke: #52565c;stroke-linecap: round;stroke-linejoin: round;stroke-width: 2.5px"/>
        <line x1="86.287" y1="100.414" x2="85.334" y2="100.414" style="fill: none;stroke: #52565c;stroke-linecap: round;stroke-linejoin: round;stroke-width: 2.5px"/>
        <line x1="86.287" y1="107.684" x2="85.334" y2="107.684" style="fill: none;stroke: #52565c;stroke-linecap: round;stroke-linejoin: round;stroke-width: 2.5px"/>
        <line x1="132.325" y1="42.257" x2="125.508" y2="42.257" style="fill: none;stroke: #52565c;stroke-linecap: round;stroke-linejoin: round;stroke-width: 2.5px"/>
        <line x1="113.61" y1="42.257" x2="111.241" y2="42.257" style="fill: none;stroke: #52565c;stroke-linecap: round;stroke-linejoin: round;stroke-width: 2.5px"/>
        <line x1="120.513" y1="42.257" x2="118.144" y2="42.257" style="fill: none;stroke: #52565c;stroke-linecap: round;stroke-linejoin: round;stroke-width: 2.5px"/>
        <line x1="138.866" y1="42.257" x2="136.497" y2="42.257" style="fill: none;stroke: #52565c;stroke-linecap: round;stroke-linejoin: round;stroke-width: 2.5px"/>
        <g>
          <line x1="130.045" y1="49.527" x2="138.866" y2="49.527" style="fill: none;stroke: #52565c;stroke-linecap: round;stroke-linejoin: round;stroke-width: 2.5px"/>
          <line x1="103.852" y1="49.527" x2="110.669" y2="49.527" style="fill: none;stroke: #52565c;stroke-linecap: round;stroke-linejoin: round;stroke-width: 2.5px"/>
          <line x1="122.567" y1="49.527" x2="124.936" y2="49.527" style="fill: none;stroke: #52565c;stroke-linecap: round;stroke-linejoin: round;stroke-width: 2.5px"/>
          <line x1="115.663" y1="49.527" x2="118.032" y2="49.527" style="fill: none;stroke: #52565c;stroke-linecap: round;stroke-linejoin: round;stroke-width: 2.5px"/>
          <line x1="97.311" y1="49.527" x2="99.68" y2="49.527" style="fill: none;stroke: #52565c;stroke-linecap: round;stroke-linejoin: round;stroke-width: 2.5px"/>
        </g>
        <g>
          <g>
            <line x1="106.132" y1="85.875" x2="97.311" y2="85.875" style="fill: none;stroke: #52565c;stroke-linecap: round;stroke-linejoin: round;stroke-width: 2.5px"/>
            <line x1="132.325" y1="85.875" x2="125.508" y2="85.875" style="fill: none;stroke: #52565c;stroke-linecap: round;stroke-linejoin: round;stroke-width: 2.5px"/>
            <line x1="113.61" y1="85.875" x2="111.241" y2="85.875" style="fill: none;stroke: #52565c;stroke-linecap: round;stroke-linejoin: round;stroke-width: 2.5px"/>
            <line x1="120.513" y1="85.875" x2="118.144" y2="85.875" style="fill: none;stroke: #52565c;stroke-linecap: round;stroke-linejoin: round;stroke-width: 2.5px"/>
            <line x1="138.866" y1="85.875" x2="136.497" y2="85.875" style="fill: none;stroke: #52565c;stroke-linecap: round;stroke-linejoin: round;stroke-width: 2.5px"/>
          </g>
          <g>
            <line x1="130.045" y1="93.144" x2="138.866" y2="93.144" style="fill: none;stroke: #52565c;stroke-linecap: round;stroke-linejoin: round;stroke-width: 2.5px"/>
            <line x1="103.852" y1="93.144" x2="110.669" y2="93.144" style="fill: none;stroke: #52565c;stroke-linecap: round;stroke-linejoin: round;stroke-width: 2.5px"/>
            <line x1="122.567" y1="93.144" x2="124.936" y2="93.144" style="fill: none;stroke: #52565c;stroke-linecap: round;stroke-linejoin: round;stroke-width: 2.5px"/>
            <line x1="115.663" y1="93.144" x2="118.032" y2="93.144" style="fill: none;stroke: #52565c;stroke-linecap: round;stroke-linejoin: round;stroke-width: 2.5px"/>
            <line x1="97.311" y1="93.144" x2="99.68" y2="93.144" style="fill: none;stroke: #52565c;stroke-linecap: round;stroke-linejoin: round;stroke-width: 2.5px"/>
          </g>
        </g>
        <g>
          <g>
            <line x1="106.132" y1="100.414" x2="97.311" y2="100.414" style="fill: none;stroke: #52565c;stroke-linecap: round;stroke-linejoin: round;stroke-width: 2.5px"/>
            <line x1="132.325" y1="100.414" x2="125.508" y2="100.414" style="fill: none;stroke: #52565c;stroke-linecap: round;stroke-linejoin: round;stroke-width: 2.5px"/>
            <line x1="113.61" y1="100.414" x2="111.241" y2="100.414" style="fill: none;stroke: #52565c;stroke-linecap: round;stroke-linejoin: round;stroke-width: 2.5px"/>
            <line x1="120.513" y1="100.414" x2="118.144" y2="100.414" style="fill: none;stroke: #52565c;stroke-linecap: round;stroke-linejoin: round;stroke-width: 2.5px"/>
            <line x1="138.866" y1="100.414" x2="136.497" y2="100.414" style="fill: none;stroke: #52565c;stroke-linecap: round;stroke-linejoin: round;stroke-width: 2.5px"/>
          </g>
          <g>
            <line x1="130.045" y1="107.684" x2="138.866" y2="107.684" style="fill: none;stroke: #52565c;stroke-linecap: round;stroke-linejoin: round;stroke-width: 2.5px"/>
            <line x1="103.852" y1="107.684" x2="110.669" y2="107.684" style="fill: none;stroke: #52565c;stroke-linecap: round;stroke-linejoin: round;stroke-width: 2.5px"/>
            <line x1="122.567" y1="107.684" x2="124.936" y2="107.684" style="fill: none;stroke: #52565c;stroke-linecap: round;stroke-linejoin: round;stroke-width: 2.5px"/>
            <line x1="115.663" y1="107.684" x2="118.032" y2="107.684" style="fill: none;stroke: #52565c;stroke-linecap: round;stroke-linejoin: round;stroke-width: 2.5px"/>
            <line x1="97.311" y1="107.684" x2="99.68" y2="107.684" style="fill: none;stroke: #52565c;stroke-linecap: round;stroke-linejoin: round;stroke-width: 2.5px"/>
          </g>
        </g>
      </g>
      <path d="M115.458,160.1a15.619,15.619,0,0,0-8.84-21.423l3.645-3.645a11.52,11.52,0,0,0,0-16.292l-13.8,13.8a10.368,10.368,0,0,0-3.037,7.33h0V160.1Z" style="fill: none;stroke: #52565c;stroke-linecap: round;stroke-linejoin: round;stroke-width: 2.5px"/>
      <g>
        <line x1="123.753" y1="130.572" x2="129.375" y2="130.572" style="fill: #f5f6f7;stroke: #52565c;stroke-linecap: round;stroke-linejoin: round;stroke-width: 2.5px"/>
        <line x1="123.753" y1="124.578" x2="138.866" y2="124.578" style="fill: #f5f6f7;stroke: #52565c;stroke-linecap: round;stroke-linejoin: round;stroke-width: 2.5px"/>
      </g>
      <circle cx="130.447" cy="169.751" r="1.961" style="fill: #52565c"/>
      <circle cx="123.416" cy="169.751" r="1.961" style="fill: #52565c"/>
      <path d="M127.673,144.024v3.787a6.937,6.937,0,0,0,6.937,6.938h1.055V144.024Z" style="fill: none;stroke: #52565c;stroke-linecap: round;stroke-linejoin: round;stroke-width: 2.5px"/>
      <path d="M119.77,144.024a6.932,6.932,0,0,0,6.848,5.875h1.055v-5.875Z" style="fill: none;stroke: #52565c;stroke-linecap: round;stroke-linejoin: round;stroke-width: 2.5px"/>
      <path d="M152.208,30.676a12.21,12.21,0,0,1,12.221-12.22" style="fill: none;stroke: #52565c;stroke-linecap: round;stroke-linejoin: round;stroke-width: 2.5px"/>
      <line x1="152.539" y1="40.594" x2="167.823" y2="40.594" style="fill: none;stroke: #52565c;stroke-linecap: round;stroke-linejoin: round;stroke-width: 2.5px"/>
      <line x1="153.103" y1="28.84" x2="162.307" y2="28.84" style="fill: none;stroke: #52565c;stroke-linecap: round;stroke-linejoin: round;stroke-width: 2.5px"/>
      <path d="M164.429,18.456H86.271a12.22,12.22,0,0,0-12.22,12.22" style="fill: none;stroke: #52565c;stroke-linecap: round;stroke-linejoin: round;stroke-width: 2.5px"/>
      <path d="M164.429,18.456a12.22,12.22,0,0,1,12.22,12.22c0,7.286-5.8,11.463-11.615,9.4-4.026-1.429-5.39-7.663-2.727-11.234" style="fill: none;stroke: #52565c;stroke-linecap: round;stroke-linejoin: round;stroke-width: 2.5px"/>
      <g>
        <polyline points="25.818 89.651 25.818 35.757 37.688 23.35 37.688 60.777 25.818 73.185" style="fill: none;stroke: #52565c;stroke-linecap: round;stroke-linejoin: round;stroke-width: 2.5px"/>
        <polygon points="34.612 63.992 25.818 73.185 25.818 81.919 34.612 72.726 34.612 63.992" style="fill: none;stroke: #52565c;stroke-linecap: round;stroke-linejoin: round;stroke-width: 2.5px"/>
        <line x1="32.358" y1="42.684" x2="25.818" y2="49.52" style="fill: none;stroke: #52565c;stroke-linecap: round;stroke-linejoin: round;stroke-width: 2.5px"/>
        <line x1="32.358" y1="36" x2="25.818" y2="42.836" style="fill: none;stroke: #52565c;stroke-linecap: round;stroke-linejoin: round;stroke-width: 2.5px"/>
        <g>
          <line x1="25.443" y1="71.766" x2="22.936" y2="69.145" style="fill: none;stroke: #52565c;stroke-linecap: round;stroke-linejoin: round;stroke-width: 2.5px"/>
          <line x1="25.541" y1="65.184" x2="22.936" y2="62.461" style="fill: none;stroke: #52565c;stroke-linecap: round;stroke-linejoin: round;stroke-width: 2.5px"/>
        </g>
      </g>
      <g>
        <g>
          <line x1="188.729" y1="73.993" x2="183.445" y2="73.993" style="fill: none;stroke: #52565c;stroke-linecap: round;stroke-linejoin: round;stroke-width: 2.5px"/>
          <line x1="194.361" y1="73.993" x2="192.942" y2="73.993" style="fill: none;stroke: #52565c;stroke-linecap: round;stroke-linejoin: round;stroke-width: 2.5px"/>
          <line x1="170.897" y1="74.11" x2="170.326" y2="74.11" style="fill: none;stroke: #52565c;stroke-linecap: round;stroke-linejoin: round;stroke-width: 2.5px"/>
        </g>
        <g>
          <line x1="188.729" y1="80.702" x2="183.445" y2="80.702" style="fill: none;stroke: #52565c;stroke-linecap: round;stroke-linejoin: round;stroke-width: 2.5px"/>
          <line x1="194.224" y1="80.702" x2="192.805" y2="80.702" style="fill: none;stroke: #52565c;stroke-linecap: round;stroke-linejoin: round;stroke-width: 2.5px"/>
          <line x1="199.618" y1="80.702" x2="198.199" y2="80.702" style="fill: none;stroke: #52565c;stroke-linecap: round;stroke-linejoin: round;stroke-width: 2.5px"/>
          <line x1="170.897" y1="80.819" x2="170.326" y2="80.819" style="fill: none;stroke: #52565c;stroke-linecap: round;stroke-linejoin: round;stroke-width: 2.5px"/>
        </g>
        <g>
          <line x1="170.897" y1="67.401" x2="170.326" y2="67.401" style="fill: none;stroke: #52565c;stroke-linecap: round;stroke-linejoin: round;stroke-width: 2.5px"/>
          <g>
            <line x1="182.783" y1="67.401" x2="177.499" y2="67.401" style="fill: none;stroke: #52565c;stroke-linecap: round;stroke-linejoin: round;stroke-width: 2.5px"/>
            <line x1="196.153" y1="67.401" x2="192.07" y2="67.401" style="fill: none;stroke: #52565c;stroke-linecap: round;stroke-linejoin: round;stroke-width: 2.5px"/>
            <line x1="188.143" y1="67.401" x2="186.724" y2="67.401" style="fill: none;stroke: #52565c;stroke-linecap: round;stroke-linejoin: round;stroke-width: 2.5px"/>
            <line x1="203.46" y1="67.401" x2="199.972" y2="67.401" style="fill: none;stroke: #52565c;stroke-linecap: round;stroke-linejoin: round;stroke-width: 2.5px"/>
          </g>
        </g>
        <g>
          <line x1="170.897" y1="87.528" x2="170.326" y2="87.528" style="fill: none;stroke: #52565c;stroke-linecap: round;stroke-linejoin: round;stroke-width: 2.5px"/>
          <g>
            <line x1="182.783" y1="87.528" x2="177.499" y2="87.528" style="fill: none;stroke: #52565c;stroke-linecap: round;stroke-linejoin: round;stroke-width: 2.5px"/>
            <line x1="196.153" y1="87.528" x2="192.07" y2="87.528" style="fill: none;stroke: #52565c;stroke-linecap: round;stroke-linejoin: round;stroke-width: 2.5px"/>
            <line x1="188.143" y1="87.528" x2="186.724" y2="87.528" style="fill: none;stroke: #52565c;stroke-linecap: round;stroke-linejoin: round;stroke-width: 2.5px"/>
            <line x1="203.46" y1="87.528" x2="199.972" y2="87.528" style="fill: none;stroke: #52565c;stroke-linecap: round;stroke-linejoin: round;stroke-width: 2.5px"/>
          </g>
        </g>
        <g>
          <line x1="170.897" y1="94.237" x2="170.326" y2="94.237" style="fill: none;stroke: #52565c;stroke-linecap: round;stroke-linejoin: round;stroke-width: 2.5px"/>
          <g>
            <line x1="182.783" y1="94.237" x2="177.499" y2="94.237" style="fill: none;stroke: #52565c;stroke-linecap: round;stroke-linejoin: round;stroke-width: 2.5px"/>
            <line x1="196.153" y1="94.237" x2="192.07" y2="94.237" style="fill: none;stroke: #52565c;stroke-linecap: round;stroke-linejoin: round;stroke-width: 2.5px"/>
            <line x1="188.143" y1="94.237" x2="186.724" y2="94.237" style="fill: none;stroke: #52565c;stroke-linecap: round;stroke-linejoin: round;stroke-width: 2.5px"/>
            <line x1="203.46" y1="94.237" x2="199.972" y2="94.237" style="fill: none;stroke: #52565c;stroke-linecap: round;stroke-linejoin: round;stroke-width: 2.5px"/>
          </g>
        </g>
        <g>
          <line x1="193.339" y1="112.301" x2="196.706" y2="112.301" style="fill: #f5f6f7;stroke: #52565c;stroke-linecap: round;stroke-linejoin: round;stroke-width: 2.5px"/>
          <line x1="193.339" y1="107.59" x2="202.391" y2="107.59" style="fill: #f5f6f7;stroke: #52565c;stroke-linecap: round;stroke-linejoin: round;stroke-width: 2.5px"/>
        </g>
        <line x1="198.008" y1="132.682" x2="198.008" y2="124.998" style="fill: #fff;stroke: #52565c;stroke-linecap: round;stroke-linejoin: round;stroke-width: 2.5px"/>
        <polyline points="206.436 197.067 206.436 133.055 167.864 133.055 167.864 197.067" style="fill: none;stroke: #52565c;stroke-linecap: round;stroke-linejoin: round;stroke-width: 2.5px"/>
        <path d="M188.364,133.055a12.334,12.334,0,0,0-6.979-16.915l2.878-2.878a9.1,9.1,0,0,0,0-12.863l-10.9,10.895a8.184,8.184,0,0,0-2.4,5.787h0v15.974Z" style="fill: none;stroke: #52565c;stroke-linecap: round;stroke-linejoin: round;stroke-width: 2.5px"/>
        <path d="M198.008,120.359v2.99a5.478,5.478,0,0,0,5.478,5.477h.833v-8.467Z" style="fill: none;stroke: #52565c;stroke-linecap: round;stroke-linejoin: round;stroke-width: 2.5px"/>
        <path d="M191.768,120.359A5.475,5.475,0,0,0,197.175,125h.833v-4.639Z" style="fill: none;stroke: #52565c;stroke-linecap: round;stroke-linejoin: round;stroke-width: 2.5px"/>
        <g>
          <circle cx="216.564" cy="62.111" r="6.112" style="fill: none;stroke: #52565c;stroke-linecap: round;stroke-linejoin: round;stroke-width: 2.5px"/>
          <path d="M187.449,120.359h23V62.111A6.113,6.113,0,0,1,216.563,56H169.678a6.111,6.111,0,0,0-6.111,6.112v58.248h7.372" style="fill: none;stroke: #52565c;stroke-linecap: round;stroke-linejoin: round;stroke-width: 2.5px"/>
        </g>
        <circle cx="192.19" cy="140.885" r="1.961" style="fill: #52565c"/>
        <circle cx="199.221" cy="140.885" r="1.961" style="fill: #52565c"/>
      </g>
      <g>
        <line x1="58.289" y1="128.489" x2="53.005" y2="128.489" style="fill: none;stroke: #52565c;stroke-linecap: round;stroke-linejoin: round;stroke-width: 2.5px"/>
        <line x1="63.921" y1="128.489" x2="62.502" y2="128.489" style="fill: none;stroke: #52565c;stroke-linecap: round;stroke-linejoin: round;stroke-width: 2.5px"/>
        <line x1="40.457" y1="128.606" x2="39.886" y2="128.606" style="fill: none;stroke: #52565c;stroke-linecap: round;stroke-linejoin: round;stroke-width: 2.5px"/>
      </g>
      <g>
        <line x1="58.289" y1="135.198" x2="53.005" y2="135.198" style="fill: none;stroke: #52565c;stroke-linecap: round;stroke-linejoin: round;stroke-width: 2.5px"/>
        <line x1="63.784" y1="135.198" x2="62.365" y2="135.198" style="fill: none;stroke: #52565c;stroke-linecap: round;stroke-linejoin: round;stroke-width: 2.5px"/>
        <line x1="69.178" y1="135.198" x2="67.759" y2="135.198" style="fill: none;stroke: #52565c;stroke-linecap: round;stroke-linejoin: round;stroke-width: 2.5px"/>
        <line x1="40.457" y1="135.315" x2="39.886" y2="135.315" style="fill: none;stroke: #52565c;stroke-linecap: round;stroke-linejoin: round;stroke-width: 2.5px"/>
      </g>
      <g>
        <line x1="40.457" y1="121.897" x2="39.886" y2="121.897" style="fill: none;stroke: #52565c;stroke-linecap: round;stroke-linejoin: round;stroke-width: 2.5px"/>
        <g>
          <line x1="52.343" y1="121.897" x2="47.059" y2="121.897" style="fill: none;stroke: #52565c;stroke-linecap: round;stroke-linejoin: round;stroke-width: 2.5px"/>
          <line x1="65.713" y1="121.897" x2="61.63" y2="121.897" style="fill: none;stroke: #52565c;stroke-linecap: round;stroke-linejoin: round;stroke-width: 2.5px"/>
          <line x1="57.703" y1="121.897" x2="56.284" y2="121.897" style="fill: none;stroke: #52565c;stroke-linecap: round;stroke-linejoin: round;stroke-width: 2.5px"/>
          <line x1="73.02" y1="121.897" x2="69.532" y2="121.897" style="fill: none;stroke: #52565c;stroke-linecap: round;stroke-linejoin: round;stroke-width: 2.5px"/>
        </g>
      </g>
      <g>
        <line x1="40.457" y1="142.024" x2="39.886" y2="142.024" style="fill: none;stroke: #52565c;stroke-linecap: round;stroke-linejoin: round;stroke-width: 2.5px"/>
        <g>
          <line x1="52.343" y1="142.024" x2="47.059" y2="142.024" style="fill: none;stroke: #52565c;stroke-linecap: round;stroke-linejoin: round;stroke-width: 2.5px"/>
          <line x1="69.178" y1="142.024" x2="61.63" y2="142.024" style="fill: none;stroke: #52565c;stroke-linecap: round;stroke-linejoin: round;stroke-width: 2.5px"/>
          <line x1="57.703" y1="142.024" x2="56.284" y2="142.024" style="fill: none;stroke: #52565c;stroke-linecap: round;stroke-linejoin: round;stroke-width: 2.5px"/>
        </g>
      </g>
      <g>
        <line x1="40.457" y1="148.733" x2="39.886" y2="148.733" style="fill: none;stroke: #52565c;stroke-linecap: round;stroke-linejoin: round;stroke-width: 2.5px"/>
        <g>
          <line x1="52.343" y1="148.733" x2="47.059" y2="148.733" style="fill: none;stroke: #52565c;stroke-linecap: round;stroke-linejoin: round;stroke-width: 2.5px"/>
          <line x1="65.713" y1="148.733" x2="61.63" y2="148.733" style="fill: none;stroke: #52565c;stroke-linecap: round;stroke-linejoin: round;stroke-width: 2.5px"/>
          <line x1="57.703" y1="148.733" x2="56.284" y2="148.733" style="fill: none;stroke: #52565c;stroke-linecap: round;stroke-linejoin: round;stroke-width: 2.5px"/>
          <line x1="73.02" y1="148.733" x2="69.532" y2="148.733" style="fill: none;stroke: #52565c;stroke-linecap: round;stroke-linejoin: round;stroke-width: 2.5px"/>
        </g>
      </g>
      <g>
        <line x1="62.899" y1="166.798" x2="66.266" y2="166.798" style="fill: #f5f6f7;stroke: #52565c;stroke-linecap: round;stroke-linejoin: round;stroke-width: 2.5px"/>
        <line x1="62.899" y1="162.086" x2="71.951" y2="162.086" style="fill: #f5f6f7;stroke: #52565c;stroke-linecap: round;stroke-linejoin: round;stroke-width: 2.5px"/>
      </g>
      <line x1="67.568" y1="187.178" x2="67.568" y2="179.494" style="fill: #fff;stroke: #52565c;stroke-linecap: round;stroke-linejoin: round;stroke-width: 2.5px"/>
      <polyline points="75.996 197.067 75.996 187.551 37.424 187.551 37.424 197.067" style="fill: none;stroke: #52565c;stroke-linecap: round;stroke-linejoin: round;stroke-width: 2.5px"/>
      <path d="M57.925,187.551a12.334,12.334,0,0,0-6.98-16.915l2.878-2.878a9.1,9.1,0,0,0,0-12.863l-10.9,10.895a8.185,8.185,0,0,0-2.4,5.788h0v15.973Z" style="fill: none;stroke: #52565c;stroke-linecap: round;stroke-linejoin: round;stroke-width: 2.5px"/>
      <path d="M67.568,174.855v2.99a5.478,5.478,0,0,0,5.478,5.477h.833v-8.467Z" style="fill: none;stroke: #52565c;stroke-linecap: round;stroke-linejoin: round;stroke-width: 2.5px"/>
      <path d="M61.328,174.855a5.475,5.475,0,0,0,5.407,4.639h.833v-4.639Z" style="fill: none;stroke: #52565c;stroke-linecap: round;stroke-linejoin: round;stroke-width: 2.5px"/>
      <path d="M73.636,110.5h-34.4a6.111,6.111,0,0,0-6.111,6.112v58.248H40.5" style="fill: none;stroke: #52565c;stroke-linecap: round;stroke-linejoin: round;stroke-width: 2.5px"/>
      <polyline points="57.009 174.855 80.012 174.855 80.012 144.314" style="fill: none;stroke: #52565c;stroke-linecap: round;stroke-linejoin: round;stroke-width: 2.5px"/>
      <line x1="205.986" y1="154.668" x2="171.487" y2="196.982" style="fill: none;stroke: #52565c;stroke-linecap: round;stroke-linejoin: round;stroke-width: 2.5px"/>
      <line x1="118.708" y1="160.293" x2="89.741" y2="195.822" style="fill: none;stroke: #52565c;stroke-linecap: round;stroke-linejoin: round;stroke-width: 2.5px"/>
      <line x1="110.008" y1="160.378" x2="89.741" y2="185.236" style="fill: none;stroke: #52565c;stroke-linecap: round;stroke-linejoin: round;stroke-width: 2.5px"/>
      <line x1="101.474" y1="160.259" x2="89.622" y2="174.796" style="fill: none;stroke: #52565c;stroke-linecap: round;stroke-linejoin: round;stroke-width: 2.5px"/>
      <line x1="205.986" y1="165.331" x2="180.149" y2="197.02" style="fill: none;stroke: #52565c;stroke-linecap: round;stroke-linejoin: round;stroke-width: 2.5px"/>
      <line x1="205.986" y1="175.994" x2="188.812" y2="197.058" style="fill: none;stroke: #52565c;stroke-linecap: round;stroke-linejoin: round;stroke-width: 2.5px"/>
      <line x1="205.986" y1="186.656" x2="197.305" y2="197.304" style="fill: none;stroke: #52565c;stroke-linecap: round;stroke-linejoin: round;stroke-width: 2.5px"/>
    </g>
  </g>
</svg>
