<svg xmlns="http://www.w3.org/2000/svg" viewBox="0 0 240 196">
  <g id="Layer_2" data-name="Layer 2">
    <rect width="240" height="196" style="fill: #fff"/>
  </g>
  <g id="Layer_1" data-name="Layer 1">
    <g>
      <polyline points="147.779 133.531 196.117 133.531 196.117 169.355 36.055 169.355 36.055 133.531 84.084 133.531" style="fill: none;stroke: #52565c;stroke-linecap: round;stroke-linejoin: round;stroke-width: 2.5px"/>
      <line x1="45.248" y1="169.355" x2="45.248" y2="196.532" style="fill: none;stroke: #52565c;stroke-linecap: round;stroke-linejoin: round;stroke-width: 2.5px"/>
      <line x1="186.924" y1="196.532" x2="186.924" y2="169.355" style="fill: none;stroke: #52565c;stroke-linecap: round;stroke-linejoin: round;stroke-width: 2.5px"/>
      <line x1="103.617" y1="56.872" x2="103.617" y2="66.604" style="fill: #fff;stroke: #52565c;stroke-linecap: round;stroke-linejoin: round;stroke-width: 2.5px"/>
      <polyline points="92.943 0.03 92.943 56.399 141.796 56.399 141.796 0.03" style="fill: none;stroke: #52565c;stroke-linecap: round;stroke-linejoin: round;stroke-width: 2.5px"/>
      <line x1="78.815" y1="145.827" x2="151.348" y2="145.827" style="fill: #fff;stroke: #52565c;stroke-linecap: round;stroke-linejoin: round;stroke-width: 2.5px"/>
      <polyline points="138.264 72.48 147.239 72.48 147.239 112.875" style="fill: none;stroke: #52565c;stroke-linecap: round;stroke-linejoin: round;stroke-width: 2.5px"/>
      <polyline points="84.081 145.827 84.081 72.48 117.039 72.48" style="fill: none;stroke: #52565c;stroke-linecap: round;stroke-linejoin: round;stroke-width: 2.5px"/>
      <line x1="135.585" y1="112.387" x2="135.585" y2="83.488" style="fill: none;stroke: #52565c;stroke-linecap: round;stroke-linejoin: round;stroke-width: 2.5px"/>
      <line x1="135.585" y1="120.415" x2="135.585" y2="117.708" style="fill: none;stroke: #52565c;stroke-linecap: round;stroke-linejoin: round;stroke-width: 2.5px"/>
      <line x1="135.585" y1="145.274" x2="135.585" y2="124.863" style="fill: none;stroke: #52565c;stroke-linecap: round;stroke-linejoin: round;stroke-width: 2.5px"/>
      <line x1="147.239" y1="120.415" x2="147.239" y2="117.708" style="fill: none;stroke: #52565c;stroke-linecap: round;stroke-linejoin: round;stroke-width: 2.5px"/>
      <line x1="147.239" y1="145.274" x2="147.239" y2="124.863" style="fill: none;stroke: #52565c;stroke-linecap: round;stroke-linejoin: round;stroke-width: 2.5px"/>
      <path d="M115.831,56.4a15.622,15.622,0,0,0,8.841,21.424l-3.645,3.645a11.52,11.52,0,0,0,0,16.292l13.8-13.8a10.365,10.365,0,0,0,3.036-7.33h0V56.4Z" style="fill: none;stroke: #52565c;stroke-linecap: round;stroke-linejoin: round;stroke-width: 2.5px"/>
      <line x1="146.736" y1="145.867" x2="127.926" y2="168.938" style="fill: none;stroke: #52565c;stroke-linecap: round;stroke-linejoin: round;stroke-width: 2.5px"/>
      <line x1="137.769" y1="145.867" x2="118.959" y2="168.938" style="fill: none;stroke: #52565c;stroke-linecap: round;stroke-linejoin: round;stroke-width: 2.5px"/>
      <line x1="128.803" y1="145.867" x2="109.993" y2="168.938" style="fill: none;stroke: #52565c;stroke-linecap: round;stroke-linejoin: round;stroke-width: 2.5px"/>
      <line x1="119.836" y1="145.867" x2="101.026" y2="168.938" style="fill: none;stroke: #52565c;stroke-linecap: round;stroke-linejoin: round;stroke-width: 2.5px"/>
      <line x1="110.869" y1="145.867" x2="92.059" y2="168.938" style="fill: none;stroke: #52565c;stroke-linecap: round;stroke-linejoin: round;stroke-width: 2.5px"/>
      <line x1="101.903" y1="145.867" x2="83.093" y2="168.938" style="fill: none;stroke: #52565c;stroke-linecap: round;stroke-linejoin: round;stroke-width: 2.5px"/>
      <line x1="92.936" y1="145.867" x2="74.126" y2="168.938" style="fill: none;stroke: #52565c;stroke-linecap: round;stroke-linejoin: round;stroke-width: 2.5px"/>
      <line x1="83.969" y1="145.867" x2="65.159" y2="168.938" style="fill: none;stroke: #52565c;stroke-linecap: round;stroke-linejoin: round;stroke-width: 2.5px"/>
      <line x1="91.17" y1="80.573" x2="91.17" y2="90.897" style="fill: #f5f6f7;stroke: #52565c;stroke-linecap: round;stroke-linejoin: round;stroke-width: 2.5px"/>
      <line x1="97.165" y1="80.573" x2="97.165" y2="100.388" style="fill: #f5f6f7;stroke: #52565c;stroke-linecap: round;stroke-linejoin: round;stroke-width: 2.5px"/>
      <line x1="32.588" y1="44.909" x2="32.588" y2="52.593" style="fill: #fff;stroke: #52565c;stroke-linecap: round;stroke-linejoin: round;stroke-width: 2.5px"/>
      <polyline points="24.161 0.03 24.161 44.536 62.732 44.536 62.732 0.03" style="fill: none;stroke: #52565c;stroke-linecap: round;stroke-linejoin: round;stroke-width: 2.5px"/>
      <g>
        <polyline points="59.9 57.232 67.03 57.232 67.03 115.143 17.164 115.143 17.164 57.232 43.289 57.232" style="fill: none;stroke: #52565c;stroke-linecap: round;stroke-linejoin: round;stroke-width: 2.5px"/>
        <line x1="57.829" y1="115.143" x2="57.829" y2="65.905" style="fill: none;stroke: #52565c;stroke-linecap: round;stroke-linejoin: round;stroke-width: 2.5px"/>
      </g>
      <path d="M42.232,44.536a12.334,12.334,0,0,0,6.98,16.915l-2.878,2.877a9.1,9.1,0,0,0,0,12.864L57.229,66.3a8.181,8.181,0,0,0,2.4-5.787h0V44.536Z" style="fill: none;stroke: #52565c;stroke-linecap: round;stroke-linejoin: round;stroke-width: 2.5px"/>
      <line x1="22.761" y1="63.622" x2="22.761" y2="71.773" style="fill: #f5f6f7;stroke: #52565c;stroke-linecap: round;stroke-linejoin: round;stroke-width: 2.5px"/>
      <line x1="27.494" y1="63.622" x2="27.494" y2="79.267" style="fill: #f5f6f7;stroke: #52565c;stroke-linecap: round;stroke-linejoin: round;stroke-width: 2.5px"/>
      <polyline points="202.368 33.307 206.543 29.132 206.543 82.566" style="fill: none;stroke: #52565c;stroke-linecap: round;stroke-linejoin: round;stroke-width: 2.5px"/>
      <rect x="190.758" y="15.069" width="30.186" height="81.882" rx="6.307" style="fill: none;stroke: #52565c;stroke-linecap: round;stroke-linejoin: round;stroke-width: 2.5px"/>
      <circle cx="120.528" cy="113.846" r="1.961" style="fill: #52565c"/>
      <circle cx="100.843" cy="46.753" r="1.961" style="fill: #52565c"/>
      <circle cx="107.874" cy="46.753" r="1.961" style="fill: #52565c"/>
      <circle cx="30.665" cy="35.412" r="1.961" style="fill: #52565c"/>
      <circle cx="37.695" cy="35.412" r="1.961" style="fill: #52565c"/>
      <circle cx="120.528" cy="120.78" r="1.961" style="fill: #52565c"/>
      <circle cx="45.838" cy="90.516" r="1.961" style="fill: #52565c"/>
      <circle cx="45.838" cy="97.451" r="1.961" style="fill: #52565c"/>
      <path d="M125.229,120.78h72.407a12.606,12.606,0,0,0,12.605-12.605V98" style="fill: none;stroke: #52565c;stroke-linecap: round;stroke-linejoin: round;stroke-width: 2.5px"/>
      <path d="M125.229,113.572h71.376a5.944,5.944,0,0,0,5.944-5.944V98" style="fill: none;stroke: #52565c;stroke-linecap: round;stroke-linejoin: round;stroke-width: 2.5px"/>
      <path d="M103.617,72.48V68.693a6.938,6.938,0,0,0-6.938-6.938H95.624V72.48Z" style="fill: none;stroke: #52565c;stroke-linecap: round;stroke-linejoin: round;stroke-width: 2.5px"/>
      <path d="M111.52,72.48a6.934,6.934,0,0,0-6.848-5.876h-1.055V72.48Z" style="fill: none;stroke: #52565c;stroke-linecap: round;stroke-linejoin: round;stroke-width: 2.5px"/>
      <line x1="212.145" y1="59.41" x2="201.44" y2="59.41" style="fill: none;stroke: #52565c;stroke-linecap: round;stroke-linejoin: round;stroke-width: 2.5px"/>
      <line x1="212.145" y1="82.566" x2="201.44" y2="82.566" style="fill: none;stroke: #52565c;stroke-linecap: round;stroke-linejoin: round;stroke-width: 2.5px"/>
      <line x1="212.145" y1="53.437" x2="201.44" y2="53.437" style="fill: none;stroke: #52565c;stroke-linecap: round;stroke-linejoin: round;stroke-width: 2.5px"/>
      <g>
        <g>
          <line x1="169.3" y1="73.939" x2="165.395" y2="77.843" style="fill: none;stroke: #52565c;stroke-linecap: round;stroke-linejoin: round;stroke-width: 2.5px"/>
          <line x1="165.395" y1="73.939" x2="169.3" y2="77.843" style="fill: none;stroke: #52565c;stroke-linecap: round;stroke-linejoin: round;stroke-width: 2.5px"/>
        </g>
        <g>
          <line x1="169.3" y1="54.329" x2="165.395" y2="58.233" style="fill: none;stroke: #52565c;stroke-linecap: round;stroke-linejoin: round;stroke-width: 2.5px"/>
          <line x1="165.395" y1="54.329" x2="169.3" y2="58.233" style="fill: none;stroke: #52565c;stroke-linecap: round;stroke-linejoin: round;stroke-width: 2.5px"/>
        </g>
        <g>
          <line x1="169.3" y1="34.718" x2="165.395" y2="38.623" style="fill: none;stroke: #52565c;stroke-linecap: round;stroke-linejoin: round;stroke-width: 2.5px"/>
          <line x1="165.395" y1="34.718" x2="169.3" y2="38.623" style="fill: none;stroke: #52565c;stroke-linecap: round;stroke-linejoin: round;stroke-width: 2.5px"/>
        </g>
      </g>
      <path d="M32.588,57.232v-2.99a5.478,5.478,0,0,0-5.477-5.478h-.833v8.468Z" style="fill: none;stroke: #52565c;stroke-linecap: round;stroke-linejoin: round;stroke-width: 2.5px"/>
      <path d="M38.828,57.232a5.473,5.473,0,0,0-5.407-4.639h-.833v4.639Z" style="fill: none;stroke: #52565c;stroke-linecap: round;stroke-linejoin: round;stroke-width: 2.5px"/>
    </g>
  </g>
</svg>
