<svg xmlns="http://www.w3.org/2000/svg" viewBox="0 0 240 196">
  <g id="Layer_2" data-name="Layer 2">
    <rect width="240" height="196" style="fill: #fff"/>
  </g>
  <g id="Layer_1" data-name="Layer 1">
    <g>
      <path d="M149.411,78.789c-2.966,12.146-14.685,12.343-14.092,15.408" style="fill: none;stroke: #52565c;stroke-linecap: round;stroke-linejoin: round;stroke-width: 2.5px"/>
      <path d="M92.654,78.789C95.62,90.935,107.338,91.132,106.746,94.2" style="fill: none;stroke: #52565c;stroke-linecap: round;stroke-linejoin: round;stroke-width: 2.5px"/>
      <line x1="92.572" y1="103.099" x2="92.572" y2="58.662" style="fill: none;stroke: #52565c;stroke-linecap: round;stroke-linejoin: round;stroke-width: 2.5px"/>
      <line x1="149.532" y1="101.891" x2="149.532" y2="58.167" style="fill: none;stroke: #52565c;stroke-linecap: round;stroke-linejoin: round;stroke-width: 2.5px"/>
      <path d="M102.123,104.351v11.067a15.213,15.213,0,0,0,5.361,11.592l13.568,11.529,13.6-11.529a15.21,15.21,0,0,0,5.374-11.6V104.134" style="fill: none;stroke: #52565c;stroke-linecap: round;stroke-linejoin: round;stroke-width: 2.5px"/>
      <g>
        <path d="M121.34,56.212c-8,0-27.673,1.075-27.673,8.3v5.448c0,6.338,4.9,13.622,16.917,13.622,6.759,0,7.135-7.737,10.756-7.737s4,7.737,10.755,7.737c12.016,0,16.918-7.284,16.918-13.622V64.514C149.013,57.287,129.341,56.212,121.34,56.212Z" style="fill: none;stroke: #52565c;stroke-linecap: round;stroke-linejoin: round;stroke-width: 2.5px"/>
        <line x1="117.733" y1="60.94" x2="124.946" y2="60.94" style="fill: none;stroke: #52565c;stroke-linecap: round;stroke-linejoin: round;stroke-width: 2.5px"/>
      </g>
      <polyline points="118.26 96.215 122.71 96.215 123.845 96.215" style="fill: none;stroke: #52565c;stroke-linecap: round;stroke-linejoin: round;stroke-width: 2.5px"/>
      <path d="M124.223,92.109a2.713,2.713,0,0,0-2.265.363,1.85,1.85,0,0,1-1.812,0,2.712,2.712,0,0,0-2.265-.363,68.064,68.064,0,0,0-6.73,3.227,11.462,11.462,0,0,0,19.8,0A68.174,68.174,0,0,0,124.223,92.109Z" style="fill: none;stroke: #52565c;stroke-linecap: round;stroke-linejoin: round;stroke-width: 2.5px"/>
      <path d="M135.4,108.055V94.2a2.7,2.7,0,0,0-1.531-2.432l-6.053-2.9a15.6,15.6,0,0,0-13.486,0l-6.053,2.9a2.7,2.7,0,0,0-1.531,2.432v13.625" style="fill: none;stroke: #52565c;stroke-linecap: round;stroke-linejoin: round;stroke-width: 2.5px"/>
      <path d="M149.532,58.167V79.926A34.847,34.847,0,0,1,139.493,104.4l-4.267,4.325a19.914,19.914,0,0,1-14.174,5.927h0a19.91,19.91,0,0,1-14.173-5.927l-4.267-4.325a34.848,34.848,0,0,1-10.04-24.473V58.662" style="fill: none;stroke: #52565c;stroke-linecap: round;stroke-linejoin: round;stroke-width: 2.5px"/>
      <line x1="121.052" y1="101.267" x2="121.052" y2="114.357" style="fill: none;stroke: #52565c;stroke-linecap: round;stroke-linejoin: round;stroke-width: 2.5px"/>
      <line x1="126.113" y1="110.154" x2="126.113" y2="113.28" style="fill: none;stroke: #52565c;stroke-linecap: round;stroke-linejoin: round;stroke-width: 2.5px"/>
      <line x1="130.788" y1="108.043" x2="130.788" y2="111.168" style="fill: none;stroke: #52565c;stroke-linecap: round;stroke-linejoin: round;stroke-width: 2.5px"/>
      <g>
        <line x1="116.107" y1="110.154" x2="116.107" y2="113.28" style="fill: none;stroke: #52565c;stroke-linecap: round;stroke-linejoin: round;stroke-width: 2.5px"/>
        <line x1="111.432" y1="108.043" x2="111.432" y2="111.168" style="fill: none;stroke: #52565c;stroke-linecap: round;stroke-linejoin: round;stroke-width: 2.5px"/>
      </g>
      <line x1="118.812" y1="125.303" x2="124.108" y2="125.303" style="fill: none;stroke: #52565c;stroke-linecap: round;stroke-linejoin: round;stroke-width: 2.5px"/>
      <g>
        <path d="M183.389,114.971h0a11.364,11.364,0,0,0-11.364-11.364h-31.1" style="fill: none;stroke: #52565c;stroke-linecap: round;stroke-linejoin: round;stroke-width: 2.5px"/>
        <path d="M205.183,196.633V140.309a25.338,25.338,0,0,0-25.338-25.338H140.412" style="fill: none;stroke: #52565c;stroke-linecap: round;stroke-linejoin: round;stroke-width: 2.5px"/>
      </g>
      <g>
        <path d="M59.145,114.971h0a11.364,11.364,0,0,1,11.364-11.364h31.1" style="fill: none;stroke: #52565c;stroke-linecap: round;stroke-linejoin: round;stroke-width: 2.5px"/>
        <path d="M37.351,196.633V140.309A25.339,25.339,0,0,1,62.69,114.971h39.433" style="fill: none;stroke: #52565c;stroke-linecap: round;stroke-linejoin: round;stroke-width: 2.5px"/>
      </g>
      <g>
        <line x1="163.78" y1="84.078" x2="150.153" y2="100.792" style="fill: none;stroke: #52565c;stroke-linecap: round;stroke-linejoin: round;stroke-width: 2.5px"/>
        <line x1="167.652" y1="69.241" x2="150.153" y2="90.704" style="fill: none;stroke: #52565c;stroke-linecap: round;stroke-linejoin: round;stroke-width: 2.5px"/>
        <line x1="163.117" y1="64.715" x2="150.153" y2="80.616" style="fill: none;stroke: #52565c;stroke-linecap: round;stroke-linejoin: round;stroke-width: 2.5px"/>
        <line x1="157.464" y1="61.561" x2="150.153" y2="70.527" style="fill: none;stroke: #52565c;stroke-linecap: round;stroke-linejoin: round;stroke-width: 2.5px"/>
        <line x1="79.137" y1="84.078" x2="91.983" y2="99.834" style="fill: none;stroke: #52565c;stroke-linecap: round;stroke-linejoin: round;stroke-width: 2.5px"/>
        <line x1="75.265" y1="69.241" x2="92.764" y2="90.704" style="fill: none;stroke: #52565c;stroke-linecap: round;stroke-linejoin: round;stroke-width: 2.5px"/>
        <line x1="79.8" y1="64.715" x2="92.295" y2="80.041" style="fill: none;stroke: #52565c;stroke-linecap: round;stroke-linejoin: round;stroke-width: 2.5px"/>
        <line x1="85.453" y1="61.561" x2="92.764" y2="70.527" style="fill: none;stroke: #52565c;stroke-linecap: round;stroke-linejoin: round;stroke-width: 2.5px"/>
        <line x1="118.812" y1="20.86" x2="124.108" y2="20.86" style="fill: none;stroke: #52565c;stroke-linecap: round;stroke-linejoin: round;stroke-width: 2.5px"/>
        <line x1="118.812" y1="25.017" x2="124.108" y2="25.017" style="fill: none;stroke: #52565c;stroke-linecap: round;stroke-linejoin: round;stroke-width: 2.5px"/>
        <g>
          <path d="M120.771,42.535,78.8,64.905a9.858,9.858,0,0,0-3.109,14.8l3.444,4.375L72.8,76.1a13.781,13.781,0,0,1,.14-17.323l39-44.135a12.4,12.4,0,0,1,18.987-.007l39.06,44.142a13.78,13.78,0,0,1,.139,17.323l-6.341,7.977,3.445-4.375a9.859,9.859,0,0,0-3.109-14.8L113.024,37.672" style="fill: none;stroke: #52565c;stroke-linecap: round;stroke-linejoin: round;stroke-width: 2.5px"/>
          <line x1="121.416" y1="11.16" x2="121.416" y2="20.883" style="fill: none;stroke: #52565c;stroke-linecap: round;stroke-linejoin: round;stroke-width: 2.5px"/>
        </g>
      </g>
      <polyline points="127.536 46.516 121.356 50.157 115.194 46.471" style="fill: none;stroke: #52565c;stroke-linecap: round;stroke-linejoin: round;stroke-width: 2.5px"/>
      <line x1="162.211" y1="86.219" x2="172.082" y2="103.502" style="fill: none;stroke: #52565c;stroke-linecap: round;stroke-linejoin: round;stroke-width: 2.5px"/>
      <line x1="80.152" y1="86.219" x2="70.281" y2="103.502" style="fill: none;stroke: #52565c;stroke-linecap: round;stroke-linejoin: round;stroke-width: 2.5px"/>
      <polyline points="104.707 184.282 104.707 149.855 125.919 149.855 125.919 176.625" style="fill: none;stroke: #52565c;stroke-linecap: round;stroke-linejoin: round;stroke-width: 2.5px"/>
      <path d="M134.562,191.177h-36.8a6.894,6.894,0,0,1,6.894-6.895H124.1" style="fill: none;stroke: #52565c;stroke-linecap: round;stroke-linejoin: round;stroke-width: 2.5px"/>
      <path d="M98.946,173.822h5.761a0,0,0,0,1,0,0v6.895a0,0,0,0,1,0,0H92.051a0,0,0,0,1,0,0v0A6.895,6.895,0,0,1,98.946,173.822Z" style="fill: none;stroke: #52565c;stroke-linecap: round;stroke-linejoin: round;stroke-width: 2.5px"/>
      <path d="M103.946,166.927h.761a0,0,0,0,1,0,0v6.895a0,0,0,0,1,0,0H97.051a0,0,0,0,1,0,0v0A6.895,6.895,0,0,1,103.946,166.927Z" style="fill: none;stroke: #52565c;stroke-linecap: round;stroke-linejoin: round;stroke-width: 2.5px"/>
      <polyline points="148.527 196.633 148.527 169.484 156.641 169.484" style="fill: none;stroke: #52565c;stroke-linecap: round;stroke-linejoin: round;stroke-width: 2.5px"/>
      <line x1="161.394" y1="169.484" x2="164.685" y2="169.484" style="fill: none;stroke: #52565c;stroke-linecap: round;stroke-linejoin: round;stroke-width: 2.5px"/>
      <line x1="168.798" y1="169.484" x2="204.538" y2="169.484" style="fill: none;stroke: #52565c;stroke-linecap: round;stroke-linejoin: round;stroke-width: 2.5px"/>
      <path d="M148.527,175.559a11.075,11.075,0,0,0-15.187,6.267l-2.584-2.584a8.168,8.168,0,0,0-11.55,0l9.783,9.783a7.348,7.348,0,0,0,5.2,2.152h14.342Z" style="fill: none;stroke: #52565c;stroke-linecap: round;stroke-linejoin: round;stroke-width: 2.5px"/>
      <line x1="204.216" y1="139.198" x2="179.983" y2="168.921" style="fill: none;stroke: #52565c;stroke-linecap: round;stroke-linejoin: round;stroke-width: 2.5px"/>
      <line x1="77.351" y1="151.855" x2="39.853" y2="197.848" style="fill: none;stroke: #52565c;stroke-linecap: round;stroke-linejoin: round;stroke-width: 2.5px"/>
      <line x1="77.351" y1="162.518" x2="49.182" y2="197.068" style="fill: none;stroke: #52565c;stroke-linecap: round;stroke-linejoin: round;stroke-width: 2.5px"/>
      <line x1="77.351" y1="173.18" x2="57.679" y2="197.31" style="fill: none;stroke: #52565c;stroke-linecap: round;stroke-linejoin: round;stroke-width: 2.5px"/>
      <line x1="77.351" y1="183.843" x2="66.675" y2="196.938" style="fill: none;stroke: #52565c;stroke-linecap: round;stroke-linejoin: round;stroke-width: 2.5px"/>
      <line x1="204.776" y1="148.479" x2="188.082" y2="168.954" style="fill: none;stroke: #52565c;stroke-linecap: round;stroke-linejoin: round;stroke-width: 2.5px"/>
      <line x1="205.228" y1="157.89" x2="196.04" y2="169.16" style="fill: none;stroke: #52565c;stroke-linecap: round;stroke-linejoin: round;stroke-width: 2.5px"/>
      <line x1="121.052" y1="138.539" x2="121.052" y2="148.769" style="fill: none;stroke: #52565c;stroke-linecap: round;stroke-linejoin: round;stroke-width: 2.5px"/>
      <line x1="120.281" y1="154.976" x2="120.281" y2="160.081" style="fill: none;stroke: #52565c;stroke-linecap: round;stroke-linejoin: round;stroke-width: 2.5px"/>
      <line x1="115.316" y1="154.976" x2="115.316" y2="160.081" style="fill: none;stroke: #52565c;stroke-linecap: round;stroke-linejoin: round;stroke-width: 2.5px"/>
      <line x1="110.35" y1="154.976" x2="110.35" y2="160.081" style="fill: none;stroke: #52565c;stroke-linecap: round;stroke-linejoin: round;stroke-width: 2.5px"/>
      <line x1="104.154" y1="154.931" x2="101.262" y2="154.931" style="fill: none;stroke: #52565c;stroke-linecap: round;stroke-linejoin: round;stroke-width: 2.5px"/>
      <line x1="104.154" y1="159.063" x2="101.262" y2="159.063" style="fill: none;stroke: #52565c;stroke-linecap: round;stroke-linejoin: round;stroke-width: 2.5px"/>
      <line x1="77.351" y1="151.855" x2="77.351" y2="196.633" style="fill: none;stroke: #52565c;stroke-linecap: round;stroke-linejoin: round;stroke-width: 2.5px"/>
      <line x1="139.552" y1="121.347" x2="159.586" y2="121.347" style="fill: none;stroke: #52565c;stroke-linecap: round;stroke-linejoin: round;stroke-width: 2.5px"/>
      <line x1="134.552" y1="127.547" x2="151.586" y2="127.547" style="fill: none;stroke: #52565c;stroke-linecap: round;stroke-linejoin: round;stroke-width: 2.5px"/>
      <line x1="127.552" y1="133.747" x2="143.586" y2="133.747" style="fill: none;stroke: #52565c;stroke-linecap: round;stroke-linejoin: round;stroke-width: 2.5px"/>
      <g>
        <line x1="102.552" y1="121.347" x2="82.518" y2="121.347" style="fill: none;stroke: #52565c;stroke-linecap: round;stroke-linejoin: round;stroke-width: 2.5px"/>
        <line x1="107.552" y1="127.547" x2="90.518" y2="127.547" style="fill: none;stroke: #52565c;stroke-linecap: round;stroke-linejoin: round;stroke-width: 2.5px"/>
        <line x1="114.552" y1="133.747" x2="98.518" y2="133.747" style="fill: none;stroke: #52565c;stroke-linecap: round;stroke-linejoin: round;stroke-width: 2.5px"/>
      </g>
      <circle cx="137.216" cy="163.712" r="1.961" style="fill: #52565c"/>
      <circle cx="137.216" cy="156.778" r="1.961" style="fill: #52565c"/>
      <circle cx="110.287" cy="166.986" r="1.961" style="fill: #52565c"/>
      <g>
        <circle cx="33.477" cy="88.293" r="8.925" style="fill: none;stroke: #52565c;stroke-linecap: round;stroke-linejoin: round;stroke-width: 2.5px"/>
        <g>
          <circle cx="26.557" cy="80.432" r="6.92" style="fill: none;stroke: #52565c;stroke-linecap: round;stroke-linejoin: round;stroke-width: 2.5px"/>
          <circle cx="40.397" cy="80.432" r="6.92" style="fill: none;stroke: #52565c;stroke-linecap: round;stroke-linejoin: round;stroke-width: 2.5px"/>
        </g>
        <line x1="33.477" y1="79.368" x2="33.477" y2="22.746" style="fill: none;stroke: #52565c;stroke-linecap: round;stroke-linejoin: round;stroke-width: 2.5px"/>
        <line x1="35.453" y1="59.105" x2="31.501" y2="59.105" style="fill: none;stroke: #52565c;stroke-linecap: round;stroke-linejoin: round;stroke-width: 2.5px"/>
        <line x1="35.453" y1="65.312" x2="31.501" y2="65.312" style="fill: none;stroke: #52565c;stroke-linecap: round;stroke-linejoin: round;stroke-width: 2.5px"/>
        <line x1="35.453" y1="52.898" x2="31.501" y2="52.898" style="fill: none;stroke: #52565c;stroke-linecap: round;stroke-linejoin: round;stroke-width: 2.5px"/>
        <polygon points="42.272 43.635 42.272 37.877 38.619 37.877 38.619 32.487 42.272 32.487 42.272 26.73 33.477 26.73 33.477 43.635 42.272 43.635" style="fill: none;stroke: #52565c;stroke-linecap: round;stroke-linejoin: round;stroke-width: 2.5px"/>
      </g>
      <path d="M141.576,156.778h13.04a10.252,10.252,0,0,1,10.252,10.252v29.6" style="fill: none;stroke: #52565c;stroke-linecap: round;stroke-linejoin: round;stroke-width: 2.5px"/>
      <path d="M141.576,163.986h12.012a3.785,3.785,0,0,1,3.784,3.785v28.862" style="fill: none;stroke: #52565c;stroke-linecap: round;stroke-linejoin: round;stroke-width: 2.5px"/>
      <line x1="148.036" y1="160.696" x2="148.036" y2="163.529" style="fill: none;stroke: #52565c;stroke-linecap: round;stroke-linejoin: round;stroke-width: 2.5px"/>
      <g>
        <g>
          <path d="M195.791,82.344v6.221c0,3.269,5.145,5.92,11.492,5.92s11.492-2.651,11.492-5.92V82.344" style="fill: none;stroke: #52565c;stroke-linecap: round;stroke-linejoin: round;stroke-width: 2.5px"/>
          <path d="M216.813,79.034a4.287,4.287,0,0,1,1.962,3.31c0,3.269-5.145,5.92-11.492,5.92s-11.492-2.651-11.492-5.92a4.211,4.211,0,0,1,1.84-3.215" style="fill: none;stroke: #52565c;stroke-linecap: round;stroke-linejoin: round;stroke-width: 2.5px"/>
          <line x1="199.835" y1="87.387" x2="199.835" y2="92.356" style="fill: none;stroke: #52565c;stroke-linecap: round;stroke-linejoin: round;stroke-width: 2.5px"/>
          <line x1="204.404" y1="88.608" x2="204.404" y2="93.577" style="fill: none;stroke: #52565c;stroke-linecap: round;stroke-linejoin: round;stroke-width: 2.5px"/>
          <line x1="209.287" y1="88.766" x2="209.287" y2="93.735" style="fill: none;stroke: #52565c;stroke-linecap: round;stroke-linejoin: round;stroke-width: 2.5px"/>
        </g>
        <g>
          <path d="M195.791,69.225v6.221c0,3.269,5.145,5.92,11.492,5.92s11.492-2.651,11.492-5.92V69.225" style="fill: none;stroke: #52565c;stroke-linecap: round;stroke-linejoin: round;stroke-width: 2.5px"/>
          <path d="M216.813,65.915a4.287,4.287,0,0,1,1.962,3.31c0,3.269-5.145,5.92-11.492,5.92s-11.492-2.651-11.492-5.92a4.282,4.282,0,0,1,1.953-3.3" style="fill: none;stroke: #52565c;stroke-linecap: round;stroke-linejoin: round;stroke-width: 2.5px"/>
          <line x1="199.835" y1="74.269" x2="199.835" y2="79.237" style="fill: none;stroke: #52565c;stroke-linecap: round;stroke-linejoin: round;stroke-width: 2.5px"/>
          <line x1="204.404" y1="75.489" x2="204.404" y2="80.458" style="fill: none;stroke: #52565c;stroke-linecap: round;stroke-linejoin: round;stroke-width: 2.5px"/>
          <line x1="209.287" y1="75.647" x2="209.287" y2="80.616" style="fill: none;stroke: #52565c;stroke-linecap: round;stroke-linejoin: round;stroke-width: 2.5px"/>
        </g>
        <g>
          <path d="M195.791,56.106v6.221c0,3.27,5.145,5.92,11.492,5.92s11.492-2.65,11.492-5.92V56.106" style="fill: none;stroke: #52565c;stroke-linecap: round;stroke-linejoin: round;stroke-width: 2.5px"/>
          <path d="M216.942,52.9a4.207,4.207,0,0,1,1.833,3.21c0,3.269-5.145,5.92-11.492,5.92s-11.492-2.651-11.492-5.92a4.233,4.233,0,0,1,1.883-3.248" style="fill: none;stroke: #52565c;stroke-linecap: round;stroke-linejoin: round;stroke-width: 2.5px"/>
          <line x1="199.835" y1="61.15" x2="199.835" y2="66.119" style="fill: none;stroke: #52565c;stroke-linecap: round;stroke-linejoin: round;stroke-width: 2.5px"/>
          <line x1="204.404" y1="62.371" x2="204.404" y2="67.34" style="fill: none;stroke: #52565c;stroke-linecap: round;stroke-linejoin: round;stroke-width: 2.5px"/>
          <line x1="209.287" y1="62.528" x2="209.287" y2="67.497" style="fill: none;stroke: #52565c;stroke-linecap: round;stroke-linejoin: round;stroke-width: 2.5px"/>
        </g>
        <g>
          <path d="M195.791,42.987v6.221c0,3.27,5.145,5.92,11.492,5.92s11.492-2.65,11.492-5.92V42.987" style="fill: none;stroke: #52565c;stroke-linecap: round;stroke-linejoin: round;stroke-width: 2.5px"/>
          <path d="M216.813,39.677a4.287,4.287,0,0,1,1.962,3.31c0,3.27-5.145,5.92-11.492,5.92s-11.492-2.65-11.492-5.92a4.2,4.2,0,0,1,1.817-3.2" style="fill: none;stroke: #52565c;stroke-linecap: round;stroke-linejoin: round;stroke-width: 2.5px"/>
          <line x1="199.835" y1="48.031" x2="199.835" y2="53" style="fill: none;stroke: #52565c;stroke-linecap: round;stroke-linejoin: round;stroke-width: 2.5px"/>
          <line x1="204.404" y1="49.252" x2="204.404" y2="54.221" style="fill: none;stroke: #52565c;stroke-linecap: round;stroke-linejoin: round;stroke-width: 2.5px"/>
          <line x1="209.287" y1="49.409" x2="209.287" y2="54.378" style="fill: none;stroke: #52565c;stroke-linecap: round;stroke-linejoin: round;stroke-width: 2.5px"/>
        </g>
        <g>
          <path d="M195.791,29.868v6.221c0,3.27,5.145,5.92,11.492,5.92s11.492-2.65,11.492-5.92V29.868" style="fill: none;stroke: #52565c;stroke-linecap: round;stroke-linejoin: round;stroke-width: 2.5px"/>
          <ellipse cx="207.283" cy="29.868" rx="11.492" ry="5.92" style="fill: none;stroke: #52565c;stroke-linecap: round;stroke-linejoin: round;stroke-width: 2.5px"/>
          <ellipse cx="207.283" cy="29.868" rx="6.669" ry="2.048" style="fill: none;stroke: #52565c;stroke-linecap: round;stroke-linejoin: round;stroke-width: 2.5px"/>
          <line x1="199.835" y1="34.912" x2="199.835" y2="39.881" style="fill: none;stroke: #52565c;stroke-linecap: round;stroke-linejoin: round;stroke-width: 2.5px"/>
          <line x1="204.404" y1="36.133" x2="204.404" y2="41.102" style="fill: none;stroke: #52565c;stroke-linecap: round;stroke-linejoin: round;stroke-width: 2.5px"/>
          <line x1="209.287" y1="36.29" x2="209.287" y2="41.259" style="fill: none;stroke: #52565c;stroke-linecap: round;stroke-linejoin: round;stroke-width: 2.5px"/>
        </g>
      </g>
      <polyline points="125.919 176.625 125.919 149.855 148.036 149.855 148.036 156.582" style="fill: none;stroke: #52565c;stroke-linecap: round;stroke-linejoin: round;stroke-width: 2.5px"/>
      <path d="M104.658,184.282v-3.565H94.035A5.985,5.985,0,0,0,88.05,186.7v.91H98.765A6.885,6.885,0,0,1,104.658,184.282Z" style="fill: none;stroke: #52565c;stroke-linecap: round;stroke-linejoin: round;stroke-width: 2.5px"/>
    </g>
  </g>
</svg>
