<svg xmlns="http://www.w3.org/2000/svg" viewBox="0 0 240 196">
  <g id="Layer_2" data-name="Layer 2">
    <rect width="240" height="196" style="fill: #fff"/>
  </g>
  <g id="Layer_1" data-name="Layer 1">
    <g>
      <g>
        <line x1="174.02" y1="133.004" x2="176.988" y2="149.986" style="fill: none;stroke: #52565c;stroke-linecap: round;stroke-linejoin: round;stroke-width: 2.5px"/>
        <line x1="168.207" y1="142.404" x2="170.693" y2="156.632" style="fill: none;stroke: #52565c;stroke-linecap: round;stroke-linejoin: round;stroke-width: 2.5px"/>
        <line x1="161.675" y1="147.69" x2="164.019" y2="161.103" style="fill: none;stroke: #52565c;stroke-linecap: round;stroke-linejoin: round;stroke-width: 2.5px"/>
        <line x1="155.158" y1="153.063" x2="157.343" y2="165.564" style="fill: none;stroke: #52565c;stroke-linecap: round;stroke-linejoin: round;stroke-width: 2.5px"/>
        <line x1="148.537" y1="157.84" x2="150.443" y2="168.746" style="fill: none;stroke: #52565c;stroke-linecap: round;stroke-linejoin: round;stroke-width: 2.5px"/>
        <line x1="141.656" y1="161.126" x2="143.319" y2="170.646" style="fill: none;stroke: #52565c;stroke-linecap: round;stroke-linejoin: round;stroke-width: 2.5px"/>
        <line x1="134.488" y1="162.772" x2="136.1" y2="171.999" style="fill: none;stroke: #52565c;stroke-linecap: round;stroke-linejoin: round;stroke-width: 2.5px"/>
        <line x1="127.502" y1="165.461" x2="128.849" y2="173.168" style="fill: none;stroke: #52565c;stroke-linecap: round;stroke-linejoin: round;stroke-width: 2.5px"/>
        <line x1="120.021" y1="165.317" x2="121.342" y2="172.874" style="fill: none;stroke: #52565c;stroke-linecap: round;stroke-linejoin: round;stroke-width: 2.5px"/>
        <line x1="112.697" y1="166.068" x2="113.835" y2="172.58" style="fill: none;stroke: #52565c;stroke-linecap: round;stroke-linejoin: round;stroke-width: 2.5px"/>
        <line x1="105.112" y1="165.327" x2="105.997" y2="170.397" style="fill: none;stroke: #52565c;stroke-linecap: round;stroke-linejoin: round;stroke-width: 2.5px"/>
        <circle cx="115.121" cy="94.537" r="63.548" style="fill: none;stroke: #52565c;stroke-linecap: round;stroke-linejoin: round;stroke-width: 2.5px"/>
        <circle cx="115.121" cy="94.537" r="70.325" style="fill: none;stroke: #52565c;stroke-linecap: round;stroke-linejoin: round;stroke-width: 2.5px"/>
        <g>
          <path d="M87.99,151.157l-1.42-12.44,3.239-.1a7.338,7.338,0,0,1,7.395,6.406l1.1,10.5" style="fill: none;stroke: #52565c;stroke-linecap: round;stroke-linejoin: round;stroke-width: 2.5px"/>
          <path d="M77.254,144.575l-1.68-15.383,3.238-.1a7.34,7.34,0,0,1,7.4,6.406l1.344,11.938" style="fill: none;stroke: #52565c;stroke-linecap: round;stroke-linejoin: round;stroke-width: 2.5px"/>
          <path d="M66.183,133.649l-1.606-13.982,3.239-.1a7.338,7.338,0,0,1,7.395,6.406l1.345,11.938" style="fill: none;stroke: #52565c;stroke-linecap: round;stroke-linejoin: round;stroke-width: 2.5px"/>
          <path d="M53.58,110.142l3.239-.1a7.338,7.338,0,0,1,7.395,6.406l1.345,11.938" style="fill: none;stroke: #52565c;stroke-linecap: round;stroke-linejoin: round;stroke-width: 2.5px"/>
          <path d="M98.3,155.526l-.748-7.425.141,0a10.779,10.779,0,0,1,10.716,8.584" style="fill: none;stroke: #52565c;stroke-linecap: round;stroke-linejoin: round;stroke-width: 2.5px"/>
        </g>
        <g>
          <path d="M166.555,59.523l-11.744.41.362,3.22a7.339,7.339,0,0,0,7.4,6.405l10.311-.379" style="fill: none;stroke: #52565c;stroke-linecap: round;stroke-linejoin: round;stroke-width: 2.5px"/>
          <path d="M158.674,49.838l-14.86.57.363,3.22a7.338,7.338,0,0,0,7.4,6.405l12.008-.372" style="fill: none;stroke: #52565c;stroke-linecap: round;stroke-linejoin: round;stroke-width: 2.5px"/>
          <path d="M146.782,40.417l-13.965.466.363,3.22a7.338,7.338,0,0,0,7.395,6.405l12.008-.372" style="fill: none;stroke: #52565c;stroke-linecap: round;stroke-linejoin: round;stroke-width: 2.5px"/>
          <path d="M121.821,31.358l.362,3.22a7.34,7.34,0,0,0,7.4,6.4l12.008-.372" style="fill: none;stroke: #52565c;stroke-linecap: round;stroke-linejoin: round;stroke-width: 2.5px"/>
          <path d="M172.88,69.179l-7.214.283.016.141a10.779,10.779,0,0,0,10.026,9.381" style="fill: none;stroke: #52565c;stroke-linecap: round;stroke-linejoin: round;stroke-width: 2.5px"/>
        </g>
        <g>
          <line x1="124.611" y1="157.239" x2="51.786" y2="94.159" style="fill: none;stroke: #52565c;stroke-linecap: round;stroke-linejoin: round;stroke-width: 2.5px"/>
          <line x1="105.645" y1="31.847" x2="178.536" y2="94.983" style="fill: none;stroke: #52565c;stroke-linecap: round;stroke-linejoin: round;stroke-width: 2.5px"/>
          <polyline points="139.823 124.405 143.633 120.007 147.443 115.608" style="fill: none;stroke: #52565c;stroke-linecap: round;stroke-linejoin: round;stroke-width: 2.5px"/>
          <polyline points="131.417 113.994 135.63 109.131 136.705 107.89" style="fill: none;stroke: #52565c;stroke-linecap: round;stroke-linejoin: round;stroke-width: 2.5px"/>
          <path d="M132.575,103.589a3.92,3.92,0,0,0-1.746,2.82,2.677,2.677,0,0,1-1.716,1.98,3.921,3.921,0,0,0-2.542,2.132,98.873,98.873,0,0,0-2.844,10.411,16.574,16.574,0,0,0,18.747-21.644A98.806,98.806,0,0,0,132.575,103.589Z" style="fill: none;stroke: #52565c;stroke-linecap: round;stroke-linejoin: round;stroke-width: 2.5px"/>
          <path d="M51.786,94.159l36.267,31.415a49.089,49.089,0,0,0,34.164,11.941l19.236-.795a20.111,20.111,0,0,0,14.372-6.927h0a20.113,20.113,0,0,0,4.805-15.213l-1.958-19.153a49.089,49.089,0,0,0-16.694-32.11L105.993,32.148" style="fill: none;stroke: #52565c;stroke-linecap: round;stroke-linejoin: round;stroke-width: 2.5px"/>
          <path d="M53.152,95.343h0A17.634,17.634,0,0,0,78.025,93.56L79.7,91.624a16.52,16.52,0,0,1,23.3-1.671l13.274,11.5" style="fill: none;stroke: #52565c;stroke-linecap: round;stroke-linejoin: round;stroke-width: 2.5px"/>
          <path d="M122.129,94.7,108.855,83.2a16.522,16.522,0,0,1-1.671-23.3l1.677-1.936a17.633,17.633,0,0,0-1.784-24.872h0" style="fill: none;stroke: #52565c;stroke-linecap: round;stroke-linejoin: round;stroke-width: 2.5px"/>
          <path d="M131.709,54.432l.138.12c6.543,5.667,9.712,14.574,8.89,24.6" style="fill: none;stroke: #52565c;stroke-linecap: round;stroke-linejoin: round;stroke-width: 2.5px"/>
          <path d="M77.789,116.683l.138.12c6.543,5.667,15.811,7.533,25.619,5.288" style="fill: none;stroke: #52565c;stroke-linecap: round;stroke-linejoin: round;stroke-width: 2.5px"/>
          <path d="M115.164,61.782h13.291a0,0,0,0,1,0,0v1.444a8.3,8.3,0,0,1-8.3,8.3H106.859a0,0,0,0,1,0,0V70.087a8.3,8.3,0,0,1,8.3-8.3Z" transform="translate(245.073 21.364) rotate(130.898)" style="fill: none;stroke: #52565c;stroke-linecap: round;stroke-linejoin: round;stroke-width: 2.5px"/>
          <path d="M77.09,96.15H90.381a8.3,8.3,0,0,1,8.3,8.3V105.9a0,0,0,0,1,0,0H85.4a8.3,8.3,0,0,1-8.3-8.3V96.15A0,0,0,0,1,77.09,96.15Z" transform="translate(-46.016 101.314) rotate(-49.102)" style="fill: none;stroke: #52565c;stroke-linecap: round;stroke-linejoin: round;stroke-width: 2.5px"/>
          <path d="M61.262,75.159c8.369-.4,15.772-3.739,20.717-9.448,4.929-5.69,7.179-13.461,6.4-21.77" style="fill: none;stroke: #52565c;stroke-linecap: round;stroke-linejoin: round;stroke-width: 2.5px"/>
          <g>
            <line x1="159.9" y1="105.876" x2="173.761" y2="117.882" style="fill: none;stroke: #52565c;stroke-linecap: round;stroke-linejoin: round;stroke-width: 2.5px"/>
            <line x1="159.021" y1="95.964" x2="176.287" y2="110.919" style="fill: none;stroke: #52565c;stroke-linecap: round;stroke-linejoin: round;stroke-width: 2.5px"/>
            <line x1="177.997" y1="103.249" x2="156.85" y2="84.932" style="fill: none;stroke: #52565c;stroke-linecap: round;stroke-linejoin: round;stroke-width: 2.5px"/>
          </g>
          <g>
            <line x1="132.773" y1="137.194" x2="146.634" y2="149.2" style="fill: none;stroke: #52565c;stroke-linecap: round;stroke-linejoin: round;stroke-width: 2.5px"/>
            <line x1="122.837" y1="137.739" x2="140.102" y2="152.694" style="fill: none;stroke: #52565c;stroke-linecap: round;stroke-linejoin: round;stroke-width: 2.5px"/>
            <line x1="132.755" y1="155.481" x2="111.608" y2="137.164" style="fill: none;stroke: #52565c;stroke-linecap: round;stroke-linejoin: round;stroke-width: 2.5px"/>
          </g>
          <path d="M58.772,98.8a56.548,56.548,0,0,1,51.236-62.181" style="fill: none;stroke: #52565c;stroke-linecap: round;stroke-linejoin: round;stroke-width: 2.5px"/>
        </g>
        <path d="M168.278,140.58a70.326,70.326,0,0,1-93.946,11.237c1.526,1.595,3.13,3.139,4.831,4.613A70.325,70.325,0,1,0,171.25,50.116c-1.7-1.474-3.459-2.842-5.255-4.124A70.325,70.325,0,0,1,168.278,140.58Z" style="fill: none;stroke: #52565c;stroke-linecap: round;stroke-linejoin: round;stroke-width: 2.5px"/>
      </g>
      <line x1="230.964" y1="9.882" x2="185.549" y2="65.585" style="fill: none;stroke: #52565c;stroke-linecap: round;stroke-linejoin: round;stroke-width: 2.5px"/>
      <line x1="9.89" y1="9.882" x2="60.163" y2="50.153" style="fill: none;stroke: #52565c;stroke-linecap: round;stroke-linejoin: round;stroke-width: 2.5px"/>
      <line x1="230.308" y1="186.447" x2="181.009" y2="146.956" style="fill: none;stroke: #52565c;stroke-linecap: round;stroke-linejoin: round;stroke-width: 2.5px"/>
      <line x1="221.998" y1="9.882" x2="181.539" y2="59.505" style="fill: none;stroke: #52565c;stroke-linecap: round;stroke-linejoin: round;stroke-width: 2.5px"/>
      <line x1="213.031" y1="9.882" x2="176.604" y2="54.561" style="fill: none;stroke: #52565c;stroke-linecap: round;stroke-linejoin: round;stroke-width: 2.5px"/>
      <line x1="204.064" y1="9.882" x2="171.051" y2="50.373" style="fill: none;stroke: #52565c;stroke-linecap: round;stroke-linejoin: round;stroke-width: 2.5px"/>
      <line x1="195.098" y1="9.882" x2="166.733" y2="44.672" style="fill: none;stroke: #52565c;stroke-linecap: round;stroke-linejoin: round;stroke-width: 2.5px"/>
      <line x1="186.131" y1="9.882" x2="161.552" y2="40.029" style="fill: none;stroke: #52565c;stroke-linecap: round;stroke-linejoin: round;stroke-width: 2.5px"/>
      <line x1="177.164" y1="9.882" x2="156.075" y2="35.748" style="fill: none;stroke: #52565c;stroke-linecap: round;stroke-linejoin: round;stroke-width: 2.5px"/>
      <line x1="168.198" y1="9.882" x2="150.203" y2="31.953" style="fill: none;stroke: #52565c;stroke-linecap: round;stroke-linejoin: round;stroke-width: 2.5px"/>
      <line x1="8.315" y1="186.301" x2="53.731" y2="130.599" style="fill: none;stroke: #52565c;stroke-linecap: round;stroke-linejoin: round;stroke-width: 2.5px"/>
      <line x1="17.282" y1="186.301" x2="57.741" y2="136.678" style="fill: none;stroke: #52565c;stroke-linecap: round;stroke-linejoin: round;stroke-width: 2.5px"/>
      <line x1="26.249" y1="186.301" x2="62.676" y2="141.622" style="fill: none;stroke: #52565c;stroke-linecap: round;stroke-linejoin: round;stroke-width: 2.5px"/>
      <line x1="35.215" y1="186.301" x2="67.589" y2="146.595" style="fill: none;stroke: #52565c;stroke-linecap: round;stroke-linejoin: round;stroke-width: 2.5px"/>
      <line x1="44.182" y1="186.301" x2="72.547" y2="151.511" style="fill: none;stroke: #52565c;stroke-linecap: round;stroke-linejoin: round;stroke-width: 2.5px"/>
      <line x1="53.149" y1="186.301" x2="77.728" y2="156.154" style="fill: none;stroke: #52565c;stroke-linecap: round;stroke-linejoin: round;stroke-width: 2.5px"/>
      <line x1="62.115" y1="186.301" x2="82.663" y2="161.099" style="fill: none;stroke: #52565c;stroke-linecap: round;stroke-linejoin: round;stroke-width: 2.5px"/>
      <line x1="71.082" y1="186.301" x2="88.497" y2="164.942" style="fill: none;stroke: #52565c;stroke-linecap: round;stroke-linejoin: round;stroke-width: 2.5px"/>
      <g>
        <g>
          <line x1="25.057" y1="115.658" x2="21.152" y2="119.563" style="fill: none;stroke: #52565c;stroke-linecap: round;stroke-linejoin: round;stroke-width: 2.5px"/>
          <line x1="21.152" y1="115.658" x2="25.057" y2="119.563" style="fill: none;stroke: #52565c;stroke-linecap: round;stroke-linejoin: round;stroke-width: 2.5px"/>
        </g>
        <g>
          <line x1="25.057" y1="96.048" x2="21.152" y2="99.952" style="fill: none;stroke: #52565c;stroke-linecap: round;stroke-linejoin: round;stroke-width: 2.5px"/>
          <line x1="21.152" y1="96.048" x2="25.057" y2="99.952" style="fill: none;stroke: #52565c;stroke-linecap: round;stroke-linejoin: round;stroke-width: 2.5px"/>
        </g>
        <g>
          <line x1="25.057" y1="76.437" x2="21.152" y2="80.342" style="fill: none;stroke: #52565c;stroke-linecap: round;stroke-linejoin: round;stroke-width: 2.5px"/>
          <line x1="21.152" y1="76.437" x2="25.057" y2="80.342" style="fill: none;stroke: #52565c;stroke-linecap: round;stroke-linejoin: round;stroke-width: 2.5px"/>
        </g>
      </g>
      <g>
        <g>
          <line x1="218.848" y1="115.658" x2="214.943" y2="119.563" style="fill: none;stroke: #52565c;stroke-linecap: round;stroke-linejoin: round;stroke-width: 2.5px"/>
          <line x1="214.943" y1="115.658" x2="218.848" y2="119.563" style="fill: none;stroke: #52565c;stroke-linecap: round;stroke-linejoin: round;stroke-width: 2.5px"/>
        </g>
        <g>
          <line x1="218.848" y1="96.048" x2="214.943" y2="99.952" style="fill: none;stroke: #52565c;stroke-linecap: round;stroke-linejoin: round;stroke-width: 2.5px"/>
          <line x1="214.943" y1="96.048" x2="218.848" y2="99.952" style="fill: none;stroke: #52565c;stroke-linecap: round;stroke-linejoin: round;stroke-width: 2.5px"/>
        </g>
        <g>
          <line x1="218.848" y1="76.437" x2="214.943" y2="80.342" style="fill: none;stroke: #52565c;stroke-linecap: round;stroke-linejoin: round;stroke-width: 2.5px"/>
          <line x1="214.943" y1="76.437" x2="218.848" y2="80.342" style="fill: none;stroke: #52565c;stroke-linecap: round;stroke-linejoin: round;stroke-width: 2.5px"/>
        </g>
      </g>
    </g>
  </g>
</svg>
