<svg xmlns="http://www.w3.org/2000/svg" viewBox="0 0 240 196">
  <g id="Layer_2" data-name="Layer 2">
    <rect width="240" height="196" style="fill: #fff"/>
  </g>
  <g id="Layer_1" data-name="Layer 1">
    <g>
      <path d="M66.728,96.472H62.284a3.056,3.056,0,0,1-3.057-3.057V62.762a3.057,3.057,0,0,1,3.057-3.057h4.444" style="fill: none;stroke: #52565c;stroke-linecap: round;stroke-linejoin: round;stroke-width: 2.5px"/>
      <path d="M58.712,92.472h-2.4a3.056,3.056,0,0,1-3.056-3.057V66.762a3.057,3.057,0,0,1,3.056-3.057h2.4" style="fill: none;stroke: #52565c;stroke-linecap: round;stroke-linejoin: round;stroke-width: 2.5px"/>
      <path d="M175.238,59.705h4.444a3.057,3.057,0,0,1,3.057,3.057V93.415a3.056,3.056,0,0,1-3.057,3.057h-4.444" style="fill: none;stroke: #52565c;stroke-linecap: round;stroke-linejoin: round;stroke-width: 2.5px"/>
      <path d="M183.254,63.705h2.4a3.057,3.057,0,0,1,3.056,3.057V89.415a3.056,3.056,0,0,1-3.056,3.057h-2.4" style="fill: none;stroke: #52565c;stroke-linecap: round;stroke-linejoin: round;stroke-width: 2.5px"/>
      <path d="M190.078,73.705h.4a3.057,3.057,0,0,1,3.057,3.057v2.653a3.056,3.056,0,0,1-3.057,3.057h-.4" style="fill: none;stroke: #52565c;stroke-linecap: round;stroke-linejoin: round;stroke-width: 2.5px"/>
      <g>
        <path d="M57.067,184.272l-28.13,15.973a3,3,0,1,1-2.963-5.217l27.918-15.852" style="fill: none;stroke: #52565c;stroke-linecap: round;stroke-linejoin: round;stroke-width: 2.5px"/>
        <path d="M60.884,172.592l19.542-29.313a3,3,0,0,1,4.992,3.328L65.726,176.145" style="fill: none;stroke: #52565c;stroke-linecap: round;stroke-linejoin: round;stroke-width: 2.5px"/>
      </g>
      <g>
        <path d="M187.774,179.081l28.084,15.947a3,3,0,1,1-2.962,5.217L184.7,184.237" style="fill: none;stroke: #52565c;stroke-linecap: round;stroke-linejoin: round;stroke-width: 2.5px"/>
        <path d="M175.964,175.931l-19.549-29.324a3,3,0,0,1,4.992-3.328l19.584,29.377" style="fill: none;stroke: #52565c;stroke-linecap: round;stroke-linejoin: round;stroke-width: 2.5px"/>
      </g>
      <g>
        <line x1="75.907" y1="102.578" x2="70.446" y2="109.276" style="fill: none;stroke: #52565c;stroke-linecap: round;stroke-linejoin: round;stroke-width: 2.5px"/>
        <line x1="83.466" y1="102.495" x2="72.241" y2="116.262" style="fill: none;stroke: #52565c;stroke-linecap: round;stroke-linejoin: round;stroke-width: 2.5px"/>
        <line x1="90.868" y1="102.604" x2="79.198" y2="116.917" style="fill: none;stroke: #52565c;stroke-linecap: round;stroke-linejoin: round;stroke-width: 2.5px"/>
        <line x1="98.424" y1="102.525" x2="87.053" y2="116.472" style="fill: none;stroke: #52565c;stroke-linecap: round;stroke-linejoin: round;stroke-width: 2.5px"/>
        <line x1="105.94" y1="102.495" x2="93.935" y2="117.219" style="fill: none;stroke: #52565c;stroke-linecap: round;stroke-linejoin: round;stroke-width: 2.5px"/>
        <line x1="113.248" y1="102.719" x2="109.175" y2="107.715" style="fill: none;stroke: #52565c;stroke-linecap: round;stroke-linejoin: round;stroke-width: 2.5px"/>
        <line x1="120.567" y1="102.931" x2="117.036" y2="107.262" style="fill: none;stroke: #52565c;stroke-linecap: round;stroke-linejoin: round;stroke-width: 2.5px"/>
        <line x1="128.475" y1="102.42" x2="124.424" y2="107.389" style="fill: none;stroke: #52565c;stroke-linecap: round;stroke-linejoin: round;stroke-width: 2.5px"/>
        <line x1="135.967" y1="102.42" x2="131.812" y2="107.516" style="fill: none;stroke: #52565c;stroke-linecap: round;stroke-linejoin: round;stroke-width: 2.5px"/>
        <line x1="143.084" y1="102.879" x2="137.191" y2="110.108" style="fill: none;stroke: #52565c;stroke-linecap: round;stroke-linejoin: round;stroke-width: 2.5px"/>
        <line x1="150.95" y1="102.42" x2="140.087" y2="115.744" style="fill: none;stroke: #52565c;stroke-linecap: round;stroke-linejoin: round;stroke-width: 2.5px"/>
        <line x1="158.046" y1="102.905" x2="146.6" y2="116.944" style="fill: none;stroke: #52565c;stroke-linecap: round;stroke-linejoin: round;stroke-width: 2.5px"/>
        <line x1="165.75" y1="102.645" x2="154.081" y2="116.957" style="fill: none;stroke: #52565c;stroke-linecap: round;stroke-linejoin: round;stroke-width: 2.5px"/>
        <line x1="173.157" y1="102.748" x2="161.337" y2="117.245" style="fill: none;stroke: #52565c;stroke-linecap: round;stroke-linejoin: round;stroke-width: 2.5px"/>
        <rect x="67.842" y="32.865" width="106.316" height="69.531" style="fill: none;stroke: #52565c;stroke-linecap: round;stroke-linejoin: round;stroke-width: 2.5px"/>
        <rect x="71.393" y="26.558" width="99.214" height="6.308" style="fill: none;stroke: #52565c;stroke-linecap: round;stroke-linejoin: round;stroke-width: 2.5px"/>
        <polyline points="140.5 117.186 169.4 117.186 174.158 102.396 67.842 102.396 72.6 117.186 101.492 117.186" style="fill: none;stroke: #52565c;stroke-linecap: round;stroke-linejoin: round;stroke-width: 2.5px"/>
        <circle cx="157.176" cy="53.603" r="3.009" style="fill: none;stroke: #52565c;stroke-linecap: round;stroke-linejoin: round;stroke-width: 2.5px"/>
        <circle cx="84.006" cy="53.603" r="3.009" style="fill: none;stroke: #52565c;stroke-linecap: round;stroke-linejoin: round;stroke-width: 2.5px"/>
        <path d="M166.934,93.5V90.7a4.312,4.312,0,0,0-4.312-4.313H79.83A4.313,4.313,0,0,0,75.517,90.7V93.5" style="fill: none;stroke: #52565c;stroke-linecap: round;stroke-linejoin: round;stroke-width: 2.5px"/>
      </g>
      <g>
        <path d="M90.107,152.249c-3.731,1.3-7.3-.375-10.83-3-5.514-4.111-8.819-9-2.652-17.276s15.635-11.641,21.149-7.53a8.581,8.581,0,0,1,.963.838" style="fill: none;stroke: #52565c;stroke-linecap: round;stroke-linejoin: round;stroke-width: 2.5px"/>
        <path d="M151.631,152.153c3.826,1.47,7.485-.218,11.092-2.908,5.514-4.111,8.819-9,2.652-17.276s-15.635-11.641-21.149-7.53a8.581,8.581,0,0,0-.963.838" style="fill: none;stroke: #52565c;stroke-linecap: round;stroke-linejoin: round;stroke-width: 2.5px"/>
      </g>
      <rect x="189.602" y="103.299" width="31.329" height="21.212" style="fill: none;stroke: #52565c;stroke-linecap: round;stroke-linejoin: round;stroke-width: 2.5px"/>
      <polyline points="203.302 146.629 189.602 146.629 189.602 124.511 220.931 124.511 220.931 146.629 216.204 146.629" style="fill: none;stroke: #52565c;stroke-linecap: round;stroke-linejoin: round;stroke-width: 2.5px"/>
      <line x1="215.81" y1="118.874" x2="210.704" y2="118.874" style="fill: none;stroke: #52565c;stroke-linecap: round;stroke-linejoin: round;stroke-width: 2.5px"/>
      <line x1="215.81" y1="113.908" x2="210.704" y2="113.908" style="fill: none;stroke: #52565c;stroke-linecap: round;stroke-linejoin: round;stroke-width: 2.5px"/>
      <line x1="215.81" y1="108.943" x2="210.704" y2="108.943" style="fill: none;stroke: #52565c;stroke-linecap: round;stroke-linejoin: round;stroke-width: 2.5px"/>
      <line x1="215.855" y1="102.746" x2="215.855" y2="99.854" style="fill: none;stroke: #52565c;stroke-linecap: round;stroke-linejoin: round;stroke-width: 2.5px"/>
      <line x1="211.723" y1="102.746" x2="211.723" y2="99.854" style="fill: none;stroke: #52565c;stroke-linecap: round;stroke-linejoin: round;stroke-width: 2.5px"/>
      <circle cx="209.074" cy="135.809" r="1.961" style="fill: #52565c"/>
      <circle cx="216.008" cy="135.809" r="1.961" style="fill: #52565c"/>
      <circle cx="203.8" cy="108.879" r="1.961" style="fill: #52565c"/>
      <path d="M216.008,140.168v17.04a10.252,10.252,0,0,1-10.252,10.252h-27.1" style="fill: none;stroke: #52565c;stroke-linecap: round;stroke-linejoin: round;stroke-width: 2.5px"/>
      <path d="M208.8,140.168V156.18a3.786,3.786,0,0,1-3.785,3.785H173.338" style="fill: none;stroke: #52565c;stroke-linecap: round;stroke-linejoin: round;stroke-width: 2.5px"/>
      <line x1="212.09" y1="146.629" x2="209.257" y2="146.629" style="fill: none;stroke: #52565c;stroke-linecap: round;stroke-linejoin: round;stroke-width: 2.5px"/>
      <g>
        <g>
          <line x1="34.682" y1="155.741" x2="30.777" y2="159.645" style="fill: none;stroke: #52565c;stroke-linecap: round;stroke-linejoin: round;stroke-width: 2.5px"/>
          <line x1="30.777" y1="155.741" x2="34.682" y2="159.645" style="fill: none;stroke: #52565c;stroke-linecap: round;stroke-linejoin: round;stroke-width: 2.5px"/>
        </g>
        <g>
          <line x1="34.682" y1="136.13" x2="30.777" y2="140.035" style="fill: none;stroke: #52565c;stroke-linecap: round;stroke-linejoin: round;stroke-width: 2.5px"/>
          <line x1="30.777" y1="136.13" x2="34.682" y2="140.035" style="fill: none;stroke: #52565c;stroke-linecap: round;stroke-linejoin: round;stroke-width: 2.5px"/>
        </g>
        <g>
          <line x1="34.682" y1="116.52" x2="30.777" y2="120.424" style="fill: none;stroke: #52565c;stroke-linecap: round;stroke-linejoin: round;stroke-width: 2.5px"/>
          <line x1="30.777" y1="116.52" x2="34.682" y2="120.424" style="fill: none;stroke: #52565c;stroke-linecap: round;stroke-linejoin: round;stroke-width: 2.5px"/>
        </g>
      </g>
      <path d="M75.955,197.946l26.749-84a9.389,9.389,0,0,1,8.9-6.4H130.4a9.389,9.389,0,0,1,8.9,6.4l26.749,84" style="fill: none;stroke: #52565c;stroke-linecap: round;stroke-linejoin: round;stroke-width: 2.5px"/>
      <g>
        <circle cx="181.723" cy="178.775" r="6.101" style="fill: none;stroke: #52565c;stroke-linecap: round;stroke-linejoin: round;stroke-width: 2.5px"/>
        <circle cx="181.723" cy="178.775" r="1.961" style="fill: #52565c"/>
      </g>
      <g>
        <circle cx="60.131" cy="178.775" r="6.101" style="fill: none;stroke: #52565c;stroke-linecap: round;stroke-linejoin: round;stroke-width: 2.5px"/>
        <circle cx="60.131" cy="178.775" r="1.961" style="fill: #52565c"/>
      </g>
      <path d="M194.066,78.092h0a5.713,5.713,0,0,0,5.713-5.714V32.865" style="fill: none;stroke: #52565c;stroke-linecap: round;stroke-linejoin: round;stroke-width: 2.5px"/>
      <g>
        <line x1="155.709" y1="25.711" x2="155.709" y2="18.287" style="fill: none;stroke: #52565c;stroke-linecap: round;stroke-linejoin: round;stroke-width: 2.5px"/>
        <line x1="84.291" y1="25.711" x2="84.291" y2="18.287" style="fill: none;stroke: #52565c;stroke-linecap: round;stroke-linejoin: round;stroke-width: 2.5px"/>
      </g>
      <polygon points="109.413 139.067 101.031 174.568 140.969 174.568 131.601 139.067 109.413 139.067" style="fill: none;stroke: #52565c;stroke-linecap: round;stroke-linejoin: round;stroke-width: 2.5px"/>
      <circle cx="129.094" cy="157.064" r="1.961" style="fill: #52565c"/>
      <g>
        <circle cx="121" cy="129.61" r="1.961" style="fill: #52565c"/>
        <circle cx="121" cy="123.56" r="1.961" style="fill: #52565c"/>
        <circle cx="121" cy="117.51" r="1.961" style="fill: #52565c"/>
      </g>
      <line x1="110.95" y1="145.507" x2="104.818" y2="145.507" style="fill: none;stroke: #52565c;stroke-linecap: round;stroke-linejoin: round;stroke-width: 2.5px"/>
      <line x1="105.479" y1="168.351" x2="99.347" y2="168.351" style="fill: none;stroke: #52565c;stroke-linecap: round;stroke-linejoin: round;stroke-width: 2.5px"/>
      <line x1="159.577" y1="159.965" x2="154.185" y2="159.965" style="fill: none;stroke: #52565c;stroke-linecap: round;stroke-linejoin: round;stroke-width: 2.5px"/>
      <line x1="164.899" y1="167.46" x2="156.591" y2="167.46" style="fill: none;stroke: #52565c;stroke-linecap: round;stroke-linejoin: round;stroke-width: 2.5px"/>
      <g>
        <polyline points="32.8 90.707 32.8 83.716 28.142 83.716 28.142 93.473 37.239 93.473 37.239 83.716" style="fill: none;stroke: #52565c;stroke-linecap: round;stroke-linejoin: round;stroke-width: 2.5px"/>
        <rect x="28.142" y="40.2" width="9.098" height="9.757" style="fill: none;stroke: #52565c;stroke-linecap: round;stroke-linejoin: round;stroke-width: 2.5px"/>
        <polyline points="30.862 69.144 28.142 69.144 28.142 78.902 37.239 78.902" style="fill: none;stroke: #52565c;stroke-linecap: round;stroke-linejoin: round;stroke-width: 2.5px"/>
        <polyline points="30.862 54.664 28.142 54.664 28.142 64.422 37.239 64.422" style="fill: none;stroke: #52565c;stroke-linecap: round;stroke-linejoin: round;stroke-width: 2.5px"/>
        <polyline points="30.862 25.735 28.142 25.735 28.142 35.492 37.239 35.492" style="fill: none;stroke: #52565c;stroke-linecap: round;stroke-linejoin: round;stroke-width: 2.5px"/>
      </g>
      <line x1="157.176" y1="56.613" x2="157.176" y2="76.563" style="fill: #fff;stroke: #52565c;stroke-linecap: round;stroke-linejoin: round;stroke-width: 2.5px"/>
      <line x1="84.006" y1="56.613" x2="84.006" y2="61.146" style="fill: #fff;stroke: #52565c;stroke-linecap: round;stroke-linejoin: round;stroke-width: 2.5px"/>
      <g>
        <g>
          <line x1="102.909" y1="32.865" x2="102.909" y2="39.588" style="fill: none;stroke: #52565c;stroke-linecap: round;stroke-linejoin: round;stroke-width: 2.5px"/>
          <line x1="100.305" y1="39.566" x2="105.6" y2="39.566" style="fill: none;stroke: #52565c;stroke-linecap: round;stroke-linejoin: round;stroke-width: 2.5px"/>
          <line x1="100.305" y1="43.722" x2="105.6" y2="43.722" style="fill: none;stroke: #52565c;stroke-linecap: round;stroke-linejoin: round;stroke-width: 2.5px"/>
        </g>
        <g>
          <line x1="114.885" y1="32.865" x2="114.885" y2="39.588" style="fill: none;stroke: #52565c;stroke-linecap: round;stroke-linejoin: round;stroke-width: 2.5px"/>
          <line x1="112.282" y1="39.566" x2="117.577" y2="39.566" style="fill: none;stroke: #52565c;stroke-linecap: round;stroke-linejoin: round;stroke-width: 2.5px"/>
          <line x1="112.282" y1="43.722" x2="117.577" y2="43.722" style="fill: none;stroke: #52565c;stroke-linecap: round;stroke-linejoin: round;stroke-width: 2.5px"/>
        </g>
        <g>
          <line x1="126.862" y1="32.865" x2="126.862" y2="39.588" style="fill: none;stroke: #52565c;stroke-linecap: round;stroke-linejoin: round;stroke-width: 2.5px"/>
          <line x1="124.258" y1="39.566" x2="129.554" y2="39.566" style="fill: none;stroke: #52565c;stroke-linecap: round;stroke-linejoin: round;stroke-width: 2.5px"/>
          <line x1="124.258" y1="43.722" x2="129.554" y2="43.722" style="fill: none;stroke: #52565c;stroke-linecap: round;stroke-linejoin: round;stroke-width: 2.5px"/>
        </g>
        <g>
          <line x1="138.839" y1="32.865" x2="138.839" y2="39.588" style="fill: none;stroke: #52565c;stroke-linecap: round;stroke-linejoin: round;stroke-width: 2.5px"/>
          <line x1="136.235" y1="39.566" x2="141.531" y2="39.566" style="fill: none;stroke: #52565c;stroke-linecap: round;stroke-linejoin: round;stroke-width: 2.5px"/>
          <line x1="136.235" y1="43.722" x2="141.531" y2="43.722" style="fill: none;stroke: #52565c;stroke-linecap: round;stroke-linejoin: round;stroke-width: 2.5px"/>
        </g>
      </g>
    </g>
  </g>
</svg>
