<svg xmlns="http://www.w3.org/2000/svg" viewBox="0 0 240 196">
  <g id="Layer_2" data-name="Layer 2">
    <rect width="240" height="196" style="fill: #fff"/>
  </g>
  <g id="Layer_1" data-name="Layer 1">
    <g>
      <g>
        <line x1="230.169" y1="189.703" x2="223.659" y2="197.688" style="fill: none;stroke: #52565c;stroke-linecap: round;stroke-linejoin: round;stroke-width: 2.5px"/>
        <line x1="220.83" y1="189.703" x2="214.32" y2="197.688" style="fill: none;stroke: #52565c;stroke-linecap: round;stroke-linejoin: round;stroke-width: 2.5px"/>
        <line x1="211.492" y1="189.703" x2="204.981" y2="197.688" style="fill: none;stroke: #52565c;stroke-linecap: round;stroke-linejoin: round;stroke-width: 2.5px"/>
        <line x1="202.153" y1="189.703" x2="195.643" y2="197.688" style="fill: none;stroke: #52565c;stroke-linecap: round;stroke-linejoin: round;stroke-width: 2.5px"/>
        <line x1="192.814" y1="189.703" x2="186.304" y2="197.688" style="fill: none;stroke: #52565c;stroke-linecap: round;stroke-linejoin: round;stroke-width: 2.5px"/>
        <line x1="183.476" y1="189.703" x2="176.965" y2="197.688" style="fill: none;stroke: #52565c;stroke-linecap: round;stroke-linejoin: round;stroke-width: 2.5px"/>
        <line x1="174.137" y1="189.703" x2="167.627" y2="197.688" style="fill: none;stroke: #52565c;stroke-linecap: round;stroke-linejoin: round;stroke-width: 2.5px"/>
        <line x1="164.798" y1="189.703" x2="158.288" y2="197.688" style="fill: none;stroke: #52565c;stroke-linecap: round;stroke-linejoin: round;stroke-width: 2.5px"/>
        <line x1="155.46" y1="189.703" x2="148.949" y2="197.688" style="fill: none;stroke: #52565c;stroke-linecap: round;stroke-linejoin: round;stroke-width: 2.5px"/>
        <line x1="146.121" y1="189.703" x2="139.611" y2="197.688" style="fill: none;stroke: #52565c;stroke-linecap: round;stroke-linejoin: round;stroke-width: 2.5px"/>
      </g>
      <g>
        <line x1="90.089" y1="189.703" x2="83.578" y2="197.688" style="fill: none;stroke: #52565c;stroke-linecap: round;stroke-linejoin: round;stroke-width: 2.5px"/>
        <line x1="80.75" y1="189.703" x2="74.24" y2="197.688" style="fill: none;stroke: #52565c;stroke-linecap: round;stroke-linejoin: round;stroke-width: 2.5px"/>
        <line x1="71.411" y1="189.703" x2="64.901" y2="197.688" style="fill: none;stroke: #52565c;stroke-linecap: round;stroke-linejoin: round;stroke-width: 2.5px"/>
        <line x1="62.073" y1="189.703" x2="55.562" y2="197.688" style="fill: none;stroke: #52565c;stroke-linecap: round;stroke-linejoin: round;stroke-width: 2.5px"/>
        <line x1="52.734" y1="189.703" x2="46.224" y2="197.688" style="fill: none;stroke: #52565c;stroke-linecap: round;stroke-linejoin: round;stroke-width: 2.5px"/>
        <line x1="43.395" y1="189.703" x2="36.885" y2="197.688" style="fill: none;stroke: #52565c;stroke-linecap: round;stroke-linejoin: round;stroke-width: 2.5px"/>
        <line x1="34.057" y1="189.703" x2="27.546" y2="197.688" style="fill: none;stroke: #52565c;stroke-linecap: round;stroke-linejoin: round;stroke-width: 2.5px"/>
        <line x1="24.718" y1="189.703" x2="18.208" y2="197.688" style="fill: none;stroke: #52565c;stroke-linecap: round;stroke-linejoin: round;stroke-width: 2.5px"/>
      </g>
      <g>
        <line x1="204.181" y1="137.911" x2="185.654" y2="137.911" style="fill: none;stroke: #52565c;stroke-linecap: round;stroke-linejoin: round;stroke-width: 2.5px"/>
        <line x1="209.136" y1="132.232" x2="185.654" y2="132.232" style="fill: none;stroke: #52565c;stroke-linecap: round;stroke-linejoin: round;stroke-width: 2.5px"/>
        <line x1="216.072" y1="126.553" x2="185.654" y2="126.553" style="fill: none;stroke: #52565c;stroke-linecap: round;stroke-linejoin: round;stroke-width: 2.5px"/>
      </g>
      <g>
        <line x1="36.462" y1="137.911" x2="54.989" y2="137.911" style="fill: none;stroke: #52565c;stroke-linecap: round;stroke-linejoin: round;stroke-width: 2.5px"/>
        <line x1="31.508" y1="132.232" x2="54.989" y2="132.232" style="fill: none;stroke: #52565c;stroke-linecap: round;stroke-linejoin: round;stroke-width: 2.5px"/>
        <line x1="24.572" y1="126.553" x2="54.989" y2="126.553" style="fill: none;stroke: #52565c;stroke-linecap: round;stroke-linejoin: round;stroke-width: 2.5px"/>
      </g>
      <g>
        <line x1="119.697" y1="16.77" x2="119.697" y2="57.853" style="fill: none;stroke: #52565c;stroke-linecap: round;stroke-linejoin: round;stroke-width: 2.5px"/>
        <polygon points="119.697 19.943 119.697 39.918 135.224 39.918 130.757 29.93 135.224 19.943 119.697 19.943" style="fill: none;stroke: #52565c;stroke-linecap: round;stroke-linejoin: round;stroke-width: 2.5px"/>
        <polygon points="151.862 87.487 119.697 57.853 87.531 87.487 56.391 87.487 56.391 103.121 95.167 103.121 119.697 79.031 144.226 103.121 183.002 103.121 183.002 87.487 151.862 87.487" style="fill: none;stroke: #52565c;stroke-linecap: round;stroke-linejoin: round;stroke-width: 2.5px"/>
        <polyline points="130.098 66.723 168.245 66.723 183.002 87.487" style="fill: none;stroke: #52565c;stroke-linecap: round;stroke-linejoin: round;stroke-width: 2.5px"/>
        <polyline points="109.295 66.723 71.148 66.723 56.391 87.487" style="fill: none;stroke: #52565c;stroke-linecap: round;stroke-linejoin: round;stroke-width: 2.5px"/>
        <line x1="119.697" y1="79.031" x2="119.697" y2="70.46" style="fill: none;stroke: #52565c;stroke-linecap: round;stroke-linejoin: round;stroke-width: 2.5px"/>
        <line x1="178.544" y1="179.805" x2="60.29" y2="179.805" style="fill: none;stroke: #52565c;stroke-linecap: round;stroke-linejoin: round;stroke-width: 2.5px"/>
        <g>
          <path d="M80.518,149.89h1.414a6.059,6.059,0,0,1,6.059,6.059v18.273a0,0,0,0,1,0,0H74.46a0,0,0,0,1,0,0V155.949a6.059,6.059,0,0,1,6.059-6.059Z" style="fill: none;stroke: #52565c;stroke-linecap: round;stroke-linejoin: round;stroke-width: 2.5px"/>
          <line x1="81.225" y1="158.404" x2="81.225" y2="168.045" style="fill: none;stroke: #52565c;stroke-linecap: round;stroke-linejoin: round;stroke-width: 2.5px"/>
          <rect x="74.46" y="169.316" width="13.532" height="4.906" style="fill: none;stroke: #52565c;stroke-linecap: round;stroke-linejoin: round;stroke-width: 2.5px"/>
          <line x1="74.46" y1="158.298" x2="87.991" y2="158.298" style="fill: none;stroke: #52565c;stroke-linecap: round;stroke-linejoin: round;stroke-width: 2.5px"/>
        </g>
        <g>
          <path d="M80.518,115.525h1.414a6.059,6.059,0,0,1,6.059,6.059v18.273a0,0,0,0,1,0,0H74.46a0,0,0,0,1,0,0V121.584a6.059,6.059,0,0,1,6.059-6.059Z" style="fill: none;stroke: #52565c;stroke-linecap: round;stroke-linejoin: round;stroke-width: 2.5px"/>
          <line x1="81.225" y1="124.039" x2="81.225" y2="133.68" style="fill: none;stroke: #52565c;stroke-linecap: round;stroke-linejoin: round;stroke-width: 2.5px"/>
          <rect x="74.46" y="134.951" width="13.532" height="4.906" style="fill: none;stroke: #52565c;stroke-linecap: round;stroke-linejoin: round;stroke-width: 2.5px"/>
          <line x1="74.46" y1="123.933" x2="87.991" y2="123.933" style="fill: none;stroke: #52565c;stroke-linecap: round;stroke-linejoin: round;stroke-width: 2.5px"/>
        </g>
        <rect x="54.158" y="108.704" width="15.5" height="6.585" style="fill: none;stroke: #52565c;stroke-linecap: round;stroke-linejoin: round;stroke-width: 2.5px"/>
        <rect x="56.391" y="103.121" width="126.611" height="5.583" style="fill: none;stroke: #52565c;stroke-linecap: round;stroke-linejoin: round;stroke-width: 2.5px"/>
        <rect x="55.574" y="115.289" width="12.667" height="57.932" style="fill: none;stroke: #52565c;stroke-linecap: round;stroke-linejoin: round;stroke-width: 2.5px"/>
        <rect x="54.158" y="173.221" width="15.5" height="6.585" style="fill: none;stroke: #52565c;stroke-linecap: round;stroke-linejoin: round;stroke-width: 2.5px"/>
        <g>
          <rect x="92.453" y="108.704" width="15.5" height="6.585" style="fill: none;stroke: #52565c;stroke-linecap: round;stroke-linejoin: round;stroke-width: 2.5px"/>
          <polyline points="106.537 173.221 93.87 173.221 93.87 161.53" style="fill: none;stroke: #52565c;stroke-linecap: round;stroke-linejoin: round;stroke-width: 2.5px"/>
          <polyline points="93.87 126.085 93.87 115.289 106.537 115.289" style="fill: none;stroke: #52565c;stroke-linecap: round;stroke-linejoin: round;stroke-width: 2.5px"/>
          <rect x="92.453" y="173.221" width="15.5" height="6.585" style="fill: none;stroke: #52565c;stroke-linecap: round;stroke-linejoin: round;stroke-width: 2.5px"/>
        </g>
        <g>
          <path d="M158.407,149.89h1.414a6.059,6.059,0,0,1,6.059,6.059v18.273a0,0,0,0,1,0,0H152.349a0,0,0,0,1,0,0V155.949A6.059,6.059,0,0,1,158.407,149.89Z" style="fill: none;stroke: #52565c;stroke-linecap: round;stroke-linejoin: round;stroke-width: 2.5px"/>
          <line x1="159.114" y1="158.404" x2="159.114" y2="168.045" style="fill: none;stroke: #52565c;stroke-linecap: round;stroke-linejoin: round;stroke-width: 2.5px"/>
          <rect x="152.349" y="169.316" width="13.532" height="4.906" style="fill: none;stroke: #52565c;stroke-linecap: round;stroke-linejoin: round;stroke-width: 2.5px"/>
          <line x1="152.349" y1="158.298" x2="165.88" y2="158.298" style="fill: none;stroke: #52565c;stroke-linecap: round;stroke-linejoin: round;stroke-width: 2.5px"/>
        </g>
        <g>
          <path d="M158.407,115.525h1.414a6.059,6.059,0,0,1,6.059,6.059v18.273a0,0,0,0,1,0,0H152.349a0,0,0,0,1,0,0V121.584a6.059,6.059,0,0,1,6.059-6.059Z" style="fill: none;stroke: #52565c;stroke-linecap: round;stroke-linejoin: round;stroke-width: 2.5px"/>
          <line x1="159.114" y1="124.039" x2="159.114" y2="133.68" style="fill: none;stroke: #52565c;stroke-linecap: round;stroke-linejoin: round;stroke-width: 2.5px"/>
          <rect x="152.349" y="134.951" width="13.532" height="4.906" style="fill: none;stroke: #52565c;stroke-linecap: round;stroke-linejoin: round;stroke-width: 2.5px"/>
          <line x1="152.349" y1="123.933" x2="165.88" y2="123.933" style="fill: none;stroke: #52565c;stroke-linecap: round;stroke-linejoin: round;stroke-width: 2.5px"/>
        </g>
        <rect x="132.047" y="108.704" width="15.5" height="6.585" style="fill: none;stroke: #52565c;stroke-linecap: round;stroke-linejoin: round;stroke-width: 2.5px"/>
        <polyline points="146.13 161.53 146.13 173.221 133.463 173.221" style="fill: none;stroke: #52565c;stroke-linecap: round;stroke-linejoin: round;stroke-width: 2.5px"/>
        <polyline points="133.463 115.289 146.13 115.289 146.13 126.085" style="fill: none;stroke: #52565c;stroke-linecap: round;stroke-linejoin: round;stroke-width: 2.5px"/>
        <rect x="132.047" y="173.221" width="15.5" height="6.585" style="fill: none;stroke: #52565c;stroke-linecap: round;stroke-linejoin: round;stroke-width: 2.5px"/>
        <g>
          <rect x="170.342" y="108.704" width="15.5" height="6.585" style="fill: none;stroke: #52565c;stroke-linecap: round;stroke-linejoin: round;stroke-width: 2.5px"/>
          <rect x="171.759" y="115.289" width="12.667" height="57.932" style="fill: none;stroke: #52565c;stroke-linecap: round;stroke-linejoin: round;stroke-width: 2.5px"/>
          <rect x="170.342" y="173.221" width="15.5" height="6.585" style="fill: none;stroke: #52565c;stroke-linecap: round;stroke-linejoin: round;stroke-width: 2.5px"/>
        </g>
        <line x1="101.382" y1="97.31" x2="138.003" y2="97.31" style="fill: none;stroke: #52565c;stroke-linecap: round;stroke-linejoin: round;stroke-width: 2.5px"/>
      </g>
      <polyline points="14.96 196.762 14.96 188.603 232.041 188.603 232.041 196.762" style="fill: none;stroke: #52565c;stroke-linecap: round;stroke-linejoin: round;stroke-width: 2.5px"/>
      <polyline points="31.46 187.965 31.46 179.805 208.54 179.805 208.54 187.965" style="fill: none;stroke: #52565c;stroke-linecap: round;stroke-linejoin: round;stroke-width: 2.5px"/>
      <g>
        <circle cx="120.126" cy="144.205" r="26.595" style="fill: none;stroke: #52565c;stroke-linecap: round;stroke-linejoin: round;stroke-width: 2.5px"/>
        <line x1="131.87" y1="132.684" x2="109.07" y2="156.532" style="fill: none;stroke: #52565c;stroke-linecap: round;stroke-linejoin: round;stroke-width: 2.5px"/>
        <line x1="108.546" y1="133.208" x2="132.394" y2="156.008" style="fill: none;stroke: #52565c;stroke-linecap: round;stroke-linejoin: round;stroke-width: 2.5px"/>
      </g>
      <path d="M215.808,47.408h4.343V82.256a10.429,10.429,0,0,1-10.429,10.429h0a10.429,10.429,0,0,1-10.429-10.429V47.408h12.022" style="fill: none;stroke: #52565c;stroke-linecap: round;stroke-linejoin: round;stroke-width: 2.5px"/>
      <path d="M204.084,39.284v-10.9a5.639,5.639,0,0,1,5.638-5.639h0a5.639,5.639,0,0,1,5.639,5.639V51.779" style="fill: none;stroke: #52565c;stroke-linecap: round;stroke-linejoin: round;stroke-width: 2.5px"/>
      <line x1="199.404" y1="58.562" x2="220.037" y2="58.562" style="fill: none;stroke: #52565c;stroke-linecap: round;stroke-linejoin: round;stroke-width: 2.5px"/>
      <circle cx="209.645" cy="81.933" r="1.961" style="fill: #52565c"/>
      <g>
        <line x1="136.782" y1="189.703" x2="130.272" y2="197.688" style="fill: none;stroke: #52565c;stroke-linecap: round;stroke-linejoin: round;stroke-width: 2.5px"/>
        <line x1="127.443" y1="189.703" x2="120.933" y2="197.688" style="fill: none;stroke: #52565c;stroke-linecap: round;stroke-linejoin: round;stroke-width: 2.5px"/>
        <line x1="118.105" y1="189.703" x2="111.595" y2="197.688" style="fill: none;stroke: #52565c;stroke-linecap: round;stroke-linejoin: round;stroke-width: 2.5px"/>
        <line x1="108.766" y1="189.703" x2="102.256" y2="197.688" style="fill: none;stroke: #52565c;stroke-linecap: round;stroke-linejoin: round;stroke-width: 2.5px"/>
        <line x1="99.427" y1="189.703" x2="92.917" y2="197.688" style="fill: none;stroke: #52565c;stroke-linecap: round;stroke-linejoin: round;stroke-width: 2.5px"/>
      </g>
      <g>
        <path d="M33.658,22.169l-10.429,4.9v10.8c0,21.318,3.783,41.659,10.429,56.079h0c6.647-14.42,10.43-34.761,10.43-56.079v-10.8Z" style="fill: none;stroke: #52565c;stroke-linecap: round;stroke-linejoin: round;stroke-width: 2.5px"/>
        <polyline points="44.088 35.429 33.658 30.533 23.229 35.429" style="fill: none;stroke: #52565c;stroke-linecap: round;stroke-linejoin: round;stroke-width: 2.5px"/>
        <line x1="33.658" y1="22.169" x2="33.658" y2="39.875" style="fill: none;stroke: #52565c;stroke-linecap: round;stroke-linejoin: round;stroke-width: 2.5px"/>
        <line x1="33.658" y1="59.009" x2="33.658" y2="93.942" style="fill: none;stroke: #52565c;stroke-linecap: round;stroke-linejoin: round;stroke-width: 2.5px"/>
      </g>
    </g>
  </g>
</svg>
