<svg width="89" height="103" viewBox="0 0 89 103" fill="none" xmlns="http://www.w3.org/2000/svg">
<mask id="mask0_2_3033" style="mask-type:alpha" maskUnits="userSpaceOnUse" x="0" y="1" width="89" height="101">
<path d="M38.4899 3.47777C42.2078 1.32637 46.7922 1.32637 50.5101 3.47777L83.0101 22.284C86.7172 24.4291 89 28.3874 89 32.6704V70.3296C89 74.6126 86.7172 78.5709 83.0101 80.716L50.5101 99.5222C46.7922 101.674 42.2078 101.674 38.4899 99.5222L5.98986 80.716C2.28276 78.5709 0 74.6126 0 70.3296V32.6704C0 28.3874 2.28276 24.4291 5.98987 22.284L38.4899 3.47777Z" fill="url(#paint0_radial_2_3033)"/>
</mask>
<g mask="url(#mask0_2_3033)">
<g filter="url(#filter0_f_2_3033)">
<circle cx="-3" cy="4" r="48" fill="#DB6CBC"/>
</g>
</g>
<path fill-rule="evenodd" clip-rule="evenodd" d="M44.8998 28.0002L45 28L45.1002 28.0002C45.6525 28.0025 46.0983 28.452 46.0961 29.0043C46.0938 29.5566 45.6443 30.0024 45.092 30.0002L45 30L44.908 30.0002C44.3557 30.0024 43.9062 29.5566 43.9039 29.0043C43.9017 28.452 44.3475 28.0025 44.8998 28.0002ZM47.916 29.1611C48.009 28.6168 48.5258 28.2508 49.0702 28.3439C49.1358 28.3551 49.2013 28.3666 49.2668 28.3783C49.8104 28.4759 50.172 28.9957 50.0744 29.5393C49.9768 30.0828 49.4571 30.4444 48.9135 30.3469C48.8535 30.3361 48.7934 30.3256 48.7333 30.3153C48.1889 30.2223 47.823 29.7055 47.916 29.1611ZM42.084 29.1611C42.177 29.7055 41.8111 30.2223 41.2667 30.3153C41.2066 30.3256 41.1465 30.3361 41.0865 30.3469C40.5429 30.4444 40.0232 30.0829 39.9256 29.5393C39.828 28.9957 40.1896 28.4759 40.7332 28.3783C40.7987 28.3666 40.8642 28.3551 40.9298 28.3439C41.4742 28.2508 41.991 28.6168 42.084 29.1611ZM51.8378 30.0106C52.0246 29.4908 52.5974 29.2209 53.1171 29.4077C53.1797 29.4301 53.2421 29.4529 53.3044 29.4759C53.8226 29.667 54.0877 30.242 53.8966 30.7601C53.7055 31.2783 53.1305 31.5434 52.6124 31.3523C52.5553 31.3313 52.4981 31.3104 52.4408 31.2898C51.921 31.1031 51.6511 30.5303 51.8378 30.0106ZM38.1621 30.0106C38.3489 30.5303 38.079 31.1031 37.5592 31.2898C37.5019 31.3104 37.4447 31.3313 37.3876 31.3523C36.8695 31.5434 36.2945 31.2783 36.1034 30.7601C35.9123 30.242 36.1774 29.667 36.6956 29.4759C36.7579 29.4529 36.8203 29.4302 36.8829 29.4077C37.4026 29.2209 37.9754 29.4908 38.1621 30.0106ZM55.5514 31.5332C55.826 31.054 56.437 30.8881 56.9162 31.1627C56.9739 31.1958 57.0315 31.2291 57.0889 31.2626C57.5657 31.5412 57.7265 32.1536 57.4479 32.6305C57.1693 33.1074 56.5569 33.2681 56.08 32.9896C56.0274 32.9588 55.9747 32.9283 55.9218 32.898C55.4426 32.6234 55.2768 32.0123 55.5514 31.5332ZM34.4486 31.5332C34.7232 32.0123 34.5574 32.6234 34.0782 32.898C34.0253 32.9283 33.9726 32.9588 33.9199 32.9896C33.4431 33.2681 32.8306 33.1074 32.5521 32.6305C32.2735 32.1536 32.4343 31.5412 32.9111 31.2626C32.9685 31.2291 33.0261 31.1958 33.0838 31.1627C33.563 30.8881 34.174 31.054 34.4486 31.5332ZM58.9426 33.6791C59.2961 33.2547 59.9266 33.1973 60.351 33.5507C60.4021 33.5933 60.453 33.6361 60.5037 33.679C60.9251 34.036 60.9774 34.667 60.6204 35.0884C60.2635 35.5098 59.6325 35.5621 59.211 35.2051C59.1645 35.1657 59.1178 35.1265 59.071 35.0875C58.6466 34.734 58.5891 34.1035 58.9426 33.6791ZM31.0574 33.6791C31.4109 34.1035 31.3534 34.734 30.929 35.0875C30.8822 35.1265 30.8355 35.1657 30.7889 35.2051C30.3675 35.5621 29.7365 35.5098 29.3796 35.0884C29.0226 34.667 29.0749 34.036 29.4963 33.679C29.547 33.6361 29.5979 33.5933 29.649 33.5507C30.0734 33.1973 30.7039 33.2547 31.0574 33.6791ZM61.9116 36.3796C62.333 36.0226 62.964 36.0749 63.321 36.4963C63.3639 36.547 63.4067 36.5979 63.4493 36.649C63.8027 37.0734 63.7453 37.7039 63.3209 38.0574C62.8965 38.4109 62.266 38.3534 61.9125 37.929C61.8735 37.8822 61.8343 37.8355 61.7949 37.7889C61.4379 37.3675 61.4902 36.7365 61.9116 36.3796ZM28.0884 36.3796C28.5098 36.7365 28.5621 37.3675 28.2051 37.789C28.1657 37.8355 28.1265 37.8822 28.0875 37.929C27.734 38.3534 27.1035 38.4109 26.6791 38.0574C26.2547 37.7039 26.1973 37.0734 26.5507 36.649C26.5933 36.5979 26.6361 36.547 26.679 36.4963C27.036 36.0749 27.667 36.0226 28.0884 36.3796ZM64.3695 39.5521C64.8464 39.2735 65.4588 39.4343 65.7374 39.9111C65.7709 39.9685 65.8042 40.0261 65.8373 40.0838C66.1119 40.563 65.946 41.174 65.4668 41.4486C64.9877 41.7232 64.3766 41.5574 64.102 41.0782C64.0717 41.0253 64.0412 40.9726 64.0104 40.9199C63.7319 40.4431 63.8926 39.8306 64.3695 39.5521ZM25.6305 39.5521C26.1074 39.8307 26.2681 40.4431 25.9896 40.92C25.9588 40.9726 25.9283 41.0253 25.898 41.0782C25.6234 41.5574 25.0123 41.7232 24.5332 41.4486C24.054 41.174 23.8881 40.563 24.1627 40.0838C24.1958 40.0261 24.2291 39.9685 24.2626 39.9111C24.5412 39.4343 25.1536 39.2735 25.6305 39.5521ZM66.2399 43.1034C66.758 42.9123 67.333 43.1774 67.5241 43.6956C67.5471 43.7579 67.5698 43.8203 67.5923 43.8829C67.7791 44.4026 67.5092 44.9754 66.9894 45.1621C66.4697 45.3489 65.8969 45.079 65.7102 44.5592C65.6896 44.5019 65.6687 44.4447 65.6477 44.3876C65.4566 43.8695 65.7217 43.2945 66.2399 43.1034ZM23.7601 43.1034C24.2783 43.2945 24.5434 43.8695 24.3523 44.3876C24.3313 44.4447 24.3104 44.5019 24.2898 44.5592C24.1031 45.079 23.5303 45.3489 23.0106 45.1622C22.4908 44.9754 22.2209 44.4026 22.4077 43.8829C22.4301 43.8203 22.4529 43.7579 22.4759 43.6956C22.667 43.1774 23.242 42.9123 23.7601 43.1034ZM67.4607 46.9256C68.0043 46.828 68.5241 47.1896 68.6217 47.7332C68.6334 47.7987 68.6449 47.8642 68.6561 47.9298C68.7491 48.4742 68.3832 48.991 67.8389 49.084C67.2945 49.177 66.7777 48.8111 66.6847 48.2667C66.6744 48.2066 66.6639 48.1465 66.6531 48.0865C66.5556 47.5429 66.9171 47.0232 67.4607 46.9256ZM22.5393 46.9256C23.0828 47.0232 23.4444 47.5429 23.3469 48.0865C23.3361 48.1465 23.3256 48.2066 23.3153 48.2667C23.2223 48.8111 22.7055 49.177 22.1611 49.084C21.6168 48.991 21.2508 48.4742 21.3439 47.9298C21.3551 47.8642 21.3666 47.7987 21.3783 47.7332C21.4759 47.1896 21.9957 46.828 22.5393 46.9256ZM22.0043 50.9039C22.5566 50.9062 23.0024 51.3557 23.0002 51.908L23 52L23.0002 52.092C23.0024 52.6443 22.5566 53.0938 22.0043 53.0961C21.452 53.0983 21.0025 52.6525 21.0002 52.1002L21 52L21.0002 51.8998C21.0025 51.3475 21.452 50.9017 22.0043 50.9039ZM67.9957 50.9039C68.548 50.9017 68.9975 51.3475 68.9998 51.8998L69 52L68.9998 52.1002C68.9975 52.6525 68.548 53.0983 67.9957 53.0961C67.4434 53.0938 66.9976 52.6443 66.9998 52.092L67 52L66.9998 51.908C66.9976 51.3557 67.4434 50.9062 67.9957 50.9039ZM67.8389 54.916C68.3832 55.009 68.7492 55.5258 68.6561 56.0702C68.6498 56.107 68.6435 56.1437 68.637 56.1805C68.6319 56.2093 68.6268 56.238 68.6217 56.2668C68.5241 56.8104 68.0043 57.172 67.4608 57.0744C66.9172 56.9768 66.5556 56.4571 66.6531 55.9135C66.6639 55.8535 66.6744 55.7934 66.6847 55.7333C66.7777 55.1889 67.2945 54.823 67.8389 54.916ZM22.1611 54.916C22.7055 54.823 23.2223 55.1889 23.3153 55.7333C23.3256 55.7934 23.3361 55.8535 23.3469 55.9135C23.4444 56.4571 23.0829 56.9768 22.5393 57.0744C21.9957 57.172 21.4759 56.8104 21.3783 56.2668C21.3666 56.2013 21.3551 56.1358 21.3439 56.0702C21.2508 55.5258 21.6168 55.009 22.1611 54.916ZM66.9894 58.8378C67.5092 59.0246 67.7791 59.5974 67.5923 60.1171C67.5699 60.1797 67.5471 60.2421 67.5241 60.3044C67.333 60.8226 66.758 61.0877 66.2399 60.8966C65.7217 60.7055 65.4566 60.1305 65.6477 59.6124C65.6687 59.5553 65.6896 59.4981 65.7102 59.4408C65.8969 58.921 66.4697 58.6511 66.9894 58.8378ZM65.4668 62.5514C65.946 62.826 66.1119 63.437 65.8373 63.9162C65.8042 63.9739 65.7709 64.0315 65.7374 64.0889C65.4588 64.5657 64.8464 64.7265 64.3695 64.4479C63.8926 64.1693 63.7319 63.5569 64.0104 63.08C64.0412 63.0274 64.0717 62.9747 64.102 62.9218C64.3766 62.4426 64.9877 62.2768 65.4668 62.5514ZM63.3209 65.9426C63.7453 66.2961 63.8027 66.9266 63.4493 67.351C63.4067 67.4021 63.3639 67.453 63.321 67.5037C62.964 67.9251 62.333 67.9774 61.9116 67.6204C61.4902 67.2635 61.4379 66.6325 61.7949 66.211C61.8343 66.1645 61.8735 66.1178 61.9125 66.071C62.266 65.6466 62.8965 65.5891 63.3209 65.9426ZM60.6204 68.9116C60.9774 69.333 60.9251 69.964 60.5037 70.321C60.453 70.3639 60.4021 70.4067 60.351 70.4493C59.9266 70.8027 59.2961 70.7453 58.9426 70.3209C58.5891 69.8965 58.6466 69.266 59.071 68.9125C59.1178 68.8735 59.1645 68.8343 59.2111 68.7949C59.6325 68.4379 60.2635 68.4902 60.6204 68.9116ZM57.4479 71.3695C57.7265 71.8464 57.5657 72.4588 57.0889 72.7374C57.0315 72.7709 56.9739 72.8042 56.9162 72.8373C56.437 73.1119 55.826 72.946 55.5514 72.4668C55.2768 71.9877 55.4426 71.3766 55.9218 71.102C55.9747 71.0717 56.0274 71.0412 56.0801 71.0104C56.5569 70.7319 57.1693 70.8926 57.4479 71.3695ZM32.5521 71.3695C32.8307 70.8926 33.4431 70.7319 33.92 71.0104C33.9726 71.0412 34.0253 71.0717 34.0782 71.102C34.5574 71.3766 34.7232 71.9877 34.4486 72.4668C34.174 72.946 33.563 73.1119 33.0838 72.8373C33.0261 72.8042 32.9685 72.7709 32.9111 72.7374C32.4343 72.4588 32.2735 71.8464 32.5521 71.3695ZM36.1034 73.2399C36.2945 72.7217 36.8695 72.4566 37.3876 72.6477C37.4447 72.6687 37.5019 72.6896 37.5592 72.7102C38.079 72.8969 38.3489 73.4697 38.1622 73.9894C37.9754 74.5092 37.4026 74.7791 36.8829 74.5923C36.8203 74.5699 36.7579 74.5471 36.6956 74.5241C36.1774 74.333 35.9123 73.758 36.1034 73.2399ZM53.8966 73.2399C54.0877 73.758 53.8226 74.333 53.3044 74.5241C53.2421 74.5471 53.1797 74.5698 53.1171 74.5923C52.5974 74.7791 52.0246 74.5092 51.8379 73.9894C51.6511 73.4697 51.921 72.8969 52.4408 72.7102C52.4981 72.6896 52.5553 72.6687 52.6124 72.6477C53.1305 72.4566 53.7055 72.7217 53.8966 73.2399ZM39.9256 74.4608C40.0232 73.9172 40.5429 73.5556 41.0865 73.6531C41.1465 73.6639 41.2066 73.6744 41.2667 73.6847C41.8111 73.7777 42.177 74.2945 42.084 74.8389C41.991 75.3832 41.4742 75.7492 40.9298 75.6561C40.8642 75.6449 40.7987 75.6334 40.7332 75.6217C40.1896 75.5241 39.828 75.0043 39.9256 74.4608ZM50.0744 74.4607C50.172 75.0043 49.8104 75.5241 49.2668 75.6217C49.2013 75.6334 49.1358 75.6449 49.0702 75.6561C48.5258 75.7491 48.009 75.3832 47.916 74.8389C47.823 74.2945 48.1889 73.7777 48.7333 73.6847C48.7934 73.6744 48.8535 73.6639 48.9135 73.6531C49.4571 73.5556 49.9768 73.9171 50.0744 74.4607ZM43.9039 74.9957C43.9062 74.4434 44.3557 73.9976 44.908 73.9998L45 74L45.092 73.9998C45.6443 73.9976 46.0938 74.4434 46.0961 74.9957C46.0983 75.548 45.6525 75.9975 45.1002 75.9998L45 76L44.8998 75.9998C44.3475 75.9975 43.9017 75.548 43.9039 74.9957Z" fill="#1E2E45"/>
<circle cx="66" cy="42" r="4" fill="#1E2E45"/>
<path fill-rule="evenodd" clip-rule="evenodd" d="M25 74C29.4183 74 33 70.4183 33 66C33 61.5817 29.4183 58 25 58C20.5817 58 17 61.5817 17 66C17 70.4183 20.5817 74 25 74ZM25 70C27.2091 70 29 68.2091 29 66C29 63.7909 27.2091 62 25 62C22.7909 62 21 63.7909 21 66C21 68.2091 22.7909 70 25 70Z" fill="#1E2E45"/>
<defs>
<filter id="filter0_f_2_3033" x="-81" y="-74" width="156" height="156" filterUnits="userSpaceOnUse" color-interpolation-filters="sRGB">
<feFlood flood-opacity="0" result="BackgroundImageFix"/>
<feBlend mode="normal" in="SourceGraphic" in2="BackgroundImageFix" result="shape"/>
<feGaussianBlur stdDeviation="15" result="effect1_foregroundBlur_2_3033"/>
</filter>
<radialGradient id="paint0_radial_2_3033" cx="0" cy="0" r="1" gradientUnits="userSpaceOnUse" gradientTransform="translate(10.1491 16.0709) rotate(58.4022) scale(156.949 228.309)">
<stop offset="0.442708" stop-color="#F5F7F8"/>
<stop offset="1" stop-color="#FCE8F6"/>
</radialGradient>
</defs>
</svg>
