<svg width="1512" height="512" viewBox="0 0 1512 512" fill="none" xmlns="http://www.w3.org/2000/svg">
<path opacity="0.6" fill-rule="evenodd" clip-rule="evenodd" d="M1512.43 577.89L788.225 0.744121L-73.7034 339.355L-211.428 1255.11L-209.318 1256.79L-209.566 1258.44L-207.456 1260.12L-207.704 1261.76L-205.594 1263.44L-205.842 1265.09L-203.732 1266.77L-203.979 1268.41L-201.87 1270.09L-202.117 1271.74L-200.01 1273.42L-200.258 1275.06L-198.148 1276.74L-198.396 1278.38L-196.286 1280.06L-196.534 1281.71L-194.424 1283.39L-194.672 1285.03L-192.562 1286.71L-192.809 1288.36L-190.7 1290.04L-190.947 1291.68L-188.839 1293.36L-189.086 1295.01L-186.978 1296.69L-187.226 1298.33L-185.126 1300L-185.374 1301.66L-183.265 1303.34L-183.512 1304.98L-181.4 1306.66L-181.649 1308.32L-179.54 1310L-179.787 1311.64L-177.68 1313.32L-177.927 1314.97L-175.818 1316.65L-176.065 1318.29L-173.956 1319.97L-174.203 1321.62L-172.094 1323.3L-172.341 1324.94L-170.232 1326.62L-170.479 1328.26L-168.37 1329.94L-168.617 1331.59L-166.51 1333.27L-166.757 1334.91L-164.648 1336.59L-164.895 1338.24L-162.786 1339.92L-163.033 1341.56L-160.933 1343.24L-161.182 1344.89L-159.073 1346.57L-159.32 1348.21L-157.211 1349.89L-157.458 1351.54L-155.351 1353.22L-155.598 1354.86L-153.489 1356.54L-153.736 1358.19L-151.627 1359.87L-151.874 1361.51L-149.763 1363.19L-150.011 1364.84L-147.902 1366.53L-148.149 1368.17L-146.04 1369.85L-146.287 1371.49L-144.179 1373.17L-144.427 1374.82L-142.318 1376.5L-142.565 1378.14L-140.455 1379.83L-140.703 1381.47L-138.594 1383.15L-138.841 1384.79L-136.741 1386.47L-136.99 1388.12L-134.88 1389.8L-135.128 1391.44L-133.02 1393.12L-133.268 1394.77L-131.158 1396.45L-131.406 1398.09L-129.296 1399.77L-129.544 1401.42L-127.435 1403.1L-127.682 1404.74L-125.572 1406.42L-125.82 1408.07L-123.71 1409.75L-123.958 1411.39L-121.85 1413.07L-122.098 1414.71L-119.988 1416.4L-120.236 1418.04L-118.124 1419.72L-118.373 1421.37L-116.263 1423.05L-116.51 1424.7L-114.401 1426.38L-114.648 1428.02L-112.539 1429.7L-112.786 1431.35L-110.688 1433.02L-110.937 1434.67L-108.828 1436.36L-109.075 1438L-106.966 1439.68L-107.213 1441.32L-105.104 1443L-105.351 1444.65L-103.242 1446.33L-103.489 1447.97L-101.38 1449.65L-101.627 1451.3L-99.5197 1452.98L-99.7672 1454.62L-97.6585 1456.3L-97.9054 1457.94L-95.7961 1459.63L-96.0433 1461.27L-93.9341 1462.95L-94.1813 1464.59L-92.072 1466.28L-92.3192 1467.92L-90.2099 1469.6L-90.4571 1471.24L-88.3503 1472.92L-88.5975 1474.57L-86.4951 1476.24L-86.745 1477.9L-84.6357 1479.58L-84.8829 1481.23L-82.7736 1482.91L-83.0208 1484.55L-80.9114 1486.23L-81.1587 1487.88L-79.0514 1489.56L-79.2989 1491.2L-77.1901 1492.88L-77.437 1494.53L-75.3277 1496.21L-75.575 1497.85L-73.4657 1499.53L-73.7129 1501.18L-71.6036 1502.86L-71.8508 1504.5L-69.7415 1506.18L-69.9887 1507.83L-67.8795 1509.51L-68.1267 1511.15L-66.0198 1512.83L-66.267 1514.47L-64.1577 1516.15L-64.4049 1517.8L-62.3052 1519.47L-62.5537 1521.12L-60.4444 1522.81L-60.6917 1524.45L-58.5823 1526.13L-58.8296 1527.77L-56.7226 1529.45L-56.9699 1531.1L-54.858 1532.78L-55.1066 1534.43L63.4513 1628.91L64.9985 1628.3L68.8019 1631.33L70.3408 1630.72L74.1438 1633.76L75.6995 1633.14L79.4932 1636.17L81.0405 1635.56L84.8438 1638.59L86.3911 1637.98L90.1942 1641.01L91.75 1640.4L95.5436 1643.43L97.0909 1642.82L100.897 1645.85L102.444 1645.24L106.247 1648.27L107.786 1647.67L111.587 1650.7L113.142 1650.09L116.936 1653.11L118.484 1652.5L122.287 1655.53L123.834 1654.93L127.638 1657.96L129.183 1657.35L132.988 1660.38L134.545 1659.77L138.34 1662.8L139.887 1662.19L143.691 1665.22L145.237 1664.61L149.041 1667.64L150.589 1667.03L154.38 1670.06L155.927 1669.45L159.73 1672.48L161.277 1671.87L165.083 1674.9L166.63 1674.3L170.434 1677.33L171.989 1676.72L175.783 1679.74L177.33 1679.13L181.134 1682.16L182.681 1681.55L186.484 1684.59L188.021 1683.98L191.824 1687.01L193.382 1686.4L197.176 1689.42L198.723 1688.82L202.526 1691.85L204.074 1691.24L207.877 1694.27L209.424 1693.66L213.228 1696.69L214.783 1696.08L218.577 1699.11L220.122 1698.5L223.928 1701.53L225.477 1700.92L229.28 1703.95L230.827 1703.35L234.619 1706.37L236.166 1705.76L239.969 1708.79L241.517 1708.18L245.32 1711.21L246.865 1710.61L250.671 1713.64L252.227 1713.03L256.02 1716.05L257.569 1715.44L261.373 1718.47L262.92 1717.87L266.724 1720.9L268.262 1720.29L272.063 1723.32L273.617 1722.71L277.413 1725.74L278.96 1725.13L282.763 1728.16L284.311 1727.55L288.114 1730.58L289.663 1729.97L293.467 1733.01L295.023 1732.39L298.816 1735.42L300.363 1734.81L304.167 1737.84L305.712 1737.23L309.518 1740.27L311.065 1739.66L314.856 1742.68L316.403 1742.07L320.206 1745.1L321.755 1744.49L325.559 1747.53L327.107 1746.92L330.91 1749.95L332.466 1749.34L336.259 1752.36L337.805 1751.75L341.61 1754.79L343.157 1754.18L346.961 1757.21L348.5 1756.61L352.3 1759.63L353.858 1759.02L357.652 1762.05L359.199 1761.44L363.003 1764.47L364.548 1763.86L368.353 1766.9L369.909 1766.28L373.702 1769.31L375.25 1768.7L379.053 1771.73L380.6 1771.12L384.404 1774.15L385.944 1773.55L389.745 1776.58L391.301 1775.97L395.095 1778.99L396.641 1778.38L400.446 1781.42L401.993 1780.81L405.796 1783.84L407.344 1783.23L411.147 1786.26L412.703 1785.65L416.496 1788.67L418.045 1788.07L421.849 1791.1L423.395 1790.49L427.2 1793.52L428.739 1792.92L432.54 1795.95L434.095 1795.34L437.889 1798.36L439.436 1797.75L443.239 1800.78L444.788 1800.17L448.592 1803.21L450.146 1802.59L453.942 1805.62L455.489 1805.01L459.293 1808.04L460.84 1807.44L464.643 1810.47L466.182 1809.86L469.983 1812.89L471.539 1812.28L475.332 1815.3L476.879 1814.7L480.683 1817.73L482.23 1817.12L486.036 1820.15L487.583 1819.54L491.386 1822.57L492.942 1821.96L496.736 1824.99L498.283 1824.38L502.086 1827.41L503.634 1826.8L507.437 1829.83L508.976 1829.23L512.777 1832.26L1374.71 1493.65L1512.43 577.89ZM510.539 1828.61L513.026 1830.6L1373.39 1492.6L1510.87 578.504L787.976 2.40464L-72.3902 340.402L-209.865 1254.5L-209.069 1255.13L-73.2091 351.795L780.129 16.5643L1497.12 587.962L1360.77 1494.59L510.539 1828.61ZM-206.959 1256.81L-207.756 1256.18L-71.8959 352.842L779.88 18.2248L1495.56 588.576L1359.46 1493.54L509.225 1827.57L506.735 1825.58L1346.84 1495.55L1481.82 598.033L772.043 32.3723L-72.7259 364.237L-206.959 1256.81ZM-204.85 1258.49L-205.646 1257.86L-71.4127 365.284L771.793 34.0328L1480.26 598.647L1345.53 1494.5L505.422 1824.54L502.932 1822.55L1332.91 1496.5L1466.52 608.093L763.947 48.1925L-72.2303 376.689L-204.85 1258.49ZM-202.741 1260.18L-203.537 1259.54L-70.9171 377.735L763.697 49.853L1464.96 608.707L1331.6 1495.46L501.619 1821.51L499.138 1819.53L1318.98 1497.45L1451.22 618.165L755.861 64.0005L-71.736 389.129L-202.741 1260.18ZM-200.632 1261.86L-201.428 1261.22L-70.4228 390.176L755.611 65.661L1449.65 618.779L1317.67 1496.4L497.825 1818.48L495.335 1816.5L1305.05 1498.4L1435.92 628.236L747.765 79.8207L-71.2528 401.571L-200.632 1261.86ZM-198.525 1263.54L-199.318 1262.9L-69.9396 402.617L747.515 81.4812L1434.36 628.85L1303.74 1497.35L494.022 1815.45L491.529 1813.47L1291.12 1499.34L1420.62 638.305L739.676 95.6268L-70.7609 414.009L-198.525 1263.54ZM-196.415 1265.22L-197.211 1264.58L-69.4477 415.056L739.427 97.2873L1419.06 638.919L1289.81 1498.3L490.216 1812.42L487.726 1810.43L1277.19 1500.3L1405.31 648.366L731.58 111.447L-70.2777 426.451L-196.415 1265.22ZM-194.306 1266.9L-195.102 1266.26L-68.9645 427.498L731.331 113.107L1403.75 648.98L1275.88 1499.25L486.413 1809.39L483.932 1807.41L1263.26 1501.25L1390.01 658.437L723.494 127.255L-69.7834 438.892L-194.306 1266.9ZM-192.197 1268.58L-192.993 1267.94L-68.4702 439.938L723.244 128.915L1388.45 659.051L1261.95 1500.21L482.619 1806.36L480.131 1804.38L1249.33 1502.2L1374.71 668.508L715.398 143.075L-69.2878 451.343L-192.197 1268.58ZM-190.088 1270.26L-190.884 1269.63L-67.9747 452.389L715.148 144.736L1373.15 669.122L1248.02 1501.15L478.818 1803.34L476.328 1801.35L1235.4 1503.15L1359.41 678.568L707.312 158.883L-68.8046 463.785L-190.088 1270.26ZM-187.978 1271.94L-188.774 1271.31L-67.4914 464.831L707.062 160.544L1357.85 679.182L1234.09 1502.11L475.015 1800.3L472.524 1798.32L1221.47 1504.1L1344.11 688.64L699.216 174.703L-68.3103 476.225L-187.978 1271.94ZM-185.87 1273.62L-186.665 1272.99L-66.9971 477.272L698.966 176.364L1342.54 689.254L1220.16 1503.05L471.211 1797.27L468.729 1795.29L1207.54 1505.05L1328.81 698.709L691.13 190.509L-67.8274 488.665L-185.87 1273.62ZM-183.762 1275.3L-184.556 1274.67L-66.5141 489.711L690.88 192.17L1327.24 699.323L1206.22 1504L467.416 1794.25L464.925 1792.26L1193.61 1506.01L1313.51 708.769L683.031 206.33L-67.3352 501.105L-183.762 1275.3ZM-181.662 1276.97L-182.449 1276.35L-66.022 502.152L682.782 207.99L1311.94 709.383L1192.29 1504.96L463.612 1791.22L461.122 1789.23L1179.68 1506.95L1298.2 718.841L674.946 222.138L-66.8406 513.546L-181.662 1276.97ZM-179.553 1278.65L-180.349 1278.02L-65.5274 514.592L674.696 223.798L1296.63 719.455L1178.36 1505.9L459.809 1788.19L457.328 1786.21L1165.75 1507.91L1282.9 728.912L666.85 237.958L-66.3562 525.998L-179.553 1278.65ZM-177.441 1280.34L-178.24 1279.7L-65.043 527.045L666.6 239.618L1281.34 729.526L1164.43 1506.86L456.015 1785.16L453.527 1783.18L1151.81 1508.85L1267.6 738.972L658.763 253.766L-65.8618 538.439L-177.441 1280.34ZM-175.332 1282.02L-176.128 1281.38L-64.5486 539.485L658.514 255.426L1266.04 739.586L1150.5 1507.8L452.214 1782.13L449.722 1780.15L1137.88 1509.8L1252.3 749.04L650.667 269.584L-65.3789 550.878L-175.332 1282.02ZM-173.225 1283.7L-174.019 1283.06L-64.0657 551.925L650.417 271.244L1250.74 749.654L1136.57 1508.76L448.409 1779.1L445.918 1777.12L1123.95 1510.75L1236.99 759.113L642.579 285.392L-64.8867 563.319L-173.225 1283.7ZM-171.116 1285.38L-171.912 1284.74L-63.5736 564.366L642.329 287.053L1235.43 759.727L1122.64 1509.7L444.605 1776.07L442.124 1774.09L1110.02 1511.7L1221.69 769.184L634.483 301.212L-64.3924 575.759L-171.116 1285.38ZM-169.007 1287.06L-169.802 1286.43L-63.0793 576.806L634.233 302.873L1220.13 769.798L1108.71 1510.66L440.811 1773.05L438.321 1771.06L1096.09 1512.66L1206.4 779.244L626.397 317.02L-63.9093 588.201L-169.007 1287.06ZM-166.897 1288.74L-167.693 1288.11L-62.5961 589.248L626.147 318.681L1204.83 779.858L1094.78 1511.61L437.008 1770.02L434.518 1768.03L1082.17 1513.6L1191.09 789.316L618.301 332.84L-63.4137 600.653L-166.897 1288.74ZM-164.788 1290.42L-165.584 1289.79L-62.1005 601.699L618.051 334.501L1189.52 789.93L1080.86 1512.56L433.204 1766.98L430.713 1765L1068.24 1514.56L1175.79 799.385L610.214 348.646L-62.9307 613.092L-164.788 1290.42ZM-162.679 1292.1L-163.475 1291.47L-61.6175 614.139L609.965 350.307L1174.23 799.999L1066.93 1513.51L429.4 1763.95L426.918 1761.97L1054.31 1515.5L1160.49 809.444L602.118 364.466L-62.4364 625.532L-162.679 1292.1ZM-160.572 1293.78L-161.366 1293.15L-61.1232 626.579L601.868 366.127L1158.93 810.058L1053 1514.45L425.605 1760.93L423.117 1758.95L1040.38 1516.46L1145.19 819.516L594.03 380.275L-61.9442 637.973L-160.572 1293.78ZM-158.463 1295.46L-159.258 1294.83L-60.6311 639.02L593.78 381.935L1143.63 820.13L1039.06 1515.41L421.804 1757.9L419.314 1755.91L1026.45 1517.41L1129.88 829.588L585.934 396.095L-61.4611 650.415L-158.463 1295.46ZM-156.353 1297.14L-157.15 1296.51L-60.1479 651.461L585.684 397.755L1128.32 830.202L1025.13 1516.36L418.001 1754.87L415.511 1752.88L1012.52 1518.36L1114.58 839.648L577.848 411.903L-60.9667 662.855L-156.353 1297.14ZM-154.252 1298.82L-155.04 1298.19L-59.6535 663.902L577.598 413.563L1113.02 840.262L1011.2 1517.31L414.198 1751.84L411.717 1749.86L998.587 1519.31L1099.29 849.719L569.751 427.712L-60.4708 675.307L-154.252 1298.82ZM-152.144 1300.5L-152.939 1299.86L-59.1577 676.354L569.501 429.373L1097.72 850.333L997.274 1518.26L410.404 1748.81L407.912 1746.83L984.656 1520.25L1083.98 859.789L561.666 443.529L-59.9879 687.746L-152.144 1300.5ZM-150.035 1302.18L-150.831 1301.54L-58.6748 688.793L561.416 445.189L1082.41 860.403L983.343 1519.21L406.598 1745.78L404.109 1743.8L970.726 1521.21L1068.68 869.849L553.568 459.338L-59.4936 700.187L-150.035 1302.18ZM-147.928 1303.86L-148.721 1303.23L-58.1804 701.233L553.319 460.999L1067.12 870.463L969.413 1520.16L402.796 1742.75L400.314 1740.77L956.793 1522.15L1053.38 879.92L545.481 475.157L-59.0126 712.629L-147.928 1303.86ZM-145.818 1305.54L-146.615 1304.9L-57.6994 713.675L545.232 476.818L1051.82 880.534L955.48 1521.11L399 1739.73L396.513 1737.74L942.863 1523.11L1038.08 889.991L537.384 490.967L-58.5183 725.069L-145.818 1305.54ZM-143.709 1307.22L-144.505 1306.59L-57.2051 726.116L537.134 492.627L1036.52 890.605L941.55 1522.06L395.2 1736.7L392.71 1734.71L928.933 1524.06L1022.77 900.063L529.299 506.786L-58.0239 737.51L-143.709 1307.22ZM-141.598 1308.9L-142.395 1308.27L-56.7108 738.556L529.049 508.446L1021.21 900.677L927.62 1523.02L391.397 1733.67L388.905 1731.68L915.002 1525.01L1007.47 910.121L521.202 522.593L-57.5398 749.96L-141.598 1308.9ZM-139.488 1310.58L-140.285 1309.95L-56.2265 751.007L520.952 524.253L1005.91 910.735L913.689 1523.96L387.592 1730.63L385.111 1728.66L901.072 1525.96L992.175 920.192L513.117 538.412L-57.0455 762.401L-139.488 1310.58ZM-137.38 1312.26L-138.175 1311.63L-55.7323 763.447L512.867 540.072L990.612 920.805L899.759 1524.91L383.798 1727.61L381.307 1725.63L887.141 1526.9L976.867 930.264L505.019 554.221L-56.5623 774.842L-137.38 1312.26ZM-135.272 1313.94L-136.066 1313.31L-55.249 775.889L504.77 555.881L975.304 930.878L885.828 1525.86L379.994 1724.58L377.504 1722.59L873.209 1527.86L961.565 940.324L496.932 570.04L-56.0701 787.283L-135.272 1313.94ZM-133.163 1315.63L-133.959 1314.99L-54.7569 788.33L496.683 571.701L960.003 940.938L871.896 1526.81L376.191 1721.55L373.702 1719.56L859.279 1528.82L946.268 950.395L488.835 585.849L-55.5758 799.723L-133.163 1315.63ZM-131.054 1317.31L-131.849 1316.67L-54.2626 800.77L488.585 587.51L944.705 951.009L857.966 1527.77L372.388 1718.52L369.909 1716.54L845.348 1529.76L930.97 960.466L480.75 601.668L-55.0926 812.165L-131.054 1317.31ZM-128.944 1318.99L-129.741 1318.35L-53.7794 813.212L480.5 603.329L929.407 961.08L844.035 1528.71L368.596 1715.49L366.104 1713.51L831.418 1530.71L915.66 970.525L472.653 617.475L-54.5973 824.615L-128.944 1318.99ZM-126.845 1320.66L-127.631 1320.03L-53.2841 825.661L472.403 619.136L914.097 971.139L830.104 1529.67L364.791 1712.46L362.3 1710.48L817.487 1531.66L900.363 980.595L464.568 633.294L-54.1138 837.056L-126.845 1320.66ZM-124.735 1322.34L-125.531 1321.71L-52.8006 838.103L464.318 634.955L898.8 981.209L816.174 1530.61L360.987 1709.43L358.507 1707.45L803.557 1532.61L885.065 990.667L456.471 649.103L-53.6195 849.497L-124.735 1322.34ZM-122.627 1324.02L-123.422 1323.39L-52.3063 850.543L456.221 650.764L883.502 991.28L802.244 1531.57L357.193 1706.41L354.702 1704.42L789.624 1533.56L869.753 1000.73L448.384 664.923L-53.1273 861.937L-122.627 1324.02ZM-120.519 1325.7L-121.314 1325.07L-51.8142 862.984L448.134 666.583L868.19 1001.34L788.31 1532.51L353.389 1703.38L350.899 1701.39L775.694 1534.51L854.455 1010.8L440.286 680.732L-52.6441 874.379L-120.519 1325.7ZM-118.409 1327.38L-119.205 1326.75L-51.3309 875.425L440.037 682.392L852.892 1011.41L774.381 1533.47L349.586 1700.35L347.097 1698.36L761.764 1535.47L839.158 1020.87L432.201 696.551L-52.1498 886.819L-118.409 1327.38ZM-116.301 1329.06L-117.096 1328.43L-50.8366 887.866L431.952 698.211L837.595 1021.48L760.451 1534.42L345.784 1697.32L343.3 1695.34L747.833 1536.41L823.859 1030.93L424.104 712.358L-51.6656 899.27L-116.301 1329.06ZM-114.191 1330.74L-114.988 1330.11L-50.3524 900.317L423.854 714.018L822.296 1031.54L746.519 1535.36L341.987 1694.29L339.5 1692.31L733.903 1537.37L808.55 1041L416.019 728.177L-51.1713 911.71L-114.191 1330.74ZM-112.081 1332.43L-112.878 1331.79L-49.8581 912.757L415.769 729.837L806.987 1041.61L732.59 1536.32L338.186 1691.26L335.696 1689.28L719.972 1538.31L793.252 1051.07L407.922 743.986L-50.677 924.151L-112.081 1332.43ZM-109.975 1334.1L-110.768 1333.47L-49.3638 925.197L407.672 745.647L791.689 1051.68L718.659 1537.26L334.383 1688.23L331.893 1686.25L706.04 1539.27L777.952 1061.14L399.835 759.805L-50.1959 936.593L-109.975 1334.1ZM-107.865 1335.79L-108.662 1335.15L-48.8828 937.639L399.585 761.466L776.39 1061.76L704.726 1538.22L330.58 1685.2L328.099 1683.22L692.11 1540.22L762.642 1071.2L391.737 775.615L-49.7016 949.033L-107.865 1335.79ZM-105.754 1337.47L-106.552 1336.83L-48.3884 950.08L391.488 777.275L761.08 1071.82L690.797 1539.17L326.786 1682.18L324.293 1680.19L678.178 1541.16L747.345 1081.27L383.652 791.431L-49.2076 961.471L-105.754 1337.47ZM-103.646 1339.15L-104.441 1338.51L-47.8944 962.518L383.403 793.092L745.782 1081.89L676.865 1540.12L322.98 1679.14L320.491 1677.16L664.249 1542.12L732.047 1091.34L375.555 807.241L-48.7244 973.913L-103.646 1339.15ZM-101.535 1340.83L-102.333 1340.19L-47.4112 974.96L375.305 808.901L730.484 1091.96L662.935 1541.07L319.178 1676.11L316.687 1674.13L650.317 1543.06L716.748 1101.4L367.469 823.049L-48.2288 986.365L-101.535 1340.83ZM-99.4277 1342.51L-100.222 1341.88L-46.9156 987.411L367.219 824.709L715.185 1102.02L649.004 1542.02L315.374 1673.08L312.895 1671.11L636.388 1544.02L701.439 1111.47L359.373 838.869L-47.7456 998.806L-99.4277 1342.51ZM-97.3273 1344.18L-98.1146 1343.56L-46.4324 999.853L359.123 840.529L699.877 1112.09L635.074 1542.97L311.582 1670.06L309.091 1668.07L622.455 1544.96L686.14 1121.55L351.285 854.677L-47.2531 1011.25L-97.3273 1344.18ZM-95.2177 1345.86L-96.0141 1345.23L-45.94 1012.29L351.035 856.338L684.577 1122.16L621.141 1543.92L307.778 1667.03L305.287 1665.04L608.524 1545.92L670.841 1131.6L343.189 870.495L-46.7591 1023.69L-95.2177 1345.86ZM-93.11 1347.54L-93.9046 1346.91L-45.4459 1024.73L342.939 872.156L669.278 1132.22L607.211 1544.87L303.974 1664L301.493 1662.02L594.595 1546.87L655.532 1141.68L335.102 886.303L-46.2759 1036.13L-93.11 1347.54ZM-91 1349.23L-91.7969 1348.59L-44.9627 1037.17L334.853 887.964L653.969 1142.29L593.281 1545.82L300.18 1660.97L297.689 1658.99L580.675 1547.81L640.234 1151.75L327.006 902.123L-45.7816 1048.57L-91 1349.23ZM-88.8919 1350.91L-89.6869 1350.27L-44.4684 1049.61L326.757 903.784L638.672 1152.36L579.361 1546.77L296.376 1657.94L293.887 1655.96L566.745 1548.77L624.936 1161.81L318.92 917.931L-45.2971 1061.02L-88.8919 1350.91ZM-86.7818 1352.59L-87.5787 1351.95L-43.9839 1062.07L318.671 919.592L623.373 1162.42L565.432 1547.72L292.574 1654.91L290.084 1652.93L552.814 1549.71L609.638 1171.88L310.824 933.751L-44.8028 1073.46L-86.7818 1352.59ZM-84.6736 1354.27L-85.4687 1353.63L-43.4896 1074.51L310.574 935.412L608.075 1172.49L551.501 1548.67L288.77 1651.88L286.289 1649.9L538.882 1550.67L594.327 1181.95L302.736 949.56L-44.3106 1085.9L-84.6736 1354.27ZM-82.5668 1355.95L-83.3605 1355.31L-42.9975 1086.95L302.486 951.22L592.764 1182.56L537.568 1549.62L284.976 1648.85L282.487 1646.87L524.952 1551.62L579.029 1192.02L294.64 965.378L-43.8277 1098.34L-82.5668 1355.95ZM-80.4567 1357.63L-81.2536 1356.99L-42.5145 1099.39L294.39 967.038L577.466 1192.63L523.638 1550.58L281.174 1645.83L278.683 1643.84L511.02 1552.57L563.73 1202.08L286.553 981.186L-43.3334 1110.78L-80.4567 1357.63ZM-78.3496 1359.31L-79.1436 1358.67L-42.0202 1111.83L286.304 982.846L562.167 1202.69L509.707 1551.52L277.37 1642.79L274.881 1640.81L497.091 1553.52L548.422 1212.15L278.457 997.006L-42.8502 1123.22L-78.3496 1359.31ZM-76.2387 1360.99L-77.0363 1360.35L-41.537 1124.27L278.208 998.666L546.859 1212.76L495.777 1552.48L273.568 1639.76L271.084 1637.78L483.159 1554.47L533.124 1222.22L270.371 1012.81L-42.3546 1135.67L-76.2387 1360.99ZM-74.1284 1362.67L-74.9254 1362.04L-41.0414 1136.72L270.122 1014.47L531.561 1222.84L481.846 1553.42L269.771 1636.74L267.283 1634.75L469.23 1555.42L517.825 1232.28L262.275 1028.63L-41.8603 1148.11L-74.1284 1362.67ZM-72.0241 1364.35L-72.8153 1363.72L-40.5471 1149.16L262.026 1030.29L516.262 1232.9L467.916 1554.37L265.969 1633.71L263.476 1631.72L455.296 1556.36L502.525 1242.35L254.187 1044.44L-41.3796 1160.55L-72.0241 1364.35ZM-69.9181 1366.03L-70.7108 1365.4L-40.0663 1161.6L253.937 1046.1L500.962 1242.96L453.983 1555.32L262.163 1630.67L259.675 1628.69L441.367 1557.32L487.217 1252.42L246.091 1060.26L-40.885 1172.99L-69.9181 1366.03ZM-67.8114 1367.71L-68.6049 1367.07L-39.5718 1174.04L245.841 1061.92L485.654 1253.04L440.053 1556.27L258.363 1627.65L255.883 1625.67L427.437 1558.27L471.918 1262.48L238.005 1076.07L-40.4018 1185.44L-67.8114 1367.71ZM-65.7011 1369.39L-66.4981 1368.75L-39.0885 1186.48L237.755 1077.73L470.355 1263.1L426.124 1557.23L254.569 1624.62L252.077 1622.64L413.506 1559.22L456.62 1272.55L229.909 1091.89L-39.9074 1197.88L-65.7011 1369.39ZM-63.5894 1371.07L-64.3878 1370.43L-38.5942 1198.92L229.659 1093.55L455.057 1273.17L412.192 1558.17L250.764 1621.59L248.278 1619.61L399.576 1560.17L441.312 1282.63L221.823 1107.7L-39.4118 1210.33L-63.5894 1371.07ZM-61.4849 1372.75L-62.2763 1372.12L-38.0987 1211.38L221.573 1109.36L439.749 1283.24L398.262 1559.13L246.964 1618.56L244.478 1616.58L385.642 1561.12L426.01 1292.69L213.724 1123.52L-38.9308 1222.77L-61.4849 1372.75ZM-59.3748 1374.43L-60.1718 1373.79L-37.6177 1223.82L213.475 1125.18L424.447 1293.3L384.329 1560.07L243.165 1615.53L240.675 1613.55L371.712 1562.07L410.713 1302.75L205.638 1139.32L-38.4367 1235.21L-59.3748 1374.43ZM-57.2642 1376.11L-58.0617 1375.48L-37.1236 1236.26L205.388 1140.98L409.15 1303.37L370.399 1561.03L239.362 1612.5L236.875 1610.52L357.782 1563.03L395.404 1312.83L197.542 1155.14L-37.9425 1247.65L-57.2642 1376.11ZM-55.1583 1377.79L-55.951 1377.16L-36.6293 1248.7L197.292 1156.8L393.841 1313.44L356.469 1561.98L235.562 1609.48L233.07 1607.49L343.851 1563.97L380.106 1322.9L189.456 1170.95L-37.4592 1260.09L-55.1583 1377.79ZM-53.0478 1379.47L-53.8452 1378.84L-36.146 1261.14L189.206 1172.61L378.543 1323.51L342.538 1562.93L231.757 1606.44L229.276 1604.47L329.921 1564.93L364.807 1332.96L181.36 1186.77L-36.9649 1272.53L-53.0478 1379.47ZM-50.9408 1381.15L-51.7347 1380.52L-35.6518 1273.58L181.11 1188.43L363.244 1333.57L328.608 1563.88L227.962 1603.42L225.472 1601.43L315.99 1565.87L349.51 1343.03L173.274 1202.58L-36.4805 1284.98L-50.9408 1381.15ZM-48.8301 1382.83L-49.6277 1382.2L-35.1673 1286.03L173.024 1204.24L347.947 1343.64L314.677 1564.82L224.159 1600.39L221.672 1598.41L302.061 1566.83L334.201 1353.1L165.178 1218.4L-35.9862 1297.42L-48.8301 1382.83ZM-46.7215 1384.51L-47.5169 1383.88L-34.673 1298.47L164.928 1220.06L332.638 1353.71L300.747 1565.78L220.359 1597.36L217.864 1595.37L288.127 1567.77L318.9 1363.16L157.089 1234.21L-35.4943 1309.86L-46.7215 1384.51ZM-44.6167 1386.19L-45.4083 1385.56L-34.1811 1310.91L156.839 1235.87L317.337 1363.77L286.814 1566.72L216.551 1594.33L214.069 1592.35L274.197 1568.72L303.602 1373.23L148.992 1250.01L-35.0111 1322.3L-44.6167 1386.19ZM-42.5083 1387.87L-43.3035 1387.24L-33.6978 1323.35L148.742 1251.68L302.039 1373.84L272.884 1567.68L212.756 1591.3L210.271 1589.32L260.268 1569.68L288.294 1383.3L140.907 1265.83L-34.5165 1334.75L-42.5083 1387.87ZM-40.404 1389.55L-41.1951 1388.92L-33.2033 1335.79L140.657 1267.49L286.731 1383.92L258.954 1568.63L208.957 1588.27L206.466 1586.29L246.336 1570.62L272.995 1393.36L132.81 1281.64L-34.0333 1347.19L-40.404 1389.55ZM-38.2902 1391.23L-39.0908 1390.59L-32.7201 1348.23L132.56 1283.3L271.432 1393.98L245.023 1569.58L205.152 1585.24L202.669 1583.26L232.407 1571.58L257.697 1403.43L124.725 1297.46L-33.5377 1359.64L-38.2902 1391.23ZM-36.1805 1392.91L-36.9771 1392.28L-32.2245 1360.68L124.475 1299.12L256.134 1404.05L231.093 1570.53L201.356 1582.22L198.861 1580.23L218.473 1572.52L242.397 1413.5L116.625 1313.27L-33.0457 1372.08L-36.1805 1392.91ZM-34.0771 1394.59L-34.8674 1393.96L-31.7326 1373.12L116.376 1314.93L240.834 1414.12L217.16 1571.48L197.548 1579.18L195.064 1577.2L204.543 1573.48L227.087 1423.56L108.54 1329.09L-32.5626 1384.52L-34.0771 1394.59ZM193.751 1576.15L-32.7639 1395.64L-31.2494 1385.57L108.291 1330.75L225.524 1424.18L203.23 1572.43L193.751 1576.15Z" fill="url(#paint0_radial_1328_4543)"/>
<defs>
<radialGradient id="paint0_radial_1328_4543" cx="0" cy="0" r="1" gradientUnits="userSpaceOnUse" gradientTransform="translate(602.58 358.855) rotate(47.2988) scale(344.12 298.566)">
<stop stop-color="#4B5C75"/>
<stop offset="1" stop-color="#1E2E45"/>
</radialGradient>
</defs>
</svg>
