<svg width="27" height="21" viewBox="0 0 27 21" fill="none" xmlns="http://www.w3.org/2000/svg">
<path d="M11.8574 15.8789C11.8574 17.1289 11.3496 18.2227 10.334 19.1602C9.33789 20.0977 8.15625 20.5664 6.78906 20.5664C4.64062 20.5664 2.99023 19.8535 1.83789 18.4277C0.685547 17.002 0.109375 15.0293 0.109375 12.5098C0.109375 10.166 1.0957 7.80273 3.06836 5.41992C5.06055 3.03711 7.45312 1.23047 10.2461 0L11.5352 2.08008C9.32812 3.1543 7.59961 4.4043 6.34961 5.83008C5.09961 7.25586 4.37695 8.98438 4.18164 11.0156H5.82227C7.0332 11.0156 8.01953 11.1523 8.78125 11.4258C9.54297 11.6992 10.1582 12.0801 10.627 12.5684C11.0762 13.0371 11.3887 13.5547 11.5645 14.1211C11.7598 14.6875 11.8574 15.2734 11.8574 15.8789ZM26.3008 15.8789C26.3008 17.1289 25.793 18.2227 24.7773 19.1602C23.7812 20.0977 22.5996 20.5664 21.2324 20.5664C19.084 20.5664 17.4336 19.8535 16.2812 18.4277C15.1289 17.002 14.5527 15.0293 14.5527 12.5098C14.5527 10.166 15.5391 7.80273 17.5117 5.41992C19.5039 3.03711 21.8965 1.23047 24.6895 0L25.9785 2.08008C23.7715 3.1543 22.043 4.4043 20.793 5.83008C19.543 7.25586 18.8203 8.98438 18.625 11.0156H20.2656C21.4766 11.0156 22.4629 11.1523 23.2246 11.4258C23.9863 11.6992 24.6016 12.0801 25.0703 12.5684C25.5195 13.0371 25.832 13.5547 26.0078 14.1211C26.2031 14.6875 26.3008 15.2734 26.3008 15.8789Z" fill="#578FFF"/>
</svg>
