<?xml version="1.0" encoding="utf-8"?>
<!-- Generator: Adobe Illustrator 25.0.0, SVG Export Plug-In . SVG Version: 6.00 Build 0)  -->
<svg version="1.1" id="Layer_1" xmlns="http://www.w3.org/2000/svg" xmlns:xlink="http://www.w3.org/1999/xlink" x="0px" y="0px"
	 viewBox="0 0 200 200" style="enable-background:new 0 0 200 200;" xml:space="preserve">
<style type="text/css">
	.st0{fill:#53565C;}
</style>
<g transform="rotate(0 50 50)">
	<path class="st0" d="M100,48L100,48c3.3,0,6,5.4,6,12l0,0c0,6.6-2.7,12-6,12l0,0c-3.3,0-6-5.4-6-12l0,0C94,53.4,96.7,48,100,48z	">
<animate  accumulate="none" additive="replace" attributeName="opacity" begin="-0.9166666666666666s" calcMode="linear" dur="1s" fill="remove" keyTimes="0;1" repeatCount="indefinite" restart="always" values="1;0">
			</animate>
	</path>
</g>
<g transform="rotate(30 50 50)">
	<path class="st0" d="M118.3,16.3L118.3,16.3c3.3,0,6,5.4,6,12l0,0c0,6.6-2.7,12-6,12l0,0c-3.3,0-6-5.4-6-12l0,0
		C112.3,21.7,115,16.3,118.3,16.3z	">
<animate  accumulate="none" additive="replace" attributeName="opacity" begin="-0.8333333333333334s" calcMode="linear" dur="1s" fill="remove" keyTimes="0;1" repeatCount="indefinite" restart="always" values="1;0">
			</animate>
	</path>
</g>
<g transform="rotate(60 50 50)">
	<path class="st0" d="M118.3-20.3L118.3-20.3c3.3,0,6,5.4,6,12l0,0c0,6.6-2.7,12-6,12l0,0c-3.3,0-6-5.4-6-12l0,0
		C112.3-14.9,115-20.3,118.3-20.3z	">
<animate  accumulate="none" additive="replace" attributeName="opacity" begin="-0.75s" calcMode="linear" dur="1s" fill="remove" keyTimes="0;1" repeatCount="indefinite" restart="always" values="1;0">
			</animate>
	</path>
</g>
<g transform="rotate(90 50 50)">
	<path class="st0" d="M100-52L100-52c3.3,0,6,5.4,6,12l0,0c0,6.6-2.7,12-6,12l0,0c-3.3,0-6-5.4-6-12l0,0C94-46.6,96.7-52,100-52z	">
<animate  accumulate="none" additive="replace" attributeName="opacity" begin="-0.6666666666666666s" calcMode="linear" dur="1s" fill="remove" keyTimes="0;1" repeatCount="indefinite" restart="always" values="1;0">
			</animate>
	</path>
</g>
<g transform="rotate(120 50 50)">
	<path class="st0" d="M68.3-70.3L68.3-70.3c3.3,0,6,5.4,6,12l0,0c0,6.6-2.7,12-6,12l0,0c-3.3,0-6-5.4-6-12l0,0
		C62.3-64.9,65-70.3,68.3-70.3z	">
<animate  accumulate="none" additive="replace" attributeName="opacity" begin="-0.5833333333333334s" calcMode="linear" dur="1s" fill="remove" keyTimes="0;1" repeatCount="indefinite" restart="always" values="1;0">
			</animate>
	</path>
</g>
<g transform="rotate(150 50 50)">
	<path class="st0" d="M31.7-70.3L31.7-70.3c3.3,0,6,5.4,6,12l0,0c0,6.6-2.7,12-6,12l0,0c-3.3,0-6-5.4-6-12l0,0
		C25.7-64.9,28.4-70.3,31.7-70.3z	">
<animate  accumulate="none" additive="replace" attributeName="opacity" begin="-0.5s" calcMode="linear" dur="1s" fill="remove" keyTimes="0;1" repeatCount="indefinite" restart="always" values="1;0">
			</animate>
	</path>
</g>
<g transform="rotate(180 50 50)">
	<path class="st0" d="M0-52L0-52c3.3,0,6,5.4,6,12l0,0c0,6.6-2.7,12-6,12l0,0c-3.3,0-6-5.4-6-12l0,0C-6-46.6-3.3-52,0-52z	">
<animate  accumulate="none" additive="replace" attributeName="opacity" begin="-0.4166666666666667s" calcMode="linear" dur="1s" fill="remove" keyTimes="0;1" repeatCount="indefinite" restart="always" values="1;0">
			</animate>
	</path>
</g>
<g transform="rotate(210 50 50)">
	<path class="st0" d="M-18.3-20.3L-18.3-20.3c3.3,0,6,5.4,6,12l0,0c0,6.6-2.7,12-6,12l0,0c-3.3,0-6-5.4-6-12l0,0
		C-24.3-14.9-21.6-20.3-18.3-20.3z	">
<animate  accumulate="none" additive="replace" attributeName="opacity" begin="-0.3333333333333333s" calcMode="linear" dur="1s" fill="remove" keyTimes="0;1" repeatCount="indefinite" restart="always" values="1;0">
			</animate>
	</path>
</g>
<g transform="rotate(240 50 50)">
	<path class="st0" d="M-18.3,16.3L-18.3,16.3c3.3,0,6,5.4,6,12l0,0c0,6.6-2.7,12-6,12l0,0c-3.3,0-6-5.4-6-12l0,0
		C-24.3,21.7-21.6,16.3-18.3,16.3z	">
<animate  accumulate="none" additive="replace" attributeName="opacity" begin="-0.25s" calcMode="linear" dur="1s" fill="remove" keyTimes="0;1" repeatCount="indefinite" restart="always" values="1;0">
			</animate>
	</path>
</g>
<g transform="rotate(270 50 50)">
	<path class="st0" d="M0,48L0,48c3.3,0,6,5.4,6,12l0,0c0,6.6-2.7,12-6,12l0,0c-3.3,0-6-5.4-6-12l0,0C-6,53.4-3.3,48,0,48z	">
<animate  accumulate="none" additive="replace" attributeName="opacity" begin="-0.16666666666666666s" calcMode="linear" dur="1s" fill="remove" keyTimes="0;1" repeatCount="indefinite" restart="always" values="1;0">
			</animate>
	</path>
</g>
<g transform="rotate(300 50 50)">
	<path class="st0" d="M31.7,66.3L31.7,66.3c3.3,0,6,5.4,6,12l0,0c0,6.6-2.7,12-6,12l0,0c-3.3,0-6-5.4-6-12l0,0
		C25.7,71.7,28.4,66.3,31.7,66.3z	">
<animate  accumulate="none" additive="replace" attributeName="opacity" begin="-0.08333333333333333s" calcMode="linear" dur="1s" fill="remove" keyTimes="0;1" repeatCount="indefinite" restart="always" values="1;0">
			</animate>
	</path>
</g>
<g transform="rotate(330 50 50)">
	<path class="st0" d="M68.3,66.3L68.3,66.3c3.3,0,6,5.4,6,12l0,0c0,6.6-2.7,12-6,12l0,0c-3.3,0-6-5.4-6-12l0,0
		C62.3,71.7,65,66.3,68.3,66.3z	">
<animate  accumulate="none" additive="replace" attributeName="opacity" begin="0s" calcMode="linear" dur="1s" fill="remove" keyTimes="0;1" repeatCount="indefinite" restart="always" values="1;0">
			</animate>
	</path>
</g>
</svg>
