<?xml version="1.0" encoding="UTF-8"?>
<svg width="24px" height="24px" viewBox="0 0 24 24" version="1.1" xmlns="http://www.w3.org/2000/svg" xmlns:xlink="http://www.w3.org/1999/xlink">
    <title>twitter-icn</title>
    <g id="Page-1" stroke="none" stroke-width="1" fill="none" fill-rule="evenodd">
        <g id="Idena_website/02c_invitation_options" transform="translate(-434.000000, -388.000000)">
            <g id="Group-13" transform="translate(420.000000, 380.000000)">
                <g id="Group-12" transform="translate(14.000000, 8.000000)">
                    <rect id="twitter-icn" fill="#D8D8D8" fill-rule="nonzero" opacity="0" x="0" y="0" width="24" height="24"></rect>
                    <path d="M18.49314,8.04642 C19.18398,7.63668 19.70076,6.99354 19.94754,6.23628 C19.29588,6.61896 18.5826,6.88866 17.83872,7.03368 C16.81104,5.953902 15.17724,5.688726 13.85334,6.38682 C12.52944,7.08492 11.8446,8.57274 12.18282,10.0161 C9.51582,9.88428 7.03104,8.64072 5.347332,6.59508 C4.467588,8.09082 4.916784,10.00374 6.37344,10.965 C5.846832,10.94964 5.331558,10.8102 4.870626,10.55832 L4.870626,10.59822 C4.88109,12.14802 5.990088,13.47876 7.52886,13.78794 C7.04142,13.9185 6.53016,13.93758 6.03414,13.84374 C6.46842,15.1755 7.71138,16.0884 9.1287,16.11642 C7.9539,17.02788 6.50232,17.52228 5.007978,17.51988 C4.737924,17.51988 4.468116,17.50392 4.2,17.47206 C7.1037,19.32234 10.80042,19.45638 13.8339,17.82144 C16.86732,16.18644 18.75132,13.04448 18.74364,9.6333 C18.74364,9.48978 18.74364,9.3489 18.74364,9.21066 C19.39242,8.75112 19.95324,8.18136 20.4,7.52808 C19.79424,7.79406 19.15146,7.96878 18.49314,8.04642 Z" id="Path" fill="#FFFFFF"></path>
                </g>
            </g>
        </g>
    </g>
</svg>